<?xml version="1.0" encoding="utf-8"?>
<!-- Generator: Adobe Illustrator 22.1.0, SVG Export Plug-In . SVG Version: 6.00 Build 0)  -->
<svg version="1.1" id="Layer_1" xmlns="http://www.w3.org/2000/svg" xmlns:xlink="http://www.w3.org/1999/xlink" x="0px" y="0px"
	 viewBox="0 0 104.7 117.9" style="enable-background:new 0 0 104.7 117.9;" xml:space="preserve">
<style type="text/css">
	.st0{display:none;}
	.st1{display:inline;}
	.st2{fill:#FFFFFF;}
	.st3{fill:#4B4B4B;}
	.st4{fill:#175C85;}
	.st5{fill:#FFFFFF;stroke:#FFFFFF;stroke-width:2;stroke-miterlimit:10;}
</style>
<g class="st0">
	<g class="st1">
		<path class="st2" d="M41.8,34c-0.2,0.2-0.5,0.5-0.8,0.7c-0.1,0.1-0.3,0.2-0.4,0.3c-0.3,0.2-0.6,0.4-0.9,0.6
			c-0.1,0.1-0.3,0.2-0.4,0.3c-0.4,0.2-0.8,0.5-1.2,0.7c-0.1,0-0.2,0.1-0.3,0.2c-0.5,0.3-1.1,0.5-1.7,0.8c-0.1,0.1-0.2,0.1-0.4,0.2
			c-0.5,0.2-0.9,0.4-1.4,0.6c-0.2,0.1-0.4,0.1-0.6,0.2c-0.5,0.2-0.9,0.3-1.4,0.5c-0.2,0.1-0.4,0.1-0.6,0.2c-0.5,0.2-1.1,0.3-1.7,0.4
			c-0.2,0-0.3,0.1-0.5,0.1c-0.7,0.2-1.5,0.3-2.3,0.5c-0.1,0-0.2,0-0.2,0c-0.7,0.1-1.4,0.2-2.1,0.3c-0.2,0-0.5,0.1-0.7,0.1
			c-0.6,0.1-1.2,0.1-1.8,0.2c-0.3,0-0.5,0-0.8,0.1c-0.6,0.1-1.3,0.1-1.9,0.1c-0.2,0-0.4,0-0.7,0c-0.9,0-1.8,0.1-2.7,0.1
			c-0.9,0-1.8,0-2.7-0.1c-0.2,0-0.5,0-0.7,0c-0.6,0-1.3-0.1-1.9-0.1c-0.3,0-0.6,0-0.8-0.1c-0.6-0.1-1.2-0.1-1.7-0.2
			c-0.3,0-0.5-0.1-0.8-0.1c-0.7-0.1-1.4-0.2-2-0.3c-0.1,0-0.2,0-0.3-0.1c-0.8-0.1-1.5-0.3-2.3-0.5c-0.2,0-0.4-0.1-0.6-0.1
			c-0.5-0.1-1-0.2-1.5-0.4c-0.2-0.1-0.5-0.1-0.7-0.2c-0.5-0.1-0.9-0.3-1.3-0.4c-0.2-0.1-0.4-0.2-0.7-0.2c-0.5-0.2-0.9-0.4-1.4-0.5
			c-0.1-0.1-0.3-0.1-0.4-0.2c-0.6-0.3-1.1-0.5-1.6-0.8c-0.1-0.1-0.2-0.1-0.3-0.2c-0.4-0.2-0.8-0.5-1.2-0.7c-0.2-0.1-0.3-0.2-0.4-0.3
			c-0.3-0.2-0.6-0.4-0.9-0.6C-8,35-8.2,34.9-8.3,34.8c-0.3-0.2-0.5-0.5-0.8-0.7c-0.1-0.1-0.2-0.2-0.3-0.3c-0.3-0.3-0.6-0.7-0.8-1
			v9.4C-10.3,48,1.9,53,16.4,53C30.8,53,43,48,43,42.1v-9.4c-0.2,0.3-0.5,0.7-0.8,1C42,33.8,41.9,33.9,41.8,34z"/>
		<path class="st2" d="M41.8,47.1c-0.2,0.2-0.5,0.5-0.7,0.7c-0.1,0.1-0.3,0.2-0.4,0.3c-0.3,0.2-0.6,0.4-0.8,0.6
			c-0.2,0.1-0.3,0.2-0.5,0.3c-0.4,0.2-0.7,0.4-1.1,0.7c-0.1,0.1-0.2,0.1-0.3,0.2c-0.5,0.3-1.1,0.5-1.6,0.8c-0.1,0.1-0.3,0.1-0.5,0.2
			c-0.4,0.2-0.9,0.4-1.3,0.5c-0.2,0.1-0.4,0.2-0.7,0.2c-0.4,0.1-0.9,0.3-1.3,0.4c-0.2,0.1-0.5,0.1-0.7,0.2c-0.5,0.1-1,0.3-1.5,0.4
			c-0.2,0.1-0.4,0.1-0.6,0.2c-0.7,0.2-1.5,0.3-2.2,0.5c-0.1,0-0.3,0-0.4,0.1c-0.6,0.1-1.3,0.2-1.9,0.3c-0.3,0-0.5,0.1-0.8,0.1
			c-0.5,0.1-1.1,0.1-1.7,0.2c-0.3,0-0.6,0.1-0.9,0.1c-0.6,0-1.2,0.1-1.8,0.1c-0.3,0-0.5,0-0.8,0c-0.9,0-1.8,0.1-2.7,0.1
			c-0.9,0-1.8,0-2.7-0.1c-0.3,0-0.5,0-0.8,0c-0.6,0-1.2-0.1-1.8-0.1C10.8,54,10.5,54,10.2,54c-0.6-0.1-1.1-0.1-1.7-0.2
			c-0.3,0-0.5-0.1-0.8-0.1c-0.7-0.1-1.3-0.2-1.9-0.3c-0.1,0-0.3,0-0.4-0.1c-0.8-0.1-1.5-0.3-2.2-0.5c-0.2,0-0.4-0.1-0.6-0.2
			c-0.5-0.1-1-0.3-1.5-0.4c-0.2-0.1-0.5-0.1-0.7-0.2c-0.4-0.1-0.9-0.3-1.3-0.4c-0.2-0.1-0.4-0.2-0.7-0.2C-2.1,51.2-2.5,51-3,50.9
			c-0.2-0.1-0.3-0.1-0.5-0.2c-0.6-0.3-1.1-0.5-1.6-0.8c-0.1-0.1-0.2-0.1-0.3-0.2c-0.4-0.2-0.8-0.4-1.1-0.7c-0.2-0.1-0.3-0.2-0.5-0.3
			c-0.3-0.2-0.6-0.4-0.9-0.6C-8,48-8.2,47.9-8.3,47.8c-0.3-0.2-0.5-0.5-0.7-0.7c-0.1-0.1-0.2-0.2-0.3-0.3c-0.3-0.3-0.6-0.7-0.8-1
			v9.4c0,5.9,12.2,10.9,26.6,10.9s26.6-5,26.6-10.9v-9.4c-0.2,0.3-0.5,0.7-0.8,1C42,46.9,41.9,47,41.8,47.1z"/>
		<path class="st2" d="M41.8,21c-0.2,0.2-0.5,0.5-0.7,0.7c-0.1,0.1-0.3,0.2-0.4,0.3c-0.3,0.2-0.6,0.4-0.8,0.6
			c-0.2,0.1-0.3,0.2-0.5,0.3c-0.4,0.2-0.7,0.4-1.1,0.7c-0.1,0.1-0.2,0.1-0.3,0.2c-0.5,0.3-1.1,0.5-1.6,0.8c-0.1,0.1-0.3,0.1-0.5,0.2
			c-0.4,0.2-0.9,0.4-1.3,0.5c-0.2,0.1-0.4,0.2-0.7,0.2c-0.4,0.1-0.9,0.3-1.3,0.4c-0.2,0.1-0.5,0.1-0.7,0.2c-0.5,0.1-1,0.3-1.5,0.4
			c-0.2,0.1-0.4,0.1-0.6,0.2c-0.7,0.2-1.5,0.3-2.2,0.5c-0.1,0-0.3,0-0.4,0.1c-0.6,0.1-1.3,0.2-1.9,0.3c-0.3,0-0.5,0.1-0.8,0.1
			c-0.5,0.1-1.1,0.1-1.7,0.2c-0.3,0-0.6,0.1-0.9,0.1c-0.9,0-1.5,0-2.1,0c-0.3,0-0.5,0-0.8,0c-0.9,0-1.8,0.1-2.7,0.1
			c-0.9,0-1.8,0-2.7-0.1c-0.3,0-0.5,0-0.8,0c-0.6,0-1.2-0.1-1.8-0.1c-0.3,0-0.6-0.1-0.9-0.1c-0.6-0.1-1.1-0.1-1.7-0.2
			c-0.3,0-0.5-0.1-0.8-0.1c-0.7-0.1-1.3-0.2-1.9-0.3c-0.1,0-0.3,0-0.4-0.1c-0.8-0.1-1.5-0.3-2.2-0.5c-0.2,0-0.4-0.1-0.6-0.2
			C2,26.3,1.5,26.1,1,26c-0.2-0.1-0.5-0.1-0.7-0.2c-0.4-0.1-0.9-0.3-1.3-0.4c-0.2-0.1-0.4-0.2-0.7-0.2c-0.5-0.2-0.9-0.4-1.4-0.5
			c-0.2-0.1-0.3-0.1-0.5-0.2c-0.6-0.3-1.1-0.5-1.6-0.8c-0.1-0.1-0.2-0.1-0.3-0.2c-0.4-0.2-0.8-0.4-1.1-0.7c-0.2-0.1-0.3-0.2-0.5-0.3
			c-0.3-0.2-0.6-0.4-0.9-0.6c-0.1-0.1-0.3-0.2-0.4-0.3c-0.3-0.2-0.5-0.5-0.7-0.7c-0.1-0.1-0.2-0.2-0.3-0.3c-0.3-0.3-0.6-0.7-0.8-1
			V29c0,5.9,12.2,10.9,26.6,10.9S43,34.9,43,29v-9.4c-0.2,0.3-0.5,0.7-0.8,1C42,20.8,41.9,20.9,41.8,21z"/>
		<path class="st2" d="M41.8,7.9c-0.2,0.2-0.5,0.5-0.7,0.7c-0.1,0.1-0.3,0.2-0.4,0.3c-0.3,0.2-0.6,0.4-0.8,0.6
			c-0.2,0.1-0.3,0.2-0.5,0.3c-0.4,0.2-0.7,0.4-1.1,0.7c-0.1,0.1-0.2,0.1-0.3,0.2c-0.5,0.3-1.1,0.5-1.6,0.8c-0.1,0.1-0.3,0.1-0.5,0.2
			c-0.4,0.2-0.9,0.4-1.3,0.5c-0.2,0.1-0.4,0.2-0.7,0.2c-0.4,0.1-0.9,0.3-1.3,0.4C32.2,13,32,13,31.7,13.1c-0.5,0.1-1,0.3-1.5,0.4
			c-0.2,0.1-0.4,0.1-0.6,0.2c-0.7,0.2-1.5,0.3-2.2,0.5c-0.1,0-0.3,0-0.4,0.1c-0.6,0.1-1.3,0.2-1.9,0.3c-0.3,0-0.5,0.1-0.8,0.1
			c-0.5,0.1-1.1,0.1-1.7,0.2c-0.3,0-0.6,0.1-0.9,0.1c-0.6,0-1.2,0.1-1.8,0.1c-0.3,0-0.5,0-0.8,0c-0.9,0-1.8,0.1-2.7,0.1
			c-0.9,0-1.8,0-2.7-0.1c-0.3,0-0.5,0-0.8,0c-0.6,0-1.2-0.1-1.8-0.1c-0.3,0-0.6-0.1-0.9-0.1c-0.6-0.1-1.1-0.1-1.7-0.2
			c-0.3,0-0.5-0.1-0.8-0.1c-0.7-0.1-1.3-0.2-1.9-0.3c-0.1,0-0.3,0-0.4-0.1c-0.8-0.1-1.5-0.3-2.2-0.5c-0.2,0-0.4-0.1-0.6-0.2
			c-0.5-0.1-1-0.3-1.5-0.4C0.7,13,0.5,13,0.3,12.9c-0.4-0.1-0.9-0.3-1.3-0.4c-0.2-0.1-0.4-0.2-0.7-0.2c-0.5-0.2-0.9-0.4-1.4-0.5
			c-0.2-0.1-0.3-0.1-0.5-0.2c-0.6-0.3-1.1-0.5-1.6-0.8c-0.1-0.1-0.2-0.1-0.3-0.2c-0.4-0.2-0.8-0.4-1.1-0.7c-0.2-0.1-0.3-0.2-0.5-0.3
			C-7.4,9.4-7.7,9.2-8,9c-0.1-0.1-0.3-0.2-0.4-0.3C-8.7,8.5-8.9,8.2-9.1,8c-0.1-0.1-0.2-0.2-0.3-0.3c-0.3-0.3-0.6-0.7-0.8-1v9.4
			C-10.2,22,2,27,16.4,27S43,22,43,16.1V6.6c-0.2,0.3-0.5,0.7-0.8,1C42,7.7,41.9,7.8,41.8,7.9z"/>
		<path class="st2" d="M16.4-8.1C1.9-8.1-10.3-3-10.3,2.9c0,0.4,0,0.7,0.1,1.1c0.2,0.7,0.6,1.4,1.1,2.1c0.8,1,1.9,2,3.4,2.9
			c1,0.6,2.1,1.1,3.3,1.6c4.9,2,11.5,3.2,18.7,3.2s13.9-1.3,18.7-3.2c1.2-0.5,2.3-1,3.3-1.6c1.5-0.9,2.6-1.8,3.4-2.9
			c0.5-0.7,0.9-1.4,1.1-2.1C42.9,3.6,43,3.3,43,2.9C43-3.1,30.8-8.1,16.4-8.1z"/>
		<path class="st3" d="M16.4-9.3C0.7-9.3-11.5-4-11.5,2.9V16v13v13.1v13.1c0,6.8,12.2,12.2,27.9,12.2c15.6,0,27.9-5.4,27.9-12.2
			V42.1V29V15.9v-13C44.2-4,32-9.3,16.4-9.3z M43,55.1C43,61,30.8,66,16.4,66s-26.6-5-26.6-10.9v-9.4c0.2,0.3,0.5,0.7,0.8,1
			c0.1,0.1,0.2,0.2,0.3,0.3c0.2,0.2,0.5,0.5,0.7,0.7c0.1,0.1,0.3,0.2,0.4,0.3c0.3,0.2,0.6,0.4,0.9,0.6c0.2,0.1,0.3,0.2,0.5,0.3
			c0.4,0.2,0.7,0.5,1.1,0.7c0.1,0.1,0.2,0.1,0.3,0.2c0.5,0.3,1.1,0.5,1.6,0.8c0.1,0.1,0.3,0.1,0.5,0.2c0.4,0.2,0.9,0.4,1.4,0.5
			c0.2,0.1,0.4,0.2,0.7,0.2c0.4,0.1,0.9,0.3,1.3,0.4C0.5,52,0.8,52,1,52.1c0.5,0.1,1,0.3,1.5,0.4c0.2,0,0.4,0.1,0.6,0.2
			c0.7,0.2,1.5,0.3,2.2,0.5c0.1,0,0.3,0,0.4,0.1c0.6,0.1,1.3,0.2,1.9,0.3c0.3,0,0.5,0.1,0.8,0.1c0.6,0.1,1.1,0.1,1.7,0.2
			c0.3,0,0.6,0.1,0.9,0.1c0.6,0,1.2,0.1,1.8,0.1c0.3,0,0.5,0,0.8,0c0.9,0,1.8,0.1,2.7,0.1c0.9,0,1.8,0,2.7-0.1c0.3,0,0.5,0,0.8,0
			c0.6,0,1.2-0.1,1.8-0.1c0.3,0,0.6-0.1,0.9-0.1c0.6-0.1,1.1-0.1,1.7-0.2c0.3,0,0.5-0.1,0.8-0.1c0.7-0.1,1.3-0.2,1.9-0.3
			c0.1,0,0.3,0,0.4-0.1c0.8-0.1,1.5-0.3,2.2-0.5c0.2,0,0.4-0.1,0.6-0.2c0.5-0.1,1-0.3,1.5-0.4c0.2-0.1,0.5-0.1,0.7-0.2
			c0.4-0.1,0.9-0.3,1.3-0.4c0.2-0.1,0.5-0.2,0.7-0.2c0.5-0.2,0.9-0.3,1.3-0.5c0.2-0.1,0.3-0.1,0.5-0.2c0.6-0.3,1.1-0.5,1.6-0.8
			c0.1-0.1,0.2-0.1,0.3-0.2c0.4-0.2,0.8-0.4,1.1-0.7c0.2-0.1,0.3-0.2,0.5-0.3c0.3-0.2,0.6-0.4,0.8-0.6c0.1-0.1,0.3-0.2,0.4-0.3
			c0.3-0.2,0.5-0.5,0.7-0.7c0.1-0.1,0.2-0.2,0.3-0.3c0.3-0.3,0.6-0.7,0.8-1v9.4H43z M43,42.1C43,48,30.8,53,16.4,53
			s-26.6-5-26.6-10.9v-9.4c0.2,0.3,0.5,0.7,0.8,1c0.1,0.1,0.2,0.2,0.3,0.3c0.2,0.2,0.5,0.5,0.8,0.7c0.1,0.1,0.3,0.2,0.4,0.3
			c0.3,0.2,0.6,0.4,0.9,0.6c0.1,0.1,0.3,0.2,0.4,0.3c0.4,0.2,0.8,0.5,1.2,0.7c0.1,0.1,0.2,0.1,0.3,0.2c0.5,0.3,1.1,0.5,1.6,0.8
			c0.1,0.1,0.3,0.1,0.4,0.2c0.4,0.2,0.9,0.4,1.4,0.5c0.2,0.1,0.4,0.2,0.7,0.2c0.4,0.2,0.9,0.3,1.3,0.4C0.5,39,0.8,39,1,39.1
			c0.5,0.1,1,0.3,1.6,0.4c0.2,0,0.4,0.1,0.6,0.1c0.7,0.2,1.5,0.3,2.3,0.5c0.1,0,0.2,0,0.3,0.1c0.7,0.1,1.3,0.2,2,0.3
			c0.3,0,0.5,0.1,0.8,0.1c0.6,0.1,1.2,0.1,1.7,0.2c0.3,0,0.6,0.1,0.8,0.1C11.7,41,12.4,41,13,41c0.2,0,0.5,0,0.7,0
			c0.9,0,1.8,0.1,2.7,0.1s1.8,0,2.7-0.1c0.2,0,0.5,0,0.7,0c0.7,0,1.3-0.1,1.9-0.1c0.3,0,0.5,0,0.8-0.1c0.6-0.1,1.2-0.1,1.8-0.2
			c0.2,0,0.5-0.1,0.7-0.1c0.7-0.1,1.4-0.2,2.1-0.3c0.1,0,0.2,0,0.2,0c0.8-0.1,1.5-0.3,2.3-0.5c0.2,0,0.3-0.1,0.5-0.1
			c0.6-0.1,1.1-0.3,1.7-0.4c0.2-0.1,0.4-0.1,0.6-0.2c0.5-0.1,0.9-0.3,1.4-0.5c0.2-0.1,0.4-0.1,0.6-0.2c0.5-0.2,1-0.4,1.4-0.6
			c0.1-0.1,0.2-0.1,0.4-0.2c0.6-0.3,1.1-0.5,1.7-0.8c0.1,0,0.2-0.1,0.3-0.2c0.4-0.2,0.8-0.5,1.2-0.7c0.1-0.1,0.3-0.2,0.4-0.3
			c0.3-0.2,0.6-0.4,0.9-0.6c0.1-0.1,0.3-0.2,0.4-0.3c0.3-0.2,0.5-0.5,0.8-0.7c0.1-0.1,0.2-0.2,0.3-0.3c0.3-0.3,0.6-0.7,0.8-1
			C43,32.6,43,42.1,43,42.1z M43,29c0,5.9-12.2,10.9-26.6,10.9s-26.6-5-26.6-10.9v-9.4c0.2,0.3,0.5,0.7,0.8,1
			c0.1,0.1,0.2,0.2,0.3,0.3c0.2,0.2,0.5,0.5,0.7,0.7c0.1,0.1,0.3,0.2,0.4,0.3c0.3,0.2,0.6,0.4,0.9,0.6c0.2,0.1,0.3,0.2,0.5,0.3
			c0.4,0.2,0.7,0.5,1.1,0.7c0.1,0.1,0.2,0.1,0.3,0.2c0.5,0.3,1.1,0.5,1.6,0.8c0.1,0.1,0.3,0.1,0.5,0.2c0.4,0.2,0.9,0.4,1.4,0.5
			c0.2,0.1,0.4,0.2,0.7,0.2c0.4,0.1,0.9,0.3,1.3,0.4C0.5,25.9,0.8,25.9,1,26c0.5,0.1,1,0.3,1.5,0.4c0.2,0,0.4,0.1,0.6,0.2
			c0.7,0.2,1.5,0.3,2.2,0.5c0.1,0,0.3,0,0.4,0.1c0.6,0.1,1.3,0.2,1.9,0.3c0.3,0,0.5,0.1,0.8,0.1c0.6,0.1,1.1,0.1,1.7,0.2
			c0.3,0,0.6,0.1,0.9,0.1c0.6,0,1.2,0.1,1.8,0.1c0.3,0,0.5,0,0.8,0c0.9,0,1.8,0.1,2.7,0.1s1.8,0,2.7-0.1c0.3,0,0.5,0,0.8,0
			c0.6,0,1.2-0.1,1.8-0.1c0.3,0,0.6-0.1,0.9-0.1c0.6-0.1,1.1-0.1,1.7-0.2c0.3,0,0.5-0.1,0.8-0.1c0.7-0.1,1.3-0.2,1.9-0.3
			c0.1,0,0.3,0,0.4-0.1c0.8-0.1,1.5-0.3,2.2-0.5c0.2,0,0.4-0.1,0.6-0.2c0.5-0.1,1-0.3,1.5-0.4c0.2-0.1,0.5-0.1,0.7-0.2
			c0.4-0.1,0.9-0.3,1.3-0.4c0.2-0.1,0.5-0.2,0.7-0.2c0.5-0.2,0.9-0.3,1.3-0.5c0.2-0.1,0.3-0.1,0.5-0.2c0.6-0.3,1.1-0.5,1.6-0.8
			c0.1-0.1,0.2-0.1,0.3-0.2c0.4-0.2,0.8-0.4,1.1-0.7c0.2-0.1,0.3-0.2,0.5-0.3c0.3-0.2,0.6-0.4,0.8-0.6c0.1-0.1,0.3-0.2,0.4-0.3
			c0.3-0.2,0.5-0.5,0.7-0.7c0.1-0.1,0.2-0.2,0.3-0.3c0.3-0.3,0.6-0.7,0.8-1V29H43z M43,15.9c0,5.9-12.2,10.9-26.6,10.9
			s-26.6-5-26.6-10.9V6.6c0.2,0.3,0.5,0.7,0.8,1c0.1,0.1,0.2,0.2,0.3,0.3c0.2,0.2,0.5,0.5,0.7,0.7C-8.3,8.7-8.1,8.8-8,8.9
			c0.3,0.2,0.6,0.4,0.9,0.6c0.2,0.1,0.3,0.2,0.5,0.3c0.4,0.2,0.7,0.5,1.1,0.7c0.1,0.1,0.2,0.1,0.3,0.2c0.5,0.3,1.1,0.5,1.6,0.8
			c0.1,0.1,0.3,0.1,0.5,0.2c0.4,0.2,0.9,0.4,1.4,0.5c0.2,0.1,0.4,0.2,0.7,0.2c0.4,0.1,0.9,0.3,1.3,0.4C0.5,13,0.7,13,1,13.1
			c0.5,0.1,1,0.3,1.5,0.4c0.2,0,0.4,0.1,0.6,0.2c0.7,0.2,1.5,0.3,2.2,0.5c0.1,0,0.3,0,0.4,0.1c0.6,0.1,1.3,0.2,1.9,0.3
			c0.3,0,0.5,0.1,0.8,0.1c0.6,0.1,1.1,0.1,1.7,0.2c0.3,0,0.6,0.1,0.9,0.1c0.6,0,1.2,0.1,1.8,0.1c0.3,0,0.5,0,0.8,0
			c0.9,0,1.8,0.1,2.7,0.1c0.9,0,1.8,0,2.7-0.1c0.3,0,0.5,0,0.8,0c0.6,0,1.2-0.1,1.8-0.1c0.3,0,0.6-0.1,0.9-0.1
			c0.6-0.1,1.1-0.1,1.7-0.2c0.3,0,0.5-0.1,0.8-0.1c0.7-0.1,1.3-0.2,1.9-0.3c0.1,0,0.3,0,0.4-0.1c0.8-0.1,1.5-0.3,2.2-0.5
			c0.2,0,0.4-0.1,0.6-0.2c0.5-0.1,1-0.3,1.5-0.4c0.2-0.1,0.5-0.1,0.7-0.2c0.4-0.1,0.9-0.3,1.3-0.4c0.2-0.1,0.5-0.2,0.7-0.2
			c0.5-0.2,0.9-0.3,1.3-0.5c0.2-0.1,0.3-0.1,0.5-0.2c0.6-0.3,1.1-0.5,1.6-0.8c0.1-0.1,0.2-0.1,0.3-0.2c0.4-0.2,0.8-0.4,1.1-0.7
			c0.2-0.1,0.3-0.2,0.5-0.3c0.3-0.2,0.6-0.4,0.8-0.6c0.1-0.1,0.3-0.2,0.4-0.3c0.3-0.2,0.5-0.5,0.7-0.7c0.1-0.1,0.2-0.2,0.3-0.3
			c0.3-0.3,0.6-0.7,0.8-1v9.2C42.6,15.9,43,15.9,43,15.9z M42.8,4c-0.2,0.7-0.6,1.4-1.1,2.1c-0.8,1-1.9,2-3.4,2.9
			c-1,0.6-2.1,1.1-3.3,1.6c-4.8,2-11.5,3.2-18.7,3.2S2.4,12.5-2.4,10.6c-1.2-0.5-2.3-1-3.3-1.6C-7.1,8.1-8.2,7.1-9,6.1
			C-9.5,5.4-9.9,4.7-10.1,4c-0.1-0.4-0.1-0.7-0.1-1.1c-0.1-5.9,12.1-11,26.6-11c14.4,0,26.6,5,26.6,11C43,3.3,42.9,3.6,42.8,4z"/>
	</g>
	<g class="st1">
		<path class="st2" d="M63.3,53.6c-0.2,0.2-0.5,0.5-0.8,0.7c-0.1,0.1-0.3,0.2-0.4,0.3c-0.3,0.2-0.6,0.4-0.9,0.6
			c-0.1,0.1-0.3,0.2-0.4,0.3c-0.4,0.2-0.8,0.5-1.2,0.7c-0.1,0-0.2,0.1-0.3,0.2c-0.5,0.3-1.1,0.5-1.7,0.8c-0.1,0.1-0.2,0.1-0.4,0.2
			c-0.5,0.2-0.9,0.4-1.4,0.6c-0.2,0.1-0.4,0.1-0.6,0.2c-0.5,0.2-0.9,0.3-1.4,0.5c-0.2,0.1-0.4,0.1-0.6,0.2c-0.5,0.2-1.1,0.3-1.7,0.4
			c-0.2,0-0.3,0.1-0.5,0.1c-0.7,0.2-1.5,0.3-2.3,0.5c-0.1,0-0.2,0-0.2,0c-0.7,0.1-1.4,0.2-2.1,0.3c-0.2,0-0.5,0.1-0.7,0.1
			c-0.6,0.1-1.2,0.1-1.8,0.2c-0.3,0-0.5,0-0.8,0.1c-0.6,0.1-1.3,0.1-1.9,0.1c-0.2,0-0.4,0-0.7,0c-0.9,0-1.8,0.1-2.7,0.1
			s-1.8,0-2.7-0.1c-0.2,0-0.5,0-0.7,0c-0.6,0-1.3-0.1-1.9-0.1c-0.3,0-0.6,0-0.8-0.1c-0.6-0.1-1.2-0.1-1.7-0.2
			c-0.3,0-0.5-0.1-0.8-0.1c-0.7-0.1-1.4-0.2-2-0.3c-0.1,0-0.2,0-0.3-0.1c-0.8-0.1-1.5-0.3-2.3-0.5c-0.2,0-0.4-0.1-0.6-0.1
			c-0.5-0.1-1.1-0.3-1.6-0.4c-0.2-0.1-0.5-0.1-0.7-0.2c-0.5-0.1-0.9-0.3-1.3-0.4C20.2,58.1,20,58,19.7,58c-0.5-0.2-0.9-0.4-1.4-0.5
			c-0.1-0.1-0.3-0.1-0.4-0.2c-0.6-0.3-1.1-0.5-1.6-0.8c-0.1-0.1-0.2-0.1-0.3-0.2c-0.4-0.2-0.8-0.5-1.2-0.7c-0.2-0.1-0.3-0.2-0.4-0.3
			c-0.3-0.2-0.6-0.4-0.9-0.6c-0.1-0.1-0.3-0.2-0.4-0.3c-0.3-0.2-0.5-0.5-0.8-0.7c-0.1-0.1-0.2-0.2-0.3-0.3c-0.3-0.3-0.6-0.7-0.8-1
			v9.4c0,5.9,12.2,10.9,26.6,10.9s26.6-5,26.6-10.9v-9.4c-0.2,0.3-0.5,0.7-0.8,1C63.5,53.4,63.4,53.5,63.3,53.6z"/>
		<path class="st2" d="M63.2,66.7c-0.2,0.2-0.5,0.5-0.7,0.7c-0.1,0.1-0.3,0.2-0.4,0.3c-0.3,0.2-0.6,0.4-0.8,0.6
			c-0.2,0.1-0.3,0.2-0.5,0.3c-0.4,0.2-0.7,0.4-1.1,0.7c-0.1,0.1-0.2,0.1-0.3,0.2c-0.5,0.3-1.1,0.5-1.6,0.8c-0.1,0.1-0.3,0.1-0.5,0.2
			c-0.4,0.2-0.9,0.4-1.3,0.5c-0.2,0.1-0.4,0.2-0.7,0.2c-0.4,0.1-0.9,0.3-1.3,0.4c-0.2,0.1-0.5,0.1-0.7,0.2c-0.5,0.1-1,0.3-1.5,0.4
			c-0.2,0.1-0.4,0.1-0.6,0.2c-0.7,0.2-1.5,0.3-2.2,0.5c-0.1,0-0.3,0-0.4,0.1c-0.6,0.1-1.3,0.2-1.9,0.3c-0.3,0-0.5,0.1-0.8,0.1
			c-0.5,0.1-1.1,0.1-1.7,0.2c-0.3,0-0.6,0.1-0.9,0.1c-0.6,0-1.2,0.1-1.8,0.1c-0.3,0-0.5,0-0.8,0c-0.9,0-1.8,0.1-2.7,0.1
			s-1.8,0-2.7-0.1c-0.3,0-0.5,0-0.8,0c-0.6,0-1.2-0.1-1.8-0.1c-0.3,0-0.6-0.1-0.9-0.1c-0.6-0.1-1.1-0.1-1.7-0.2
			c-0.3,0-0.5-0.1-0.8-0.1c-0.7-0.1-1.3-0.2-1.9-0.3c-0.1,0-0.3,0-0.4-0.1c-0.8-0.1-1.5-0.3-2.2-0.5c-0.2,0-0.4-0.1-0.6-0.2
			c-0.5-0.1-1-0.3-1.5-0.4c-0.2-0.1-0.5-0.1-0.7-0.2c-0.4-0.1-0.9-0.3-1.3-0.4C20.5,71.1,20.3,71,20,71c-0.5-0.2-0.9-0.4-1.4-0.5
			c-0.2-0.1-0.3-0.1-0.5-0.2c-0.6-0.3-1.1-0.5-1.6-0.8c-0.1-0.1-0.2-0.1-0.3-0.2c-0.4-0.2-0.8-0.4-1.1-0.7c-0.2-0.1-0.3-0.2-0.5-0.3
			c-0.3-0.2-0.6-0.4-0.9-0.6c-0.1-0.1-0.3-0.2-0.4-0.3c-0.3-0.2-0.5-0.5-0.7-0.7c-0.1-0.1-0.2-0.2-0.3-0.3c-0.3-0.3-0.6-0.7-0.8-1
			v9.4c0,5.9,12.2,10.9,26.6,10.9s26.6-5,26.6-10.9v-9.4c-0.2,0.3-0.5,0.7-0.8,1C63.5,66.5,63.3,66.6,63.2,66.7z"/>
		<path class="st2" d="M63.2,40.6c-0.2,0.2-0.5,0.5-0.7,0.7c-0.1,0.1-0.3,0.2-0.4,0.3c-0.3,0.2-0.6,0.4-0.8,0.6
			c-0.2,0.1-0.3,0.2-0.5,0.3c-0.4,0.2-0.7,0.4-1.1,0.7c-0.1,0.1-0.2,0.1-0.3,0.2c-0.5,0.3-1.1,0.5-1.6,0.8c-0.1,0.1-0.3,0.1-0.5,0.2
			c-0.4,0.2-0.9,0.4-1.3,0.5c-0.2,0.1-0.4,0.2-0.7,0.2c-0.4,0.1-0.9,0.3-1.3,0.4c-0.2,0.1-0.5,0.1-0.7,0.2c-0.5,0.1-1,0.3-1.5,0.4
			c-0.2,0.1-0.4,0.1-0.6,0.2c-0.7,0.2-1.5,0.3-2.2,0.5c-0.1,0-0.3,0-0.4,0.1c-0.6,0.1-1.3,0.2-1.9,0.3c-0.3,0-0.5,0.1-0.8,0.1
			c-0.5,0.1-1.1,0.1-1.7,0.2c-0.3,0-0.6,0.1-0.9,0.1c-0.6,0-1.2,0.1-1.8,0.1c-0.3,0-0.5,0-0.8,0c-0.9,0-1.8,0.1-2.7,0.1
			s-1.8,0-2.7-0.1c-0.3,0-0.5,0-0.8,0c-0.6,0-1.2-0.1-1.8-0.1c-0.3,0-0.6-0.1-0.9-0.1c-0.6-0.1-1.1-0.1-1.7-0.2
			c-0.3,0-0.5-0.1-0.8-0.1c-0.7-0.1-1.3-0.2-1.9-0.3c-0.1,0-0.3,0-0.4-0.1c-0.8-0.1-1.5-0.3-2.2-0.5c-0.2,0-0.4-0.1-0.6-0.2
			c-0.5-0.1-1-0.3-1.5-0.4c-0.2-0.1-0.5-0.1-0.7-0.2c-0.4-0.1-0.9-0.3-1.3-0.4c-0.2-0.1-0.4-0.2-0.7-0.2c-0.5-0.2-0.9-0.4-1.4-0.5
			c-0.2-0.1-0.3-0.1-0.5-0.2c-0.6-0.3-1.1-0.5-1.6-0.8c-0.1-0.1-0.2-0.1-0.3-0.2c-0.4-0.2-0.8-0.4-1.1-0.7c-0.2-0.1-0.3-0.2-0.5-0.3
			c-0.3-0.2-0.6-0.4-0.9-0.6c-0.1-0.1-0.3-0.2-0.4-0.3c-0.3-0.2-0.5-0.5-0.7-0.7c-0.1-0.1-0.2-0.2-0.3-0.3c-0.3-0.3-0.6-0.7-0.8-1
			v9.4c0,5.9,12.2,10.9,26.6,10.9s26.6-5,26.6-10.9v-9.4c-0.2,0.3-0.5,0.7-0.8,1C63.5,40.4,63.3,40.5,63.2,40.6z"/>
		<path class="st2" d="M63.2,27.5c-0.2,0.2-0.5,0.5-0.7,0.7c-0.1,0.1-0.3,0.2-0.4,0.3c-0.3,0.2-0.6,0.4-0.8,0.6
			c-0.2,0.1-0.3,0.2-0.5,0.3c-0.4,0.2-0.7,0.4-1.1,0.7c-0.1,0.1-0.2,0.1-0.3,0.2c-0.5,0.3-1.1,0.5-1.6,0.8c-0.1,0.1-0.3,0.1-0.5,0.2
			c-0.4,0.2-0.9,0.4-1.3,0.5c-0.2,0.1-0.4,0.2-0.7,0.2c-0.4,0.1-0.9,0.3-1.3,0.4c-0.2,0.1-0.5,0.1-0.7,0.2c-0.5,0.1-1,0.3-1.5,0.4
			c-0.2,0.1-0.4,0.1-0.6,0.2c-0.7,0.2-1.5,0.3-2.2,0.5c-0.1,0-0.3,0-0.4,0.1c-0.6,0.1-1.3,0.2-1.9,0.3c-0.3,0-0.5,0.1-0.8,0.1
			c-0.5,0.1-1.1,0.1-1.7,0.2c-0.3,0-0.6,0.1-0.9,0.1c-0.6,0-1.2,0.1-1.8,0.1c-0.3,0-0.5,0-0.8,0c-0.9,0-1.8,0.1-2.7,0.1
			s-1.8,0-2.7-0.1c-0.3,0-0.5,0-0.8,0c-0.6,0-1.2-0.1-1.8-0.1c-0.3,0-0.6-0.1-0.9-0.1c-0.6-0.1-1.1-0.1-1.7-0.2
			c-0.3,0-0.5-0.1-0.8-0.1c-0.7-0.1-1.3-0.2-1.9-0.3c-0.1,0-0.3,0-0.4-0.1c-0.8-0.1-1.5-0.3-2.2-0.5c-0.2,0-0.4-0.1-0.6-0.2
			c-0.5-0.1-1-0.3-1.5-0.4c-0.2-0.1-0.5-0.1-0.7-0.2c-0.4-0.1-0.9-0.3-1.3-0.4c-0.2-0.1-0.4-0.2-0.7-0.2c-0.5-0.2-0.9-0.4-1.4-0.5
			c-0.2-0.1-0.3-0.1-0.5-0.2c-0.6-0.3-1.1-0.5-1.6-0.8c-0.1-0.1-0.2-0.1-0.3-0.2c-0.4-0.2-0.8-0.4-1.1-0.7c-0.2-0.1-0.3-0.2-0.5-0.3
			c-0.3-0.2-0.6-0.4-0.9-0.6c-0.1-0.1-0.3-0.2-0.4-0.3c-0.3-0.2-0.5-0.5-0.7-0.7c-0.1-0.1-0.2-0.2-0.3-0.3c-0.3-0.3-0.6-0.7-0.8-1
			v9.4c0,5.9,12.2,10.9,26.6,10.9s26.6-5,26.6-10.9v-9.4c-0.2,0.3-0.5,0.7-0.8,1C63.5,27.3,63.3,27.4,63.2,27.5z"/>
		<path class="st2" d="M37.8,11.6c-14.4,0-26.6,5-26.6,10.9c0,0.4,0,0.7,0.1,1.1c0.2,0.7,0.6,1.4,1.1,2.1c0.8,1,1.9,2,3.4,2.9
			c1,0.6,2.1,1.1,3.3,1.6c4.9,2,11.5,3.2,18.7,3.2s13.9-1.3,18.7-3.2c1.2-0.5,2.3-1,3.3-1.6c1.5-0.9,2.6-1.8,3.4-2.9
			c0.5-0.7,0.9-1.4,1.1-2.1c0.1-0.4,0.1-0.7,0.1-1.1C64.4,16.6,52.2,11.6,37.8,11.6z"/>
		<path class="st3" d="M37.8,10.3c-15.6,0-27.9,5.4-27.9,12.2v13.1v13.1v13.1v13.1c0,6.8,12.2,12.2,27.9,12.2
			c15.6,0,27.9-5.4,27.9-12.2V61.7V48.6v-13V22.5C65.6,15.7,53.4,10.3,37.8,10.3z M64.4,74.7c0,5.9-12.2,10.9-26.6,10.9
			s-26.6-5-26.6-10.9v-9.4c0.2,0.3,0.5,0.7,0.8,1c0.1,0.1,0.2,0.2,0.3,0.3c0.2,0.2,0.5,0.5,0.7,0.7c0.1,0.1,0.3,0.2,0.4,0.3
			c0.3,0.2,0.6,0.4,0.9,0.6c0.2,0.1,0.3,0.2,0.5,0.3c0.4,0.2,0.7,0.5,1.1,0.7c0.1,0.1,0.2,0.1,0.3,0.2c0.5,0.3,1.1,0.5,1.6,0.8
			c0.1,0.1,0.3,0.1,0.5,0.2c0.4,0.2,0.9,0.4,1.4,0.5c0.2,0.1,0.4,0.2,0.7,0.2c0.4,0.1,0.9,0.3,1.3,0.4c0.2,0.1,0.5,0.1,0.7,0.2
			c0.5,0.1,1,0.3,1.5,0.4c0.2,0,0.4,0.1,0.6,0.2c0.7,0.2,1.5,0.3,2.2,0.5c0.1,0,0.3,0,0.4,0.1c0.6,0.1,1.3,0.2,1.9,0.3
			c0.3,0,0.5,0.1,0.8,0.1c0.6,0.1,1.1,0.1,1.7,0.2c0.3,0,0.6,0.1,0.9,0.1c0.6,0,1.2,0.1,1.8,0.1c0.3,0,0.5,0,0.8,0
			c0.9,0,1.8,0.1,2.7,0.1s1.8,0,2.7-0.1c0.3,0,0.5,0,0.8,0c0.6,0,1.2-0.1,1.8-0.1c0.3,0,0.6-0.1,0.9-0.1c0.6-0.1,1.1-0.1,1.7-0.2
			c0.3,0,0.5-0.1,0.8-0.1c0.7-0.1,1.3-0.2,1.9-0.3c0.1,0,0.3,0,0.4-0.1c0.8-0.1,1.5-0.3,2.2-0.5c0.2,0,0.4-0.1,0.6-0.2
			c0.5-0.1,1-0.3,1.5-0.4c0.2-0.1,0.5-0.1,0.7-0.2c0.4-0.1,0.9-0.3,1.3-0.4c0.2-0.1,0.5-0.2,0.7-0.2c0.5-0.2,0.9-0.3,1.3-0.5
			c0.2-0.1,0.3-0.1,0.5-0.2c0.6-0.3,1.1-0.5,1.6-0.8c0.1-0.1,0.2-0.1,0.3-0.2c0.4-0.2,0.8-0.4,1.1-0.7c0.2-0.1,0.3-0.2,0.5-0.3
			c0.3-0.2,0.6-0.4,0.8-0.6c0.1-0.1,0.3-0.2,0.4-0.3c0.3-0.2,0.5-0.5,0.7-0.7c0.1-0.1,0.2-0.2,0.3-0.3c0.3-0.3,0.6-0.7,0.8-1v9.4
			H64.4z M64.4,61.7c0,5.9-12.2,10.9-26.6,10.9s-26.6-5-26.6-10.9v-9.4c0.2,0.3,0.5,0.7,0.8,1c0.1,0.1,0.2,0.2,0.3,0.3
			c0.2,0.2,0.5,0.5,0.8,0.7c0.1,0.1,0.3,0.2,0.4,0.3c0.3,0.2,0.6,0.4,0.9,0.6c0.1,0.1,0.3,0.2,0.4,0.3c0.4,0.2,0.8,0.5,1.2,0.7
			c0.1,0.1,0.2,0.1,0.3,0.2c0.5,0.3,1.1,0.5,1.6,0.8c0.1,0.1,0.3,0.1,0.4,0.2c0.4,0.2,0.9,0.4,1.4,0.5c0.2,0.1,0.4,0.2,0.7,0.2
			c0.4,0.2,0.9,0.3,1.3,0.4c0.2,0.1,0.5,0.1,0.7,0.2c0.5,0.1,1,0.3,1.6,0.4c0.2,0,0.4,0.1,0.6,0.1c0.7,0.2,1.5,0.3,2.3,0.5
			c0.1,0,0.2,0,0.3,0.1c0.7,0.1,1.3,0.2,2,0.3c0.3,0,0.5,0.1,0.8,0.1c0.6,0.1,1.2,0.1,1.7,0.2c0.3,0,0.6,0.1,0.8,0.1
			c0.6,0.1,1.3,0.1,1.9,0.1c0.2,0,0.5,0,0.7,0c0.9,0,1.8,0.1,2.7,0.1s1.8,0,2.7-0.1c0.2,0,0.5,0,0.7,0c0.7,0,1.3-0.1,1.9-0.1
			c0.3,0,0.5,0,0.8-0.1c0.6-0.1,1.2-0.1,1.8-0.2c0.2,0,0.5-0.1,0.7-0.1c0.7-0.1,1.4-0.2,2.1-0.3c0.1,0,0.2,0,0.2,0
			c0.8-0.1,1.5-0.3,2.3-0.5c0.2,0,0.3-0.1,0.5-0.1c0.6-0.1,1.1-0.3,1.7-0.4c0.2-0.1,0.4-0.1,0.6-0.2c0.5-0.1,0.9-0.3,1.4-0.5
			c0.2-0.1,0.4-0.1,0.6-0.2c0.5-0.2,1-0.4,1.4-0.6c0.1-0.1,0.2-0.1,0.4-0.2c0.6-0.3,1.1-0.5,1.7-0.8c0.1,0,0.2-0.1,0.3-0.2
			c0.4-0.2,0.8-0.5,1.2-0.7c0.1-0.1,0.3-0.2,0.4-0.3c0.3-0.2,0.6-0.4,0.9-0.6c0.1-0.1,0.3-0.2,0.4-0.3c0.3-0.2,0.5-0.5,0.8-0.7
			c0.1-0.1,0.2-0.2,0.3-0.3c0.3-0.3,0.6-0.7,0.8-1C64.4,52.2,64.4,61.7,64.4,61.7z M64.4,48.6c0,5.9-12.2,10.9-26.6,10.9
			s-26.6-5-26.6-10.9v-9.4c0.2,0.3,0.5,0.7,0.8,1c0.1,0.1,0.2,0.2,0.3,0.3c0.2,0.2,0.5,0.5,0.7,0.7c0.1,0.1,0.3,0.2,0.4,0.3
			c0.3,0.2,0.6,0.4,0.9,0.6c0.2,0.1,0.3,0.2,0.5,0.3c0.4,0.2,0.7,0.5,1.1,0.7c0.1,0.1,0.2,0.1,0.3,0.2c0.5,0.3,1.1,0.5,1.6,0.8
			c0.1,0.1,0.3,0.1,0.5,0.2c0.4,0.2,0.9,0.4,1.4,0.5c0.2,0.1,0.4,0.2,0.7,0.2c0.4,0.1,0.9,0.3,1.3,0.4c0.2,0.1,0.5,0.1,0.7,0.2
			c0.5,0.1,1,0.3,1.5,0.4c0.2,0,0.4,0.1,0.6,0.2c0.7,0.2,1.5,0.3,2.2,0.5c0.1,0,0.3,0,0.4,0.1c0.6,0.1,1.3,0.2,1.9,0.3
			c0.3,0,0.5,0.1,0.8,0.1c0.6,0.1,1.1,0.1,1.7,0.2c0.3,0,0.6,0.1,0.9,0.1c0.6,0,1.2,0.1,1.8,0.1c0.3,0,0.5,0,0.8,0
			c0.9,0,1.8,0.1,2.7,0.1s1.8,0,2.7-0.1c0.3,0,0.5,0,0.8,0c0.6,0,1.2-0.1,1.8-0.1c0.3,0,0.6-0.1,0.9-0.1c0.6-0.1,1.1-0.1,1.7-0.2
			c0.3,0,0.5-0.1,0.8-0.1c0.7-0.1,1.3-0.2,1.9-0.3c0.1,0,0.3,0,0.4-0.1c0.8-0.1,1.5-0.3,2.2-0.5c0.2,0,0.4-0.1,0.6-0.2
			c0.5-0.1,1-0.3,1.5-0.4c0.2-0.1,0.5-0.1,0.7-0.2c0.4-0.1,0.9-0.3,1.3-0.4c0.2-0.1,0.5-0.2,0.7-0.2c0.5-0.2,0.9-0.3,1.3-0.5
			c0.2-0.1,0.3-0.1,0.5-0.2c0.6-0.3,1.1-0.5,1.6-0.8c0.1-0.1,0.2-0.1,0.3-0.2c0.4-0.2,0.8-0.4,1.1-0.7c0.2-0.1,0.3-0.2,0.5-0.3
			c0.3-0.2,0.6-0.4,0.8-0.6c0.1-0.1,0.3-0.2,0.4-0.3c0.3-0.2,0.5-0.5,0.7-0.7c0.1-0.1,0.2-0.2,0.3-0.3c0.3-0.3,0.6-0.7,0.8-1v9.4
			H64.4z M64.4,35.6c0,5.9-12.2,10.9-26.6,10.9s-26.6-5-26.6-10.9v-9.4c0.2,0.3,0.5,0.7,0.8,1c0.1,0.1,0.2,0.2,0.3,0.3
			c0.2,0.2,0.5,0.5,0.7,0.7c0.1,0.1,0.3,0.2,0.4,0.3c0.3,0.2,0.6,0.4,0.9,0.6c0.2,0.1,0.3,0.2,0.5,0.3c0.4,0.2,0.7,0.5,1.1,0.7
			c0.1,0.1,0.2,0.1,0.3,0.2c0.5,0.3,1.1,0.5,1.6,0.8c0.1,0.1,0.3,0.1,0.5,0.2c0.4,0.2,0.9,0.4,1.4,0.5c0.2,0.1,0.4,0.2,0.7,0.2
			c0.4,0.1,0.9,0.3,1.3,0.4c0.2,0.1,0.5,0.1,0.7,0.2c0.5,0.1,1,0.3,1.5,0.4c0.2,0,0.4,0.1,0.6,0.2c0.7,0.2,1.5,0.3,2.2,0.5
			c0.1,0,0.3,0,0.4,0.1c0.6,0.1,1.3,0.2,1.9,0.3c0.3,0,0.5,0.1,0.8,0.1c0.6,0.1,1.1,0.1,1.7,0.2c0.3,0,0.6,0.1,0.9,0.1
			c0.6,0,1.2,0.1,1.8,0.1c0.3,0,0.5,0,0.8,0c0.9,0,1.8,0.1,2.7,0.1s1.8,0,2.7-0.1c0.3,0,0.5,0,0.8,0c0.6,0,1.2-0.1,1.8-0.1
			c0.3,0,0.6-0.1,0.9-0.1c0.6-0.1,1.1-0.1,1.7-0.2c0.3,0,0.5-0.1,0.8-0.1c0.7-0.1,1.3-0.2,1.9-0.3c0.1,0,0.3,0,0.4-0.1
			c0.8-0.1,1.5-0.3,2.2-0.5c0.2,0,0.4-0.1,0.6-0.2c0.5-0.1,1-0.3,1.5-0.4c0.2-0.1,0.5-0.1,0.7-0.2c0.4-0.1,0.9-0.3,1.3-0.4
			c0.2-0.1,0.5-0.2,0.7-0.2c0.5-0.2,0.9-0.3,1.3-0.5c0.2-0.1,0.3-0.1,0.5-0.2c0.6-0.3,1.1-0.5,1.6-0.8c0.1-0.1,0.2-0.1,0.3-0.2
			c0.4-0.2,0.8-0.4,1.1-0.7c0.2-0.1,0.3-0.2,0.5-0.3c0.3-0.2,0.6-0.4,0.8-0.6c0.1-0.1,0.3-0.2,0.4-0.3c0.3-0.2,0.5-0.5,0.7-0.7
			c0.1-0.1,0.2-0.2,0.3-0.3c0.3-0.3,0.6-0.7,0.8-1v9.4H64.4z M64.2,23.6c-0.2,0.7-0.6,1.4-1.1,2.1c-0.8,1-1.9,2-3.4,2.9
			c-1,0.6-2.1,1.1-3.3,1.6c-4.8,2-11.5,3.2-18.7,3.2S23.8,32.1,19,30.2c-1.2-0.5-2.3-1-3.3-1.6c-1.5-0.9-2.6-1.8-3.4-2.9
			c-0.5-0.7-0.9-1.4-1.1-2.1c-0.1-0.4-0.1-0.7-0.1-1.1c0-5.9,12.2-10.9,26.6-10.9s26.6,5,26.6,10.9C64.4,22.9,64.3,23.2,64.2,23.6z"
			/>
	</g>
	<g class="st1">
		<path class="st2" d="M88.7,73.1c-0.2,0.2-0.5,0.5-0.8,0.7c-0.1,0.1-0.3,0.2-0.4,0.3c-0.3,0.2-0.6,0.4-0.9,0.6
			c-0.1,0.1-0.3,0.2-0.4,0.3c-0.4,0.2-0.8,0.5-1.2,0.7c-0.1,0-0.2,0.1-0.3,0.2c-0.5,0.3-1.1,0.5-1.7,0.8c-0.1,0.1-0.2,0.1-0.4,0.2
			c-0.5,0.2-0.9,0.4-1.4,0.6c-0.2,0.1-0.4,0.1-0.6,0.2c-0.5,0.2-0.9,0.3-1.4,0.5c-0.2,0.1-0.4,0.1-0.6,0.2c-0.5,0.2-1.1,0.3-1.7,0.4
			c-0.2,0-0.3,0.1-0.5,0.1c-0.7,0.2-1.5,0.3-2.3,0.5c-0.1,0-0.2,0-0.2,0c-0.7,0.1-1.4,0.2-2.1,0.3c-0.2,0-0.5,0.1-0.7,0.1
			c-0.6,0.1-1.2,0.1-1.8,0.2c-0.3,0-0.5,0-0.8,0.1c-0.6,0.1-1.3,0.1-1.9,0.1c-0.2,0-0.4,0-0.7,0c-0.9,0-1.8,0.1-2.7,0.1
			c-0.9,0-1.8,0-2.7-0.1c-0.2,0-0.5,0-0.7,0c-0.6,0-1.3-0.1-1.9-0.1c-0.3,0-0.6,0-0.8-0.1c-0.6-0.1-1.2-0.1-1.7-0.2
			c-0.3,0-0.5-0.1-0.8-0.1c-0.7-0.1-1.4-0.2-2-0.3c-0.1,0-0.2,0-0.3-0.1c-0.8-0.1-1.5-0.3-2.3-0.5c-0.2,0-0.4-0.1-0.6-0.1
			c-0.5-0.1-1.1-0.3-1.6-0.4c-0.2-0.1-0.5-0.1-0.7-0.2c-0.5-0.1-0.9-0.3-1.3-0.4c-0.2-0.1-0.4-0.2-0.7-0.2c-0.5-0.2-0.9-0.4-1.4-0.5
			c-0.1-0.1-0.3-0.1-0.4-0.2c-0.6-0.3-1.1-0.5-1.6-0.8c-0.1-0.1-0.2-0.1-0.3-0.2c-0.4-0.2-0.8-0.5-1.2-0.7c-0.2-0.1-0.3-0.2-0.4-0.3
			c-0.3-0.2-0.6-0.4-0.9-0.6c-0.1-0.1-0.3-0.2-0.4-0.3c-0.3-0.2-0.5-0.5-0.8-0.7c-0.1-0.1-0.2-0.2-0.3-0.3c-0.3-0.3-0.6-0.7-0.8-1
			v9.4c0,5.9,12.2,10.9,26.6,10.9s26.6-5,26.6-10.9v-9.4c-0.2,0.3-0.5,0.7-0.8,1C88.9,72.9,88.8,73,88.7,73.1z"/>
		<path class="st2" d="M88.7,86.2c-0.2,0.2-0.5,0.5-0.7,0.7c-0.1,0.1-0.3,0.2-0.4,0.3c-0.3,0.2-0.6,0.4-0.8,0.6
			c-0.2,0.1-0.3,0.2-0.5,0.3c-0.4,0.2-0.7,0.4-1.1,0.7c-0.1,0.1-0.2,0.1-0.3,0.2c-0.5,0.3-1.1,0.5-1.6,0.8c-0.1,0.1-0.3,0.1-0.5,0.2
			c-0.4,0.2-0.9,0.4-1.3,0.5c-0.2,0.1-0.4,0.2-0.7,0.2c-0.4,0.1-0.9,0.3-1.3,0.4c-0.2,0.1-0.5,0.1-0.7,0.2c-0.5,0.1-1,0.3-1.5,0.4
			c-0.2,0.1-0.4,0.1-0.6,0.2c-0.7,0.2-1.5,0.3-2.2,0.5c-0.1,0-0.3,0-0.4,0.1c-0.6,0.1-1.3,0.2-1.9,0.3c-0.3,0-0.5,0.1-0.8,0.1
			c-0.5,0.1-1.1,0.1-1.7,0.2c-0.3,0-0.6,0.1-0.9,0.1c-0.6,0-1.2,0.1-1.8,0.1c-0.3,0-0.5,0-0.8,0c-0.9,0-1.8,0.1-2.7,0.1
			c-0.9,0-1.8,0-2.7-0.1c-0.3,0-0.5,0-0.8,0c-0.6,0-1.2-0.1-1.8-0.1c-0.3,0-0.6-0.1-0.9-0.1c-0.6-0.1-1.1-0.1-1.7-0.2
			c-0.3,0-0.5-0.1-0.8-0.1c-0.7-0.1-1.3-0.2-1.9-0.3c-0.1,0-0.3,0-0.4-0.1c-0.8-0.1-1.5-0.3-2.2-0.5c-0.2,0-0.4-0.1-0.6-0.2
			c-0.5-0.1-1-0.3-1.5-0.4c-0.2-0.1-0.5-0.1-0.7-0.2c-0.4-0.1-0.9-0.3-1.3-0.4c-0.2-0.1-0.4-0.2-0.7-0.2c-0.5-0.2-0.9-0.4-1.4-0.5
			c-0.2-0.1-0.3-0.1-0.5-0.2C43,89.5,42.5,89.3,42,89c-0.1-0.1-0.2-0.1-0.3-0.2c-0.4-0.2-0.8-0.4-1.1-0.7c-0.2-0.1-0.3-0.2-0.5-0.3
			c-0.3-0.2-0.6-0.4-0.9-0.6c-0.1-0.1-0.3-0.2-0.4-0.3c-0.3-0.2-0.5-0.5-0.7-0.7c-0.1-0.1-0.2-0.2-0.3-0.3c-0.3-0.3-0.6-0.7-0.8-1
			v9.4c0,5.9,12.2,10.9,26.6,10.9s26.6-5,26.6-10.9v-9.4c-0.2,0.3-0.5,0.7-0.8,1C88.9,86,88.8,86.1,88.7,86.2z"/>
		<path class="st2" d="M88.7,60.1c-0.2,0.2-0.5,0.5-0.7,0.7c-0.1,0.1-0.3,0.2-0.4,0.3c-0.3,0.2-0.6,0.4-0.8,0.6
			c-0.2,0.1-0.3,0.2-0.5,0.3c-0.4,0.2-0.7,0.4-1.1,0.7c-0.1,0.1-0.2,0.1-0.3,0.2c-0.5,0.3-1.1,0.5-1.6,0.8c-0.1,0.1-0.3,0.1-0.5,0.2
			c-0.4,0.2-0.9,0.4-1.3,0.5c-0.2,0.1-0.4,0.2-0.7,0.2c-0.4,0.1-0.9,0.3-1.3,0.4c-0.2,0.1-0.5,0.1-0.7,0.2c-0.5,0.1-1,0.3-1.5,0.4
			c-0.2,0.1-0.4,0.1-0.6,0.2c-0.7,0.2-1.5,0.3-2.2,0.5c-0.1,0-0.3,0-0.4,0.1c-0.6,0.1-1.3,0.2-1.9,0.3c-0.3,0-0.5,0.1-0.8,0.1
			c-0.5,0.1-1.1,0.1-1.7,0.2c-0.3,0-0.6,0.1-0.9,0.1c-0.6,0-1.2,0.1-1.8,0.1c-0.3,0-0.5,0-0.8,0c-0.9,0-1.8,0.1-2.7,0.1
			c-0.9,0-1.8,0-2.7-0.1c-0.3,0-0.5,0-0.8,0c-0.6,0-1.2-0.1-1.8-0.1c-0.3,0-0.6-0.1-0.9-0.1c-0.6-0.1-1.1-0.1-1.7-0.2
			c-0.3,0-0.5-0.1-0.8-0.1c-0.7-0.1-1.3-0.2-1.9-0.3c-0.1,0-0.3,0-0.4-0.1c-0.8-0.1-1.5-0.3-2.2-0.5c-0.2,0-0.4-0.1-0.6-0.2
			c-0.5-0.1-1-0.3-1.5-0.4c-0.2-0.1-0.5-0.1-0.7-0.2c-0.4-0.1-0.9-0.3-1.3-0.4c-0.2-0.1-0.4-0.2-0.7-0.2c-0.5-0.2-0.9-0.4-1.4-0.5
			c-0.2-0.1-0.3-0.1-0.5-0.2c-0.6-0.3-1.1-0.5-1.6-0.8c-0.1-0.1-0.2-0.1-0.3-0.2c-0.4-0.2-0.8-0.4-1.1-0.7c-0.2-0.1-0.3-0.2-0.5-0.3
			c-0.3-0.2-0.6-0.4-0.9-0.6c-0.1-0.1-0.3-0.2-0.4-0.3c-0.3-0.2-0.5-0.5-0.7-0.7c-0.1-0.1-0.2-0.2-0.3-0.3c-0.3-0.3-0.6-0.7-0.8-1
			v9.4C36.6,74,48.8,79,63.3,79c14.4,0,26.6-5,26.6-10.9v-9.4c-0.2,0.3-0.5,0.7-0.8,1C88.9,59.9,88.8,60,88.7,60.1z"/>
		<path class="st2" d="M88.7,47c-0.2,0.2-0.5,0.5-0.7,0.7c-0.1,0.1-0.3,0.2-0.4,0.3c-0.3,0.2-0.6,0.4-0.8,0.6
			c-0.2,0.1-0.3,0.2-0.5,0.3c-0.4,0.2-0.7,0.4-1.1,0.7c-0.1,0.1-0.2,0.1-0.3,0.2c-0.5,0.3-1.1,0.5-1.6,0.8c-0.1,0.1-0.3,0.1-0.5,0.2
			c-0.4,0.2-0.9,0.4-1.3,0.5c-0.2,0.1-0.4,0.2-0.7,0.2c-0.4,0.1-0.9,0.3-1.3,0.4C79.3,52,79,52,78.8,52.1c-0.5,0.1-1,0.3-1.5,0.4
			c-0.2,0.1-0.4,0.1-0.6,0.2c-0.7,0.2-1.5,0.3-2.2,0.5c-0.1,0-0.3,0-0.4,0.1c-0.6,0.1-1.3,0.2-1.9,0.3c-0.3,0-0.5,0.1-0.8,0.1
			c-0.5,0.1-1.1,0.1-1.7,0.2c-0.3,0-0.6,0.1-0.9,0.1c-0.6,0-1.2,0.1-1.8,0.1c-0.3,0-0.5,0-0.8,0c-0.9,0-1.8,0.1-2.7,0.1
			c-0.9,0-1.8,0-2.7-0.1c-0.3,0-0.5,0-0.8,0C59.2,54,58.6,54,58,54c-0.3,0-0.6-0.1-0.9-0.1c-0.6-0.1-1.1-0.1-1.7-0.2
			c-0.3,0-0.5-0.1-0.8-0.1c-0.7-0.1-1.3-0.2-1.9-0.3c-0.1,0-0.3,0-0.4-0.1c-0.8-0.1-1.5-0.3-2.2-0.5c-0.2,0-0.4-0.1-0.6-0.2
			c-0.5-0.1-1-0.3-1.5-0.4c-0.2-0.1-0.5-0.1-0.7-0.2c-0.4-0.1-0.9-0.3-1.3-0.4c-0.2-0.1-0.4-0.2-0.7-0.2c-0.5-0.2-0.9-0.4-1.4-0.5
			c-0.2-0.1-0.3-0.1-0.5-0.2c-0.6-0.3-1.1-0.5-1.6-0.8c-0.1-0.1-0.2-0.1-0.3-0.2c-0.4-0.2-0.8-0.4-1.1-0.7c-0.2-0.1-0.3-0.2-0.5-0.3
			c-0.3-0.2-0.6-0.4-0.9-0.6c-0.1-0.1-0.3-0.2-0.4-0.3c-0.3-0.2-0.5-0.5-0.7-0.7c-0.1-0.1-0.2-0.2-0.3-0.3c-0.3-0.3-0.6-0.7-0.8-1
			V55c-0.2,6,12,11,26.5,11c14.4,0,26.6-5,26.6-10.9v-9.4c-0.2,0.3-0.5,0.7-0.8,1C88.9,46.8,88.8,46.9,88.7,47z"/>
		<path class="st2" d="M63.3,31c-14.5,0-26.7,5-26.7,11c0,0.4,0,0.7,0.1,1.1c0.2,0.7,0.6,1.4,1.1,2.1c0.8,1,1.9,2,3.4,2.9
			c1,0.6,2.1,1.1,3.3,1.6c4.9,2,11.5,3.2,18.7,3.2s13.9-1.3,18.7-3.2c1.2-0.5,2.3-1,3.3-1.6c1.5-0.9,2.6-1.8,3.4-2.9
			c0.5-0.7,0.9-1.4,1.1-2.1c0.1-0.4,0.1-0.7,0.1-1.1C89.9,36,77.7,31,63.3,31z"/>
		<path class="st3" d="M63.3,29.8c-15.6,0-27.9,5.4-27.9,12.2v13v13.1v13.1v13.1c0,6.8,12.2,12.2,27.9,12.2
			c15.6,0,27.9-5.4,27.9-12.2V81.2V68.1V55V42C91.1,35.1,78.9,29.8,63.3,29.8z M89.9,94.2c0,5.9-12.2,10.9-26.6,10.9
			s-26.6-5-26.6-10.9v-9.4c0.2,0.3,0.5,0.7,0.8,1c0.1,0.1,0.2,0.2,0.3,0.3c0.2,0.2,0.5,0.5,0.7,0.7c0.1,0.1,0.3,0.2,0.4,0.3
			c0.3,0.2,0.6,0.4,0.9,0.6c0.2,0.1,0.3,0.2,0.5,0.3c0.4,0.2,0.7,0.5,1.1,0.7c0.1,0.1,0.2,0.1,0.3,0.2c0.5,0.3,1.1,0.5,1.6,0.8
			c0.1,0.1,0.3,0.1,0.5,0.2c0.4,0.2,0.9,0.4,1.4,0.5c0.2,0.1,0.4,0.2,0.7,0.2c0.4,0.1,0.9,0.3,1.3,0.4c0.2,0.1,0.5,0.1,0.7,0.2
			c0.5,0.1,1,0.3,1.5,0.4c0.2,0,0.4,0.1,0.6,0.2c0.7,0.2,1.5,0.3,2.2,0.5c0.1,0,0.3,0,0.4,0.1c0.6,0.1,1.3,0.2,1.9,0.3
			c0.3,0,0.5,0.1,0.8,0.1c0.6,0.1,1.1,0.1,1.7,0.2c0.3,0,0.6,0.1,0.9,0.1c0.6,0,1.2,0.1,1.8,0.1c0.3,0,0.5,0,0.8,0
			c0.9,0,1.8,0.1,2.7,0.1c0.9,0,1.8,0,2.7-0.1c0.3,0,0.5,0,0.8,0c0.6,0,1.2-0.1,1.8-0.1c0.3,0,0.6-0.1,0.9-0.1
			c0.6-0.1,1.1-0.1,1.7-0.2c0.3,0,0.5-0.1,0.8-0.1c0.7-0.1,1.3-0.2,1.9-0.3c0.1,0,0.3,0,0.4-0.1c0.8-0.1,1.5-0.3,2.2-0.5
			c0.2,0,0.4-0.1,0.6-0.2c0.5-0.1,1-0.3,1.5-0.4c0.2-0.1,0.5-0.1,0.7-0.2c0.4-0.1,0.9-0.3,1.3-0.4c0.2-0.1,0.5-0.2,0.7-0.2
			c0.5-0.2,0.9-0.3,1.3-0.5c0.2-0.1,0.3-0.1,0.5-0.2c0.6-0.3,1.1-0.5,1.6-0.8c0.1-0.1,0.2-0.1,0.3-0.2c0.4-0.2,0.8-0.4,1.1-0.7
			c0.2-0.1,0.3-0.2,0.5-0.3c0.3-0.2,0.6-0.4,0.8-0.6c0.1-0.1,0.3-0.2,0.4-0.3c0.3-0.2,0.5-0.5,0.7-0.7c0.1-0.1,0.2-0.2,0.3-0.3
			c0.3-0.3,0.6-0.7,0.8-1v9.4H89.9z M89.9,81.2c0,5.9-12.2,10.9-26.6,10.9s-26.6-5-26.6-10.9v-9.4c0.2,0.3,0.5,0.7,0.8,1
			c0.1,0.1,0.2,0.2,0.3,0.3c0.2,0.2,0.5,0.5,0.8,0.7c0.1,0.1,0.3,0.2,0.4,0.3c0.3,0.2,0.6,0.4,0.9,0.6c0.1,0.1,0.3,0.2,0.4,0.3
			c0.4,0.2,0.8,0.5,1.2,0.7c0.1,0.1,0.2,0.1,0.3,0.2c0.5,0.3,1.1,0.5,1.6,0.8c0.1,0.1,0.3,0.1,0.4,0.2c0.4,0.2,0.9,0.4,1.4,0.5
			c0.2,0.1,0.4,0.2,0.7,0.2c0.4,0.2,0.9,0.3,1.3,0.4c0.2,0.1,0.5,0.1,0.7,0.2c0.5,0.1,1,0.3,1.6,0.4c0.2,0,0.4,0.1,0.6,0.1
			c0.7,0.2,1.5,0.3,2.3,0.5c0.1,0,0.2,0,0.3,0.1c0.7,0.1,1.3,0.2,2,0.3c0.3,0,0.5,0.1,0.8,0.1c0.6,0.1,1.2,0.1,1.7,0.2
			c0.3,0,0.6,0.1,0.8,0.1c0.6,0.1,1.3,0.1,1.9,0.1c0.2,0,0.5,0,0.7,0c0.9,0,1.8,0.1,2.7,0.1c0.9,0,1.8,0,2.7-0.1c0.2,0,0.5,0,0.7,0
			c0.7,0,1.3-0.1,1.9-0.1c0.3,0,0.5,0,0.8-0.1c0.6-0.1,1.2-0.1,1.8-0.2c0.2,0,0.5-0.1,0.7-0.1c0.7-0.1,1.4-0.2,2.1-0.3
			c0.1,0,0.2,0,0.2,0c0.8-0.1,1.5-0.3,2.3-0.5c0.2,0,0.3-0.1,0.5-0.1c0.6-0.1,1.1-0.3,1.7-0.4c0.2-0.1,0.4-0.1,0.6-0.2
			c0.5-0.1,0.9-0.3,1.4-0.5c0.2-0.1,0.4-0.1,0.6-0.2c0.5-0.2,1-0.4,1.4-0.6c0.1-0.1,0.2-0.1,0.4-0.2c0.6-0.3,1.1-0.5,1.7-0.8
			c0.1,0,0.2-0.1,0.3-0.2c0.4-0.2,0.8-0.5,1.2-0.7c0.1-0.1,0.3-0.2,0.4-0.3c0.3-0.2,0.6-0.4,0.9-0.6c0.1-0.1,0.3-0.2,0.4-0.3
			c0.3-0.2,0.5-0.5,0.8-0.7c0.1-0.1,0.2-0.2,0.3-0.3c0.3-0.3,0.6-0.7,0.8-1L89.9,81.2L89.9,81.2z M89.9,68.1
			C89.9,74,77.7,79,63.3,79s-26.6-5-26.6-10.9v-9.4c0.2,0.3,0.5,0.7,0.8,1c0.1,0.1,0.2,0.2,0.3,0.3c0.2,0.2,0.5,0.5,0.7,0.7
			c0.1,0.1,0.3,0.2,0.4,0.3c0.3,0.2,0.6,0.4,0.9,0.6c0.2,0.1,0.3,0.2,0.5,0.3c0.4,0.2,0.7,0.5,1.1,0.7c0.1,0.1,0.2,0.1,0.3,0.2
			c0.5,0.3,1.1,0.5,1.6,0.8c0.1,0.1,0.3,0.1,0.5,0.2c0.4,0.2,0.9,0.4,1.4,0.5c0.2,0.1,0.4,0.2,0.7,0.2c0.4,0.1,0.9,0.3,1.3,0.4
			c0.2,0.1,0.5,0.1,0.7,0.2c0.5,0.1,1,0.3,1.5,0.4c0.2,0,0.4,0.1,0.6,0.2c0.7,0.2,1.5,0.3,2.2,0.5c0.1,0,0.3,0,0.4,0.1
			c0.6,0.1,1.3,0.2,1.9,0.3c0.3,0,0.5,0.1,0.8,0.1c0.6,0.1,1.1,0.1,1.7,0.2c0.3,0,0.6,0.1,0.9,0.1c0.6,0,1.2,0.1,1.8,0.1
			c0.3,0,0.5,0,0.8,0c0.9,0,1.8,0.1,2.7,0.1c0.9,0,1.8,0,2.7-0.1c0.3,0,0.5,0,0.8,0c0.6,0,1.2-0.1,1.8-0.1c0.3,0,0.6-0.1,0.9-0.1
			c0.6-0.1,1.1-0.1,1.7-0.2c0.3,0,0.5-0.1,0.8-0.1c0.7-0.1,1.3-0.2,1.9-0.3c0.1,0,0.3,0,0.4-0.1c0.8-0.1,1.5-0.3,2.2-0.5
			c0.2,0,0.4-0.1,0.6-0.2c0.5-0.1,1-0.3,1.5-0.4c0.2-0.1,0.5-0.1,0.7-0.2c0.4-0.1,0.9-0.3,1.3-0.4c0.2-0.1,0.5-0.2,0.7-0.2
			c0.5-0.2,0.9-0.3,1.3-0.5c0.2-0.1,0.3-0.1,0.5-0.2c0.6-0.3,1.1-0.5,1.6-0.8c0.1-0.1,0.2-0.1,0.3-0.2c0.4-0.2,0.8-0.4,1.1-0.7
			c0.2-0.1,0.3-0.2,0.5-0.3c0.3-0.2,0.6-0.4,0.8-0.6c0.1-0.1,0.3-0.2,0.4-0.3c0.3-0.2,0.5-0.5,0.7-0.7c0.1-0.1,0.2-0.2,0.3-0.3
			c0.3-0.3,0.6-0.7,0.8-1v9.4H89.9z M89.9,55c0,6-12.2,11-26.6,11c-14.5,0-26.7-5-26.7-11v-9.4c0.2,0.3,0.5,0.7,0.8,1
			c0.1,0.1,0.2,0.2,0.3,0.3c0.2,0.2,0.5,0.5,0.7,0.7c0.1,0.1,0.3,0.2,0.4,0.3c0.3,0.2,0.6,0.4,0.9,0.6c0.2,0.1,0.3,0.2,0.5,0.3
			c0.4,0.2,0.7,0.5,1.1,0.7c0.1,0.1,0.2,0.1,0.3,0.2c0.5,0.3,1.1,0.5,1.6,0.8c0.1,0.1,0.3,0.1,0.5,0.2c0.4,0.2,0.9,0.4,1.4,0.5
			c0.2,0.1,0.4,0.2,0.7,0.2c0.4,0.1,0.9,0.3,1.3,0.4c0.2,0.1,0.5,0.1,0.7,0.2c0.5,0.1,1,0.3,1.5,0.4c0.2,0,0.4,0.1,0.6,0.2
			c0.7,0.2,1.5,0.3,2.2,0.5c0.1,0,0.3,0,0.4,0.1c0.6,0.1,1.3,0.2,1.9,0.3c0.3,0,0.5,0.1,0.8,0.1c0.6,0.1,1.1,0.1,1.7,0.2
			c0.3,0,0.6,0.1,0.9,0.1c0.6,0,1.2,0.1,1.8,0.1c0.3,0,0.5,0,0.8,0c0.9,0,1.8,0.1,2.7,0.1s1.8,0,2.7-0.1c0.3,0,0.5,0,0.8,0
			c0.6,0,1.2-0.1,1.8-0.1c0.3,0,0.6-0.1,0.9-0.1c0.6-0.1,1.1-0.1,1.7-0.2c0.3,0,0.5-0.1,0.8-0.1c0.7-0.1,1.3-0.2,1.9-0.3
			c0.1,0,0.3,0,0.4-0.1c0.8-0.1,1.5-0.3,2.2-0.5c0.2,0,0.4-0.1,0.6-0.2c0.5-0.1,1-0.3,1.5-0.4c0.2-0.1,0.5-0.1,0.7-0.2
			c0.4-0.1,0.9-0.3,1.3-0.4c0.2-0.1,0.5-0.2,0.7-0.2c0.5-0.2,0.9-0.3,1.3-0.5c0.2-0.1,0.3-0.1,0.5-0.2c0.6-0.3,1.1-0.5,1.6-0.8
			c0.1-0.1,0.2-0.1,0.3-0.2c0.4-0.2,0.8-0.4,1.1-0.7c0.2-0.1,0.3-0.2,0.5-0.3c0.3-0.2,0.6-0.4,0.8-0.6c0.1-0.1,0.3-0.2,0.4-0.3
			c0.3-0.2,0.5-0.5,0.7-0.7c0.1-0.1,0.2-0.2,0.3-0.3c0.3-0.3,0.6-0.7,0.8-1V55H89.9z M89.7,43.1c-0.2,0.7-0.6,1.4-1.1,2.1
			c-0.8,1-1.9,2-3.4,2.9c-1,0.6-2.1,1.1-3.3,1.6c-4.8,2-11.5,3.2-18.7,3.2s-13.9-1.3-18.7-3.2c-1.2-0.5-2.3-1-3.3-1.6
			c-1.5-0.9-2.6-1.8-3.4-2.9c-0.5-0.7-0.9-1.4-1.1-2.1c-0.1-0.4-0.1-0.7-0.1-1.1c0-6,12.2-11,26.7-11c14.4,0,26.6,5,26.6,10.9
			C89.9,42.4,89.8,42.7,89.7,43.1z"/>
	</g>
	<g class="st1">
		<path class="st2" d="M113.8,93.7c-0.2,0.2-0.5,0.5-0.8,0.7c-0.1,0.1-0.3,0.2-0.4,0.3c-0.3,0.2-0.6,0.4-0.9,0.6
			c-0.1,0.1-0.3,0.2-0.4,0.3c-0.4,0.2-0.8,0.5-1.2,0.7c-0.1,0-0.2,0.1-0.3,0.2c-0.5,0.3-1.1,0.5-1.7,0.8c-0.1,0.1-0.2,0.1-0.4,0.2
			c-0.5,0.2-0.9,0.4-1.4,0.6c-0.2,0.1-0.4,0.1-0.6,0.2c-0.5,0.2-0.9,0.3-1.4,0.5c-0.2,0.1-0.4,0.1-0.6,0.2c-0.5,0.2-1.1,0.3-1.7,0.4
			c-0.2,0-0.3,0.1-0.5,0.1c-0.7,0.2-1.5,0.3-2.3,0.5c-0.1,0-0.2,0-0.2,0c-0.7,0.1-1.4,0.2-2.1,0.3c-0.2,0-0.5,0.1-0.7,0.1
			c-0.6,0.1-1.2,0.1-1.8,0.2c-0.3,0-0.5,0-0.8,0.1c-0.6,0.1-1.3,0.1-1.9,0.1c-0.2,0-0.4,0-0.7,0c-0.9,0-1.8,0.1-2.7,0.1
			c-0.9,0-1.8,0-2.7-0.1c-0.2,0-0.5,0-0.7,0c-0.6,0-1.3-0.1-1.9-0.1c-0.3,0-0.6,0-0.8-0.1c-0.6-0.1-1.2-0.1-1.7-0.2
			c-0.3,0-0.5-0.1-0.8-0.1c-0.7-0.1-1.4-0.2-2-0.3c-0.1,0-0.2,0-0.3-0.1c-0.8-0.1-1.5-0.3-2.3-0.5c-0.2,0-0.4-0.1-0.6-0.1
			c-0.5-0.1-1.1-0.3-1.6-0.4c-0.2-0.1-0.5-0.1-0.7-0.2c-0.5-0.1-0.9-0.3-1.3-0.4c-0.2-0.1-0.4-0.2-0.7-0.2c-0.5-0.2-0.9-0.4-1.4-0.5
			c-0.1-0.1-0.3-0.1-0.4-0.2c-0.6-0.3-1.1-0.5-1.6-0.8c-0.1-0.1-0.2-0.1-0.3-0.2c-0.4-0.2-0.8-0.5-1.2-0.7c-0.2-0.1-0.3-0.2-0.4-0.3
			c-0.3-0.2-0.6-0.4-0.9-0.6c-0.1-0.1-0.3-0.2-0.4-0.3c-0.3-0.2-0.5-0.5-0.8-0.7c-0.1-0.1-0.2-0.2-0.3-0.3c-0.3-0.3-0.6-0.7-0.8-1
			v9.4c0,5.9,12.2,10.9,26.6,10.9s26.6-5,26.6-10.9v-9.4c-0.2,0.3-0.5,0.7-0.8,1C114,93.5,113.8,93.6,113.8,93.7z"/>
		<path class="st2" d="M113.7,106.8c-0.2,0.2-0.5,0.5-0.7,0.7c-0.1,0.1-0.3,0.2-0.4,0.3c-0.3,0.2-0.6,0.4-0.8,0.6
			c-0.2,0.1-0.3,0.2-0.5,0.3c-0.4,0.2-0.7,0.4-1.1,0.7c-0.1,0.1-0.2,0.1-0.3,0.2c-0.5,0.3-1.1,0.5-1.6,0.8c-0.1,0.1-0.3,0.1-0.5,0.2
			c-0.4,0.2-0.9,0.4-1.3,0.5c-0.2,0.1-0.4,0.2-0.7,0.2c-0.4,0.1-0.9,0.3-1.3,0.4c-0.2,0.1-0.5,0.1-0.7,0.2c-0.5,0.1-1,0.3-1.5,0.4
			c-0.2,0.1-0.4,0.1-0.6,0.2c-0.7,0.2-1.5,0.3-2.2,0.5c-0.1,0-0.3,0-0.4,0.1c-0.6,0.1-1.3,0.2-1.9,0.3c-0.3,0-0.5,0.1-0.8,0.1
			c-0.5,0.1-1.1,0.1-1.7,0.2c-0.3,0-0.6,0.1-0.9,0.1c-0.6,0-1.2,0.1-1.8,0.1c-0.3,0-0.5,0-0.8,0c-0.9,0-1.8,0.1-2.7,0.1
			c-0.9,0-1.8,0-2.7-0.1c-0.3,0-0.5,0-0.8,0c-0.6,0-1.2-0.1-1.8-0.1c-0.3,0-0.6-0.1-0.9-0.1c-0.6-0.1-1.1-0.1-1.7-0.2
			c-0.3,0-0.5-0.1-0.8-0.1c-0.7-0.1-1.3-0.2-1.9-0.3c-0.1,0-0.3,0-0.4-0.1c-0.8-0.1-1.5-0.3-2.2-0.5c-0.2,0-0.4-0.1-0.6-0.2
			c-0.5-0.1-1-0.3-1.5-0.4c-0.2-0.1-0.5-0.1-0.7-0.2c-0.4-0.1-0.9-0.3-1.3-0.4c-0.2-0.1-0.4-0.2-0.7-0.2c-0.5-0.2-0.9-0.4-1.4-0.5
			c-0.2-0.1-0.3-0.1-0.5-0.2c-0.6-0.3-1.1-0.5-1.6-0.8c-0.1-0.1-0.2-0.1-0.3-0.2c-0.4-0.2-0.8-0.4-1.1-0.7c-0.2-0.1-0.3-0.2-0.5-0.3
			c-0.3-0.2-0.6-0.4-0.9-0.6c-0.1-0.1-0.3-0.2-0.4-0.3c-0.3-0.2-0.5-0.5-0.7-0.7c-0.1-0.1-0.2-0.2-0.3-0.3c-0.3-0.3-0.6-0.7-0.8-1
			v9.4c0,5.9,12.2,10.9,26.6,10.9s26.6-5,26.6-10.9v-9.4c-0.2,0.3-0.5,0.7-0.8,1C113.9,106.6,113.8,106.7,113.7,106.8z"/>
		<path class="st2" d="M113.7,80.7c-0.2,0.2-0.5,0.5-0.7,0.7c-0.1,0.1-0.3,0.2-0.4,0.3c-0.3,0.2-0.6,0.4-0.8,0.6
			c-0.2,0.1-0.3,0.2-0.5,0.3c-0.4,0.2-0.7,0.4-1.1,0.7c-0.1,0.1-0.2,0.1-0.3,0.2c-0.5,0.3-1.1,0.5-1.6,0.8c-0.1,0.1-0.3,0.1-0.5,0.2
			c-0.4,0.2-0.9,0.4-1.3,0.5c-0.2,0.1-0.4,0.2-0.7,0.2c-0.4,0.1-0.9,0.3-1.3,0.4c-0.2,0.1-0.5,0.1-0.7,0.2c-0.5,0.1-1,0.3-1.5,0.4
			c-0.2,0.1-0.4,0.1-0.6,0.2c-0.7,0.2-1.5,0.3-2.2,0.5c-0.1,0-0.3,0-0.4,0.1c-0.6,0.1-1.3,0.2-1.9,0.3c-0.3,0-0.5,0.1-0.8,0.1
			c-0.5,0.1-1.1,0.1-1.7,0.2c-0.3,0-0.6,0.1-0.9,0.1c-0.6,0-1.2,0.1-1.8,0.1c-0.3,0-0.5,0-0.8,0c-0.9,0-1.8,0.1-2.7,0.1
			c-0.9,0-1.8,0-2.7-0.1c-0.3,0-0.5,0-0.8,0c-0.6,0-1.2-0.1-1.8-0.1c-0.3,0-0.6-0.1-0.9-0.1c-0.6-0.1-1.1-0.1-1.7-0.2
			c-0.3,0-0.5-0.1-0.8-0.1c-0.7-0.1-1.3-0.2-1.9-0.3c-0.1,0-0.3,0-0.4-0.1c-0.8-0.1-1.5-0.3-2.2-0.5c-0.2,0-0.4-0.1-0.6-0.2
			c-0.5-0.1-1-0.3-1.5-0.4c-0.2-0.1-0.5-0.1-0.7-0.2c-0.4-0.1-0.9-0.3-1.3-0.4C71,85.1,70.8,85,70.5,85c-0.5-0.2-0.9-0.4-1.4-0.5
			c-0.2-0.1-0.3-0.1-0.5-0.2C68,84,67.5,83.8,67,83.5c-0.1-0.1-0.2-0.1-0.3-0.2c-0.4-0.2-0.8-0.4-1.1-0.7c-0.2-0.1-0.3-0.2-0.5-0.3
			c-0.3-0.2-0.6-0.4-0.9-0.6c-0.1-0.1-0.3-0.2-0.4-0.3c-0.3-0.2-0.5-0.5-0.7-0.7c-0.1-0.1-0.2-0.2-0.3-0.3c-0.3-0.3-0.6-0.7-0.8-1
			v9.4c0,5.9,12.2,10.9,26.6,10.9s26.6-5,26.6-10.9v-9.4c-0.2,0.3-0.5,0.7-0.8,1C113.9,80.5,113.8,80.6,113.7,80.7z"/>
		<path class="st2" d="M113.7,67.6c-0.2,0.2-0.5,0.5-0.7,0.7c-0.1,0.1-0.3,0.2-0.4,0.3c-0.3,0.2-0.6,0.4-0.8,0.6
			c-0.2,0.1-0.3,0.2-0.5,0.3c-0.4,0.2-0.7,0.4-1.1,0.7c-0.1,0.1-0.2,0.1-0.3,0.2c-0.5,0.3-1.1,0.5-1.6,0.8c-0.1,0.1-0.3,0.1-0.5,0.2
			c-0.4,0.2-0.9,0.4-1.3,0.5c-0.2,0.1-0.4,0.2-0.7,0.2c-0.4,0.1-0.9,0.3-1.3,0.4c-0.2,0.1-0.5,0.1-0.7,0.2c-0.5,0.1-1,0.3-1.5,0.4
			c-0.2,0.1-0.4,0.1-0.6,0.2c-0.7,0.2-1.5,0.3-2.2,0.5c-0.1,0-0.3,0-0.4,0.1c-0.6,0.1-1.3,0.2-1.9,0.3c-0.3,0-0.5,0.1-0.8,0.1
			c-0.5,0.1-1.1,0.1-1.7,0.2c-0.3,0-0.6,0.1-0.9,0.1c-0.6,0-1.2,0.1-1.8,0.1c-0.3,0-0.5,0-0.8,0c-0.9,0-1.8,0.1-2.7,0.1
			c-0.9,0-1.8,0-2.7-0.1c-0.3,0-0.5,0-0.8,0c-0.6,0-1.2-0.1-1.8-0.1c-0.3,0-0.6-0.1-0.9-0.1c-0.6-0.1-1.1-0.1-1.7-0.2
			c-0.3,0-0.5-0.1-0.8-0.1c-0.7-0.1-1.3-0.2-1.9-0.3c-0.1,0-0.3,0-0.4-0.1c-0.8-0.1-1.5-0.3-2.2-0.5c-0.2,0-0.4-0.1-0.6-0.2
			c-0.5-0.1-1-0.3-1.5-0.4c-0.2-0.1-0.5-0.1-0.7-0.2c-0.4-0.1-0.9-0.3-1.3-0.4c-0.2-0.1-0.4-0.2-0.7-0.2c-0.5-0.2-0.9-0.4-1.4-0.5
			c-0.2-0.1-0.3-0.1-0.5-0.2c-0.6-0.3-1.1-0.5-1.6-0.8c-0.1-0.1-0.2-0.1-0.3-0.2c-0.4-0.2-0.8-0.4-1.1-0.7c-0.2-0.1-0.3-0.2-0.5-0.3
			c-0.3-0.2-0.6-0.4-0.9-0.6c-0.1-0.1-0.3-0.2-0.4-0.3c-0.3-0.2-0.5-0.5-0.7-0.7c-0.1-0.1-0.2-0.2-0.3-0.3c-0.3-0.3-0.6-0.7-0.8-1
			v9.4c0,5.9,12.2,10.9,26.6,10.9s26.6-5,26.6-10.9v-9.4c-0.2,0.3-0.5,0.7-0.8,1C113.9,67.4,113.8,67.5,113.7,67.6z"/>
		<path class="st2" d="M88.3,51.7c-14.4,0-26.6,5-26.6,10.9c0,0.4,0,0.7,0.1,1.1c0.2,0.7,0.6,1.4,1.1,2.1c0.8,1,1.9,2,3.4,2.9
			c1,0.6,2.1,1.1,3.3,1.6c4.9,2,11.5,3.2,18.7,3.2s13.9-1.3,18.7-3.2c1.2-0.5,2.3-1,3.3-1.6c1.5-0.9,2.6-1.8,3.4-2.9
			c0.5-0.7,0.9-1.4,1.1-2.1c0.1-0.4,0.1-0.7,0.1-1.1C114.9,56.7,102.7,51.7,88.3,51.7z"/>
		<path class="st3" d="M88.3,50.4c-15.6,0-27.9,5.4-27.9,12.2v13.1v13.1v13.1V115c0,6.8,12.2,12.2,27.9,12.2
			c15.6,0,27.9-5.4,27.9-12.2v-13.1V88.7v-13V62.6C116.1,55.8,103.9,50.4,88.3,50.4z M114.9,114.8c0,5.9-12.2,10.9-26.6,10.9
			s-26.6-5-26.6-10.9v-9.4c0.2,0.3,0.5,0.7,0.8,1c0.1,0.1,0.2,0.2,0.3,0.3c0.2,0.2,0.5,0.5,0.7,0.7c0.1,0.1,0.3,0.2,0.4,0.3
			c0.3,0.2,0.6,0.4,0.9,0.6c0.2,0.1,0.3,0.2,0.5,0.3c0.4,0.2,0.7,0.5,1.1,0.7c0.1,0.1,0.2,0.1,0.3,0.2c0.5,0.3,1.1,0.5,1.6,0.8
			c0.1,0.1,0.3,0.1,0.5,0.2c0.4,0.2,0.9,0.4,1.4,0.5c0.2,0.1,0.4,0.2,0.7,0.2c0.4,0.1,0.9,0.3,1.3,0.4c0.2,0.1,0.5,0.1,0.7,0.2
			c0.5,0.1,1,0.3,1.5,0.4c0.2,0,0.4,0.1,0.6,0.2c0.7,0.2,1.5,0.3,2.2,0.5c0.1,0,0.3,0,0.4,0.1c0.6,0.1,1.3,0.2,1.9,0.3
			c0.3,0,0.5,0.1,0.8,0.1c0.6,0.1,1.1,0.1,1.7,0.2c0.3,0,0.6,0.1,0.9,0.1c0.6,0,1.2,0.1,1.8,0.1c0.3,0,0.5,0,0.8,0
			c0.9,0,1.8,0.1,2.7,0.1c0.9,0,1.8,0,2.7-0.1c0.3,0,0.5,0,0.8,0c0.6,0,1.2-0.1,1.8-0.1c0.3,0,0.6-0.1,0.9-0.1
			c0.6-0.1,1.1-0.1,1.7-0.2c0.3,0,0.5-0.1,0.8-0.1c0.7-0.1,1.3-0.2,1.9-0.3c0.1,0,0.3,0,0.4-0.1c0.8-0.1,1.5-0.3,2.2-0.5
			c0.2,0,0.4-0.1,0.6-0.2c0.5-0.1,1-0.3,1.5-0.4c0.2-0.1,0.5-0.1,0.7-0.2c0.4-0.1,0.9-0.3,1.3-0.4c0.2-0.1,0.5-0.2,0.7-0.2
			c0.5-0.2,0.9-0.3,1.3-0.5c0.2-0.1,0.3-0.1,0.5-0.2c0.6-0.3,1.1-0.5,1.6-0.8c0.1-0.1,0.2-0.1,0.3-0.2c0.4-0.2,0.8-0.4,1.1-0.7
			c0.2-0.1,0.3-0.2,0.5-0.3c0.3-0.2,0.6-0.4,0.8-0.6c0.1-0.1,0.3-0.2,0.4-0.3c0.3-0.2,0.5-0.5,0.7-0.7c0.1-0.1,0.2-0.2,0.3-0.3
			c0.3-0.3,0.6-0.7,0.8-1v9.4H114.9z M114.9,101.8c0,5.9-12.2,10.9-26.6,10.9s-26.6-5-26.6-10.9v-9.4c0.2,0.3,0.5,0.7,0.8,1
			c0.1,0.1,0.2,0.2,0.3,0.3c0.2,0.2,0.5,0.5,0.8,0.7c0.1,0.1,0.3,0.2,0.4,0.3c0.3,0.2,0.6,0.4,0.9,0.6c0.1,0.1,0.3,0.2,0.4,0.3
			c0.4,0.2,0.8,0.5,1.2,0.7c0.1,0.1,0.2,0.1,0.3,0.2c0.5,0.3,1.1,0.5,1.6,0.8c0.1,0.1,0.3,0.1,0.4,0.2c0.4,0.2,0.9,0.4,1.4,0.5
			c0.2,0.1,0.4,0.2,0.7,0.2c0.4,0.2,0.9,0.3,1.3,0.4c0.2,0.1,0.5,0.1,0.7,0.2c0.5,0.1,1,0.3,1.6,0.4c0.2,0,0.4,0.1,0.6,0.1
			c0.7,0.2,1.5,0.3,2.3,0.5c0.1,0,0.2,0,0.3,0.1c0.7,0.1,1.3,0.2,2,0.3c0.3,0,0.5,0.1,0.8,0.1c0.6,0.1,1.2,0.1,1.7,0.2
			c0.3,0,0.6,0.1,0.8,0.1c0.6,0.1,1.3,0.1,1.9,0.1c0.2,0,0.5,0,0.7,0c0.9,0,1.8,0.1,2.7,0.1c0.9,0,1.8,0,2.7-0.1c0.2,0,0.5,0,0.7,0
			c0.7,0,1.3-0.1,1.9-0.1c0.3,0,0.5,0,0.8-0.1c0.6-0.1,1.2-0.1,1.8-0.2c0.2,0,0.5-0.1,0.7-0.1c0.7-0.1,1.4-0.2,2.1-0.3
			c0.1,0,0.2,0,0.2,0c0.8-0.1,1.5-0.3,2.3-0.5c0.2,0,0.3-0.1,0.5-0.1c0.6-0.1,1.1-0.3,1.7-0.4c0.2-0.1,0.4-0.1,0.6-0.2
			c0.5-0.1,0.9-0.3,1.4-0.5c0.2-0.1,0.4-0.1,0.6-0.2c0.5-0.2,1-0.4,1.4-0.6c0.1-0.1,0.2-0.1,0.4-0.2c0.6-0.3,1.1-0.5,1.7-0.8
			c0.1,0,0.2-0.1,0.3-0.2c0.4-0.2,0.8-0.5,1.2-0.7c0.1-0.1,0.3-0.2,0.4-0.3c0.3-0.2,0.6-0.4,0.9-0.6c0.1-0.1,0.3-0.2,0.4-0.3
			c0.3-0.2,0.5-0.5,0.8-0.7c0.1-0.1,0.2-0.2,0.3-0.3c0.3-0.3,0.6-0.7,0.8-1C114.9,92.3,114.9,101.8,114.9,101.8z M114.9,88.7
			c0,5.9-12.2,10.9-26.6,10.9s-26.6-5-26.6-10.9v-9.4c0.2,0.3,0.5,0.7,0.8,1c0.1,0.1,0.2,0.2,0.3,0.3c0.2,0.2,0.5,0.5,0.7,0.7
			c0.1,0.1,0.3,0.2,0.4,0.3c0.3,0.2,0.6,0.4,0.9,0.6c0.2,0.1,0.3,0.2,0.5,0.3c0.4,0.2,0.7,0.5,1.1,0.7c0.1,0.1,0.2,0.1,0.3,0.2
			c0.5,0.3,1.1,0.5,1.6,0.8c0.1,0.1,0.3,0.1,0.5,0.2c0.4,0.2,0.9,0.4,1.4,0.5c0.2,0.1,0.4,0.2,0.7,0.2c0.4,0.1,0.9,0.3,1.3,0.4
			c0.2,0.1,0.5,0.1,0.7,0.2c0.5,0.1,1,0.3,1.5,0.4c0.2,0,0.4,0.1,0.6,0.2c0.7,0.2,1.5,0.3,2.2,0.5c0.1,0,0.3,0,0.4,0.1
			c0.6,0.1,1.3,0.2,1.9,0.3c0.3,0,0.5,0.1,0.8,0.1c0.6,0.1,1.1,0.1,1.7,0.2c0.3,0,0.6,0.1,0.9,0.1c0.6,0,1.2,0.1,1.8,0.1
			c0.3,0,0.5,0,0.8,0c0.9,0,1.8,0.1,2.7,0.1c0.9,0,1.8,0,2.7-0.1c0.3,0,0.5,0,0.8,0c0.6,0,1.2-0.1,1.8-0.1c0.3,0,0.6-0.1,0.9-0.1
			c0.6-0.1,1.1-0.1,1.7-0.2c0.3,0,0.5-0.1,0.8-0.1c0.7-0.1,1.3-0.2,1.9-0.3c0.1,0,0.3,0,0.4-0.1c0.8-0.1,1.5-0.3,2.2-0.5
			c0.2,0,0.4-0.1,0.6-0.2c0.5-0.1,1-0.3,1.5-0.4c0.2-0.1,0.5-0.1,0.7-0.2c0.4-0.1,0.9-0.3,1.3-0.4c0.2-0.1,0.5-0.2,0.7-0.2
			c0.5-0.2,0.9-0.3,1.3-0.5c0.2-0.1,0.3-0.1,0.5-0.2c0.6-0.3,1.1-0.5,1.6-0.8c0.1-0.1,0.2-0.1,0.3-0.2c0.4-0.2,0.8-0.4,1.1-0.7
			c0.2-0.1,0.3-0.2,0.5-0.3c0.3-0.2,0.6-0.4,0.8-0.6c0.1-0.1,0.3-0.2,0.4-0.3c0.3-0.2,0.5-0.5,0.7-0.7c0.1-0.1,0.2-0.2,0.3-0.3
			c0.3-0.3,0.6-0.7,0.8-1v9.4H114.9z M114.9,75.7c0,5.9-12.2,10.9-26.6,10.9s-26.6-5-26.6-10.9v-9.4c0.2,0.3,0.5,0.7,0.8,1
			c0.1,0.1,0.2,0.2,0.3,0.3c0.2,0.2,0.5,0.5,0.7,0.7c0.1,0.1,0.3,0.2,0.4,0.3c0.3,0.2,0.6,0.4,0.9,0.6c0.2,0.1,0.3,0.2,0.5,0.3
			c0.4,0.2,0.7,0.5,1.1,0.7c0.1,0.1,0.2,0.1,0.3,0.2c0.5,0.3,1.1,0.5,1.6,0.8c0.1,0.1,0.3,0.1,0.5,0.2c0.4,0.2,0.9,0.4,1.4,0.5
			c0.2,0.1,0.4,0.2,0.7,0.2c0.4,0.1,0.9,0.3,1.3,0.4c0.2,0.1,0.5,0.1,0.7,0.2c0.5,0.1,1,0.3,1.5,0.4c0.2,0,0.4,0.1,0.6,0.2
			c0.7,0.2,1.5,0.3,2.2,0.5c0.1,0,0.3,0,0.4,0.1c0.6,0.1,1.3,0.2,1.9,0.3c0.3,0,0.5,0.1,0.8,0.1c0.6,0.1,1.1,0.1,1.7,0.2
			c0.3,0,0.6,0.1,0.9,0.1c0.6,0,1.2,0.1,1.8,0.1c0.3,0,0.5,0,0.8,0c0.9,0,1.8,0.1,2.7,0.1c0.9,0,1.8,0,2.7-0.1c0.3,0,0.5,0,0.8,0
			c0.6,0,1.2-0.1,1.8-0.1c0.3,0,0.6-0.1,0.9-0.1c0.6-0.1,1.1-0.1,1.7-0.2c0.3,0,0.5-0.1,0.8-0.1c0.7-0.1,1.3-0.2,1.9-0.3
			c0.1,0,0.3,0,0.4-0.1c0.8-0.1,1.5-0.3,2.2-0.5c0.2,0,0.4-0.1,0.6-0.2c0.5-0.1,1-0.3,1.5-0.4c0.2-0.1,0.5-0.1,0.7-0.2
			c0.4-0.1,0.9-0.3,1.3-0.4c0.2-0.1,0.5-0.2,0.7-0.2c0.5-0.2,0.9-0.3,1.3-0.5c0.2-0.1,0.3-0.1,0.5-0.2c0.6-0.3,1.1-0.5,1.6-0.8
			c0.1-0.1,0.2-0.1,0.3-0.2c0.4-0.2,0.8-0.4,1.1-0.7c0.2-0.1,0.3-0.2,0.5-0.3c0.3-0.2,0.6-0.4,0.8-0.6c0.1-0.1,0.3-0.2,0.4-0.3
			c0.3-0.2,0.5-0.5,0.7-0.7c0.1-0.1,0.2-0.2,0.3-0.3c0.3-0.3,0.6-0.7,0.8-1v9.4H114.9z M114.7,63.7c-0.2,0.7-0.6,1.4-1.1,2.1
			c-0.8,1-1.9,2-3.4,2.9c-1,0.6-2.1,1.1-3.3,1.6c-4.8,2-11.5,3.2-18.7,3.2s-13.9-1.3-18.7-3.2c-1.2-0.5-2.3-1-3.3-1.6
			c-1.5-0.9-2.6-1.8-3.4-2.9c-0.5-0.7-0.9-1.4-1.1-2.1c-0.1-0.4-0.1-0.7-0.1-1.1c0-5.9,12.2-10.9,26.6-10.9s26.6,5,26.6,10.9
			C114.9,63,114.8,63.3,114.7,63.7z"/>
	</g>
</g>
<g>
	<g>
		<path class="st4" d="M50.3,44.3c0.2,0.2,0.5,0.5,0.8,0.7c0.1,0.1,0.3,0.2,0.4,0.3c0.3,0.2,0.6,0.4,0.9,0.6
			c0.1,0.1,0.3,0.2,0.4,0.3c0.4,0.2,0.8,0.5,1.2,0.7c0.1,0,0.2,0.1,0.3,0.2c0.5,0.3,1.1,0.5,1.7,0.8c0.1,0.1,0.2,0.1,0.4,0.2
			c0.5,0.2,0.9,0.4,1.4,0.6c0.2,0.1,0.4,0.1,0.6,0.2c0.5,0.2,0.9,0.3,1.4,0.5c0.2,0.1,0.4,0.1,0.6,0.2c0.5,0.2,1.1,0.3,1.7,0.4
			c0.2,0,0.3,0.1,0.5,0.1c0.7,0.2,1.5,0.3,2.3,0.5c0.1,0,0.2,0,0.2,0c0.7,0.1,1.4,0.2,2.1,0.3c0.2,0,0.5,0.1,0.7,0.1
			c0.6,0.1,1.2,0.1,1.8,0.2c0.3,0,0.5,0,0.8,0.1c0.6,0.1,1.3,0.1,1.9,0.1c0.2,0,0.4,0,0.7,0c0.9,0,1.8,0.1,2.7,0.1
			c0.9,0,1.8,0,2.7-0.1c0.2,0,0.5,0,0.7,0c0.6,0,1.3-0.1,1.9-0.1c0.3,0,0.6,0,0.8-0.1c0.6-0.1,1.2-0.1,1.7-0.2
			c0.3,0,0.5-0.1,0.8-0.1c0.7-0.1,1.4-0.2,2-0.3c0.1,0,0.2,0,0.3-0.1c0.8-0.1,1.5-0.3,2.3-0.5c0.2,0,0.4-0.1,0.6-0.1
			c0.5-0.1,1.1-0.3,1.6-0.4c0.2-0.1,0.5-0.1,0.7-0.2c0.5-0.1,0.9-0.3,1.3-0.4c0.2-0.1,0.4-0.2,0.7-0.2c0.5-0.2,0.9-0.4,1.4-0.5
			c0.1-0.1,0.3-0.1,0.4-0.2c0.6-0.3,1.1-0.5,1.6-0.8c0.1-0.1,0.2-0.1,0.3-0.2c0.4-0.2,0.8-0.5,1.2-0.7c0.2-0.1,0.3-0.2,0.4-0.3
			c0.3-0.2,0.6-0.4,0.9-0.6c0.1-0.1,0.3-0.2,0.4-0.3c0.3-0.2,0.5-0.5,0.8-0.7c0.1-0.1,0.2-0.2,0.3-0.3c0.3-0.3,0.6-0.7,0.8-1v9.4
			c0,5.9-12.2,10.9-26.6,10.9s-26.6-5-26.6-10.9V43c0.2,0.3,0.5,0.7,0.8,1C50.1,44.1,50.2,44.2,50.3,44.3z"/>
		<path class="st4" d="M50.3,57.4c0.2,0.2,0.5,0.5,0.7,0.7c0.1,0.1,0.3,0.2,0.4,0.3c0.3,0.2,0.6,0.4,0.8,0.6
			c0.2,0.1,0.3,0.2,0.5,0.3c0.4,0.2,0.7,0.4,1.1,0.7c0.1,0.1,0.2,0.1,0.3,0.2c0.5,0.3,1.1,0.5,1.6,0.8c0.1,0.1,0.3,0.1,0.5,0.2
			c0.4,0.2,0.9,0.4,1.3,0.5c0.2,0.1,0.4,0.2,0.7,0.2c0.4,0.1,0.9,0.3,1.3,0.4c0.2,0.1,0.5,0.1,0.7,0.2c0.5,0.1,1,0.3,1.5,0.4
			c0.2,0.1,0.4,0.1,0.6,0.2c0.7,0.2,1.5,0.3,2.2,0.5c0.1,0,0.3,0,0.4,0.1c0.6,0.1,1.3,0.2,1.9,0.3c0.3,0,0.5,0.1,0.8,0.1
			c0.5,0.1,1.1,0.1,1.7,0.2c0.3,0,0.6,0.1,0.9,0.1c0.6,0,1.2,0.1,1.8,0.1c0.3,0,0.5,0,0.8,0c0.9,0,1.8,0.1,2.7,0.1s1.8,0,2.7-0.1
			c0.3,0,0.5,0,0.8,0c0.6,0,1.2-0.1,1.8-0.1c0.3,0,0.6-0.1,0.9-0.1c0.6-0.1,1.1-0.1,1.7-0.2c0.3,0,0.5-0.1,0.8-0.1
			c0.7-0.1,1.3-0.2,1.9-0.3c0.1,0,0.3,0,0.4-0.1c0.8-0.1,1.5-0.3,2.2-0.5c0.2,0,0.4-0.1,0.6-0.2c0.5-0.1,1-0.3,1.5-0.4
			c0.2-0.1,0.5-0.1,0.7-0.2c0.4-0.1,0.9-0.3,1.3-0.4c0.2-0.1,0.4-0.2,0.7-0.2c0.5-0.2,0.9-0.4,1.4-0.5c0.2-0.1,0.3-0.1,0.5-0.2
			c0.6-0.3,1.1-0.5,1.6-0.8c0.1-0.1,0.2-0.1,0.3-0.2c0.4-0.2,0.8-0.4,1.1-0.7c0.2-0.1,0.3-0.2,0.5-0.3c0.3-0.2,0.6-0.4,0.9-0.6
			c0.1-0.1,0.3-0.2,0.4-0.3c0.3-0.2,0.5-0.5,0.7-0.7c0.1-0.1,0.2-0.2,0.3-0.3c0.3-0.3,0.6-0.7,0.8-1v9.4c0,5.9-12.2,10.9-26.6,10.9
			s-26.6-5-26.6-10.9v-9.4c0.2,0.3,0.5,0.7,0.8,1C50.1,57.2,50.2,57.3,50.3,57.4z"/>
		<path class="st4" d="M50.3,31.3c0.2,0.2,0.5,0.5,0.7,0.7c0.1,0.1,0.3,0.2,0.4,0.3c0.3,0.2,0.6,0.4,0.8,0.6
			c0.2,0.1,0.3,0.2,0.5,0.3c0.4,0.2,0.7,0.4,1.1,0.7c0.1,0.1,0.2,0.1,0.3,0.2c0.5,0.3,1.1,0.5,1.6,0.8c0.1,0.1,0.3,0.1,0.5,0.2
			c0.4,0.2,0.9,0.4,1.3,0.5c0.2,0.1,0.4,0.2,0.7,0.2c0.4,0.1,0.9,0.3,1.3,0.4c0.2,0.1,0.5,0.1,0.7,0.2c0.5,0.1,1,0.3,1.5,0.4
			c0.2,0.1,0.4,0.1,0.6,0.2c0.7,0.2,1.5,0.3,2.2,0.5c0.1,0,0.3,0,0.4,0.1c0.6,0.1,1.3,0.2,1.9,0.3c0.3,0,0.5,0.1,0.8,0.1
			c0.5,0.1,1.1,0.1,1.7,0.2c0.3,0,0.6,0.1,0.9,0.1c0.6,0,1.2,0.1,1.8,0.1c0.3,0,0.5,0,0.8,0c0.9,0,1.8,0.1,2.7,0.1s1.8,0,2.7-0.1
			c0.3,0,0.5,0,0.8,0c0.6,0,1.2-0.1,1.8-0.1c0.3,0,0.6-0.1,0.9-0.1c0.6-0.1,1.1-0.1,1.7-0.2c0.3,0,0.5-0.1,0.8-0.1
			c0.7-0.1,1.3-0.2,1.9-0.3c0.1,0,0.3,0,0.4-0.1c0.8-0.1,1.5-0.3,2.2-0.5c0.2,0,0.4-0.1,0.6-0.2c0.5-0.1,1-0.3,1.5-0.4
			c0.2-0.1,0.5-0.1,0.7-0.2c0.4-0.1,0.9-0.3,1.3-0.4c0.2-0.1,0.4-0.2,0.7-0.2c0.5-0.2,0.9-0.4,1.4-0.5c0.2-0.1,0.3-0.1,0.5-0.2
			c0.6-0.3,1.1-0.5,1.6-0.8c0.1-0.1,0.2-0.1,0.3-0.2c0.4-0.2,0.8-0.4,1.1-0.7c0.2-0.1,0.3-0.2,0.5-0.3c0.3-0.2,0.6-0.4,0.9-0.6
			c0.1-0.1,0.3-0.2,0.4-0.3c0.3-0.2,0.5-0.5,0.7-0.7c0.1-0.1,0.2-0.2,0.3-0.3c0.3-0.3,0.6-0.7,0.8-1v9.4c0,5.9-12.2,10.9-26.6,10.9
			s-26.6-5-26.6-10.9V30c0.2,0.3,0.5,0.7,0.8,1C50.1,31.1,50.2,31.2,50.3,31.3z"/>
		<path class="st4" d="M50.3,18.2c0.2,0.2,0.5,0.5,0.7,0.7c0.1,0.1,0.3,0.2,0.4,0.3c0.3,0.2,0.6,0.4,0.8,0.6
			c0.2,0.1,0.3,0.2,0.5,0.3c0.4,0.2,0.7,0.4,1.1,0.7c0.1,0.1,0.2,0.1,0.3,0.2c0.5,0.3,1.1,0.5,1.6,0.8c0.1,0.1,0.3,0.1,0.5,0.2
			c0.4,0.2,0.9,0.4,1.3,0.5c0.2,0.1,0.4,0.2,0.7,0.2c0.4,0.1,0.9,0.3,1.3,0.4c0.2,0.1,0.5,0.1,0.7,0.2c0.5,0.1,1,0.3,1.5,0.4
			c0.2,0.1,0.4,0.1,0.6,0.2c0.7,0.2,1.5,0.3,2.2,0.5c0.1,0,0.3,0,0.4,0.1c0.6,0.1,1.3,0.2,1.9,0.3c0.3,0,0.5,0.1,0.8,0.1
			c0.5,0.1,1.1,0.1,1.7,0.2c0.3,0,0.6,0.1,0.9,0.1c0.6,0,1.2,0.1,1.8,0.1c0.3,0,0.5,0,0.8,0c0.9,0,1.8,0.1,2.7,0.1s1.8,0,2.7-0.1
			c0.3,0,0.5,0,0.8,0c0.6,0,1.2-0.1,1.8-0.1c0.3,0,0.6-0.1,0.9-0.1c0.6-0.1,1.1-0.1,1.7-0.2c0.3,0,0.5-0.1,0.8-0.1
			c0.7-0.1,1.3-0.2,1.9-0.3c0.1,0,0.3,0,0.4-0.1c0.8-0.1,1.5-0.3,2.2-0.5c0.2,0,0.4-0.1,0.6-0.2c0.5-0.1,1-0.3,1.5-0.4
			c0.2-0.1,0.5-0.1,0.7-0.2c0.4-0.1,0.9-0.3,1.3-0.4c0.2-0.1,0.4-0.2,0.7-0.2c0.5-0.2,0.9-0.4,1.4-0.5c0.2-0.1,0.3-0.1,0.5-0.2
			c0.6-0.3,1.1-0.5,1.6-0.8c0.1-0.1,0.2-0.1,0.3-0.2c0.4-0.2,0.8-0.4,1.1-0.7c0.2-0.1,0.3-0.2,0.5-0.3c0.3-0.2,0.6-0.4,0.9-0.6
			c0.1-0.1,0.3-0.2,0.4-0.3c0.3-0.2,0.5-0.5,0.7-0.7c0.1-0.1,0.2-0.2,0.3-0.3c0.3-0.3,0.6-0.7,0.8-1v9.4c0,5.9-12.2,10.9-26.6,10.9
			s-26.6-5-26.6-10.9v-9.4c0.2,0.3,0.5,0.7,0.8,1C50.1,18,50.2,18.1,50.3,18.2z"/>
		<path class="st4" d="M75.8,2.3c14.4,0,26.6,5,26.6,10.9c0,0.4,0,0.7-0.1,1.1c-0.2,0.7-0.6,1.4-1.1,2.1c-0.8,1-1.9,2-3.4,2.9
			c-1,0.6-2.1,1.1-3.3,1.6c-4.9,2-11.5,3.2-18.7,3.2s-13.9-1.3-18.7-3.2c-1.2-0.5-2.3-1-3.3-1.6c-1.5-0.9-2.6-1.8-3.4-2.9
			c-0.5-0.7-0.9-1.4-1.1-2.1c-0.1-0.4-0.1-0.7-0.1-1.1C49.1,7.3,61.3,2.3,75.8,2.3z"/>
		<path class="st5" d="M47.9,13.2v13.1v13.1v13.1v13.1c0,6.8,12.2,12.2,27.9,12.2c15.6,0,27.9-5.4,27.9-12.2V52.4V39.3v-13V13.2
			C103.6,6.4,91.4,1,75.8,1C60.1,1,47.9,6.4,47.9,13.2z M49.1,56.1c0.2,0.3,0.5,0.7,0.8,1c0.1,0.1,0.2,0.2,0.3,0.3
			c0.2,0.2,0.5,0.5,0.7,0.7c0.1,0.1,0.3,0.2,0.4,0.3c0.3,0.2,0.6,0.4,0.8,0.6c0.2,0.1,0.3,0.2,0.5,0.3c0.4,0.2,0.7,0.4,1.1,0.7
			c0.1,0.1,0.2,0.1,0.3,0.2c0.5,0.3,1.1,0.5,1.6,0.8c0.1,0.1,0.3,0.1,0.5,0.2c0.4,0.2,0.9,0.4,1.3,0.5c0.2,0.1,0.4,0.2,0.7,0.2
			c0.4,0.1,0.9,0.3,1.3,0.4c0.2,0.1,0.5,0.1,0.7,0.2c0.5,0.1,1,0.3,1.5,0.4c0.2,0.1,0.4,0.1,0.6,0.2c0.7,0.2,1.5,0.3,2.2,0.5
			c0.1,0,0.3,0,0.4,0.1c0.6,0.1,1.3,0.2,1.9,0.3c0.3,0,0.5,0.1,0.8,0.1c0.5,0.1,1.1,0.1,1.7,0.2c0.3,0,0.6,0.1,0.9,0.1
			c0.6,0,1.2,0.1,1.8,0.1c0.3,0,0.5,0,0.8,0c0.9,0,1.8,0.1,2.7,0.1s1.8,0,2.7-0.1c0.3,0,0.5,0,0.8,0c0.6,0,1.2-0.1,1.8-0.1
			c0.3,0,0.6-0.1,0.9-0.1c0.6-0.1,1.1-0.1,1.7-0.2c0.3,0,0.5-0.1,0.8-0.1c0.7-0.1,1.3-0.2,1.9-0.3c0.1,0,0.3,0,0.4-0.1
			c0.8-0.1,1.5-0.3,2.2-0.5c0.2,0,0.4-0.1,0.6-0.2c0.5-0.1,1-0.3,1.5-0.4c0.2-0.1,0.5-0.1,0.7-0.2c0.4-0.1,0.9-0.3,1.3-0.4
			c0.2-0.1,0.4-0.2,0.7-0.2c0.5-0.2,0.9-0.4,1.4-0.5c0.2-0.1,0.3-0.1,0.5-0.2c0.6-0.3,1.1-0.5,1.6-0.8c0.1-0.1,0.2-0.1,0.3-0.2
			c0.4-0.2,0.8-0.4,1.1-0.7c0.2-0.1,0.3-0.2,0.5-0.3c0.3-0.2,0.6-0.4,0.9-0.6c0.1-0.1,0.3-0.2,0.4-0.3c0.3-0.2,0.5-0.5,0.7-0.7
			c0.1-0.1,0.2-0.2,0.3-0.3c0.3-0.3,0.6-0.7,0.8-1v9.4c0,5.9-12.2,10.9-26.6,10.9s-26.6-5-26.6-10.9v-9.4H49.1z M49.1,43
			c0.2,0.3,0.5,0.7,0.8,1c0.1,0.1,0.2,0.2,0.3,0.3c0.2,0.2,0.5,0.5,0.8,0.7c0.1,0.1,0.3,0.2,0.4,0.3c0.3,0.2,0.6,0.4,0.9,0.6
			c0.1,0.1,0.3,0.2,0.4,0.3c0.4,0.2,0.8,0.5,1.2,0.7c0.1,0,0.2,0.1,0.3,0.2c0.5,0.3,1.1,0.5,1.7,0.8c0.1,0.1,0.2,0.1,0.4,0.2
			c0.5,0.2,0.9,0.4,1.4,0.6c0.2,0.1,0.4,0.1,0.6,0.2c0.5,0.2,0.9,0.3,1.4,0.5c0.2,0.1,0.4,0.1,0.6,0.2c0.5,0.2,1.1,0.3,1.7,0.4
			c0.2,0,0.3,0.1,0.5,0.1c0.7,0.2,1.5,0.3,2.3,0.5c0.1,0,0.2,0,0.2,0c0.7,0.1,1.4,0.2,2.1,0.3c0.2,0,0.5,0.1,0.7,0.1
			c0.6,0.1,1.2,0.1,1.8,0.2c0.3,0,0.5,0,0.8,0.1c0.6,0.1,1.3,0.1,1.9,0.1c0.2,0,0.4,0,0.7,0c0.9,0,1.8,0.1,2.7,0.1
			c0.9,0,1.8,0,2.7-0.1c0.2,0,0.5,0,0.7,0c0.6,0,1.3-0.1,1.9-0.1c0.3,0,0.6,0,0.8-0.1c0.6-0.1,1.2-0.1,1.7-0.2
			c0.3,0,0.5-0.1,0.8-0.1c0.7-0.1,1.4-0.2,2-0.3c0.1,0,0.2,0,0.3-0.1c0.8-0.1,1.5-0.3,2.3-0.5c0.2,0,0.4-0.1,0.6-0.1
			c0.5-0.1,1.1-0.3,1.6-0.4c0.2-0.1,0.5-0.1,0.7-0.2c0.5-0.1,0.9-0.3,1.3-0.4c0.2-0.1,0.4-0.2,0.7-0.2c0.5-0.2,0.9-0.4,1.4-0.5
			c0.1-0.1,0.3-0.1,0.4-0.2c0.6-0.3,1.1-0.5,1.6-0.8c0.1-0.1,0.2-0.1,0.3-0.2c0.4-0.2,0.8-0.5,1.2-0.7c0.2-0.1,0.3-0.2,0.4-0.3
			c0.3-0.2,0.6-0.4,0.9-0.6c0.1-0.1,0.3-0.2,0.4-0.3c0.3-0.2,0.5-0.5,0.8-0.7c0.1-0.1,0.2-0.2,0.3-0.3c0.3-0.3,0.6-0.7,0.8-1v9.4
			c0,5.9-12.2,10.9-26.6,10.9s-26.6-5-26.6-10.9L49.1,43L49.1,43z M49.1,29.9c0.2,0.3,0.5,0.7,0.8,1c0.1,0.1,0.2,0.2,0.3,0.3
			c0.2,0.2,0.5,0.5,0.7,0.7c0.1,0.1,0.3,0.2,0.4,0.3c0.3,0.2,0.6,0.4,0.8,0.6c0.2,0.1,0.3,0.2,0.5,0.3c0.4,0.2,0.7,0.4,1.1,0.7
			c0.1,0.1,0.2,0.1,0.3,0.2c0.5,0.3,1.1,0.5,1.6,0.8c0.1,0.1,0.3,0.1,0.5,0.2c0.4,0.2,0.9,0.4,1.3,0.5c0.2,0.1,0.4,0.2,0.7,0.2
			c0.4,0.1,0.9,0.3,1.3,0.4c0.2,0.1,0.5,0.1,0.7,0.2c0.5,0.1,1,0.3,1.5,0.4c0.2,0.1,0.4,0.1,0.6,0.2c0.7,0.2,1.5,0.3,2.2,0.5
			c0.1,0,0.3,0,0.4,0.1c0.6,0.1,1.3,0.2,1.9,0.3c0.3,0,0.5,0.1,0.8,0.1c0.5,0.1,1.1,0.1,1.7,0.2c0.3,0,0.6,0.1,0.9,0.1
			c0.6,0,1.2,0.1,1.8,0.1c0.3,0,0.5,0,0.8,0c0.9,0,1.8,0.1,2.7,0.1s1.8,0,2.7-0.1c0.3,0,0.5,0,0.8,0c0.6,0,1.2-0.1,1.8-0.1
			c0.3,0,0.6-0.1,0.9-0.1c0.6-0.1,1.1-0.1,1.7-0.2c0.3,0,0.5-0.1,0.8-0.1c0.7-0.1,1.3-0.2,1.9-0.3c0.1,0,0.3,0,0.4-0.1
			c0.8-0.1,1.5-0.3,2.2-0.5c0.2,0,0.4-0.1,0.6-0.2c0.5-0.1,1-0.3,1.5-0.4c0.2-0.1,0.5-0.1,0.7-0.2c0.4-0.1,0.9-0.3,1.3-0.4
			c0.2-0.1,0.4-0.2,0.7-0.2c0.5-0.2,0.9-0.4,1.4-0.5c0.2-0.1,0.3-0.1,0.5-0.2c0.6-0.3,1.1-0.5,1.6-0.8c0.1-0.1,0.2-0.1,0.3-0.2
			c0.4-0.2,0.8-0.4,1.1-0.7c0.2-0.1,0.3-0.2,0.5-0.3c0.3-0.2,0.6-0.4,0.9-0.6c0.1-0.1,0.3-0.2,0.4-0.3c0.3-0.2,0.5-0.5,0.7-0.7
			c0.1-0.1,0.2-0.2,0.3-0.3c0.3-0.3,0.6-0.7,0.8-1v9.4c0,5.9-12.2,10.9-26.6,10.9s-26.6-5-26.6-10.9v-9.4
			C48.7,29.9,49.1,29.9,49.1,29.9z M49.1,16.9c0.2,0.3,0.5,0.7,0.8,1c0.1,0.1,0.2,0.2,0.3,0.3c0.2,0.2,0.5,0.5,0.7,0.7
			c0.1,0.1,0.3,0.2,0.4,0.3c0.3,0.2,0.6,0.4,0.8,0.6c0.2,0.1,0.3,0.2,0.5,0.3c0.4,0.2,0.7,0.4,1.1,0.7c0.1,0.1,0.2,0.1,0.3,0.2
			c0.5,0.3,1.1,0.5,1.6,0.8c0.1,0.1,0.3,0.1,0.5,0.2c0.4,0.2,0.9,0.4,1.3,0.5c0.2,0.1,0.4,0.2,0.7,0.2c0.4,0.1,0.9,0.3,1.3,0.4
			c0.2,0.1,0.5,0.1,0.7,0.2c0.5,0.1,1,0.3,1.5,0.4c0.2,0.1,0.4,0.1,0.6,0.2c0.7,0.2,1.5,0.3,2.2,0.5c0.1,0,0.3,0,0.4,0.1
			c0.6,0.1,1.3,0.2,1.9,0.3c0.3,0,0.5,0.1,0.8,0.1c0.5,0.1,1.1,0.1,1.7,0.2c0.3,0,0.6,0.1,0.9,0.1c0.6,0,1.2,0.1,1.8,0.1
			c0.3,0,0.5,0,0.8,0c0.9,0,1.8,0.1,2.7,0.1s1.8,0,2.7-0.1c0.3,0,0.5,0,0.8,0c0.6,0,1.2-0.1,1.8-0.1c0.3,0,0.6-0.1,0.9-0.1
			c0.6-0.1,1.1-0.1,1.7-0.2c0.3,0,0.5-0.1,0.8-0.1c0.7-0.1,1.3-0.2,1.9-0.3c0.1,0,0.3,0,0.4-0.1c0.8-0.1,1.5-0.3,2.2-0.5
			c0.2,0,0.4-0.1,0.6-0.2c0.5-0.1,1-0.3,1.5-0.4c0.2-0.1,0.5-0.1,0.7-0.2c0.4-0.1,0.9-0.3,1.3-0.4c0.2-0.1,0.4-0.2,0.7-0.2
			c0.5-0.2,0.9-0.4,1.4-0.5c0.2-0.1,0.3-0.1,0.5-0.2c0.6-0.3,1.1-0.5,1.6-0.8c0.1-0.1,0.2-0.1,0.3-0.2c0.4-0.2,0.8-0.4,1.1-0.7
			c0.2-0.1,0.3-0.2,0.5-0.3c0.3-0.2,0.6-0.4,0.9-0.6c0.1-0.1,0.3-0.2,0.4-0.3c0.3-0.2,0.5-0.5,0.7-0.7c0.1-0.1,0.2-0.2,0.3-0.3
			c0.3-0.3,0.6-0.7,0.8-1v9.4c0,5.9-12.2,10.9-26.6,10.9s-26.6-5-26.6-10.9v-9.4C48.7,16.9,49.1,16.9,49.1,16.9z M49.1,13.2
			c0-5.9,12.2-10.9,26.6-10.9s26.6,5,26.6,10.9c0,0.4,0,0.7-0.1,1.1c-0.2,0.7-0.6,1.4-1.1,2.1c-0.8,1-1.9,2-3.4,2.9
			c-1,0.6-2.1,1.1-3.3,1.6c-4.9,2-11.5,3.2-18.7,3.2S61.8,22.8,57,20.9c-1.2-0.5-2.3-1-3.3-1.6c-1.5-0.9-2.6-1.8-3.4-2.9
			c-0.5-0.7-0.9-1.4-1.1-2.1C49.2,13.9,49.1,13.6,49.1,13.2z"/>
	</g>
	<g>
		<path class="st4" d="M28.9,63.9c0.2,0.2,0.5,0.5,0.8,0.7c0.1,0.1,0.3,0.2,0.4,0.3c0.3,0.2,0.6,0.4,0.9,0.6
			c0.1,0.1,0.3,0.2,0.4,0.3c0.4,0.2,0.8,0.5,1.2,0.7c0.1,0,0.2,0.1,0.3,0.2c0.5,0.3,1.1,0.5,1.7,0.8c0.1,0.1,0.2,0.1,0.4,0.2
			c0.5,0.2,0.9,0.4,1.4,0.6c0.2,0.1,0.4,0.1,0.6,0.2c0.5,0.2,0.9,0.3,1.4,0.5c0.2,0.1,0.4,0.1,0.6,0.2c0.5,0.2,1.1,0.3,1.7,0.4
			c0.2,0,0.3,0.1,0.5,0.1c0.7,0.2,1.5,0.3,2.3,0.5c0.1,0,0.2,0,0.2,0c0.7,0.1,1.4,0.2,2.1,0.3c0.2,0,0.5,0.1,0.7,0.1
			c0.6,0.1,1.2,0.1,1.8,0.2c0.3,0,0.5,0,0.8,0.1C49.7,71,50.3,71,51,71c0.2,0,0.4,0,0.7,0c0.9,0,1.8,0.1,2.7,0.1s1.8,0,2.7-0.1
			c0.2,0,0.5,0,0.7,0c0.6,0,1.3-0.1,1.9-0.1c0.3,0,0.6,0,0.8-0.1c0.6-0.1,1.2-0.1,1.7-0.2c0.3,0,0.5-0.1,0.8-0.1
			c0.7-0.1,1.4-0.2,2-0.3c0.1,0,0.2,0,0.3-0.1c0.8-0.1,1.5-0.3,2.3-0.5c0.2,0,0.4-0.1,0.6-0.1c0.5-0.1,1.1-0.3,1.6-0.4
			c0.2-0.1,0.5-0.1,0.7-0.2c0.5-0.1,0.9-0.3,1.3-0.4c0.2-0.1,0.4-0.2,0.7-0.2c0.5-0.2,0.9-0.4,1.4-0.5c0.1-0.1,0.3-0.1,0.4-0.2
			c0.6-0.3,1.1-0.5,1.6-0.8c0.1-0.1,0.2-0.1,0.3-0.2c0.4-0.2,0.8-0.5,1.2-0.7c0.2-0.1,0.3-0.2,0.4-0.3c0.3-0.2,0.6-0.4,0.9-0.6
			c0.1-0.1,0.3-0.2,0.4-0.3c0.3-0.2,0.5-0.5,0.8-0.7c0.1-0.1,0.2-0.2,0.3-0.3c0.3-0.3,0.6-0.7,0.8-1V72c0,5.9-12.2,10.9-26.6,10.9
			s-26.6-5-26.6-10.9v-9.4c0.2,0.3,0.5,0.7,0.8,1C28.7,63.7,28.8,63.8,28.9,63.9z"/>
		<path class="st4" d="M28.9,77c0.2,0.2,0.5,0.5,0.7,0.7c0.1,0.1,0.3,0.2,0.4,0.3c0.3,0.2,0.6,0.4,0.8,0.6c0.2,0.1,0.3,0.2,0.5,0.3
			c0.4,0.2,0.7,0.4,1.1,0.7c0.1,0.1,0.2,0.1,0.3,0.2c0.5,0.3,1.1,0.5,1.6,0.8c0.1,0.1,0.3,0.1,0.5,0.2c0.4,0.2,0.9,0.4,1.3,0.5
			c0.2,0.1,0.4,0.2,0.7,0.2c0.4,0.1,0.9,0.3,1.3,0.4c0.2,0.1,0.5,0.1,0.7,0.2c0.5,0.1,1,0.3,1.5,0.4c0.2,0.1,0.4,0.1,0.6,0.2
			c0.7,0.2,1.5,0.3,2.2,0.5c0.1,0,0.3,0,0.4,0.1c0.6,0.1,1.3,0.2,1.9,0.3c0.3,0,0.5,0.1,0.8,0.1c0.5,0.1,1.1,0.1,1.7,0.2
			c0.3,0,0.6,0.1,0.9,0.1c0.6,0,1.2,0.1,1.8,0.1c0.3,0,0.5,0,0.8,0c0.9,0,1.8,0.1,2.7,0.1s1.8,0,2.7-0.1c0.3,0,0.5,0,0.8,0
			c0.6,0,1.2-0.1,1.8-0.1c0.3,0,0.6-0.1,0.9-0.1c0.6-0.1,1.1-0.1,1.7-0.2c0.3,0,0.5-0.1,0.8-0.1c0.7-0.1,1.3-0.2,1.9-0.3
			c0.1,0,0.3,0,0.4-0.1c0.8-0.1,1.5-0.3,2.2-0.5c0.2,0,0.4-0.1,0.6-0.2c0.5-0.1,1-0.3,1.5-0.4c0.2-0.1,0.5-0.1,0.7-0.2
			c0.4-0.1,0.9-0.3,1.3-0.4c0.2-0.1,0.4-0.2,0.7-0.2c0.5-0.2,0.9-0.4,1.4-0.5c0.2-0.1,0.3-0.1,0.5-0.2c0.6-0.3,1.1-0.5,1.6-0.8
			c0.1-0.1,0.2-0.1,0.3-0.2c0.4-0.2,0.8-0.4,1.1-0.7c0.2-0.1,0.3-0.2,0.5-0.3c0.3-0.2,0.6-0.4,0.9-0.6c0.1-0.1,0.3-0.2,0.4-0.3
			c0.3-0.2,0.5-0.5,0.7-0.7c0.1-0.1,0.2-0.2,0.3-0.3c0.3-0.3,0.6-0.7,0.8-1V85c0.4,6-11.8,11-26.3,11c-14.4,0-26.6-5-26.6-11v-9.4
			c0.2,0.3,0.5,0.7,0.8,1C28.7,76.8,28.8,76.9,28.9,77z"/>
		<path class="st4" d="M28.9,50.9c0.2,0.2,0.5,0.5,0.7,0.7c0.1,0.1,0.3,0.2,0.4,0.3c0.3,0.2,0.6,0.4,0.8,0.6
			c0.2,0.1,0.3,0.2,0.5,0.3c0.4,0.2,0.7,0.4,1.1,0.7c0.1,0.1,0.2,0.1,0.3,0.2c0.5,0.3,1.1,0.5,1.6,0.8c0.1,0.1,0.3,0.1,0.5,0.2
			c0.4,0.2,0.9,0.4,1.3,0.5c0.2,0.1,0.4,0.2,0.7,0.2c0.4,0.1,0.9,0.3,1.3,0.4c0.2,0.1,0.5,0.1,0.7,0.2c0.5,0.1,1,0.3,1.5,0.4
			c0.2,0.1,0.4,0.1,0.6,0.2c0.7,0.2,1.5,0.3,2.2,0.5c0.1,0,0.3,0,0.4,0.1c0.6,0.1,1.3,0.2,1.9,0.3c0.3,0,0.5,0.1,0.8,0.1
			c0.5,0.1,1.1,0.1,1.7,0.2c0.3,0,0.6,0.1,0.9,0.1c0.6,0,1.2,0.1,1.8,0.1c0.3,0,0.5,0,0.8,0c0.9,0,1.8,0.1,2.7,0.1s1.8,0,2.7-0.1
			c0.3,0,0.5,0,0.8,0c0.6,0,1.2-0.1,1.8-0.1c0.3,0,0.6-0.1,0.9-0.1c0.6-0.1,1.1-0.1,1.7-0.2c0.3,0,0.5-0.1,0.8-0.1
			c0.7-0.1,1.3-0.2,1.9-0.3c0.1,0,0.3,0,0.4-0.1c0.8-0.1,1.5-0.3,2.2-0.5c0.2,0,0.4-0.1,0.6-0.2c0.5-0.1,1-0.3,1.5-0.4
			c0.2-0.1,0.5-0.1,0.7-0.2c0.4-0.1,0.9-0.3,1.3-0.4c0.2-0.1,0.4-0.2,0.7-0.2c0.5-0.2,0.9-0.4,1.4-0.5c0.2-0.1,0.3-0.1,0.5-0.2
			c0.6-0.3,1.1-0.5,1.6-0.8c0.1-0.1,0.2-0.1,0.3-0.2c0.4-0.2,0.8-0.4,1.1-0.7c0.2-0.1,0.3-0.2,0.5-0.3c0.3-0.2,0.6-0.4,0.9-0.6
			c0.1-0.1,0.3-0.2,0.4-0.3c0.3-0.2,0.5-0.5,0.7-0.7c0.1-0.1,0.2-0.2,0.3-0.3c0.3-0.3,0.6-0.7,0.8-1V59c0,5.9-12.2,10.9-26.6,10.9
			s-26.6-5-26.6-10.9v-9.4c0.2,0.3,0.5,0.7,0.8,1C28.7,50.7,28.8,50.8,28.9,50.9z"/>
		<path class="st4" d="M28.9,37.8c0.2,0.2,0.5,0.5,0.7,0.7c0.1,0.1,0.3,0.2,0.4,0.3c0.3,0.2,0.6,0.4,0.8,0.6
			c0.2,0.1,0.3,0.2,0.5,0.3c0.4,0.2,0.7,0.4,1.1,0.7c0.1,0.1,0.2,0.1,0.3,0.2c0.5,0.3,1.1,0.5,1.6,0.8c0.1,0.1,0.3,0.1,0.5,0.2
			c0.4,0.2,0.9,0.4,1.3,0.5c0.2,0.1,0.4,0.2,0.7,0.2c0.4,0.1,0.9,0.3,1.3,0.4c0.2,0.1,0.5,0.1,0.7,0.2c0.5,0.1,1,0.3,1.5,0.4
			c0.2,0.1,0.4,0.1,0.6,0.2c0.7,0.2,1.5,0.3,2.2,0.5c0.1,0,0.3,0,0.4,0.1c0.6,0.1,1.3,0.2,1.9,0.3c0.3,0,0.5,0.1,0.8,0.1
			c0.5,0.1,1.1,0.1,1.7,0.2c0.3,0,0.6,0.1,0.9,0.1c0.6,0,1.2,0.1,1.8,0.1c0.3,0,0.5,0,0.8,0c0.9,0,1.8,0.1,2.7,0.1s1.8,0,2.7-0.1
			c0.3,0,0.5,0,0.8,0c0.6,0,1.2-0.1,1.8-0.1c0.3,0,0.6-0.1,0.9-0.1c0.6-0.1,1.1-0.1,1.7-0.2c0.3,0,0.5-0.1,0.8-0.1
			c0.7-0.1,1.3-0.2,1.9-0.3c0.1,0,0.3,0,0.4-0.1c0.8-0.1,1.5-0.3,2.2-0.5c0.2,0,0.4-0.1,0.6-0.2c0.5-0.1,1-0.3,1.5-0.4
			c0.2-0.1,0.5-0.1,0.7-0.2c0.4-0.1,0.9-0.3,1.3-0.4c0.2-0.1,0.4-0.2,0.7-0.2c0.5-0.2,0.9-0.4,1.4-0.5c0.2-0.1,0.3-0.1,0.5-0.2
			c0.6-0.3,1.1-0.5,1.6-0.8c0.1-0.1,0.2-0.1,0.3-0.2c0.4-0.2,0.8-0.4,1.1-0.7c0.2-0.1,0.3-0.2,0.5-0.3c0.3-0.2,0.6-0.4,0.9-0.6
			c0.1-0.1,0.3-0.2,0.4-0.3c0.3-0.2,0.5-0.5,0.7-0.7c0.1-0.1,0.2-0.2,0.3-0.3c0.3-0.3,0.6-0.7,0.8-1v9.4c0,5.9-12.2,10.9-26.6,10.9
			s-26.6-5-26.6-10.9v-9.4c0.2,0.3,0.5,0.7,0.8,1C28.7,37.6,28.8,37.7,28.9,37.8z"/>
		<path class="st4" d="M54.3,21.9c14.4,0,26.6,5,26.6,10.9c0,0.4,0,0.7-0.1,1.1c-0.2,0.7-0.6,1.4-1.1,2.1c-0.8,1-1.9,2-3.4,2.9
			c-1,0.6-2.1,1.1-3.3,1.6c-4.9,2-11.5,3.2-18.7,3.2s-13.9-1.3-18.7-3.2c-1.2-0.5-2.3-1-3.3-1.6C30.9,38,29.7,37,29,36
			c-0.5-0.7-0.9-1.4-1.1-2.1c-0.1-0.4-0.1-0.7-0.1-1.1C27.7,26.9,39.9,21.9,54.3,21.9z"/>
		<path class="st5" d="M26.5,32.8v13.1V59v13v13c0,6.8,12.2,12.2,27.9,12.2c15.6,0,27.9-5.4,27.9-12.2V72V58.9v-13V32.8
			c0-6.8-12.2-12.2-27.9-12.2C38.7,20.6,26.5,26,26.5,32.8z M27.7,75.7c0.2,0.3,0.5,0.7,0.8,1c0.1,0.1,0.2,0.2,0.3,0.3
			c0.2,0.2,0.5,0.5,0.7,0.7c0.1,0.1,0.3,0.2,0.4,0.3c0.3,0.2,0.6,0.4,0.8,0.6c0.2,0.1,0.3,0.2,0.5,0.3c0.4,0.2,0.7,0.4,1.1,0.7
			c0.1,0.1,0.2,0.1,0.3,0.2c0.5,0.3,1.1,0.5,1.6,0.8c0.1,0.1,0.3,0.1,0.5,0.2c0.4,0.2,0.9,0.4,1.3,0.5c0.2,0.1,0.4,0.2,0.7,0.2
			c0.4,0.1,0.9,0.3,1.3,0.4c0.2,0.1,0.5,0.1,0.7,0.2c0.5,0.1,1,0.3,1.5,0.4c0.2,0.1,0.4,0.1,0.6,0.2c0.7,0.2,1.5,0.3,2.2,0.5
			c0.1,0,0.3,0,0.4,0.1c0.6,0.1,1.3,0.2,1.9,0.3c0.3,0,0.5,0.1,0.8,0.1c0.5,0.1,1.1,0.1,1.7,0.2c0.3,0,0.6,0.1,0.9,0.1
			c0.6,0,1.2,0.1,1.8,0.1c0.3,0,0.5,0,0.8,0c0.9,0,1.8,0.1,2.7,0.1s1.8,0,2.7-0.1c0.3,0,0.5,0,0.8,0c0.6,0,1.2-0.1,1.8-0.1
			c0.3,0,0.6-0.1,0.9-0.1c0.6-0.1,1.1-0.1,1.7-0.2c0.3,0,0.5-0.1,0.8-0.1c0.7-0.1,1.3-0.2,1.9-0.3c0.1,0,0.3,0,0.4-0.1
			c0.8-0.1,1.5-0.3,2.2-0.5c0.2,0,0.4-0.1,0.6-0.2c0.5-0.1,1-0.3,1.5-0.4c0.2-0.1,0.5-0.1,0.7-0.2c0.4-0.1,0.9-0.3,1.3-0.4
			c0.2-0.1,0.4-0.2,0.7-0.2c0.5-0.2,0.9-0.4,1.4-0.5c0.2-0.1,0.3-0.1,0.5-0.2c0.6-0.3,1.1-0.5,1.6-0.8c0.1-0.1,0.2-0.1,0.3-0.2
			c0.4-0.2,0.8-0.4,1.1-0.7c0.2-0.1,0.3-0.2,0.5-0.3c0.3-0.2,0.6-0.4,0.9-0.6c0.1-0.1,0.3-0.2,0.4-0.3c0.3-0.2,0.5-0.5,0.7-0.7
			c0.1-0.1,0.2-0.2,0.3-0.3c0.3-0.3,0.6-0.7,0.8-1V85c0.5,6-11.7,11-26.2,11c-14.4,0-26.6-5-26.6-11C27.7,85,27.7,75.7,27.7,75.7z
			 M27.7,62.6c0.2,0.3,0.5,0.7,0.8,1c0.1,0.1,0.2,0.2,0.3,0.3c0.2,0.2,0.5,0.5,0.8,0.7c0.1,0.1,0.3,0.2,0.4,0.3
			c0.3,0.2,0.6,0.4,0.9,0.6c0.1,0.1,0.3,0.2,0.4,0.3c0.4,0.2,0.8,0.5,1.2,0.7c0.1,0,0.2,0.1,0.3,0.2c0.5,0.3,1.1,0.5,1.7,0.8
			c0.1,0.1,0.2,0.1,0.4,0.2c0.5,0.2,0.9,0.4,1.4,0.6c0.2,0.1,0.4,0.1,0.6,0.2c0.5,0.2,0.9,0.3,1.4,0.5c0.2,0.1,0.4,0.1,0.6,0.2
			c0.5,0.2,1.1,0.3,1.7,0.4c0.2,0,0.3,0.1,0.5,0.1c0.7,0.2,1.5,0.3,2.3,0.5c0.1,0,0.2,0,0.2,0c0.7,0.1,1.4,0.2,2.1,0.3
			c0.2,0,0.5,0.1,0.7,0.1c0.6,0.1,1.2,0.1,1.8,0.2c0.3,0,0.5,0,0.8,0.1c0.7,0.1,1.3,0.1,2,0.1c0.2,0,0.4,0,0.7,0
			c0.9,0,1.8,0.1,2.7,0.1s1.8,0,2.7-0.1c0.2,0,0.5,0,0.7,0c0.6,0,1.3-0.1,1.9-0.1c0.3,0,0.6,0,0.8-0.1c0.6-0.1,1.2-0.1,1.7-0.2
			c0.3,0,0.5-0.1,0.8-0.1c0.7-0.1,1.4-0.2,2-0.3c0.1,0,0.2,0,0.3-0.1c0.8-0.1,1.5-0.3,2.3-0.5c0.2,0,0.4-0.1,0.6-0.1
			c0.5-0.1,1.1-0.3,1.6-0.4c0.2-0.1,0.5-0.1,0.7-0.2c0.5-0.1,0.9-0.3,1.3-0.4c0.2-0.1,0.4-0.2,0.7-0.2c0.5-0.2,0.9-0.4,1.4-0.5
			c0.1-0.1,0.3-0.1,0.4-0.2c0.6-0.3,1.1-0.5,1.6-0.8c0.1-0.1,0.2-0.1,0.3-0.2c0.4-0.2,0.8-0.5,1.2-0.7c0.2-0.1,0.3-0.2,0.4-0.3
			c0.3-0.2,0.6-0.4,0.9-0.6c0.1-0.1,0.3-0.2,0.4-0.3c0.3-0.2,0.5-0.5,0.8-0.7c0.1-0.1,0.2-0.2,0.3-0.3c0.3-0.3,0.6-0.7,0.8-1V72
			c0,5.9-12.2,10.9-26.6,10.9s-26.6-5-26.6-10.9v-9.4H27.7z M27.7,49.6c0.2,0.3,0.5,0.7,0.8,1c0.1,0.1,0.2,0.2,0.3,0.3
			c0.2,0.2,0.5,0.5,0.7,0.7c0.1,0.1,0.3,0.2,0.4,0.3c0.3,0.2,0.6,0.4,0.8,0.6c0.2,0.1,0.3,0.2,0.5,0.3c0.4,0.2,0.7,0.4,1.1,0.7
			c0.1,0.1,0.2,0.1,0.3,0.2c0.5,0.3,1.1,0.5,1.6,0.8c0.1,0.1,0.3,0.1,0.5,0.2c0.4,0.2,0.9,0.4,1.3,0.5c0.2,0.1,0.4,0.2,0.7,0.2
			c0.4,0.1,0.9,0.3,1.3,0.4c0.2,0.1,0.5,0.1,0.7,0.2c0.5,0.1,1,0.3,1.5,0.4c0.2,0.1,0.4,0.1,0.6,0.2c0.7,0.2,1.5,0.3,2.2,0.5
			c0.1,0,0.3,0,0.4,0.1c0.6,0.1,1.3,0.2,1.9,0.3c0.3,0,0.5,0.1,0.8,0.1c0.5,0.1,1.1,0.1,1.7,0.2c0.3,0,0.6,0.1,0.9,0.1
			c0.6,0,1.2,0.1,1.8,0.1c0.3,0,0.5,0,0.8,0c0.9,0,1.8,0.1,2.7,0.1s1.8,0,2.7-0.1c0.3,0,0.5,0,0.8,0c0.6,0,1.2-0.1,1.8-0.1
			c0.3,0,0.6-0.1,0.9-0.1c0.6-0.1,1.1-0.1,1.7-0.2c0.3,0,0.5-0.1,0.8-0.1c0.7-0.1,1.3-0.2,1.9-0.3c0.1,0,0.3,0,0.4-0.1
			c0.8-0.1,1.5-0.3,2.2-0.5c0.2,0,0.4-0.1,0.6-0.2c0.5-0.1,1-0.3,1.5-0.4c0.2-0.1,0.5-0.1,0.7-0.2c0.4-0.1,0.9-0.3,1.3-0.4
			c0.2-0.1,0.4-0.2,0.7-0.2c0.5-0.2,0.9-0.4,1.4-0.5c0.2-0.1,0.3-0.1,0.5-0.2c0.6-0.3,1.1-0.5,1.6-0.8c0.1-0.1,0.2-0.1,0.3-0.2
			c0.4-0.2,0.8-0.4,1.1-0.7c0.2-0.1,0.3-0.2,0.5-0.3c0.3-0.2,0.6-0.4,0.9-0.6c0.1-0.1,0.3-0.2,0.4-0.3c0.3-0.2,0.5-0.5,0.7-0.7
			c0.1-0.1,0.2-0.2,0.3-0.3c0.3-0.3,0.6-0.7,0.8-1V59c0,5.9-12.2,10.9-26.6,10.9s-26.6-5-26.6-10.9v-9.4H27.7z M27.7,36.5
			c0.2,0.3,0.5,0.7,0.8,1c0.1,0.1,0.2,0.2,0.3,0.3c0.2,0.2,0.5,0.5,0.7,0.7c0.1,0.1,0.3,0.2,0.4,0.3c0.3,0.2,0.6,0.4,0.8,0.6
			c0.2,0.1,0.3,0.2,0.5,0.3c0.4,0.2,0.7,0.4,1.1,0.7c0.1,0.1,0.2,0.1,0.3,0.2c0.5,0.3,1.1,0.5,1.6,0.8c0.1,0.1,0.3,0.1,0.5,0.2
			c0.4,0.2,0.9,0.4,1.3,0.5c0.2,0.1,0.4,0.2,0.7,0.2c0.4,0.1,0.9,0.3,1.3,0.4c0.2,0.1,0.5,0.1,0.7,0.2c0.5,0.1,1,0.3,1.5,0.4
			c0.2,0.1,0.4,0.1,0.6,0.2c0.7,0.2,1.5,0.3,2.2,0.5c0.1,0,0.3,0,0.4,0.1c0.6,0.1,1.3,0.2,1.9,0.3c0.3,0,0.5,0.1,0.8,0.1
			c0.5,0.1,1.1,0.1,1.7,0.2c0.3,0,0.6,0.1,0.9,0.1c0.6,0,1.2,0.1,1.8,0.1c0.3,0,0.5,0,0.8,0c0.9,0,1.8,0.1,2.7,0.1s1.8,0,2.7-0.1
			c0.3,0,0.5,0,0.8,0c0.6,0,1.2-0.1,1.8-0.1c0.3,0,0.6-0.1,0.9-0.1c0.6-0.1,1.1-0.1,1.7-0.2c0.3,0,0.5-0.1,0.8-0.1
			c0.7-0.1,1.3-0.2,1.9-0.3c0.1,0,0.3,0,0.4-0.1c0.8-0.1,1.5-0.3,2.2-0.5c0.2,0,0.4-0.1,0.6-0.2c0.5-0.1,1-0.3,1.5-0.4
			c0.2-0.1,0.5-0.1,0.7-0.2c0.4-0.1,0.9-0.3,1.3-0.4c0.2-0.1,0.4-0.2,0.7-0.2c0.5-0.2,0.9-0.4,1.4-0.5c0.2-0.1,0.3-0.1,0.5-0.2
			c0.6-0.3,1.1-0.5,1.6-0.8c0.1-0.1,0.2-0.1,0.3-0.2c0.4-0.2,0.8-0.4,1.1-0.7c0.2-0.1,0.3-0.2,0.5-0.3c0.3-0.2,0.6-0.4,0.9-0.6
			c0.1-0.1,0.3-0.2,0.4-0.3c0.3-0.2,0.5-0.5,0.7-0.7c0.1-0.1,0.2-0.2,0.3-0.3c0.3-0.3,0.6-0.7,0.8-1v9.4c0,5.9-12.2,10.9-26.6,10.9
			s-26.6-5-26.6-10.9v-9.4H27.7z M27.7,32.8c0-5.9,12.2-10.9,26.6-10.9s26.6,5,26.6,10.9c0,0.4,0,0.7-0.1,1.1
			c-0.2,0.7-0.6,1.4-1.1,2.1c-0.8,1-1.9,2-3.4,2.9c-1,0.6-2.1,1.1-3.3,1.6c-4.9,2-11.5,3.2-18.7,3.2s-13.9-1.3-18.7-3.2
			c-1.2-0.5-2.3-1-3.3-1.6C30.9,38,29.7,37,29,36c-0.5-0.7-0.9-1.4-1.1-2.1C27.8,33.5,27.7,33.2,27.7,32.8z"/>
	</g>
	<g>
		<path class="st4" d="M3.4,83.4c0.2,0.2,0.5,0.5,0.8,0.7c0.1,0.1,0.3,0.2,0.4,0.3c0.3,0.2,0.6,0.4,0.9,0.6c0.1,0.1,0.3,0.2,0.4,0.3
			c0.4,0.2,0.8,0.5,1.2,0.7c0.1,0,0.2,0.1,0.3,0.2c0.5,0.3,1,0.6,1.6,0.8c0.1,0.1,0.2,0.1,0.4,0.2c0.5,0.2,0.9,0.4,1.4,0.6
			c0.2,0.1,0.4,0.1,0.6,0.2c0.5,0.2,0.9,0.3,1.4,0.5c0.2,0.1,0.4,0.1,0.6,0.2c0.5,0.2,1.1,0.3,1.7,0.4c0.2,0,0.3,0.1,0.5,0.1
			c0.7,0.2,1.5,0.3,2.3,0.5c0.1,0,0.2,0,0.2,0c0.7,0.1,1.4,0.2,2.1,0.3c0.2,0,0.5,0.1,0.7,0.1c0.6,0.1,1.2,0.1,1.8,0.2
			c0.3,0,0.5,0,0.8,0.1c0.6,0.1,1.3,0.1,1.9,0.1c0.2,0,0.4,0,0.7,0c0.9,0,1.8,0.1,2.7,0.1c0.9,0,1.8,0,2.7-0.1c0.2,0,0.5,0,0.7,0
			c0.6,0,1.3-0.1,1.9-0.1c0.3,0,0.6,0,0.8-0.1c0.6-0.1,1.2-0.1,1.7-0.2c0.3,0,0.5-0.1,0.8-0.1c0.7-0.1,1.4-0.2,2-0.3
			c0.1,0,0.2,0,0.3-0.1c0.8-0.1,1.5-0.3,2.3-0.5c0.2,0,0.4-0.1,0.6-0.1c0.5-0.1,1.1-0.3,1.6-0.4c0.2-0.1,0.5-0.1,0.7-0.2
			c0.5-0.1,0.9-0.3,1.3-0.4c0.2-0.1,0.4-0.2,0.7-0.2c0.5-0.2,0.9-0.4,1.4-0.5c0.1-0.1,0.3-0.1,0.4-0.2c0.6-0.3,1.1-0.5,1.6-0.8
			c0.1-0.1,0.2-0.1,0.3-0.2c0.4-0.2,0.8-0.5,1.2-0.7c0.2-0.1,0.3-0.2,0.4-0.3c0.3-0.2,0.6-0.4,0.9-0.6c0.1-0.1,0.3-0.2,0.4-0.3
			c0.3-0.2,0.5-0.5,0.8-0.7c0.1-0.1,0.2-0.2,0.3-0.3c0.3-0.3,0.6-0.7,0.8-1v9.4c0,5.9-12.2,10.9-26.6,10.9s-26.6-5-26.6-10.9v-9.4
			c0.2,0.3,0.5,0.7,0.8,1C3.2,83.2,3.3,83.3,3.4,83.4z"/>
		<path class="st4" d="M3.4,96.5c0.2,0.2,0.5,0.5,0.7,0.7c0.1,0.1,0.3,0.2,0.4,0.3c0.3,0.2,0.6,0.4,0.8,0.6c0.2,0.1,0.3,0.2,0.5,0.3
			c0.4,0.2,0.7,0.4,1.1,0.7c0.1,0.1,0.2,0.1,0.3,0.2c0.5,0.3,1.1,0.5,1.6,0.8c0.1,0.1,0.3,0.1,0.5,0.2c0.4,0.2,0.9,0.4,1.3,0.5
			c0.2,0.1,0.4,0.2,0.7,0.2c0.4,0.1,0.9,0.3,1.3,0.4c0.2,0.1,0.5,0.1,0.7,0.2c0.5,0.1,1,0.3,1.5,0.4c0.2,0.1,0.4,0.1,0.6,0.2
			c0.7,0.2,1.5,0.3,2.2,0.5c0.1,0,0.3,0,0.4,0.1c0.6,0.1,1.3,0.2,1.9,0.3c0.3,0,0.5,0.1,0.8,0.1c0.5,0.1,1.1,0.1,1.7,0.2
			c0.3,0,0.6,0.1,0.9,0.1c0.6,0,1.2,0.1,1.8,0.1c0.3,0,0.5,0,0.8,0c0.9,0,1.8,0.1,2.7,0.1c0.9,0,1.8,0,2.7-0.1c0.3,0,0.5,0,0.8,0
			c0.6,0,1.2-0.1,1.8-0.1c0.3,0,0.6-0.1,0.9-0.1c0.6-0.1,1.1-0.1,1.7-0.2c0.3,0,0.5-0.1,0.8-0.1c0.7-0.1,1.3-0.2,1.9-0.3
			c0.1,0,0.3,0,0.4-0.1c0.8-0.1,1.5-0.3,2.2-0.5c0.2,0,0.4-0.1,0.6-0.2c0.5-0.1,1-0.3,1.5-0.4c0.2-0.1,0.5-0.1,0.7-0.2
			c0.4-0.1,0.9-0.3,1.3-0.4c0.2-0.1,0.4-0.2,0.7-0.2c0.5-0.2,0.9-0.4,1.4-0.5c0.2-0.1,0.3-0.1,0.5-0.2c0.6-0.3,1.1-0.5,1.6-0.8
			c0.1-0.1,0.2-0.1,0.3-0.2c0.4-0.2,0.8-0.4,1.1-0.7c0.2-0.1,0.3-0.2,0.5-0.3c0.3-0.2,0.6-0.4,0.9-0.6c0.1-0.1,0.3-0.2,0.4-0.3
			c0.3-0.2,0.5-0.5,0.7-0.7c0.1-0.1,0.2-0.2,0.3-0.3c0.3-0.3,0.6-0.7,0.8-1v9.4c0,5.9-12.2,10.9-26.6,10.9s-26.6-5-26.6-10.9v-9.4
			c0.2,0.3,0.5,0.7,0.8,1C3.2,96.3,3.3,96.4,3.4,96.5z"/>
		<path class="st4" d="M3.4,70.4c0.2,0.2,0.5,0.5,0.7,0.7c0.1,0.1,0.3,0.2,0.4,0.3c0.3,0.2,0.6,0.4,0.8,0.6c0.2,0.1,0.3,0.2,0.5,0.3
			C6.2,72.6,6.6,72.8,7,73c0.1,0.1,0.2,0.1,0.3,0.2C7.9,73.5,8.4,73.7,9,74c0.1,0.1,0.3,0.1,0.5,0.2c0.4,0.2,0.9,0.4,1.3,0.5
			c0.2,0.1,0.4,0.2,0.7,0.2c0.4,0.1,0.9,0.3,1.3,0.4c0.2,0.1,0.5,0.1,0.7,0.2c0.5,0.1,1,0.3,1.5,0.4c0.2,0.1,0.4,0.1,0.6,0.2
			c0.7,0.2,1.5,0.3,2.2,0.5c0.1,0,0.3,0,0.4,0.1c0.6,0.1,1.3,0.2,1.9,0.3c0.3,0,0.5,0.1,0.8,0.1c0.5,0.1,1.1,0.1,1.7,0.2
			c0.3,0,0.6,0.1,0.9,0.1c0.6,0,1.2,0.1,1.8,0.1c0.3,0,0.5,0,0.8,0c0.9,0,1.8,0.1,2.7,0.1c0.9,0,1.8,0,2.7-0.1c0.3,0,0.5,0,0.8,0
			c0.6,0,1.2-0.1,1.8-0.1c0.3,0,0.6-0.1,0.9-0.1c0.6-0.1,1.1-0.1,1.7-0.2c0.3,0,0.5-0.1,0.8-0.1c0.7-0.1,1.3-0.2,1.9-0.3
			c0.1,0,0.3,0,0.4-0.1c0.8-0.1,1.5-0.3,2.2-0.5c0.2,0,0.4-0.1,0.6-0.2c0.5-0.1,1-0.3,1.5-0.4c0.2-0.1,0.5-0.1,0.7-0.2
			c0.4-0.1,0.9-0.3,1.3-0.4c0.2-0.1,0.4-0.2,0.7-0.2c0.5-0.2,0.9-0.4,1.4-0.5c0.2-0.1,0.3-0.1,0.5-0.2c0.6-0.3,1.1-0.5,1.6-0.8
			c0.1-0.1,0.2-0.1,0.3-0.2c0.4-0.2,0.8-0.4,1.1-0.7c0.2-0.1,0.3-0.2,0.5-0.3c0.3-0.2,0.6-0.4,0.9-0.6c0.1-0.1,0.3-0.2,0.4-0.3
			c0.3-0.2,0.5-0.5,0.7-0.7c0.1-0.1,0.2-0.2,0.3-0.3c0.3-0.3,0.6-0.7,0.8-1v9.4c0,5.9-12.2,10.9-26.6,10.9s-26.6-5-26.6-10.9V69
			c0.2,0.3,0.5,0.7,0.8,1C3.2,70.2,3.3,70.3,3.4,70.4z"/>
		<path class="st4" d="M3.4,57.3c0.2,0.2,0.5,0.5,0.7,0.7c0.1,0.1,0.3,0.2,0.4,0.3c0.3,0.2,0.6,0.4,0.8,0.6c0.2,0.1,0.3,0.2,0.5,0.3
			c0.4,0.2,0.7,0.4,1.1,0.7C7,60,7.1,60,7.2,60.1c0.5,0.3,1.1,0.5,1.6,0.8C9.1,61,9.3,61,9.4,61.1c0.4,0.2,0.9,0.4,1.3,0.5
			c0.2,0.1,0.4,0.2,0.7,0.2c0.4,0.1,0.9,0.3,1.3,0.4c0.2,0.1,0.5,0.1,0.7,0.2c0.5,0.1,1,0.3,1.5,0.4c0.2,0.1,0.4,0.1,0.6,0.2
			c0.7,0.2,1.5,0.3,2.2,0.5c0.1,0,0.3,0,0.4,0.1c0.6,0.1,1.3,0.2,1.9,0.3c0.3,0,0.5,0.1,0.8,0.1c0.5,0.1,1.1,0.1,1.7,0.2
			c0.3,0,0.6,0.1,0.9,0.1c0.6,0,1.2,0.1,1.8,0.1c0.3,0,0.5,0,0.8,0c0.9,0,1.8,0.1,2.7,0.1c0.9,0,1.8,0,2.7-0.1c0.3,0,0.5,0,0.8,0
			c0.6,0,1.2-0.1,1.8-0.1c0.3,0,0.6-0.1,0.9-0.1c0.6-0.1,1.1-0.1,1.7-0.2c0.3,0,0.5-0.1,0.8-0.1c0.7-0.1,1.3-0.2,1.9-0.3
			c0.1,0,0.3,0,0.4-0.1c0.8-0.1,1.5-0.3,2.2-0.5c0.2,0,0.4-0.1,0.6-0.2c0.5-0.1,1-0.3,1.5-0.4c0.2-0.1,0.5-0.1,0.7-0.2
			c0.4-0.1,0.9-0.3,1.3-0.4c0.2-0.1,0.4-0.2,0.7-0.2c0.5-0.2,0.9-0.4,1.4-0.5c0.2-0.1,0.3-0.1,0.5-0.2c0.6-0.3,1.1-0.5,1.6-0.8
			c0.1-0.1,0.2-0.1,0.3-0.2c0.4-0.2,0.8-0.4,1.1-0.7c0.2-0.1,0.3-0.2,0.5-0.3c0.3-0.2,0.6-0.4,0.9-0.6c0.1-0.1,0.3-0.2,0.4-0.3
			c0.3-0.2,0.5-0.5,0.7-0.7c0.1-0.1,0.2-0.2,0.3-0.3c0.3-0.3,0.6-0.7,0.8-1v9.4c0,5.9-12.2,10.9-26.6,10.9S2,71.3,2,65.4V56
			c0.2,0.3,0.5,0.7,0.8,1C3.2,57.1,3.3,57.2,3.4,57.3z"/>
		<path class="st4" d="M28.9,41.4c14.4,0,26.6,5,26.6,10.9c0,0.4,0,0.7-0.1,1.1c-0.2,0.7-0.6,1.4-1.1,2.1c-0.8,1-1.9,2-3.4,2.9
			c-1,0.6-2.1,1.1-3.3,1.6c-4.9,2-11.5,3.2-18.7,3.2S15,62,10.1,60c-1.2-0.5-2.3-1-3.3-1.6c-1.5-0.9-2.6-1.8-3.4-2.9
			c-0.5-0.7-0.9-1.4-1.1-2.1c-0.1-0.4-0.1-0.7-0.1-1.1C2.3,46.4,14.4,41.4,28.9,41.4z"/>
		<path class="st5" d="M1,52.3v13.1v13.1v13.1v13.1c0,6.8,12.2,12.2,27.9,12.2c15.6,0,27.9-5.4,27.9-12.2V91.5V78.4v-13V52.3
			c0-6.8-12.2-12.2-27.9-12.2S1,45.5,1,52.3z M2.3,95.2c0.2,0.3,0.5,0.7,0.8,1c0.1,0.1,0.2,0.2,0.3,0.3c0.2,0.2,0.5,0.5,0.7,0.7
			c0.1,0.1,0.3,0.2,0.4,0.3c0.3,0.2,0.6,0.4,0.8,0.6c0.2,0.1,0.3,0.2,0.5,0.3c0.4,0.2,0.7,0.4,1.1,0.7c0.1,0.1,0.2,0.1,0.3,0.2
			c0.5,0.3,1.1,0.5,1.6,0.8c0.1,0.1,0.3,0.1,0.5,0.2c0.4,0.2,0.9,0.4,1.3,0.5c0.2,0.1,0.4,0.2,0.7,0.2c0.4,0.1,0.9,0.3,1.3,0.4
			c0.2,0.1,0.5,0.1,0.7,0.2c0.5,0.1,1,0.3,1.5,0.4c0.2,0.1,0.4,0.1,0.6,0.2c0.7,0.2,1.5,0.3,2.2,0.5c0.1,0,0.3,0,0.4,0.1
			c0.6,0.1,1.3,0.2,1.9,0.3c0.3,0,0.5,0.1,0.8,0.1c0.5,0.1,1.1,0.1,1.7,0.2c0.3,0,0.6,0.1,0.9,0.1c0.6,0,1.2,0.1,1.8,0.1
			c0.3,0,0.5,0,0.8,0c0.9,0,1.8,0.1,2.7,0.1c0.9,0,1.8,0,2.7-0.1c0.3,0,0.5,0,0.8,0c0.6,0,1.2-0.1,1.8-0.1c0.3,0,0.6-0.1,0.9-0.1
			c0.6-0.1,1.1-0.1,1.7-0.2c0.3,0,0.5-0.1,0.8-0.1c0.7-0.1,1.3-0.2,1.9-0.3c0.1,0,0.3,0,0.4-0.1c0.8-0.1,1.5-0.3,2.2-0.5
			c0.2,0,0.4-0.1,0.6-0.2c0.5-0.1,1-0.3,1.5-0.4c0.2-0.1,0.5-0.1,0.7-0.2c0.4-0.1,0.9-0.3,1.3-0.4c0.2-0.1,0.4-0.2,0.7-0.2
			c0.5-0.2,0.9-0.4,1.4-0.5c0.2-0.1,0.3-0.1,0.5-0.2c0.6-0.3,1.1-0.5,1.6-0.8c0.1-0.1,0.2-0.1,0.3-0.2c0.4-0.2,0.8-0.4,1.1-0.7
			c0.2-0.1,0.3-0.2,0.5-0.3c0.3-0.2,0.6-0.4,0.9-0.6c0.1-0.1,0.3-0.2,0.4-0.3c0.3-0.2,0.5-0.5,0.7-0.7c0.1-0.1,0.2-0.2,0.3-0.3
			c0.3-0.3,0.6-0.7,0.8-1v9.4c0,5.9-12.2,10.9-26.6,10.9s-26.6-5-26.6-10.9v-9.4H2.3z M2.3,82.1c0.2,0.3,0.5,0.7,0.8,1
			c0.1,0.1,0.2,0.2,0.3,0.3c0.2,0.2,0.5,0.5,0.8,0.7c0.1,0.1,0.3,0.2,0.4,0.3c0.3,0.2,0.6,0.4,0.9,0.6c0.1,0.1,0.3,0.2,0.4,0.3
			c0.4,0.2,0.8,0.5,1.2,0.7c0.1,0,0.2,0.1,0.3,0.2c0.5,0.3,1,0.6,1.6,0.8c0.1,0.1,0.2,0.1,0.4,0.2c0.5,0.2,0.9,0.4,1.4,0.6
			c0.2,0.1,0.4,0.1,0.6,0.2c0.5,0.2,0.9,0.3,1.4,0.5c0.2,0.1,0.4,0.1,0.6,0.2c0.5,0.2,1.1,0.3,1.7,0.4c0.2,0,0.3,0.1,0.5,0.1
			c0.7,0.2,1.5,0.3,2.3,0.5c0.1,0,0.2,0,0.2,0c0.7,0.1,1.4,0.2,2.1,0.3c0.2,0,0.5,0.1,0.7,0.1c0.6,0.1,1.2,0.1,1.8,0.2
			c0.3,0,0.5,0,0.8,0.1c0.6,0.1,1.3,0.1,1.9,0.1c0.2,0,0.4,0,0.7,0c0.9,0,1.8,0.1,2.7,0.1c0.9,0,1.8,0,2.7-0.1c0.2,0,0.5,0,0.7,0
			c0.6,0,1.3-0.1,1.9-0.1c0.3,0,0.6,0,0.8-0.1c0.6-0.1,1.2-0.1,1.7-0.2c0.3,0,0.5-0.1,0.8-0.1c0.7-0.1,1.4-0.2,2-0.3
			c0.1,0,0.2,0,0.3-0.1c0.8-0.1,1.5-0.3,2.3-0.5c0.2,0,0.4-0.1,0.6-0.1c0.5-0.1,1.1-0.3,1.6-0.4c0.2-0.1,0.5-0.1,0.7-0.2
			c0.5-0.1,0.9-0.3,1.3-0.4c0.2-0.1,0.4-0.2,0.7-0.2c0.5-0.2,0.9-0.4,1.4-0.5c0.1-0.1,0.3-0.1,0.4-0.2c0.6-0.3,1.1-0.5,1.6-0.8
			c0.1-0.1,0.2-0.1,0.3-0.2c0.4-0.2,0.8-0.5,1.2-0.7c0.2-0.1,0.3-0.2,0.4-0.3c0.3-0.2,0.6-0.4,0.9-0.6c0.1-0.1,0.3-0.2,0.4-0.3
			c0.3-0.2,0.5-0.5,0.8-0.7c0.1-0.1,0.2-0.2,0.3-0.3c0.3-0.3,0.6-0.7,0.8-1v9.4c0,5.9-12.2,10.9-26.6,10.9s-26.6-5-26.6-10.9
			L2.3,82.1L2.3,82.1z M2.3,69c0.2,0.3,0.5,0.7,0.8,1c0.1,0.1,0.2,0.2,0.3,0.3c0.2,0.2,0.5,0.5,0.7,0.7c0.1,0.1,0.3,0.2,0.4,0.3
			c0.3,0.2,0.6,0.4,0.8,0.6c0.2,0.1,0.3,0.2,0.5,0.3C6.2,72.6,6.6,72.8,7,73c0.1,0.1,0.2,0.1,0.3,0.2C7.9,73.5,8.4,73.7,9,74
			c0.1,0.1,0.3,0.1,0.5,0.2c0.4,0.2,0.9,0.4,1.3,0.5c0.2,0.1,0.4,0.2,0.7,0.2c0.4,0.1,0.9,0.3,1.3,0.4c0.2,0.1,0.5,0.1,0.7,0.2
			c0.5,0.1,1,0.3,1.5,0.4c0.2,0.1,0.4,0.1,0.6,0.2c0.7,0.2,1.5,0.3,2.2,0.5c0.1,0,0.3,0,0.4,0.1c0.6,0.1,1.3,0.2,1.9,0.3
			c0.3,0,0.5,0.1,0.8,0.1c0.5,0.1,1.1,0.1,1.7,0.2c0.3,0,0.6,0.1,0.9,0.1c0.6,0,1.2,0.1,1.8,0.1c0.3,0,0.5,0,0.8,0
			c0.9,0,1.8,0.1,2.7,0.1c0.9,0,1.8,0,2.7-0.1c0.3,0,0.5,0,0.8,0c0.6,0,1.2-0.1,1.8-0.1c0.3,0,0.6-0.1,0.9-0.1
			c0.6-0.1,1.1-0.1,1.7-0.2c0.3,0,0.5-0.1,0.8-0.1c0.7-0.1,1.3-0.2,1.9-0.3c0.1,0,0.3,0,0.4-0.1c0.8-0.1,1.5-0.3,2.2-0.5
			c0.2,0,0.4-0.1,0.6-0.2c0.5-0.1,1-0.3,1.5-0.4c0.2-0.1,0.5-0.1,0.7-0.2c0.4-0.1,0.9-0.3,1.3-0.4c0.2-0.1,0.4-0.2,0.7-0.2
			c0.5-0.2,0.9-0.4,1.4-0.5c0.2-0.1,0.3-0.1,0.5-0.2c0.6-0.3,1.1-0.5,1.6-0.8c0.1-0.1,0.2-0.1,0.3-0.2c0.4-0.2,0.8-0.4,1.1-0.7
			c0.2-0.1,0.3-0.2,0.5-0.3c0.3-0.2,0.6-0.4,0.9-0.6c0.1-0.1,0.3-0.2,0.4-0.3c0.3-0.2,0.5-0.5,0.7-0.7c0.1-0.1,0.2-0.2,0.3-0.3
			c0.3-0.3,0.6-0.7,0.8-1v9.4c0,5.9-12.2,10.9-26.6,10.9s-26.6-5-26.6-10.9V69H2.3z M2.3,56c0.2,0.3,0.5,0.7,0.8,1
			c0.1,0.1,0.2,0.2,0.3,0.3c0.2,0.2,0.5,0.5,0.7,0.7c0.1,0.1,0.3,0.2,0.4,0.3c0.3,0.2,0.6,0.4,0.8,0.6c0.2,0.1,0.3,0.2,0.5,0.3
			c0.4,0.2,0.7,0.4,1.1,0.7C7,60,7.1,60,7.2,60.1c0.5,0.3,1.1,0.5,1.6,0.8C9.1,61,9.3,61,9.4,61.1c0.4,0.2,0.9,0.4,1.3,0.5
			c0.2,0.1,0.4,0.2,0.7,0.2c0.4,0.1,0.9,0.3,1.3,0.4c0.2,0.1,0.5,0.1,0.7,0.2c0.5,0.1,1,0.3,1.5,0.4c0.2,0.1,0.4,0.1,0.6,0.2
			c0.7,0.2,1.5,0.3,2.2,0.5c0.1,0,0.3,0,0.4,0.1c0.6,0.1,1.3,0.2,1.9,0.3c0.3,0,0.5,0.1,0.8,0.1c0.5,0.1,1.1,0.1,1.7,0.2
			c0.3,0,0.6,0.1,0.9,0.1c0.6,0,1.2,0.1,1.8,0.1c0.3,0,0.5,0,0.8,0c0.9,0,1.8,0.1,2.7,0.1c0.9,0,1.8,0,2.7-0.1c0.3,0,0.5,0,0.8,0
			c0.6,0,1.2-0.1,1.8-0.1c0.3,0,0.6-0.1,0.9-0.1c0.6-0.1,1.1-0.1,1.7-0.2c0.3,0,0.5-0.1,0.8-0.1c0.7-0.1,1.3-0.2,1.9-0.3
			c0.1,0,0.3,0,0.4-0.1c0.8-0.1,1.5-0.3,2.2-0.5c0.2,0,0.4-0.1,0.6-0.2c0.5-0.1,1-0.3,1.5-0.4c0.2-0.1,0.5-0.1,0.7-0.2
			c0.4-0.1,0.9-0.3,1.3-0.4c0.2-0.1,0.4-0.2,0.7-0.2c0.5-0.2,0.9-0.4,1.4-0.5c0.2-0.1,0.3-0.1,0.5-0.2c0.6-0.3,1.1-0.5,1.6-0.8
			c0.1-0.1,0.2-0.1,0.3-0.2c0.4-0.2,0.8-0.4,1.1-0.7c0.2-0.1,0.3-0.2,0.5-0.3c0.3-0.2,0.6-0.4,0.9-0.6c0.1-0.1,0.3-0.2,0.4-0.3
			c0.3-0.2,0.5-0.5,0.7-0.7c0.1-0.1,0.2-0.2,0.3-0.3c0.3-0.3,0.6-0.7,0.8-1v9.4c0,5.9-12.2,10.9-26.6,10.9S2,71.3,2,65.4V56H2.3z
			 M2.3,52.3c0-5.9,12.2-10.9,26.6-10.9s26.6,5,26.6,10.9c0,0.4,0,0.7-0.1,1.1c-0.2,0.7-0.6,1.4-1.1,2.1c-0.8,1-1.9,2-3.4,2.9
			c-1,0.6-2.1,1.1-3.3,1.6c-4.9,2-11.5,3.2-18.7,3.2S15,62,10.1,60c-1.2-0.5-2.3-1-3.3-1.6c-1.5-0.9-2.6-1.8-3.4-2.9
			c-0.5-0.7-0.9-1.4-1.1-2.1C2.3,53,2.3,52.7,2.3,52.3z"/>
	</g>
</g>
</svg>
