<?xml version="1.0" encoding="utf-8"?>
<!-- Generator: Adobe Illustrator 22.1.0, SVG Export Plug-In . SVG Version: 6.00 Build 0)  -->
<svg version="1.1" id="Layer_1" xmlns="http://www.w3.org/2000/svg" xmlns:xlink="http://www.w3.org/1999/xlink" x="0px" y="0px"
	 viewBox="0 0 129.7 138.4" style="enable-background:new 0 0 129.7 138.4;" xml:space="preserve">
<style type="text/css">
	.st0{fill:#175C85;}
	.st1{fill:#FFFFFF;stroke:#FFFFFF;stroke-width:2;stroke-miterlimit:10;}
</style>
<g>
	<g>
		<path class="st0" d="M54.4,44.3c-0.2,0.2-0.5,0.5-0.8,0.7c-0.1,0.1-0.3,0.2-0.4,0.3c-0.3,0.2-0.6,0.4-0.9,0.6
			c-0.1,0.1-0.3,0.2-0.4,0.3c-0.4,0.2-0.8,0.5-1.2,0.7c-0.1,0-0.2,0.1-0.3,0.2c-0.5,0.3-1.1,0.5-1.7,0.8c-0.1,0.1-0.2,0.1-0.4,0.2
			c-0.5,0.2-0.9,0.4-1.4,0.6c-0.2,0.1-0.4,0.1-0.6,0.2c-0.5,0.2-0.9,0.3-1.4,0.5c-0.2,0.1-0.4,0.1-0.6,0.2c-0.5,0.2-1.1,0.3-1.7,0.4
			c-0.2,0-0.3,0.1-0.5,0.1c-0.7,0.2-1.5,0.3-2.3,0.5c-0.1,0-0.2,0-0.2,0c-0.7,0.1-1.4,0.2-2.1,0.3C37.2,51,37,51,36.8,51
			c-0.6,0.1-1.2,0.1-1.8,0.2c-0.3,0-0.5,0-0.8,0.1c-0.6,0.1-1.3,0.1-1.9,0.1c-0.2,0-0.4,0-0.7,0c-0.9,0-1.8,0.1-2.7,0.1
			c-0.9,0-1.8,0-2.7-0.1c-0.2,0-0.5,0-0.7,0c-0.6,0-1.3-0.1-1.9-0.1c-0.3,0-0.6,0-0.8-0.1c-0.6-0.1-1.2-0.1-1.7-0.2
			c-0.3,0-0.5-0.1-0.8-0.1c-0.7-0.1-1.4-0.2-2-0.3c-0.1,0-0.2,0-0.3-0.1c-0.8-0.1-1.5-0.3-2.3-0.5c-0.2,0-0.4-0.1-0.6-0.1
			c-0.5-0.1-1.1-0.3-1.6-0.4c-0.2-0.1-0.5-0.1-0.7-0.2c-0.5-0.1-0.9-0.3-1.3-0.4c-0.2-0.1-0.4-0.2-0.7-0.2c-0.5-0.2-0.9-0.4-1.4-0.5
			C9.3,48.1,9.1,48,9,47.9c-0.6-0.3-1.1-0.5-1.6-0.8C7.2,47.1,7.1,47,7,47c-0.4-0.2-0.8-0.5-1.2-0.7c-0.2-0.1-0.3-0.2-0.4-0.3
			c-0.3-0.2-0.6-0.4-0.9-0.6c-0.1-0.1-0.3-0.2-0.4-0.3c-0.3-0.2-0.5-0.5-0.8-0.7c-0.1-0.1-0.2-0.2-0.3-0.3c-0.3-0.3-0.6-0.7-0.8-1
			v9.4c0,5.9,12.2,10.9,26.6,10.9s26.6-5,26.6-10.9V43c-0.2,0.3-0.5,0.7-0.8,1C54.5,44.1,54.4,44.2,54.4,44.3z"/>
		<path class="st0" d="M54.3,57.4c-0.2,0.2-0.5,0.5-0.7,0.7c-0.1,0.1-0.3,0.2-0.4,0.3c-0.3,0.2-0.6,0.4-0.8,0.6
			c-0.2,0.1-0.3,0.2-0.5,0.3c-0.4,0.2-0.7,0.4-1.1,0.7c-0.1,0.1-0.2,0.1-0.3,0.2c-0.5,0.3-1.1,0.5-1.6,0.8c-0.1,0.1-0.3,0.1-0.5,0.2
			c-0.4,0.2-0.9,0.4-1.3,0.5c-0.2,0.1-0.4,0.2-0.7,0.2c-0.4,0.1-0.9,0.3-1.3,0.4c-0.2,0.1-0.5,0.1-0.7,0.2c-0.5,0.1-1,0.3-1.5,0.4
			c-0.2,0.1-0.4,0.1-0.6,0.2c-0.7,0.2-1.5,0.3-2.2,0.5c-0.1,0-0.3,0-0.4,0.1c-0.6,0.1-1.3,0.2-1.9,0.3c-0.3,0-0.5,0.1-0.8,0.1
			c-0.5,0.1-1.1,0.1-1.7,0.2c-0.3,0-0.6,0.1-0.9,0.1c-0.6,0-1.2,0.1-1.8,0.1c-0.3,0-0.5,0-0.8,0c-0.9,0-1.8,0.1-2.7,0.1
			s-1.8,0-2.7-0.1c-0.3,0-0.5,0-0.8,0c-0.6,0-1.2-0.1-1.8-0.1c-0.3,0-0.6-0.1-0.9-0.1c-0.6-0.1-1.1-0.1-1.7-0.2
			c-0.3,0-0.5-0.1-0.8-0.1c-0.7-0.1-1.3-0.2-1.9-0.3c-0.1,0-0.3,0-0.4-0.1c-0.8-0.1-1.5-0.3-2.2-0.5c-0.2,0-0.4-0.1-0.6-0.2
			c-0.5-0.1-1-0.3-1.5-0.4c-0.2-0.1-0.5-0.1-0.7-0.2c-0.4-0.1-0.9-0.3-1.3-0.4c-0.2-0.1-0.4-0.2-0.7-0.2c-0.5-0.2-0.9-0.4-1.4-0.5
			C9.3,61.1,9.1,61.1,9,61c-0.6-0.3-1.1-0.5-1.6-0.8C7.2,60.1,7.1,60.1,7,60c-0.4-0.2-0.8-0.4-1.1-0.7c-0.2-0.1-0.3-0.2-0.5-0.3
			c-0.3-0.2-0.6-0.4-0.9-0.6c-0.1-0.1-0.3-0.2-0.4-0.3c-0.3-0.2-0.5-0.5-0.7-0.7c-0.1-0.1-0.2-0.2-0.3-0.3c-0.3-0.3-0.6-0.7-0.8-1
			v9.4c0,5.9,12.2,10.9,26.6,10.9s26.6-5,26.6-10.9v-9.4c-0.2,0.3-0.5,0.7-0.8,1C54.5,57.2,54.4,57.3,54.3,57.4z"/>
		<path class="st0" d="M54.3,31.3c-0.2,0.2-0.5,0.5-0.7,0.7c-0.1,0.1-0.3,0.2-0.4,0.3c-0.3,0.2-0.6,0.4-0.8,0.6
			c-0.2,0.1-0.3,0.2-0.5,0.3c-0.4,0.2-0.7,0.4-1.1,0.7c-0.1,0.1-0.2,0.1-0.3,0.2c-0.5,0.3-1.1,0.5-1.6,0.8c-0.1,0.1-0.3,0.1-0.5,0.2
			c-0.4,0.2-0.9,0.4-1.3,0.5c-0.2,0.1-0.4,0.2-0.7,0.2c-0.4,0.1-0.9,0.3-1.3,0.4c-0.2,0.1-0.5,0.1-0.7,0.2c-0.5,0.1-1,0.3-1.5,0.4
			c-0.2,0.1-0.4,0.1-0.6,0.2c-0.7,0.2-1.5,0.3-2.2,0.5c-0.1,0-0.3,0-0.4,0.1c-0.6,0.1-1.3,0.2-1.9,0.3c-0.3,0-0.5,0.1-0.8,0.1
			c-0.5,0.1-1.1,0.1-1.7,0.2c-0.3,0-0.6,0.1-0.9,0.1c-0.6,0-1.2,0.1-1.8,0.1c-0.3,0-0.5,0-0.8,0c-0.9,0-1.8,0.1-2.7,0.1
			s-1.8,0-2.7-0.1c-0.3,0-0.5,0-0.8,0c-0.6,0-1.2-0.1-1.8-0.1c-0.3,0-0.6-0.1-0.9-0.1C22.1,38.1,21.6,38,21,38
			c-0.3,0-0.5-0.1-0.8-0.1c-0.7-0.1-1.3-0.2-1.9-0.3c-0.1,0-0.3,0-0.4-0.1c-0.8-0.1-1.5-0.3-2.2-0.5c-0.2,0-0.4-0.1-0.6-0.2
			c-0.5-0.1-1-0.3-1.5-0.4c-0.2-0.1-0.5-0.1-0.7-0.2c-0.4-0.1-0.9-0.3-1.3-0.4c-0.2-0.1-0.4-0.2-0.7-0.2c-0.5-0.2-0.9-0.4-1.4-0.5
			C9.3,35,9.1,34.9,9,34.9c-0.6-0.3-1.1-0.5-1.6-0.8C7.2,34,7.1,34,7,33.9c-0.4-0.2-0.8-0.4-1.1-0.7c-0.2-0.1-0.3-0.2-0.5-0.3
			c-0.3-0.2-0.6-0.4-0.9-0.6c-0.1-0.1-0.3-0.2-0.4-0.3c-0.3-0.2-0.5-0.5-0.7-0.7c-0.1-0.1-0.2-0.2-0.3-0.3c-0.3-0.3-0.6-0.7-0.8-1
			v9.4c0,5.9,12.2,10.9,26.6,10.9s26.6-5,26.6-10.9V30c-0.2,0.3-0.5,0.7-0.8,1C54.5,31.1,54.4,31.2,54.3,31.3z"/>
		<path class="st0" d="M54.3,18.2c-0.2,0.2-0.5,0.5-0.7,0.7c-0.1,0.1-0.3,0.2-0.4,0.3c-0.3,0.2-0.6,0.4-0.8,0.6
			c-0.2,0.1-0.3,0.2-0.5,0.3c-0.4,0.2-0.7,0.4-1.1,0.7c-0.1,0.1-0.2,0.1-0.3,0.2c-0.5,0.3-1.1,0.5-1.6,0.8c-0.1,0.1-0.3,0.1-0.5,0.2
			c-0.4,0.2-0.9,0.4-1.3,0.5c-0.2,0.1-0.4,0.2-0.7,0.2c-0.4,0.1-0.9,0.3-1.3,0.4c-0.2,0.1-0.5,0.1-0.7,0.2c-0.5,0.1-1,0.3-1.5,0.4
			c-0.2,0.1-0.4,0.1-0.6,0.2c-0.7,0.2-1.5,0.3-2.2,0.5c-0.1,0-0.3,0-0.4,0.1c-0.6,0.1-1.3,0.2-1.9,0.3c-0.3,0-0.5,0.1-0.8,0.1
			c-0.9,0.1-1.4,0.1-2,0.2c-0.3,0-0.6,0.1-0.9,0.1c-0.6,0-1.2,0.1-1.8,0.1c-0.3,0-0.5,0-0.8,0c-0.9,0-1.8,0.1-2.7,0.1
			s-1.8,0-2.7-0.1c-0.3,0-0.5,0-0.8,0c-0.6,0-1.2-0.1-1.8-0.1c-0.3,0-0.6-0.1-0.9-0.1c-0.5-0.1-1-0.1-1.6-0.2
			c-0.3,0-0.5-0.1-0.8-0.1c-0.7-0.1-1.3-0.2-1.9-0.3c-0.1,0-0.3,0-0.4-0.1c-0.8-0.1-1.5-0.3-2.2-0.5c-0.2,0-0.4-0.1-0.6-0.2
			c-0.5-0.1-1-0.3-1.5-0.4c-0.2-0.1-0.5-0.1-0.7-0.2c-0.4-0.1-0.9-0.3-1.3-0.4c-0.2-0.1-0.4-0.2-0.7-0.2c-0.5-0.2-0.9-0.4-1.4-0.5
			c-0.2-0.1-0.3-0.1-0.5-0.2c-0.6-0.3-1.1-0.5-1.6-0.8c-0.2,0-0.3-0.1-0.4-0.2c-0.4-0.2-0.8-0.4-1.1-0.7c-0.2-0.1-0.3-0.2-0.5-0.3
			c-0.3-0.2-0.6-0.4-0.9-0.6c-0.1-0.1-0.3-0.2-0.4-0.3c-0.3-0.2-0.5-0.5-0.7-0.7c-0.1-0.1-0.2-0.2-0.3-0.3c-0.3-0.3-0.6-0.7-0.8-1
			v9.4c0,5.9,12.2,10.9,26.6,10.9s26.6-5,26.6-10.9v-9.4c-0.2,0.3-0.5,0.7-0.8,1C54.5,18,54.4,18.1,54.3,18.2z"/>
		<path class="st0" d="M28.9,2.3c-14.4,0-26.6,5-26.6,10.9c0,0.4,0,0.7,0.1,1.1C2.6,15,3,15.7,3.5,16.4c0.8,1,1.9,2,3.4,2.9
			c1,0.6,2.1,1.1,3.3,1.6c4.9,2,11.5,3.2,18.7,3.2s13.9-1.3,18.7-3.2c1.2-0.5,2.3-1,3.3-1.6c1.5-0.9,2.6-1.8,3.4-2.9
			c0.5-0.7,0.9-1.4,1.1-2.1c0.1-0.4,0.1-0.7,0.1-1.1C55.5,7.3,43.3,2.3,28.9,2.3z"/>
		<path class="st1" d="M28.9,1C13.2,1,1,6.4,1,13.2v13.1v13.1v13.1v13.1c0,6.8,12.2,12.2,27.9,12.2c15.6,0,27.9-5.4,27.9-12.2V52.4
			V39.3v-13V13.2C56.7,6.4,44.5,1,28.9,1z M55.5,65.4c0,5.9-12.2,10.9-26.6,10.9s-26.6-5-26.6-10.9V56c0.2,0.3,0.5,0.7,0.8,1
			c0.1,0.1,0.2,0.2,0.3,0.3c0.2,0.2,0.5,0.5,0.7,0.7c0.1,0.1,0.3,0.2,0.4,0.3c0.3,0.2,0.6,0.4,0.9,0.6c0.2,0.1,0.3,0.2,0.5,0.3
			C6.2,59.6,6.6,59.8,7,60c0.1,0.1,0.2,0.1,0.3,0.2C7.9,60.5,8.4,60.7,9,61c0.1,0.1,0.3,0.1,0.5,0.2c0.4,0.2,0.9,0.4,1.4,0.5
			c0.2,0.1,0.4,0.2,0.7,0.2c0.4,0.1,0.9,0.3,1.3,0.4c0.2,0.1,0.5,0.1,0.7,0.2c0.5,0.1,1,0.3,1.5,0.4c0.2,0,0.4,0.1,0.6,0.2
			c0.7,0.2,1.5,0.3,2.2,0.5c0.1,0,0.3,0,0.4,0.1c0.6,0.1,1.3,0.2,1.9,0.3c0.3,0,0.5,0.1,0.8,0.1c0.6,0.1,1.1,0.1,1.7,0.2
			c0.3,0,0.6,0.1,0.9,0.1c0.6,0,1.2,0.1,1.8,0.1c0.3,0,0.5,0,0.8,0c0.9,0,1.8,0.1,2.7,0.1s1.8,0,2.7-0.1c0.3,0,0.5,0,0.8,0
			c0.6,0,1.2-0.1,1.8-0.1c0.3,0,0.6-0.1,0.9-0.1c0.6-0.1,1.1-0.1,1.7-0.2c0.3,0,0.5-0.1,0.8-0.1c0.7-0.1,1.3-0.2,1.9-0.3
			c0.1,0,0.3,0,0.4-0.1c0.8-0.1,1.5-0.3,2.2-0.5c0.2,0,0.4-0.1,0.6-0.2c0.5-0.1,1-0.3,1.5-0.4c0.2-0.1,0.5-0.1,0.7-0.2
			c0.4-0.1,0.9-0.3,1.3-0.4c0.2-0.1,0.5-0.2,0.7-0.2c0.5-0.2,0.9-0.3,1.3-0.5c0.2-0.1,0.3-0.1,0.5-0.2c0.6-0.3,1.1-0.5,1.6-0.8
			c0.1-0.1,0.2-0.1,0.3-0.2c0.4-0.2,0.8-0.4,1.1-0.7c0.2-0.1,0.3-0.2,0.5-0.3c0.3-0.2,0.6-0.4,0.8-0.6c0.1-0.1,0.3-0.2,0.4-0.3
			c0.3-0.2,0.5-0.5,0.7-0.7c0.1-0.1,0.2-0.2,0.3-0.3c0.3-0.3,0.6-0.7,0.8-1v9.3H55.5z M55.5,52.4c0,5.9-12.2,10.9-26.6,10.9
			s-26.6-5-26.6-10.9V43c0.2,0.3,0.5,0.7,0.8,1c0.1,0.1,0.2,0.2,0.3,0.3c0.2,0.2,0.5,0.5,0.8,0.7c0.1,0.1,0.3,0.2,0.4,0.3
			c0.3,0.2,0.6,0.4,0.9,0.6c0.1,0.1,0.3,0.2,0.4,0.3C6.2,46.5,6.6,46.7,7,47c0.1,0.1,0.2,0.1,0.3,0.2c0.5,0.3,1.1,0.5,1.6,0.8
			c0.1,0.1,0.3,0.1,0.4,0.2c0.4,0.2,0.9,0.4,1.4,0.5c0.2,0.1,0.4,0.2,0.7,0.2c0.4,0.2,0.9,0.3,1.3,0.4c0.2,0.1,0.5,0.1,0.7,0.2
			c0.5,0.1,1,0.3,1.6,0.4c0.2,0,0.4,0.1,0.6,0.1c0.7,0.2,1.5,0.3,2.3,0.5c0.1,0,0.2,0,0.3,0.1c0.7,0.1,1.3,0.2,2,0.3
			c0.3,0,0.5,0.1,0.8,0.1c0.6,0.1,1.2,0.1,1.7,0.2c0.3,0,0.6,0.1,0.8,0.1c0.6,0.1,1.3,0.1,1.9,0.1c0.2,0,0.5,0,0.7,0
			c0.9,0,1.8,0.1,2.7,0.1c0.9,0,1.8,0,2.7-0.1c0.2,0,0.5,0,0.7,0c0.7,0,1.3-0.1,1.9-0.1c0.3,0,0.5,0,0.8-0.1
			c0.6-0.1,1.2-0.1,1.8-0.2c0.2,0,0.5-0.1,0.7-0.1c0.7-0.1,1.4-0.2,2.1-0.3c0.1,0,0.2,0,0.2,0c0.8-0.1,1.5-0.3,2.3-0.5
			c0.2,0,0.3-0.1,0.5-0.1c0.6-0.1,1.1-0.3,1.7-0.4c0.2-0.1,0.4-0.1,0.6-0.2c0.5-0.1,0.9-0.3,1.4-0.5c0.2-0.1,0.4-0.1,0.6-0.2
			c0.5-0.2,1-0.4,1.4-0.6c0.1-0.1,0.2-0.1,0.4-0.2c0.6-0.3,1.1-0.5,1.7-0.8c0.1,0,0.2-0.1,0.3-0.2c0.4-0.2,0.8-0.5,1.2-0.7
			c0.1-0.1,0.3-0.2,0.4-0.3c0.3-0.2,0.6-0.4,0.9-0.6c0.1-0.1,0.3-0.2,0.4-0.3c0.3-0.2,0.5-0.5,0.8-0.7c0.1-0.1,0.2-0.2,0.3-0.3
			c0.3-0.3,0.6-0.7,0.8-1L55.5,52.4L55.5,52.4z M55.5,39.3c0,5.9-12.2,10.9-26.6,10.9s-26.6-5-26.6-10.9v-9.4c0.2,0.3,0.5,0.7,0.8,1
			c0.1,0.1,0.2,0.2,0.3,0.3c0.2,0.2,0.5,0.5,0.7,0.7c0.1,0.1,0.3,0.2,0.4,0.3c0.3,0.2,0.6,0.4,0.9,0.6c0.2,0.1,0.3,0.2,0.5,0.3
			c0.4,0.2,0.7,0.5,1.1,0.7C7.1,34,7.2,34,7.4,34.1c0.5,0.3,1.1,0.5,1.6,0.8C9.1,35,9.3,35,9.5,35.1c0.4,0.2,0.9,0.4,1.4,0.5
			c0.2,0.1,0.4,0.2,0.7,0.2c0.4,0.1,0.9,0.3,1.3,0.4c0.2,0.1,0.5,0.1,0.7,0.2c0.5,0.1,1,0.3,1.5,0.4c0.2,0,0.4,0.1,0.6,0.2
			c0.7,0.2,1.5,0.3,2.2,0.5c0.1,0,0.3,0,0.4,0.1c0.6,0.1,1.3,0.2,1.9,0.3c0.3,0,0.5,0.1,0.8,0.1c0.6,0.1,1.1,0.1,1.7,0.2
			c0.3,0,0.6,0.1,0.9,0.1c0.6,0,1.2,0.1,1.8,0.1c0.3,0,0.5,0,0.8,0c0.9,0,1.8,0.1,2.7,0.1s1.8,0,2.7-0.1c0.3,0,0.5,0,0.8,0
			c0.6,0,1.2-0.1,1.8-0.1c0.3,0,0.6-0.1,0.9-0.1c0.6-0.1,1.1-0.1,1.7-0.2c0.3,0,0.5-0.1,0.8-0.1c0.7-0.1,1.3-0.2,1.9-0.3
			c0.1,0,0.3,0,0.4-0.1c0.8-0.1,1.5-0.3,2.2-0.5c0.2,0,0.4-0.1,0.6-0.2c0.5-0.1,1-0.3,1.5-0.4c0.2-0.1,0.5-0.1,0.7-0.2
			c0.4-0.1,0.9-0.3,1.3-0.4c0.2-0.1,0.5-0.2,0.7-0.2c0.5-0.2,0.9-0.3,1.3-0.5c0.2-0.1,0.3-0.1,0.5-0.2c0.6-0.3,1.1-0.5,1.6-0.8
			c0.1-0.1,0.2-0.1,0.3-0.2c0.4-0.2,0.8-0.4,1.1-0.7c0.2-0.1,0.3-0.2,0.5-0.3c0.3-0.2,0.6-0.4,0.8-0.6c0.1-0.1,0.3-0.2,0.4-0.3
			c0.3-0.2,0.5-0.5,0.7-0.7c0.1-0.1,0.2-0.2,0.3-0.3c0.3-0.3,0.6-0.7,0.8-1v9.3H55.5z M55.5,26.3c0,5.9-12.2,10.9-26.6,10.9
			s-26.6-5-26.6-10.9v-9.4c0.2,0.3,0.5,0.7,0.8,1c0.1,0.1,0.2,0.2,0.3,0.3c0.2,0.2,0.5,0.5,0.7,0.7c0.1,0.1,0.3,0.2,0.4,0.3
			c0.3,0.2,0.6,0.4,0.9,0.6c0.2,0.1,0.3,0.2,0.5,0.3c0.4,0.2,0.7,0.5,1.1,0.7C7.1,20.9,7.2,21,7.4,21c0.5,0.3,1.1,0.5,1.6,0.8
			c0.1,0.1,0.3,0.1,0.5,0.2c0.4,0.2,0.9,0.4,1.4,0.5c0.2,0.1,0.4,0.2,0.7,0.2c0.4,0.1,0.9,0.3,1.3,0.4c0.2,0.1,0.5,0.1,0.7,0.2
			c0.5,0.1,1,0.3,1.5,0.4c0.2,0,0.4,0.1,0.6,0.2c0.7,0.2,1.5,0.3,2.2,0.5c0.1,0,0.3,0,0.4,0.1c0.6,0.1,1.3,0.2,1.9,0.3
			c0.3,0,0.5,0.1,0.8,0.1c0.6,0.1,1.1,0.1,1.7,0.2c0.3,0,0.6,0.1,0.9,0.1c0.6,0,1.2,0.1,1.8,0.1c0.3,0,0.5,0,0.8,0
			c0.9,0,1.8,0.1,2.7,0.1s1.8,0,2.7-0.1c0.3,0,0.5,0,0.8,0c0.6,0,1.2-0.1,1.8-0.1c0.3,0,0.6-0.1,0.9-0.1c0.6-0.1,1.1-0.1,1.7-0.2
			c0.3,0,0.5-0.1,0.8-0.1c0.7-0.1,1.3-0.2,1.9-0.3c0.1,0,0.3,0,0.4-0.1c0.8-0.1,1.5-0.3,2.2-0.5c0.2,0,0.4-0.1,0.6-0.2
			c0.5-0.1,1-0.3,1.5-0.4c0.2-0.1,0.5-0.1,0.7-0.2c0.4-0.1,0.9-0.3,1.3-0.4c0.2-0.1,0.5-0.2,0.7-0.2c0.5-0.2,0.9-0.3,1.3-0.5
			c0.2-0.1,0.3-0.1,0.5-0.2c0.6-0.3,1.1-0.5,1.6-0.8c0.1-0.1,0.2-0.1,0.3-0.2c0.4-0.2,0.8-0.4,1.1-0.7c0.2-0.1,0.3-0.2,0.5-0.3
			c0.3-0.2,0.6-0.4,0.8-0.6c0.1-0.1,0.3-0.2,0.4-0.3c0.3-0.2,0.5-0.5,0.7-0.7c0.1-0.1,0.2-0.2,0.3-0.3c0.3-0.3,0.6-0.7,0.8-1v9.4
			H55.5z M55.3,14.3c-0.2,0.7-0.6,1.4-1.1,2.1c-0.8,1-1.9,2-3.4,2.9c-1,0.6-2.1,1.1-3.3,1.6c-4.8,2-11.5,3.2-18.7,3.2
			s-13.9-1.3-18.7-3.2c-1.2-0.5-2.3-1-3.3-1.6c-1.5-0.9-2.6-1.8-3.4-2.9c-0.5-0.7-0.9-1.4-1.1-2.1c-0.1-0.4-0.1-0.7-0.1-1.1
			c0-5.9,12.2-10.9,26.6-10.9s26.6,5,26.6,10.9C55.5,13.6,55.4,13.9,55.3,14.3z"/>
	</g>
	<g>
		<path class="st0" d="M75.8,63.9c-0.2,0.2-0.5,0.5-0.8,0.7c-0.1,0.1-0.3,0.2-0.4,0.3c-0.3,0.2-0.6,0.4-0.9,0.6
			c-0.1,0.1-0.3,0.2-0.4,0.3c-0.4,0.2-0.8,0.5-1.2,0.7c-0.1,0-0.2,0.1-0.3,0.2c-0.5,0.3-1.1,0.5-1.7,0.8c-0.1,0.1-0.2,0.1-0.4,0.2
			c-0.5,0.2-0.9,0.4-1.4,0.6c-0.2,0.1-0.4,0.1-0.6,0.2c-0.5,0.2-0.9,0.3-1.4,0.5c-0.2,0.1-0.4,0.1-0.6,0.2c-0.5,0.2-1.1,0.3-1.7,0.4
			c-0.2,0-0.3,0.1-0.5,0.1c-0.7,0.2-1.5,0.3-2.3,0.5c-0.1,0-0.2,0-0.2,0c-0.7,0.1-1.4,0.2-2.1,0.3c-0.2,0-0.5,0.1-0.7,0.1
			c-0.6,0.1-1.2,0.1-1.8,0.2c-0.3,0-0.5,0-0.8,0.1C55,71,54.3,71,53.7,71c-0.2,0-0.4,0-0.7,0c-0.9,0-1.8,0.1-2.7,0.1s-1.8,0-2.7-0.1
			c-0.2,0-0.5,0-0.7,0c-0.6,0-1.3-0.1-1.9-0.1c-0.3,0-0.6,0-0.8-0.1c-0.6-0.1-1.2-0.1-1.7-0.2c-0.3,0-0.5-0.1-0.8-0.1
			c-0.7-0.1-1.4-0.2-2-0.3c-0.1,0-0.2,0-0.3-0.1c-0.8-0.1-1.5-0.3-2.3-0.5c-0.2,0-0.4-0.1-0.6-0.1c-0.5-0.1-1.1-0.3-1.6-0.4
			c-0.2-0.1-0.5-0.1-0.7-0.2c-0.5-0.1-0.9-0.3-1.3-0.4c-0.2-0.1-0.4-0.2-0.7-0.2c-0.5-0.2-0.9-0.4-1.4-0.5c-0.1-0.1-0.3-0.1-0.4-0.2
			c-0.6-0.3-1.1-0.5-1.6-0.8c-0.1-0.1-0.2-0.1-0.3-0.2c-0.4-0.2-0.8-0.5-1.2-0.7c-0.2-0.1-0.3-0.2-0.4-0.3c-0.3-0.2-0.6-0.4-0.9-0.6
			c-0.1-0.1-0.3-0.2-0.4-0.3c-0.3-0.2-0.5-0.5-0.8-0.7c-0.1-0.1-0.2-0.2-0.3-0.3c-0.3-0.3-0.6-0.7-0.8-1V72
			c0,5.9,12.2,10.9,26.6,10.9s26.6-5,26.6-10.9v-9.4c-0.2,0.3-0.5,0.7-0.8,1C76,63.7,75.9,63.8,75.8,63.9z"/>
		<path class="st0" d="M75.7,77c-0.2,0.2-0.5,0.5-0.7,0.7c-0.1,0.1-0.3,0.2-0.4,0.3c-0.3,0.2-0.6,0.4-0.8,0.6
			c-0.2,0.1-0.3,0.2-0.5,0.3c-0.4,0.2-0.7,0.4-1.1,0.7c-0.1,0.1-0.2,0.1-0.3,0.2c-0.5,0.3-1.1,0.5-1.6,0.8c-0.1,0.1-0.3,0.1-0.5,0.2
			c-0.4,0.2-0.9,0.4-1.3,0.5c-0.2,0.1-0.4,0.2-0.7,0.2c-0.4,0.1-0.9,0.3-1.3,0.4C66.3,82,66,82,65.8,82.1c-0.5,0.1-1,0.3-1.5,0.4
			c-0.2,0.1-0.4,0.1-0.6,0.2c-0.7,0.2-1.5,0.3-2.2,0.5c-0.1,0-0.3,0-0.4,0.1c-0.6,0.1-1.3,0.2-1.9,0.3c-0.3,0-0.5,0.1-0.8,0.1
			c-0.5,0.1-1.1,0.1-1.7,0.2c-0.3,0-0.6,0.1-0.9,0.1c-0.6,0-1.2,0.1-1.8,0.1c-0.3,0-0.5,0-0.8,0c-0.9,0-1.8,0.1-2.7,0.1
			s-1.8,0-2.7-0.1c-0.3,0-0.5,0-0.8,0c-0.6,0-1.2-0.1-1.8-0.1c-0.3,0-0.6-0.1-0.9-0.1c-0.6-0.1-1.1-0.1-1.7-0.2
			c-0.3,0-0.5-0.1-0.8-0.1c-0.7-0.1-1.3-0.2-1.9-0.3c-0.1,0-0.3,0-0.4-0.1c-0.8-0.1-1.5-0.3-2.2-0.5c-0.2,0-0.4-0.1-0.6-0.2
			c-0.5-0.1-1-0.3-1.5-0.4C35,82,34.7,82,34.5,81.9c-0.4-0.1-0.9-0.3-1.3-0.4c-0.2-0.1-0.4-0.2-0.7-0.2c-0.5-0.2-0.9-0.4-1.4-0.5
			c-0.2-0.1-0.3-0.1-0.5-0.2c-0.6-0.3-1.1-0.5-1.6-0.8c-0.1-0.1-0.2-0.1-0.3-0.2c-0.4-0.2-0.8-0.4-1.1-0.7c-0.2-0.1-0.3-0.2-0.5-0.3
			c-0.3-0.2-0.6-0.4-0.9-0.6c-0.1-0.1-0.3-0.2-0.4-0.3c-0.3-0.2-0.5-0.5-0.7-0.7c-0.1-0.1-0.2-0.2-0.3-0.3c-0.3-0.3-0.6-0.7-0.8-1
			V85c-0.3,6,11.9,11,26.3,11s26.6-5,26.6-10.9v-9.4c-0.2,0.3-0.5,0.7-0.8,1C76,76.8,75.8,76.9,75.7,77z"/>
		<path class="st0" d="M75.7,50.9c-0.2,0.2-0.5,0.5-0.7,0.7c-0.1,0.1-0.3,0.2-0.4,0.3c-0.3,0.2-0.6,0.4-0.8,0.6
			c-0.2,0.1-0.3,0.2-0.5,0.3c-0.4,0.2-0.7,0.4-1.1,0.7c-0.1,0.1-0.2,0.1-0.3,0.2c-0.5,0.3-1.1,0.5-1.6,0.8c-0.1,0.1-0.3,0.1-0.5,0.2
			c-0.4,0.2-0.9,0.4-1.3,0.5c-0.2,0.1-0.4,0.2-0.7,0.2c-0.4,0.1-0.9,0.3-1.3,0.4c-0.2,0.1-0.5,0.1-0.7,0.2c-0.5,0.1-1,0.3-1.5,0.4
			c-0.2,0.1-0.4,0.1-0.6,0.2c-0.7,0.2-1.5,0.3-2.2,0.5c-0.1,0-0.3,0-0.4,0.1c-0.6,0.1-1.3,0.2-1.9,0.3c-0.3,0-0.5,0.1-0.8,0.1
			c-0.5,0.1-1.1,0.1-1.7,0.2c-0.3,0-0.6,0.1-0.9,0.1c-0.6,0-1.2,0.1-1.8,0.1c-0.3,0-0.5,0-0.8,0c-0.9,0-1.8,0.1-2.7,0.1
			s-1.8,0-2.7-0.1c-0.3,0-0.5,0-0.8,0c-0.6,0-1.2-0.1-1.8-0.1c-0.3,0-0.6-0.1-0.9-0.1c-0.6-0.1-1.1-0.1-1.7-0.2
			c-0.3,0-0.5-0.1-0.8-0.1c-0.7-0.1-1.3-0.2-1.9-0.3c-0.1,0-0.3,0-0.4-0.1c-0.8-0.1-1.5-0.3-2.2-0.5c-0.2,0-0.4-0.1-0.6-0.2
			c-0.5-0.1-1-0.3-1.5-0.4c-0.2-0.1-0.5-0.1-0.7-0.2c-0.4-0.1-0.9-0.3-1.3-0.4c-0.2-0.1-0.4-0.2-0.7-0.2c-0.5-0.2-0.9-0.4-1.4-0.5
			c-0.2-0.1-0.3-0.1-0.5-0.2C30,54.2,29.5,54,29,53.7c-0.1-0.1-0.2-0.1-0.3-0.2c-0.4-0.2-0.8-0.4-1.1-0.7c-0.2-0.1-0.3-0.2-0.5-0.3
			c-0.3-0.2-0.6-0.4-0.9-0.6c-0.1-0.1-0.3-0.2-0.4-0.3c-0.3-0.2-0.5-0.5-0.7-0.7c-0.1-0.1-0.2-0.2-0.3-0.3c-0.3-0.3-0.6-0.7-0.8-1
			V59c0,5.9,12.2,10.9,26.6,10.9s26.6-5,26.6-10.9v-9.4c-0.2,0.3-0.5,0.7-0.8,1C76,50.7,75.8,50.8,75.7,50.9z"/>
		<path class="st0" d="M75.7,37.8c-0.2,0.2-0.5,0.5-0.7,0.7c-0.1,0.1-0.3,0.2-0.4,0.3c-0.3,0.2-0.6,0.4-0.8,0.6
			c-0.2,0.1-0.3,0.2-0.5,0.3c-0.4,0.2-0.7,0.4-1.1,0.7c-0.1,0.1-0.2,0.1-0.3,0.2c-0.5,0.3-1.1,0.5-1.6,0.8c-0.1,0.1-0.3,0.1-0.5,0.2
			c-0.4,0.2-0.9,0.4-1.3,0.5c-0.2,0.1-0.4,0.2-0.7,0.2c-0.4,0.1-0.9,0.3-1.3,0.4c-0.2,0.1-0.5,0.1-0.7,0.2c-0.5,0.1-1,0.3-1.5,0.4
			c-0.2,0.1-0.4,0.1-0.6,0.2c-0.7,0.2-1.5,0.3-2.2,0.5c-0.1,0-0.3,0-0.4,0.1c-0.6,0.1-1.3,0.2-1.9,0.3c-0.3,0-0.5,0.1-0.8,0.1
			c-0.5,0.1-1.1,0.1-1.7,0.2c-0.3,0-0.6,0.1-0.9,0.1c-0.6,0-1.2,0.1-1.8,0.1c-0.3,0-0.5,0-0.8,0c-0.9,0-1.8,0.1-2.7,0.1
			s-1.8,0-2.7-0.1c-0.3,0-0.5,0-0.8,0c-0.6,0-1.2-0.1-1.8-0.1c-0.3,0-0.6-0.1-0.9-0.1c-0.6-0.1-1.1-0.1-1.7-0.2
			c-0.3,0-0.5-0.1-0.8-0.1c-0.7-0.1-1.3-0.2-1.9-0.3c-0.1,0-0.3,0-0.4-0.1c-0.8-0.1-1.5-0.3-2.2-0.5c-0.2,0-0.4-0.1-0.6-0.2
			c-0.5-0.1-1-0.3-1.5-0.4c-0.2-0.1-0.5-0.1-0.7-0.2c-0.4-0.1-0.9-0.3-1.3-0.4c-0.2-0.1-0.4-0.2-0.7-0.2c-0.5-0.2-0.9-0.4-1.4-0.5
			c-0.2-0.1-0.3-0.1-0.5-0.2c-0.6-0.3-1.1-0.5-1.6-0.8c-0.1-0.1-0.2-0.1-0.3-0.2c-0.4-0.2-0.8-0.4-1.1-0.7c-0.2-0.1-0.3-0.2-0.5-0.3
			c-0.3-0.2-0.6-0.4-0.9-0.6c-0.1-0.1-0.3-0.2-0.4-0.3c-0.3-0.2-0.5-0.5-0.7-0.7c-0.1-0.1-0.2-0.2-0.3-0.3c-0.3-0.3-0.6-0.7-0.8-1
			v9.4c0,5.9,12.2,10.9,26.6,10.9s26.6-5,26.6-10.9v-9.4c-0.2,0.3-0.5,0.7-0.8,1C76,37.6,75.8,37.7,75.7,37.8z"/>
		<path class="st0" d="M50.3,21.9c-14.4,0-26.6,5-26.6,10.9c0,0.4,0,0.7,0.1,1.1c0.2,0.7,0.6,1.4,1.1,2.1c0.8,1,1.9,2,3.4,2.9
			c1,0.6,2.1,1.1,3.3,1.6c4.9,2,11.5,3.2,18.7,3.2s13.9-1.3,18.7-3.2c1.2-0.5,2.3-1,3.3-1.6c1.5-0.9,2.6-1.8,3.4-2.9
			c0.5-0.7,0.9-1.4,1.1-2.1c0.1-0.4,0.1-0.7,0.1-1.1C76.9,26.9,64.7,21.9,50.3,21.9z"/>
		<path class="st1" d="M50.3,20.6c-15.6,0-27.9,5.4-27.9,12.2v13.1V59v13v13c0,6.8,12.2,12.2,27.9,12.2c15.6,0,27.9-5.4,27.9-12.2
			V72V58.9v-13V32.8C78.1,26,65.9,20.6,50.3,20.6z M76.9,85c0,6-12.2,11-26.6,11s-26.6-5-26.6-11v-9.4c0.2,0.3,0.5,0.7,0.8,1
			c0.1,0.1,0.2,0.2,0.3,0.3c0.2,0.2,0.5,0.5,0.7,0.7c0.1,0.1,0.3,0.2,0.4,0.3c0.3,0.2,0.6,0.4,0.9,0.6c0.2,0.1,0.3,0.2,0.5,0.3
			c0.4,0.2,0.7,0.5,1.1,0.7c0.1,0.1,0.2,0.1,0.3,0.2c0.5,0.3,1.1,0.5,1.6,0.8c0.1,0.1,0.3,0.1,0.5,0.2c0.4,0.2,0.9,0.4,1.4,0.5
			c0.2,0.1,0.4,0.2,0.7,0.2c0.4,0.1,0.9,0.3,1.3,0.4c0.2,0.1,0.5,0.1,0.7,0.2c0.5,0.1,1,0.3,1.5,0.4c0.2,0,0.4,0.1,0.6,0.2
			c0.7,0.2,1.5,0.3,2.2,0.5c0.1,0,0.3,0,0.4,0.1c0.6,0.1,1.3,0.2,1.9,0.3c0.3,0,0.5,0.1,0.8,0.1c0.6,0.1,1.1,0.1,1.7,0.2
			c0.3,0,0.6,0.1,0.9,0.1c0.6,0,1.2,0.1,1.8,0.1c0.3,0,0.5,0,0.8,0c0.9,0,1.8,0.1,2.7,0.1s1.8,0,2.7-0.1c0.3,0,0.5,0,0.8,0
			c0.6,0,1.2-0.1,1.8-0.1c0.3,0,0.6-0.1,0.9-0.1c0.6-0.1,1.1-0.1,1.7-0.2c0.3,0,0.5-0.1,0.8-0.1c0.7-0.1,1.3-0.2,1.9-0.3
			c0.1,0,0.3,0,0.4-0.1c0.8-0.1,1.5-0.3,2.2-0.5c0.2,0,0.4-0.1,0.6-0.2c0.5-0.1,1-0.3,1.5-0.4c0.2-0.1,0.5-0.1,0.7-0.2
			c0.4-0.1,0.9-0.3,1.3-0.4c0.2-0.1,0.5-0.2,0.7-0.2c0.5-0.2,0.9-0.3,1.3-0.5c0.2-0.1,0.3-0.1,0.5-0.2c0.6-0.3,1.1-0.5,1.6-0.8
			c0.1-0.1,0.2-0.1,0.3-0.2c0.4-0.2,0.8-0.4,1.1-0.7c0.2-0.1,0.3-0.2,0.5-0.3c0.3-0.2,0.6-0.4,0.8-0.6c0.1-0.1,0.3-0.2,0.4-0.3
			c0.3-0.2,0.5-0.5,0.7-0.7c0.1-0.1,0.2-0.2,0.3-0.3c0.3-0.3,0.6-0.7,0.8-1V85H76.9z M76.9,72c0,5.9-12.2,10.9-26.6,10.9
			s-26.6-5-26.6-10.9v-9.4c0.2,0.3,0.5,0.7,0.8,1c0.1,0.1,0.2,0.2,0.3,0.3c0.2,0.2,0.5,0.5,0.8,0.7c0.1,0.1,0.3,0.2,0.4,0.3
			c0.3,0.2,0.6,0.4,0.9,0.6c0.1,0.1,0.3,0.2,0.4,0.3c0.4,0.2,0.8,0.5,1.2,0.7c0.1,0.1,0.2,0.1,0.3,0.2c0.5,0.3,1.1,0.5,1.6,0.8
			c0.1,0.1,0.3,0.1,0.4,0.2c0.4,0.2,0.9,0.4,1.4,0.5c0.2,0.1,0.4,0.2,0.7,0.2c0.4,0.2,0.9,0.3,1.3,0.4c0.2,0.1,0.5,0.1,0.7,0.2
			c0.5,0.1,1,0.3,1.6,0.4c0.2,0,0.4,0.1,0.6,0.1c0.7,0.2,1.5,0.3,2.3,0.5c0.1,0,0.2,0,0.3,0.1c0.7,0.1,1.3,0.2,2,0.3
			c0.3,0,0.5,0.1,0.8,0.1c0.6,0.1,1.2,0.1,1.7,0.2c0.3,0,0.6,0.1,0.8,0.1c0.6,0.1,1.3,0.1,1.9,0.1c0.2,0,0.5,0,0.7,0
			c0.9,0,1.8,0.1,2.7,0.1s1.8,0,2.7-0.1c0.2,0,0.5,0,0.7,0c0.7,0,1.3-0.1,1.9-0.1c0.3,0,0.5,0,0.8-0.1c0.6-0.1,1.2-0.1,1.8-0.2
			c0.2,0,0.5-0.1,0.7-0.1c0.7-0.1,1.4-0.2,2.1-0.3c0.1,0,0.2,0,0.2,0c0.8-0.1,1.5-0.3,2.3-0.5c0.2,0,0.3-0.1,0.5-0.1
			c0.6-0.1,1.1-0.3,1.7-0.4c0.2-0.1,0.4-0.1,0.6-0.2c0.5-0.1,0.9-0.3,1.4-0.5c0.2-0.1,0.4-0.1,0.6-0.2c0.5-0.2,1-0.4,1.4-0.6
			c0.1-0.1,0.2-0.1,0.4-0.2c0.6-0.3,1.1-0.5,1.7-0.8c0.1,0,0.2-0.1,0.3-0.2c0.4-0.2,0.8-0.5,1.2-0.7c0.1-0.1,0.3-0.2,0.4-0.3
			c0.3-0.2,0.6-0.4,0.9-0.6c0.1-0.1,0.3-0.2,0.4-0.3c0.3-0.2,0.5-0.5,0.8-0.7c0.1-0.1,0.2-0.2,0.3-0.3c0.3-0.3,0.6-0.7,0.8-1
			C76.9,62.5,76.9,72,76.9,72z M76.9,58.9c0,5.9-12.2,10.9-26.6,10.9s-26.6-5-26.6-10.9v-9.4c0.2,0.3,0.5,0.7,0.8,1
			c0.1,0.1,0.2,0.2,0.3,0.3c0.2,0.2,0.5,0.5,0.7,0.7c0.1,0.1,0.3,0.2,0.4,0.3c0.3,0.2,0.6,0.4,0.9,0.6c0.2,0.1,0.3,0.2,0.5,0.3
			c0.4,0.2,0.7,0.5,1.1,0.7c0.1,0.1,0.2,0.1,0.3,0.2c0.5,0.3,1.1,0.5,1.6,0.8c0.1,0.1,0.3,0.1,0.5,0.2c0.4,0.2,0.9,0.4,1.4,0.5
			c0.2,0.1,0.4,0.2,0.7,0.2c0.4,0.1,0.9,0.3,1.3,0.4c0.2,0.1,0.5,0.1,0.7,0.2c0.5,0.1,1,0.3,1.5,0.4c0.2,0,0.4,0.1,0.6,0.2
			c0.7,0.2,1.5,0.3,2.2,0.5c0.1,0,0.3,0,0.4,0.1c0.6,0.1,1.3,0.2,1.9,0.3c0.3,0,0.5,0.1,0.8,0.1c0.6,0.1,1.1,0.1,1.7,0.2
			c0.3,0,0.6,0.1,0.9,0.1c0.6,0,1.2,0.1,1.8,0.1c0.3,0,0.5,0,0.8,0c0.9,0,1.8,0.1,2.7,0.1s1.8,0,2.7-0.1c0.3,0,0.5,0,0.8,0
			c0.6,0,1.2-0.1,1.8-0.1c0.3,0,0.6-0.1,0.9-0.1c0.6-0.1,1.1-0.1,1.7-0.2c0.3,0,0.5-0.1,0.8-0.1c0.7-0.1,1.3-0.2,1.9-0.3
			c0.1,0,0.3,0,0.4-0.1c0.8-0.1,1.5-0.3,2.2-0.5c0.2,0,0.4-0.1,0.6-0.2c0.5-0.1,1-0.3,1.5-0.4c0.2-0.1,0.5-0.1,0.7-0.2
			c0.4-0.1,0.9-0.3,1.3-0.4c0.2-0.1,0.5-0.2,0.7-0.2c0.5-0.2,0.9-0.3,1.3-0.5c0.2-0.1,0.3-0.1,0.5-0.2c0.6-0.3,1.1-0.5,1.6-0.8
			c0.1-0.1,0.2-0.1,0.3-0.2c0.4-0.2,0.8-0.4,1.1-0.7c0.2-0.1,0.3-0.2,0.5-0.3c0.3-0.2,0.6-0.4,0.8-0.6c0.1-0.1,0.3-0.2,0.4-0.3
			c0.3-0.2,0.5-0.5,0.7-0.7c0.1-0.1,0.2-0.2,0.3-0.3c0.3-0.3,0.6-0.7,0.8-1v9.4H76.9z M76.9,45.9c0,5.9-12.2,10.9-26.6,10.9
			s-26.6-5-26.6-10.9v-9.4c0.2,0.3,0.5,0.7,0.8,1c0.1,0.1,0.2,0.2,0.3,0.3c0.2,0.2,0.5,0.5,0.7,0.7c0.1,0.1,0.3,0.2,0.4,0.3
			c0.3,0.2,0.6,0.4,0.9,0.6c0.2,0.1,0.3,0.2,0.5,0.3c0.4,0.2,0.7,0.5,1.1,0.7c0.1,0.1,0.2,0.1,0.3,0.2c0.5,0.3,1.1,0.5,1.6,0.8
			c0.1,0.1,0.3,0.1,0.5,0.2c0.4,0.2,0.9,0.4,1.4,0.5c0.2,0.1,0.4,0.2,0.7,0.2c0.4,0.1,0.9,0.3,1.3,0.4c0.2,0.1,0.5,0.1,0.7,0.2
			c0.5,0.1,1,0.3,1.5,0.4c0.2,0,0.4,0.1,0.6,0.2c0.7,0.2,1.5,0.3,2.2,0.5c0.1,0,0.3,0,0.4,0.1c0.6,0.1,1.3,0.2,1.9,0.3
			c0.3,0,0.5,0.1,0.8,0.1c0.6,0.1,1.1,0.1,1.7,0.2c0.3,0,0.6,0.1,0.9,0.1c0.6,0,1.2,0.1,1.8,0.1c0.3,0,0.5,0,0.8,0
			c0.9,0,1.8,0.1,2.7,0.1s1.8,0,2.7-0.1c0.3,0,0.5,0,0.8,0c0.6,0,1.2-0.1,1.8-0.1c0.3,0,0.6-0.1,0.9-0.1c0.6-0.1,1.1-0.1,1.7-0.2
			c0.3,0,0.5-0.1,0.8-0.1c0.7-0.1,1.3-0.2,1.9-0.3c0.1,0,0.3,0,0.4-0.1c0.8-0.1,1.5-0.3,2.2-0.5c0.2,0,0.4-0.1,0.6-0.2
			c0.5-0.1,1-0.3,1.5-0.4c0.2-0.1,0.5-0.1,0.7-0.2c0.4-0.1,0.9-0.3,1.3-0.4c0.2-0.1,0.5-0.2,0.7-0.2c0.5-0.2,0.9-0.3,1.3-0.5
			c0.2-0.1,0.3-0.1,0.5-0.2c0.6-0.3,1.1-0.5,1.6-0.8c0.1-0.1,0.2-0.1,0.3-0.2c0.4-0.2,0.8-0.4,1.1-0.7c0.2-0.1,0.3-0.2,0.5-0.3
			c0.3-0.2,0.6-0.4,0.8-0.6c0.1-0.1,0.3-0.2,0.4-0.3c0.3-0.2,0.5-0.5,0.7-0.7c0.1-0.1,0.2-0.2,0.3-0.3c0.3-0.3,0.6-0.7,0.8-1v9.4
			H76.9z M76.8,33.9c-0.2,0.7-0.6,1.4-1.1,2.1c-0.8,1-1.9,2-3.4,2.9c-1,0.6-2.1,1.1-3.3,1.6c-4.8,2-11.5,3.2-18.7,3.2
			s-13.9-1.3-18.7-3.2c-1.2-0.5-2.3-1-3.3-1.6C26.8,38,25.7,37,24.9,36c-0.5-0.7-0.9-1.4-1.1-2.1c-0.1-0.4-0.1-0.7-0.1-1.1
			c0-5.9,12.2-10.9,26.6-10.9s26.6,5,26.6,10.9C76.9,33.2,76.8,33.5,76.8,33.9z"/>
	</g>
	<g>
		<path class="st0" d="M101.2,83.4c-0.2,0.2-0.5,0.5-0.8,0.7c-0.1,0.1-0.3,0.2-0.4,0.3c-0.3,0.2-0.6,0.4-0.9,0.6
			c-0.1,0.1-0.3,0.2-0.4,0.3c-0.4,0.2-0.8,0.5-1.2,0.7c-0.1,0-0.2,0.1-0.3,0.2c-0.5,0.3-1.1,0.5-1.7,0.8c-0.1,0.1-0.2,0.1-0.4,0.2
			c-0.5,0.2-0.9,0.4-1.4,0.6c-0.2,0.1-0.4,0.1-0.6,0.2c-0.5,0.2-0.9,0.3-1.4,0.5c-0.2,0.1-0.4,0.1-0.6,0.2c-0.5,0.2-1.1,0.3-1.7,0.4
			c-0.2,0-0.3,0.1-0.5,0.1c-0.7,0.2-1.5,0.3-2.3,0.5c-0.1,0-0.2,0-0.2,0c-0.7,0.1-1.4,0.2-2.1,0.3c-0.2,0-0.5,0.1-0.7,0.1
			c-0.6,0.1-1.2,0.1-1.8,0.2c-0.3,0-0.5,0-0.8,0.1c-0.6,0.1-1.3,0.1-1.9,0.1c-0.2,0-0.4,0-0.7,0c-0.9,0-1.8,0.1-2.7,0.1
			c-0.9,0-1.8,0-2.7-0.1c-0.2,0-0.5,0-0.7,0c-0.6,0-1.3-0.1-1.9-0.1c-0.3,0-0.6,0-0.8-0.1c-0.6-0.1-1.2-0.1-1.7-0.2
			c-0.3,0-0.5-0.1-0.8-0.1c-0.7-0.1-1.4-0.2-2-0.3c-0.1,0-0.2,0-0.3-0.1c-0.8-0.1-1.5-0.3-2.3-0.5c-0.2,0-0.4-0.1-0.6-0.1
			c-0.5-0.1-1.1-0.3-1.6-0.4c-0.2-0.1-0.5-0.1-0.7-0.2c-0.5-0.1-0.9-0.3-1.3-0.4c-0.2-0.1-0.4-0.2-0.7-0.2c-0.5-0.2-0.9-0.4-1.4-0.5
			c-0.1-0.1-0.3-0.1-0.4-0.2c-0.6-0.3-1.1-0.5-1.6-0.8c-0.1-0.1-0.2-0.1-0.3-0.2c-0.4-0.2-0.8-0.5-1.2-0.7c-0.2-0.1-0.3-0.2-0.4-0.3
			c-0.3-0.2-0.6-0.4-0.9-0.6c-0.1-0.1-0.3-0.2-0.4-0.3c-0.3-0.2-0.5-0.5-0.8-0.7c-0.1-0.1-0.2-0.2-0.3-0.3c-0.3-0.3-0.6-0.7-0.8-1
			v9.4c0,5.9,12.2,10.9,26.6,10.9s26.6-5,26.6-10.9v-9.4c-0.2,0.3-0.5,0.7-0.8,1C101.4,83.2,101.3,83.3,101.2,83.4z"/>
		<path class="st0" d="M101.2,96.5c-0.2,0.2-0.5,0.5-0.7,0.7c-0.1,0.1-0.3,0.2-0.4,0.3c-0.3,0.2-0.6,0.4-0.8,0.6
			c-0.2,0.1-0.3,0.2-0.5,0.3c-0.4,0.2-0.7,0.4-1.1,0.7c-0.1,0.1-0.2,0.1-0.3,0.2c-0.5,0.3-1.1,0.5-1.6,0.8c-0.1,0.1-0.3,0.1-0.5,0.2
			c-0.4,0.2-0.9,0.4-1.3,0.5c-0.2,0.1-0.4,0.2-0.7,0.2c-0.4,0.1-0.9,0.3-1.3,0.4c-0.2,0.1-0.5,0.1-0.7,0.2c-0.5,0.1-1,0.3-1.5,0.4
			c-0.2,0.1-0.4,0.1-0.6,0.2c-0.7,0.2-1.5,0.3-2.2,0.5c-0.1,0-0.3,0-0.4,0.1c-0.6,0.1-1.3,0.2-1.9,0.3c-0.3,0-0.5,0.1-0.8,0.1
			c-0.5,0.1-1.1,0.1-1.7,0.2c-0.3,0-0.6,0.1-0.9,0.1c-0.6,0-1.2,0.1-1.8,0.1c-0.3,0-0.5,0-0.8,0c-0.9,0-1.8,0.1-2.7,0.1
			c-0.9,0-1.8,0-2.7-0.1c-0.3,0-0.5,0-0.8,0c-0.6,0-1.2-0.1-1.8-0.1c-0.3,0-0.6-0.1-0.9-0.1c-0.6-0.1-1.1-0.1-1.7-0.2
			c-0.3,0-0.5-0.1-0.8-0.1c-0.7-0.1-1.3-0.2-1.9-0.3c-0.1,0-0.3,0-0.4-0.1c-0.8-0.1-1.5-0.3-2.2-0.5c-0.2,0-0.4-0.1-0.6-0.2
			c-0.5-0.1-1-0.3-1.5-0.4c-0.2-0.1-0.5-0.1-0.7-0.2c-0.4-0.1-0.9-0.3-1.3-0.4c-0.2-0.1-0.4-0.2-0.7-0.2c-0.5-0.2-0.9-0.4-1.4-0.5
			c-0.2-0.1-0.3-0.1-0.5-0.2c-0.6-0.3-1.1-0.5-1.6-0.8c-0.1-0.1-0.2-0.1-0.3-0.2c-0.4-0.2-0.8-0.4-1.1-0.7c-0.2-0.1-0.3-0.2-0.5-0.3
			c-0.3-0.2-0.6-0.4-0.9-0.6c-0.1-0.1-0.3-0.2-0.4-0.3c-0.3-0.2-0.5-0.5-0.7-0.7c-0.1-0.1-0.2-0.2-0.3-0.3c-0.3-0.3-0.6-0.7-0.8-1
			v9.4c0,5.9,12.2,10.9,26.6,10.9s26.6-5,26.6-10.9v-9.4c-0.2,0.3-0.5,0.7-0.8,1C101.4,96.3,101.3,96.4,101.2,96.5z"/>
		<path class="st0" d="M101.2,70.4c-0.2,0.2-0.5,0.5-0.7,0.7c-0.1,0.1-0.3,0.2-0.4,0.3c-0.3,0.2-0.6,0.4-0.8,0.6
			c-0.2,0.1-0.3,0.2-0.5,0.3c-0.4,0.2-0.7,0.4-1.1,0.7c-0.1,0.1-0.2,0.1-0.3,0.2c-0.5,0.3-1.1,0.5-1.6,0.8c-0.1,0.1-0.3,0.1-0.5,0.2
			c-0.4,0.2-0.9,0.4-1.3,0.5c-0.2,0.1-0.4,0.2-0.7,0.2c-0.4,0.1-0.9,0.3-1.3,0.4c-0.2,0.1-0.5,0.1-0.7,0.2c-0.5,0.1-1,0.3-1.5,0.4
			c-0.2,0.1-0.4,0.1-0.6,0.2c-0.7,0.2-1.5,0.3-2.2,0.5c-0.1,0-0.3,0-0.4,0.1c-0.6,0.1-1.3,0.2-1.9,0.3c-0.3,0-0.5,0.1-0.8,0.1
			c-0.5,0.1-1.1,0.1-1.7,0.2c-0.3,0-0.6,0.1-0.9,0.1c-0.6,0-1.2,0.1-1.8,0.1c-0.3,0-0.5,0-0.8,0c-0.9,0-1.8,0.1-2.7,0.1
			c-0.9,0-1.8,0-2.7-0.1c-0.3,0-0.5,0-0.8,0c-0.6,0-1.2-0.1-1.8-0.1c-0.3,0-0.6-0.1-0.9-0.1c-0.6-0.1-1.1-0.1-1.7-0.2
			c-0.3,0-0.5-0.1-0.8-0.1c-0.7-0.1-1.3-0.2-1.9-0.3c-0.1,0-0.3,0-0.4-0.1c-0.8-0.1-1.5-0.3-2.2-0.5c-0.2,0-0.4-0.1-0.6-0.2
			c-0.5-0.1-1-0.3-1.5-0.4c-0.2-0.1-0.5-0.1-0.7-0.2c-0.4-0.1-0.9-0.3-1.3-0.4c-0.2-0.1-0.4-0.2-0.7-0.2c-0.5-0.2-0.9-0.4-1.4-0.5
			C56.2,74.1,56,74,55.9,74c-0.6-0.3-1.1-0.5-1.6-0.8c-0.1-0.1-0.2-0.1-0.3-0.2c-0.4-0.2-0.8-0.4-1.1-0.7c-0.2-0.1-0.3-0.2-0.5-0.3
			c-0.3-0.2-0.6-0.4-0.9-0.6c-0.1-0.1-0.3-0.2-0.4-0.3c-0.3-0.2-0.5-0.5-0.7-0.7c-0.1-0.1-0.2-0.2-0.3-0.3c-0.3-0.3-0.6-0.7-0.8-1
			v9.4c0,5.9,12.2,10.9,26.6,10.9s26.6-5,26.6-10.9V69c-0.2,0.3-0.5,0.7-0.8,1C101.4,70.2,101.3,70.3,101.2,70.4z"/>
		<path class="st0" d="M101.2,57.3c-0.2,0.2-0.5,0.5-0.7,0.7c-0.1,0.1-0.3,0.2-0.4,0.3c-0.3,0.2-0.6,0.4-0.8,0.6
			c-0.2,0.1-0.3,0.2-0.5,0.3c-0.4,0.2-0.7,0.4-1.1,0.7c-0.1,0.1-0.2,0.1-0.3,0.2c-0.5,0.3-1.1,0.5-1.6,0.8c-0.1,0.1-0.3,0.1-0.5,0.2
			c-0.4,0.2-0.9,0.4-1.3,0.5c-0.2,0.1-0.4,0.2-0.7,0.2c-0.4,0.1-0.9,0.3-1.3,0.4c-0.2,0.1-0.5,0.1-0.7,0.2c-0.5,0.1-1,0.3-1.5,0.4
			C89.4,63,89.2,63,89,63.1c-0.7,0.2-1.5,0.3-2.2,0.5c-0.1,0-0.3,0-0.4,0.1c-0.6,0.1-1.3,0.2-1.9,0.3c-0.3,0-0.5,0.1-0.8,0.1
			c-0.5,0.1-1.1,0.1-1.7,0.2c-0.3,0-0.6,0.1-0.9,0.1c-0.6,0-1.2,0.1-1.8,0.1c-0.3,0-0.5,0-0.8,0c-0.9,0-1.8,0.1-2.7,0.1
			c-0.9,0-1.8,0-2.7-0.1c-0.3,0-0.5,0-0.8,0c-0.6,0-1.2-0.1-1.8-0.1c-0.3,0-0.6-0.1-0.9-0.1c-0.6-0.1-1.1-0.1-1.7-0.2
			c-0.3,0-0.5-0.1-0.8-0.1c-0.7-0.1-1.3-0.2-1.9-0.3c-0.1,0-0.3,0-0.4-0.1c-0.8-0.1-1.5-0.3-2.2-0.5c-0.2,0-0.4-0.1-0.6-0.2
			c-0.5-0.1-1-0.3-1.5-0.4c-0.2-0.1-0.5-0.1-0.7-0.2c-0.4-0.1-0.9-0.3-1.3-0.4c-0.2-0.1-0.4-0.2-0.7-0.2c-0.5-0.2-0.9-0.4-1.4-0.5
			C56.2,61,56,61,55.9,60.9c-0.6-0.3-1.1-0.5-1.6-0.8C54.2,60,54.1,60,54,59.9c-0.4-0.2-0.8-0.4-1.1-0.7c-0.2-0.1-0.3-0.2-0.5-0.3
			c-0.3-0.2-0.6-0.4-0.9-0.6c-0.1-0.1-0.3-0.2-0.4-0.3c-0.3-0.2-0.5-0.5-0.7-0.7c-0.1-0.1-0.2-0.2-0.3-0.3c-0.3-0.3-0.6-0.7-0.8-1
			v9.4c0,5.9,12.2,10.9,26.6,10.9s26.6-5,26.6-10.9V56c-0.2,0.3-0.5,0.7-0.8,1C101.4,57.1,101.3,57.2,101.2,57.3z"/>
		<path class="st0" d="M75.8,41.4c-14.4,0-26.6,5-26.6,10.9c0,0.4,0,0.7,0.1,1.1c0.2,0.7,0.6,1.4,1.1,2.1c0.8,1,1.9,2,3.4,2.9
			c1,0.6,2.1,1.1,3.3,1.6c4.9,2,11.5,3.2,18.7,3.2s13.9-1.3,18.7-3.2c1.2-0.5,2.3-1,3.3-1.6c1.5-0.9,2.6-1.8,3.4-2.9
			c0.5-0.7,0.9-1.4,1.1-2.1c0.1-0.4,0.1-0.7,0.1-1.1C102.4,46.4,90.2,41.4,75.8,41.4z"/>
		<path class="st1" d="M75.8,40.1c-15.6,0-27.9,5.4-27.9,12.2v13.1v13.1v13.1v13.1c0,6.8,12.2,12.2,27.9,12.2
			c15.6,0,27.9-5.4,27.9-12.2V91.5V78.4v-13V52.3C103.6,45.5,91.4,40.1,75.8,40.1z M102.4,104.5c0,5.9-12.2,10.9-26.6,10.9
			s-26.6-5-26.6-10.9v-9.4c0.2,0.3,0.5,0.7,0.8,1c0.1,0.1,0.2,0.2,0.3,0.3c0.2,0.2,0.5,0.5,0.7,0.7c0.1,0.1,0.3,0.2,0.4,0.3
			c0.3,0.2,0.6,0.4,0.9,0.6c0.2,0.1,0.3,0.2,0.5,0.3c0.4,0.2,0.7,0.5,1.1,0.7c0.1,0.1,0.2,0.1,0.3,0.2c0.5,0.3,1.1,0.5,1.6,0.8
			c0.1,0.1,0.3,0.1,0.5,0.2c0.4,0.2,0.9,0.4,1.4,0.5c0.2,0.1,0.4,0.2,0.7,0.2c0.4,0.1,0.9,0.3,1.3,0.4c0.2,0.1,0.5,0.1,0.7,0.2
			c0.5,0.1,1,0.3,1.5,0.4c0.2,0,0.4,0.1,0.6,0.2c0.7,0.2,1.5,0.3,2.2,0.5c0.1,0,0.3,0,0.4,0.1c0.6,0.1,1.3,0.2,1.9,0.3
			c0.3,0,0.5,0.1,0.8,0.1c0.6,0.1,1.1,0.1,1.7,0.2c0.3,0,0.6,0.1,0.9,0.1c0.6,0,1.2,0.1,1.8,0.1c0.3,0,0.5,0,0.8,0
			c0.9,0,1.8,0.1,2.7,0.1c0.9,0,1.8,0,2.7-0.1c0.3,0,0.5,0,0.8,0c0.6,0,1.2-0.1,1.8-0.1c0.3,0,0.6-0.1,0.9-0.1
			c0.6-0.1,1.1-0.1,1.7-0.2c0.3,0,0.5-0.1,0.8-0.1c0.7-0.1,1.3-0.2,1.9-0.3c0.1,0,0.3,0,0.4-0.1c0.8-0.1,1.5-0.3,2.2-0.5
			c0.2,0,0.4-0.1,0.6-0.2c0.5-0.1,1-0.3,1.5-0.4c0.2-0.1,0.5-0.1,0.7-0.2c0.4-0.1,0.9-0.3,1.3-0.4c0.2-0.1,0.5-0.2,0.7-0.2
			c0.5-0.2,0.9-0.3,1.3-0.5c0.2-0.1,0.3-0.1,0.5-0.2c0.6-0.3,1.1-0.5,1.6-0.8c0.1-0.1,0.2-0.1,0.3-0.2c0.4-0.2,0.8-0.4,1.1-0.7
			c0.2-0.1,0.3-0.2,0.5-0.3c0.3-0.2,0.6-0.4,0.8-0.6c0.1-0.1,0.3-0.2,0.4-0.3c0.3-0.2,0.5-0.5,0.7-0.7c0.1-0.1,0.2-0.2,0.3-0.3
			c0.3-0.3,0.6-0.7,0.8-1v9.4H102.4z M102.4,91.5c0,5.9-12.2,10.9-26.6,10.9s-26.6-5-26.6-10.9v-9.4c0.2,0.3,0.5,0.7,0.8,1
			c0.1,0.1,0.2,0.2,0.3,0.3c0.2,0.2,0.5,0.5,0.8,0.7c0.1,0.1,0.3,0.2,0.4,0.3c0.3,0.2,0.6,0.4,0.9,0.6c0.1,0.1,0.3,0.2,0.4,0.3
			c0.4,0.2,0.8,0.5,1.2,0.7c0.1,0.1,0.2,0.1,0.3,0.2c0.5,0.3,1.1,0.5,1.6,0.8c0.1,0.1,0.3,0.1,0.4,0.2c0.4,0.2,0.9,0.4,1.4,0.5
			c0.2,0.1,0.4,0.2,0.7,0.2c0.4,0.2,0.9,0.3,1.3,0.4c0.2,0.1,0.5,0.1,0.7,0.2c0.5,0.1,1,0.3,1.6,0.4c0.2,0,0.4,0.1,0.6,0.1
			c0.7,0.2,1.5,0.3,2.3,0.5c0.1,0,0.2,0,0.3,0.1c0.7,0.1,1.3,0.2,2,0.3c0.3,0,0.5,0.1,0.8,0.1c0.6,0.1,1.2,0.1,1.7,0.2
			c0.3,0,0.6,0.1,0.8,0.1c0.6,0.1,1.3,0.1,1.9,0.1c0.2,0,0.5,0,0.7,0c0.9,0,1.8,0.1,2.7,0.1c0.9,0,1.8,0,2.7-0.1c0.2,0,0.5,0,0.7,0
			c0.7,0,1.3-0.1,1.9-0.1c0.3,0,0.5,0,0.8-0.1c0.6-0.1,1.2-0.1,1.8-0.2c0.2,0,0.5-0.1,0.7-0.1c0.7-0.1,1.4-0.2,2.1-0.3
			c0.1,0,0.2,0,0.2,0c0.8-0.1,1.5-0.3,2.3-0.5c0.2,0,0.3-0.1,0.5-0.1c0.6-0.1,1.1-0.3,1.7-0.4c0.2-0.1,0.4-0.1,0.6-0.2
			c0.5-0.1,0.9-0.3,1.4-0.5c0.2-0.1,0.4-0.1,0.6-0.2c0.5-0.2,1-0.4,1.4-0.6c0.1-0.1,0.2-0.1,0.4-0.2c0.6-0.3,1.1-0.5,1.7-0.8
			c0.1,0,0.2-0.1,0.3-0.2c0.4-0.2,0.8-0.5,1.2-0.7c0.1-0.1,0.3-0.2,0.4-0.3c0.3-0.2,0.6-0.4,0.9-0.6c0.1-0.1,0.3-0.2,0.4-0.3
			c0.3-0.2,0.5-0.5,0.8-0.7c0.1-0.1,0.2-0.2,0.3-0.3c0.3-0.3,0.6-0.7,0.8-1C102.4,82,102.4,91.5,102.4,91.5z M102.4,78.4
			c0,5.9-12.2,10.9-26.6,10.9s-26.6-5-26.6-10.9V69c0.2,0.3,0.5,0.7,0.8,1c0.1,0.1,0.2,0.2,0.3,0.3c0.2,0.2,0.5,0.5,0.7,0.7
			c0.1,0.1,0.3,0.2,0.4,0.3c0.3,0.2,0.6,0.4,0.9,0.6c0.2,0.1,0.3,0.2,0.5,0.3c0.4,0.2,0.7,0.5,1.1,0.7c0.1,0.1,0.2,0.1,0.3,0.2
			c0.5,0.3,1.1,0.5,1.6,0.8c0.1,0.1,0.3,0.1,0.5,0.2c0.4,0.2,0.9,0.4,1.4,0.5c0.2,0.1,0.4,0.2,0.7,0.2c0.4,0.1,0.9,0.3,1.3,0.4
			c0.2,0.1,0.5,0.1,0.7,0.2c0.5,0.1,1,0.3,1.5,0.4c0.2,0,0.4,0.1,0.6,0.2c0.7,0.2,1.5,0.3,2.2,0.5c0.1,0,0.3,0,0.4,0.1
			c0.6,0.1,1.3,0.2,1.9,0.3c0.3,0,0.5,0.1,0.8,0.1c0.6,0.1,1.1,0.1,1.7,0.2c0.3,0,0.6,0.1,0.9,0.1c0.6,0,1.2,0.1,1.8,0.1
			c0.3,0,0.5,0,0.8,0c0.9,0,1.8,0.1,2.7,0.1c0.9,0,1.8,0,2.7-0.1c0.3,0,0.5,0,0.8,0c0.6,0,1.2-0.1,1.8-0.1c0.3,0,0.6-0.1,0.9-0.1
			c0.6-0.1,1.1-0.1,1.7-0.2c0.3,0,0.5-0.1,0.8-0.1c0.7-0.1,1.3-0.2,1.9-0.3c0.1,0,0.3,0,0.4-0.1c0.8-0.1,1.5-0.3,2.2-0.5
			c0.2,0,0.4-0.1,0.6-0.2c0.5-0.1,1-0.3,1.5-0.4c0.2-0.1,0.5-0.1,0.7-0.2c0.4-0.1,0.9-0.3,1.3-0.4c0.2-0.1,0.5-0.2,0.7-0.2
			c0.5-0.2,0.9-0.3,1.3-0.5c0.2-0.1,0.3-0.1,0.5-0.2c0.6-0.3,1.1-0.5,1.6-0.8c0.1-0.1,0.2-0.1,0.3-0.2c0.4-0.2,0.8-0.4,1.1-0.7
			c0.2-0.1,0.3-0.2,0.5-0.3c0.3-0.2,0.6-0.4,0.8-0.6c0.1-0.1,0.3-0.2,0.4-0.3c0.3-0.2,0.5-0.5,0.7-0.7c0.1-0.1,0.2-0.2,0.3-0.3
			c0.3-0.3,0.6-0.7,0.8-1v9.4H102.4z M102.4,65.4c0,5.9-12.2,10.9-26.6,10.9s-26.6-5-26.6-10.9V56c0.2,0.3,0.5,0.7,0.8,1
			c0.1,0.1,0.2,0.2,0.3,0.3c0.2,0.2,0.5,0.5,0.7,0.7c0.1,0.1,0.3,0.2,0.4,0.3c0.3,0.2,0.6,0.4,0.9,0.6c0.2,0.1,0.3,0.2,0.5,0.3
			c0.4,0.2,0.7,0.5,1.1,0.7c0.1,0.1,0.2,0.1,0.3,0.2c0.5,0.3,1.1,0.5,1.6,0.8c0.1,0.1,0.3,0.1,0.5,0.2c0.4,0.2,0.9,0.4,1.4,0.5
			c0.2,0.1,0.4,0.2,0.7,0.2c0.4,0.1,0.9,0.3,1.3,0.4c0.2,0.1,0.5,0.1,0.7,0.2c0.5,0.1,1,0.3,1.5,0.4c0.2,0,0.4,0.1,0.6,0.2
			c0.7,0.2,1.5,0.3,2.2,0.5c0.1,0,0.3,0,0.4,0.1c0.6,0.1,1.3,0.2,1.9,0.3c0.3,0,0.5,0.1,0.8,0.1c0.6,0.1,1.1,0.1,1.7,0.2
			c0.3,0,0.6,0.1,0.9,0.1c0.6,0,1.2,0.1,1.8,0.1c0.3,0,0.5,0,0.8,0c0.9,0,1.8,0.1,2.7,0.1c0.9,0,1.8,0,2.7-0.1c0.3,0,0.5,0,0.8,0
			c0.6,0,1.2-0.1,1.8-0.1c0.3,0,0.6-0.1,0.9-0.1c0.6-0.1,1.1-0.1,1.7-0.2c0.3,0,0.5-0.1,0.8-0.1c0.7-0.1,1.3-0.2,1.9-0.3
			c0.1,0,0.3,0,0.4-0.1c0.8-0.1,1.5-0.3,2.2-0.5c0.2,0,0.4-0.1,0.6-0.2c0.5-0.1,1-0.3,1.5-0.4c0.2-0.1,0.5-0.1,0.7-0.2
			c0.4-0.1,0.9-0.3,1.3-0.4c0.2-0.1,0.5-0.2,0.7-0.2c0.5-0.2,0.9-0.3,1.3-0.5c0.2-0.1,0.3-0.1,0.5-0.2c0.6-0.3,1.1-0.5,1.6-0.8
			c0.1-0.1,0.2-0.1,0.3-0.2c0.4-0.2,0.8-0.4,1.1-0.7c0.2-0.1,0.3-0.2,0.5-0.3c0.3-0.2,0.6-0.4,0.8-0.6c0.1-0.1,0.3-0.2,0.4-0.3
			c0.3-0.2,0.5-0.5,0.7-0.7c0.1-0.1,0.2-0.2,0.3-0.3c0.3-0.3,0.6-0.7,0.8-1v9.4H102.4z M102.2,53.4c-0.2,0.7-0.6,1.4-1.1,2.1
			c-0.8,1-1.9,2-3.4,2.9c-1,0.6-2.1,1.1-3.3,1.6c-4.8,2-11.5,3.2-18.7,3.2S61.9,62,57,60c-1.2-0.5-2.3-1-3.3-1.6
			c-1.5-0.9-2.6-1.8-3.4-2.9c-0.5-0.7-0.9-1.4-1.1-2.1c-0.1-0.4-0.1-0.7-0.1-1.1c0-5.9,12.2-10.9,26.6-10.9s26.6,5,26.6,10.9
			C102.4,52.7,102.3,53,102.2,53.4z"/>
	</g>
	<g>
		<path class="st0" d="M126.3,104c-0.2,0.2-0.5,0.5-0.8,0.7c-0.1,0.1-0.3,0.2-0.4,0.3c-0.3,0.2-0.6,0.4-0.9,0.6
			c-0.1,0.1-0.3,0.2-0.4,0.3c-0.4,0.2-0.8,0.5-1.2,0.7c-0.1,0-0.2,0.1-0.3,0.2c-0.5,0.3-1.1,0.5-1.7,0.8c-0.1,0.1-0.2,0.1-0.4,0.2
			c-0.5,0.2-0.9,0.4-1.4,0.6c-0.2,0.1-0.4,0.1-0.6,0.2c-0.5,0.2-0.9,0.3-1.4,0.5c-0.2,0.1-0.4,0.1-0.6,0.2c-0.5,0.2-1.1,0.3-1.7,0.4
			c-0.2,0-0.3,0.1-0.5,0.1c-0.7,0.2-1.5,0.3-2.3,0.5c-0.1,0-0.2,0-0.2,0c-0.7,0.1-1.4,0.2-2.1,0.3c-0.2,0-0.5,0.1-0.7,0.1
			c-0.6,0.1-1.2,0.1-1.8,0.2c-0.3,0-0.5,0-0.8,0.1c-0.6,0.1-1.3,0.1-1.9,0.1c-0.2,0-0.4,0-0.7,0c-0.9,0-1.8,0.1-2.7,0.1
			c-0.9,0-1.8,0-2.7-0.1c-0.2,0-0.5,0-0.7,0c-0.6,0-1.3-0.1-1.9-0.1c-0.3,0-0.6,0-0.8-0.1c-0.6-0.1-1.2-0.1-1.7-0.2
			c-0.3,0-0.5-0.1-0.8-0.1c-0.7-0.1-1.4-0.2-2-0.3c-0.1,0-0.2,0-0.3-0.1c-0.8-0.1-1.5-0.3-2.3-0.5c-0.2,0-0.4-0.1-0.6-0.1
			c-0.5-0.1-1.1-0.3-1.6-0.4c-0.2-0.1-0.5-0.1-0.7-0.2c-0.5-0.1-0.9-0.3-1.3-0.4c-0.2-0.1-0.4-0.2-0.7-0.2c-0.5-0.2-0.9-0.4-1.4-0.5
			c-0.1-0.1-0.3-0.1-0.4-0.2c-0.6-0.3-1.1-0.5-1.6-0.8c-0.1-0.1-0.2-0.1-0.3-0.2c-0.4-0.2-0.8-0.5-1.2-0.7c-0.2-0.1-0.3-0.2-0.4-0.3
			c-0.3-0.2-0.6-0.4-0.9-0.6c-0.1-0.1-0.3-0.2-0.4-0.3c-0.3-0.2-0.5-0.5-0.8-0.7c-0.1-0.1-0.2-0.2-0.3-0.3c-0.3-0.3-0.6-0.7-0.8-1
			v9.4c0,5.9,12.2,10.9,26.6,10.9s26.6-5,26.6-10.9v-9.4c-0.2,0.3-0.5,0.7-0.8,1C126.5,103.8,126.4,103.9,126.3,104z"/>
		<path class="st0" d="M126.2,117.1c-0.2,0.2-0.5,0.5-0.7,0.7c-0.1,0.1-0.3,0.2-0.4,0.3c-0.3,0.2-0.6,0.4-0.8,0.6
			c-0.2,0.1-0.3,0.2-0.5,0.3c-0.4,0.2-0.7,0.4-1.1,0.7c-0.1,0.1-0.2,0.1-0.3,0.2c-0.5,0.3-1.1,0.5-1.6,0.8c-0.1,0.1-0.3,0.1-0.5,0.2
			c-0.4,0.2-0.9,0.4-1.3,0.5c-0.2,0.1-0.4,0.2-0.7,0.2c-0.4,0.1-0.9,0.3-1.3,0.4c-0.2,0.1-0.5,0.1-0.7,0.2c-0.5,0.1-1,0.3-1.5,0.4
			c-0.2,0.1-0.4,0.1-0.6,0.2c-0.7,0.2-1.5,0.3-2.2,0.5c-0.1,0-0.3,0-0.4,0.1c-0.6,0.1-1.3,0.2-1.9,0.3c-0.3,0-0.5,0.1-0.8,0.1
			c-0.5,0.1-1.1,0.1-1.7,0.2c-0.3,0-0.6,0.1-0.9,0.1c-0.6,0-1.2,0.1-1.8,0.1c-0.3,0-0.5,0-0.8,0c-0.9,0-1.8,0.1-2.7,0.1
			c-0.9,0-1.8,0-2.7-0.1c-0.3,0-0.5,0-0.8,0c-0.6,0-1.2-0.1-1.8-0.1c-0.3,0-0.6-0.1-0.9-0.1c-0.6-0.1-1.1-0.1-1.7-0.2
			c-0.3,0-0.5-0.1-0.8-0.1c-0.7-0.1-1.3-0.2-1.9-0.3c-0.1,0-0.3,0-0.4-0.1c-0.8-0.1-1.5-0.3-2.2-0.5c-0.2,0-0.4-0.1-0.6-0.2
			c-0.5-0.1-1-0.3-1.5-0.4c-0.2-0.1-0.5-0.1-0.7-0.2c-0.4-0.1-0.9-0.3-1.3-0.4c-0.2-0.1-0.4-0.2-0.7-0.2c-0.5-0.2-0.9-0.4-1.4-0.5
			c-0.2-0.1-0.3-0.1-0.5-0.2c-0.6-0.3-1.1-0.5-1.6-0.8c-0.1-0.1-0.2-0.1-0.3-0.2c-0.4-0.2-0.8-0.4-1.1-0.7c-0.2-0.1-0.3-0.2-0.5-0.3
			c-0.3-0.2-0.6-0.4-0.9-0.6c-0.1-0.1-0.3-0.2-0.4-0.3c-0.3-0.2-0.5-0.5-0.7-0.7c-0.1-0.1-0.2-0.2-0.3-0.3c-0.3-0.3-0.6-0.7-0.8-1
			v9.4c0,5.9,12.2,10.9,26.6,10.9s26.6-5,26.6-10.9v-9.4c-0.2,0.3-0.5,0.7-0.8,1C126.5,116.9,126.3,117,126.2,117.1z"/>
		<path class="st0" d="M126.2,91c-0.2,0.2-0.5,0.5-0.7,0.7c-0.1,0.1-0.3,0.2-0.4,0.3c-0.3,0.2-0.6,0.4-0.8,0.6
			c-0.2,0.1-0.3,0.2-0.5,0.3c-0.4,0.2-0.7,0.4-1.1,0.7c-0.1,0.1-0.2,0.1-0.3,0.2c-0.5,0.3-1.1,0.5-1.6,0.8c-0.1,0.1-0.3,0.1-0.5,0.2
			c-0.4,0.2-0.9,0.4-1.3,0.5c-0.2,0.1-0.4,0.2-0.7,0.2c-0.4,0.1-0.9,0.3-1.3,0.4c-0.2,0.1-0.5,0.1-0.7,0.2c-0.5,0.1-1,0.3-1.5,0.4
			c-0.2,0.1-0.4,0.1-0.6,0.2c-0.7,0.2-1.5,0.3-2.2,0.5c-0.1,0-0.3,0-0.4,0.1c-0.6,0.1-1.3,0.2-1.9,0.3c-0.3,0-0.5,0.1-0.8,0.1
			c-0.5,0.1-1.1,0.1-1.7,0.2c-0.3,0-0.6,0.1-0.9,0.1c-0.6,0-1.2,0.1-1.8,0.1c-0.3,0-0.5,0-0.8,0c-0.9,0-1.8,0.1-2.7,0.1
			c-0.9,0-1.8,0-2.7-0.1c-0.3,0-0.5,0-0.8,0c-0.6,0-1.2-0.1-1.8-0.1c-0.3,0-0.6-0.1-0.9-0.1c-0.6-0.1-1.1-0.1-1.7-0.2
			c-0.3,0-0.5-0.1-0.8-0.1c-0.7-0.1-1.3-0.2-1.9-0.3c-0.1,0-0.3,0-0.4-0.1c-0.8-0.1-1.5-0.3-2.2-0.5c-0.2,0-0.4-0.1-0.6-0.2
			c-0.5-0.1-1-0.3-1.5-0.4C85.5,96,85.2,96,85,95.9c-0.4-0.1-0.9-0.3-1.3-0.4c-0.2-0.1-0.4-0.2-0.7-0.2c-0.5-0.2-0.9-0.4-1.4-0.5
			c-0.2-0.1-0.3-0.1-0.5-0.2c-0.6-0.3-1.1-0.5-1.6-0.8c-0.1-0.1-0.2-0.1-0.3-0.2c-0.4-0.2-0.8-0.4-1.1-0.7c-0.2-0.1-0.3-0.2-0.5-0.3
			c-0.3-0.2-0.6-0.4-0.9-0.6c-0.1-0.1-0.3-0.2-0.4-0.3c-0.3-0.2-0.5-0.5-0.7-0.7c-0.1-0.1-0.2-0.2-0.3-0.3c-0.3-0.3-0.6-0.7-0.8-1
			V99c0,5.9,12.2,10.9,26.6,10.9s26.6-5,26.6-10.9v-9.4c-0.2,0.3-0.5,0.7-0.8,1C126.5,90.8,126.3,90.9,126.2,91z"/>
		<path class="st0" d="M126.2,77.9c-0.2,0.2-0.5,0.5-0.7,0.7c-0.1,0.1-0.3,0.2-0.4,0.3c-0.3,0.2-0.6,0.4-0.8,0.6
			c-0.2,0.1-0.3,0.2-0.5,0.3c-0.4,0.2-0.7,0.4-1.1,0.7c-0.1,0.1-0.2,0.1-0.3,0.2c-0.5,0.3-1.1,0.5-1.6,0.8c-0.1,0.1-0.3,0.1-0.5,0.2
			c-0.4,0.2-0.9,0.4-1.3,0.5c-0.2,0.1-0.4,0.2-0.7,0.2c-0.4,0.1-0.9,0.3-1.3,0.4c-0.2,0.1-0.5,0.1-0.7,0.2c-0.5,0.1-1,0.3-1.5,0.4
			c-0.2,0.1-0.4,0.1-0.6,0.2c-0.7,0.2-1.5,0.3-2.2,0.5c-0.1,0-0.3,0-0.4,0.1c-0.6,0.1-1.3,0.2-1.9,0.3c-0.3,0-0.5,0.1-0.8,0.1
			c-0.5,0.1-1.1,0.1-1.7,0.2c-0.3,0-0.6,0.1-0.9,0.1c-0.6,0-1.2,0.1-1.8,0.1c-0.3,0-0.5,0-0.8,0c-0.9,0-1.8,0.1-2.7,0.1
			c-0.9,0-1.8,0-2.7-0.1c-0.3,0-0.5,0-0.8,0c-0.6,0-1.2-0.1-1.8-0.1c-0.3,0-0.6-0.1-0.9-0.1c-0.6-0.1-1.1-0.1-1.7-0.2
			c-0.3,0-0.5-0.1-0.8-0.1c-0.7-0.1-1.3-0.2-1.9-0.3c-0.1,0-0.3,0-0.4-0.1c-0.8-0.1-1.5-0.3-2.2-0.5c-0.2,0-0.4-0.1-0.6-0.2
			c-0.5-0.1-1-0.3-1.5-0.4c-0.2-0.1-0.5-0.1-0.7-0.2c-0.4-0.1-0.9-0.3-1.3-0.4c-0.2-0.1-0.4-0.2-0.7-0.2c-0.5-0.2-0.9-0.4-1.4-0.5
			c-0.2-0.1-0.3-0.1-0.5-0.2c-0.6-0.3-1.1-0.5-1.6-0.8c-0.1-0.1-0.2-0.1-0.3-0.2c-0.4-0.2-0.8-0.4-1.1-0.7c-0.2-0.1-0.3-0.2-0.5-0.3
			c-0.3-0.2-0.6-0.4-0.9-0.6c-0.1-0.1-0.3-0.2-0.4-0.3c-0.3-0.2-0.5-0.5-0.7-0.7c-0.1-0.1-0.2-0.2-0.3-0.3c-0.3-0.3-0.6-0.7-0.8-1
			V86c0,5.9,12.2,10.9,26.6,10.9s26.6-5,26.6-10.9v-9.4c-0.2,0.3-0.5,0.7-0.8,1C126.5,77.7,126.3,77.8,126.2,77.9z"/>
		<path class="st0" d="M100.8,62c-14.4,0-26.6,5-26.6,10.9c0,0.4,0,0.7,0.1,1.1c0.2,0.7,0.6,1.4,1.1,2.1c0.8,1,1.9,2,3.4,2.9
			c1,0.6,2.1,1.1,3.3,1.6c4.9,2,11.5,3.2,18.7,3.2s13.9-1.3,18.7-3.2c1.2-0.5,2.3-1,3.3-1.6c1.5-0.9,2.6-1.8,3.4-2.9
			c0.5-0.7,0.9-1.4,1.1-2.1c0.1-0.4,0.1-0.7,0.1-1.1C127.4,67,115.2,62,100.8,62z"/>
		<path class="st1" d="M100.8,60.7c-15.6,0-27.9,5.4-27.9,12.2V86v13v13.1v13.1c0,6.8,12.2,12.2,27.9,12.2
			c15.6,0,27.9-5.4,27.9-12.2v-13.1V99V86V72.9C128.6,66.1,116.4,60.7,100.8,60.7z M127.4,125.2c0,5.9-12.2,10.9-26.6,10.9
			s-26.6-5-26.6-10.9v-9.4c0.2,0.3,0.5,0.7,0.8,1c0.1,0.1,0.2,0.2,0.3,0.3c0.2,0.2,0.5,0.5,0.7,0.7c0.1,0.1,0.3,0.2,0.4,0.3
			c0.3,0.2,0.6,0.4,0.9,0.6c0.2,0.1,0.3,0.2,0.5,0.3c0.4,0.2,0.7,0.5,1.1,0.7c0.1,0.1,0.2,0.1,0.3,0.2c0.5,0.3,1.1,0.5,1.6,0.8
			c0.1,0.1,0.3,0.1,0.5,0.2c0.4,0.2,0.9,0.4,1.4,0.5c0.2,0.1,0.4,0.2,0.7,0.2c0.4,0.1,0.9,0.3,1.3,0.4c0.2,0.1,0.5,0.1,0.7,0.2
			c0.5,0.1,1,0.3,1.5,0.4c0.2,0,0.4,0.1,0.6,0.2c0.7,0.2,1.5,0.3,2.2,0.5c0.1,0,0.3,0,0.4,0.1c0.6,0.1,1.3,0.2,1.9,0.3
			c0.3,0,0.5,0.1,0.8,0.1c0.6,0.1,1.1,0.1,1.7,0.2c0.3,0,0.6,0.1,0.9,0.1c0.6,0,1.2,0.1,1.8,0.1c0.3,0,0.5,0,0.8,0
			c0.9,0,1.8,0.1,2.7,0.1c0.9,0,1.8,0,2.7-0.1c0.3,0,0.5,0,0.8,0c0.6,0,1.2-0.1,1.8-0.1c0.3,0,0.6-0.1,0.9-0.1
			c0.6-0.1,1.1-0.1,1.7-0.2c0.3,0,0.5-0.1,0.8-0.1c0.7-0.1,1.3-0.2,1.9-0.3c0.1,0,0.3,0,0.4-0.1c0.8-0.1,1.5-0.3,2.2-0.5
			c0.2,0,0.4-0.1,0.6-0.2c0.5-0.1,1-0.3,1.5-0.4c0.2-0.1,0.5-0.1,0.7-0.2c0.4-0.1,0.9-0.3,1.3-0.4c0.2-0.1,0.5-0.2,0.7-0.2
			c0.5-0.2,0.9-0.3,1.3-0.5c0.2-0.1,0.3-0.1,0.5-0.2c0.6-0.3,1.1-0.5,1.6-0.8c0.1-0.1,0.2-0.1,0.3-0.2c0.4-0.2,0.8-0.4,1.1-0.7
			c0.2-0.1,0.3-0.2,0.5-0.3c0.3-0.2,0.6-0.4,0.8-0.6c0.1-0.1,0.3-0.2,0.4-0.3c0.3-0.2,0.5-0.5,0.7-0.7c0.1-0.1,0.2-0.2,0.3-0.3
			c0.3-0.3,0.6-0.7,0.8-1v9.4C127,125.2,127.4,125.2,127.4,125.2z M127.4,112.1c0,5.9-12.2,10.9-26.6,10.9s-26.6-5-26.6-10.9v-9.4
			c0.2,0.3,0.5,0.7,0.8,1c0.1,0.1,0.2,0.2,0.3,0.3c0.2,0.2,0.5,0.5,0.8,0.7c0.1,0.1,0.3,0.2,0.4,0.3c0.3,0.2,0.6,0.4,0.9,0.6
			c0.1,0.1,0.3,0.2,0.4,0.3c0.4,0.2,0.8,0.5,1.2,0.7c0.1,0.1,0.2,0.1,0.3,0.2c0.5,0.3,1.1,0.5,1.6,0.8c0.1,0.1,0.3,0.1,0.4,0.2
			c0.4,0.2,0.9,0.4,1.4,0.5c0.2,0.1,0.4,0.2,0.7,0.2c0.4,0.2,0.9,0.3,1.3,0.4c0.2,0.1,0.5,0.1,0.7,0.2c0.5,0.1,1,0.3,1.6,0.4
			c0.2,0,0.4,0.1,0.6,0.1c0.7,0.2,1.5,0.3,2.3,0.5c0.1,0,0.2,0,0.3,0.1c0.7,0.1,1.3,0.2,2,0.3c0.3,0,0.5,0.1,0.8,0.1
			c0.6,0.1,1.2,0.1,1.7,0.2c0.3,0,0.6,0.1,0.8,0.1c0.6,0.1,1.3,0.1,1.9,0.1c0.2,0,0.5,0,0.7,0c0.9,0,1.8,0.1,2.7,0.1
			c0.9,0,1.8,0,2.7-0.1c0.2,0,0.5,0,0.7,0c0.7,0,1.3-0.1,1.9-0.1c0.3,0,0.5,0,0.8-0.1c0.6-0.1,1.2-0.1,1.8-0.2
			c0.2,0,0.5-0.1,0.7-0.1c0.7-0.1,1.4-0.2,2.1-0.3c0.1,0,0.2,0,0.2,0c0.8-0.1,1.5-0.3,2.3-0.5c0.2,0,0.3-0.1,0.5-0.1
			c0.6-0.1,1.1-0.3,1.7-0.4c0.2-0.1,0.4-0.1,0.6-0.2c0.5-0.1,0.9-0.3,1.4-0.5c0.2-0.1,0.4-0.1,0.6-0.2c0.5-0.2,1-0.4,1.4-0.6
			c0.1-0.1,0.2-0.1,0.4-0.2c0.6-0.3,1.1-0.5,1.7-0.8c0.1,0,0.2-0.1,0.3-0.2c0.4-0.2,0.8-0.5,1.2-0.7c0.1-0.1,0.3-0.2,0.4-0.3
			c0.3-0.2,0.6-0.4,0.9-0.6c0.1-0.1,0.3-0.2,0.4-0.3c0.3-0.2,0.5-0.5,0.8-0.7c0.1-0.1,0.2-0.2,0.3-0.3c0.3-0.3,0.6-0.7,0.8-1
			L127.4,112.1L127.4,112.1z M127.4,99c0,5.9-12.2,10.9-26.6,10.9s-26.6-5-26.6-10.9v-9.4c0.2,0.3,0.5,0.7,0.8,1
			c0.1,0.1,0.2,0.2,0.3,0.3c0.2,0.2,0.5,0.5,0.7,0.7c0.1,0.1,0.3,0.2,0.4,0.3c0.3,0.2,0.6,0.4,0.9,0.6c0.2,0.1,0.3,0.2,0.5,0.3
			c0.4,0.2,0.7,0.5,1.1,0.7c0.1,0.1,0.2,0.1,0.3,0.2c0.5,0.3,1.1,0.5,1.6,0.8c0.1,0.1,0.3,0.1,0.5,0.2c0.4,0.2,0.9,0.4,1.4,0.5
			c0.2,0.1,0.4,0.2,0.7,0.2c0.4,0.1,0.9,0.3,1.3,0.4c0.2,0.1,0.5,0.1,0.7,0.2c0.5,0.1,1,0.3,1.5,0.4c0.2,0,0.4,0.1,0.6,0.2
			c0.7,0.2,1.5,0.3,2.2,0.5c0.1,0,0.3,0,0.4,0.1c0.6,0.1,1.3,0.2,1.9,0.3c0.3,0,0.5,0.1,0.8,0.1c0.6,0.1,1.1,0.1,1.7,0.2
			c0.3,0,0.6,0.1,0.9,0.1c0.6,0,1.2,0.1,1.8,0.1c0.3,0,0.5,0,0.8,0c0.9,0,1.8,0.1,2.7,0.1c0.9,0,1.8,0,2.7-0.1c0.3,0,0.5,0,0.8,0
			c0.6,0,1.2-0.1,1.8-0.1c0.3,0,0.6-0.1,0.9-0.1c0.6-0.1,1.1-0.1,1.7-0.2c0.3,0,0.5-0.1,0.8-0.1c0.7-0.1,1.3-0.2,1.9-0.3
			c0.1,0,0.3,0,0.4-0.1c0.8-0.1,1.5-0.3,2.2-0.5c0.2,0,0.4-0.1,0.6-0.2c0.5-0.1,1-0.3,1.5-0.4c0.2-0.1,0.5-0.1,0.7-0.2
			c0.4-0.1,0.9-0.3,1.3-0.4c0.2-0.1,0.5-0.2,0.7-0.2c0.5-0.2,0.9-0.3,1.3-0.5c0.2-0.1,0.3-0.1,0.5-0.2c0.6-0.3,1.1-0.5,1.6-0.8
			c0.1-0.1,0.2-0.1,0.3-0.2c0.4-0.2,0.8-0.4,1.1-0.7c0.2-0.1,0.3-0.2,0.5-0.3c0.3-0.2,0.6-0.4,0.8-0.6c0.1-0.1,0.3-0.2,0.4-0.3
			c0.3-0.2,0.5-0.5,0.7-0.7c0.1-0.1,0.2-0.2,0.3-0.3c0.3-0.3,0.6-0.7,0.8-1V99H127.4z M127.4,86c0,5.9-12.2,10.9-26.6,10.9
			s-26.6-5-26.6-10.9v-9.4c0.2,0.3,0.5,0.7,0.8,1c0.1,0.1,0.2,0.2,0.3,0.3c0.2,0.2,0.5,0.5,0.7,0.7c0.1,0.1,0.3,0.2,0.4,0.3
			c0.3,0.2,0.6,0.4,0.9,0.6c0.2,0.1,0.3,0.2,0.5,0.3c0.4,0.2,0.7,0.5,1.1,0.7c0.1,0.1,0.2,0.1,0.3,0.2c0.5,0.3,1.1,0.5,1.6,0.8
			c0.1,0.1,0.3,0.1,0.5,0.2c0.4,0.2,0.9,0.4,1.4,0.5c0.2,0.1,0.4,0.2,0.7,0.2c0.4,0.1,0.9,0.3,1.3,0.4c0.2,0.1,0.5,0.1,0.7,0.2
			c0.5,0.1,1,0.3,1.5,0.4c0.2,0,0.4,0.1,0.6,0.2c0.7,0.2,1.5,0.3,2.2,0.5c0.1,0,0.3,0,0.4,0.1c0.6,0.1,1.3,0.2,1.9,0.3
			c0.3,0,0.5,0.1,0.8,0.1c0.6,0.1,1.1,0.1,1.7,0.2c0.3,0,0.6,0.1,0.9,0.1c0.6,0,1.2,0.1,1.8,0.1c0.3,0,0.5,0,0.8,0
			c0.9,0,1.8,0.1,2.7,0.1c0.9,0,1.8,0,2.7-0.1c0.3,0,0.5,0,0.8,0c0.6,0,1.2-0.1,1.8-0.1c0.3,0,0.6-0.1,0.9-0.1
			c0.6-0.1,1.1-0.1,1.7-0.2c0.3,0,0.5-0.1,0.8-0.1c0.7-0.1,1.3-0.2,1.9-0.3c0.1,0,0.3,0,0.4-0.1c0.8-0.1,1.5-0.3,2.2-0.5
			c0.2,0,0.4-0.1,0.6-0.2c0.5-0.1,1-0.3,1.5-0.4c0.2-0.1,0.5-0.1,0.7-0.2c0.4-0.1,0.9-0.3,1.3-0.4c0.2-0.1,0.5-0.2,0.7-0.2
			c0.5-0.2,0.9-0.3,1.3-0.5c0.2-0.1,0.3-0.1,0.5-0.2c0.6-0.3,1.1-0.5,1.6-0.8c0.1-0.1,0.2-0.1,0.3-0.2c0.4-0.2,0.8-0.4,1.1-0.7
			c0.2-0.1,0.3-0.2,0.5-0.3c0.3-0.2,0.6-0.4,0.8-0.6c0.1-0.1,0.3-0.2,0.4-0.3c0.3-0.2,0.5-0.5,0.7-0.7c0.1-0.1,0.2-0.2,0.3-0.3
			c0.3-0.3,0.6-0.7,0.8-1V86H127.4z M127.2,74c-0.2,0.7-0.6,1.4-1.1,2.1c-0.8,1-1.9,2-3.4,2.9c-1,0.6-2.1,1.1-3.3,1.6
			c-4.8,2-11.5,3.2-18.7,3.2S86.8,82.5,82,80.6c-1.2-0.5-2.3-1-3.3-1.6c-1.5-0.9-2.6-1.8-3.4-2.9c-0.5-0.7-0.9-1.4-1.1-2.1
			c-0.1-0.4-0.1-0.7-0.1-1.1C74.2,67,86.3,62,100.8,62c14.4,0,26.6,5,26.6,10.9C127.4,73.3,127.3,73.7,127.2,74z"/>
	</g>
</g>
</svg>
