<?xml version="1.0" encoding="utf-8"?>
<!-- Generator: Adobe Illustrator 22.1.0, SVG Export Plug-In . SVG Version: 6.00 Build 0)  -->
<svg version="1.1" id="Layer_1" xmlns="http://www.w3.org/2000/svg" xmlns:xlink="http://www.w3.org/1999/xlink" x="0px" y="0px"
	 viewBox="0 0 127.6 136.3" style="enable-background:new 0 0 127.6 136.3;" xml:space="preserve">
<style type="text/css">
	.st0{fill:#175C85;}
	.st1{fill:#FFFFFF;}
</style>
<g>
	<g>
		<path class="st0" d="M53.4,43.3c-0.2,0.2-0.5,0.5-0.8,0.7c-0.1,0.1-0.3,0.2-0.4,0.3c-0.3,0.2-0.6,0.4-0.9,0.6
			c-0.1,0.1-0.3,0.2-0.4,0.3c-0.4,0.2-0.8,0.5-1.2,0.7c-0.1,0-0.2,0.1-0.3,0.2c-0.5,0.3-1.1,0.5-1.7,0.8c-0.1,0.1-0.2,0.1-0.4,0.2
			c-0.5,0.2-0.9,0.4-1.4,0.6c-0.2,0.1-0.4,0.1-0.6,0.2c-0.5,0.2-0.9,0.3-1.4,0.5c-0.2,0.1-0.4,0.1-0.6,0.2c-0.5,0.2-1.1,0.3-1.7,0.4
			c-0.2,0-0.3,0.1-0.5,0.1c-0.7,0.2-1.5,0.3-2.3,0.5c-0.1,0-0.2,0-0.2,0c-0.7,0.1-1.4,0.2-2.1,0.3C36.2,50,36,50,35.8,50
			c-0.6,0.1-1.2,0.1-1.8,0.2c-0.3,0-0.5,0-0.8,0.1c-0.6,0.1-1.3,0.1-1.9,0.1c-0.2,0-0.4,0-0.7,0c-0.9,0-1.8,0.1-2.7,0.1
			c-0.9,0-1.8,0-2.7-0.1c-0.2,0-0.5,0-0.7,0c-0.6,0-1.3-0.1-1.9-0.1c-0.3,0-0.6,0-0.8-0.1c-0.6-0.1-1.2-0.1-1.7-0.2
			c-0.3,0-0.5-0.1-0.8-0.1c-0.7-0.1-1.4-0.2-2-0.3c-0.1,0-0.2,0-0.3-0.1c-0.8-0.1-1.5-0.3-2.3-0.5c-0.2,0-0.4-0.1-0.6-0.1
			c-0.5-0.1-1.1-0.3-1.6-0.4c-0.2-0.1-0.5-0.1-0.7-0.2c-0.5-0.1-0.9-0.3-1.3-0.4c-0.2-0.1-0.4-0.2-0.7-0.2c-0.5-0.2-0.9-0.4-1.4-0.5
			C8.3,47.1,8.1,47,8,46.9c-0.6-0.3-1.1-0.5-1.6-0.8C6.2,46.1,6.1,46,6,46c-0.4-0.2-0.8-0.5-1.2-0.7c-0.2-0.1-0.3-0.2-0.4-0.3
			c-0.3-0.2-0.6-0.4-0.9-0.6c-0.1-0.1-0.3-0.2-0.4-0.3c-0.3-0.2-0.5-0.5-0.8-0.7c-0.1-0.1-0.2-0.2-0.3-0.3c-0.3-0.3-0.6-0.7-0.8-1
			v9.4c0,5.9,12.2,10.9,26.6,10.9s26.6-5,26.6-10.9V42c-0.2,0.3-0.5,0.7-0.8,1C53.5,43.1,53.4,43.2,53.4,43.3z"/>
		<path class="st0" d="M53.3,56.4c-0.2,0.2-0.5,0.5-0.7,0.7c-0.1,0.1-0.3,0.2-0.4,0.3c-0.3,0.2-0.6,0.4-0.8,0.6
			c-0.2,0.1-0.3,0.2-0.5,0.3c-0.4,0.2-0.7,0.4-1.1,0.7c-0.1,0.1-0.2,0.1-0.3,0.2c-0.5,0.3-1.1,0.5-1.6,0.8c-0.1,0.1-0.3,0.1-0.5,0.2
			c-0.4,0.2-0.9,0.4-1.3,0.5c-0.2,0.1-0.4,0.2-0.7,0.2c-0.4,0.1-0.9,0.3-1.3,0.4c-0.2,0.1-0.5,0.1-0.7,0.2c-0.5,0.1-1,0.3-1.5,0.4
			c-0.2,0.1-0.4,0.1-0.6,0.2c-0.7,0.2-1.5,0.3-2.2,0.5c-0.1,0-0.3,0-0.4,0.1c-0.6,0.1-1.3,0.2-1.9,0.3c-0.3,0-0.5,0.1-0.8,0.1
			c-0.5,0.1-1.1,0.1-1.7,0.2c-0.3,0-0.6,0.1-0.9,0.1c-0.6,0-1.2,0.1-1.8,0.1c-0.3,0-0.5,0-0.8,0c-0.9,0-1.8,0.1-2.7,0.1
			s-1.8,0-2.7-0.1c-0.3,0-0.5,0-0.8,0c-0.6,0-1.2-0.1-1.8-0.1c-0.3,0-0.6-0.1-0.9-0.1c-0.6-0.1-1.1-0.1-1.7-0.2
			c-0.3,0-0.5-0.1-0.8-0.1c-0.7-0.1-1.3-0.2-1.9-0.3c-0.1,0-0.3,0-0.4-0.1c-0.8-0.1-1.5-0.3-2.2-0.5c-0.2,0-0.4-0.1-0.6-0.2
			c-0.5-0.1-1-0.3-1.5-0.4c-0.2-0.1-0.5-0.1-0.7-0.2c-0.4-0.1-0.9-0.3-1.3-0.4c-0.2-0.1-0.4-0.2-0.7-0.2c-0.5-0.2-0.9-0.4-1.4-0.5
			C8.3,60.1,8.1,60.1,8,60c-0.6-0.3-1.1-0.5-1.6-0.8C6.2,59.1,6.1,59.1,6,59c-0.4-0.2-0.8-0.4-1.1-0.7c-0.2-0.1-0.3-0.2-0.5-0.3
			c-0.3-0.2-0.6-0.4-0.9-0.6c-0.1-0.1-0.3-0.2-0.4-0.3c-0.3-0.2-0.5-0.5-0.7-0.7c-0.1-0.1-0.2-0.2-0.3-0.3c-0.3-0.3-0.6-0.7-0.8-1
			v9.4c0,5.9,12.2,10.9,26.6,10.9s26.6-5,26.6-10.9v-9.4c-0.2,0.3-0.5,0.7-0.8,1C53.5,56.2,53.4,56.3,53.3,56.4z"/>
		<path class="st0" d="M53.3,30.3c-0.2,0.2-0.5,0.5-0.7,0.7c-0.1,0.1-0.3,0.2-0.4,0.3c-0.3,0.2-0.6,0.4-0.8,0.6
			c-0.2,0.1-0.3,0.2-0.5,0.3c-0.4,0.2-0.7,0.4-1.1,0.7c-0.1,0.1-0.2,0.1-0.3,0.2c-0.5,0.3-1.1,0.5-1.6,0.8c-0.1,0.1-0.3,0.1-0.5,0.2
			c-0.4,0.2-0.9,0.4-1.3,0.5c-0.2,0.1-0.4,0.2-0.7,0.2c-0.4,0.1-0.9,0.3-1.3,0.4c-0.2,0.1-0.5,0.1-0.7,0.2c-0.5,0.1-1,0.3-1.5,0.4
			c-0.2,0.1-0.4,0.1-0.6,0.2c-0.7,0.2-1.5,0.3-2.2,0.5c-0.1,0-0.3,0-0.4,0.1c-0.6,0.1-1.3,0.2-1.9,0.3c-0.3,0-0.5,0.1-0.8,0.1
			c-0.5,0.1-1.1,0.1-1.7,0.2c-0.3,0-0.6,0.1-0.9,0.1c-0.6,0-1.2,0.1-1.8,0.1c-0.3,0-0.5,0-0.8,0c-0.9,0-1.8,0.1-2.7,0.1
			s-1.8,0-2.7-0.1c-0.3,0-0.5,0-0.8,0c-0.6,0-1.2-0.1-1.8-0.1c-0.3,0-0.6-0.1-0.9-0.1C21.1,37.1,20.6,37,20,37
			c-0.3,0-0.5-0.1-0.8-0.1c-0.7-0.1-1.3-0.2-1.9-0.3c-0.1,0-0.3,0-0.4-0.1c-0.8-0.1-1.5-0.3-2.2-0.5c-0.2,0-0.4-0.1-0.6-0.2
			c-0.5-0.1-1-0.3-1.5-0.4c-0.2-0.1-0.5-0.1-0.7-0.2c-0.4-0.1-0.9-0.3-1.3-0.4c-0.2-0.1-0.4-0.2-0.7-0.2c-0.5-0.2-0.9-0.4-1.4-0.5
			C8.3,34,8.1,33.9,8,33.9c-0.6-0.3-1.1-0.5-1.6-0.8C6.2,33,6.1,33,6,32.9c-0.4-0.2-0.8-0.4-1.1-0.7c-0.2-0.1-0.3-0.2-0.5-0.3
			c-0.3-0.2-0.6-0.4-0.9-0.6c-0.1-0.1-0.3-0.2-0.4-0.3c-0.3-0.2-0.5-0.5-0.7-0.7c-0.1-0.1-0.2-0.2-0.3-0.3c-0.3-0.3-0.6-0.7-0.8-1
			v9.4c0,5.9,12.2,10.9,26.6,10.9s26.6-5,26.6-10.9V29c-0.2,0.3-0.5,0.7-0.8,1C53.5,30.1,53.4,30.2,53.3,30.3z"/>
		<path class="st0" d="M53.3,17.2c-0.2,0.2-0.5,0.5-0.7,0.7c-0.1,0.1-0.3,0.2-0.4,0.3c-0.3,0.2-0.6,0.4-0.8,0.6
			c-0.2,0.1-0.3,0.2-0.5,0.3c-0.4,0.2-0.7,0.4-1.1,0.7c-0.1,0.1-0.2,0.1-0.3,0.2c-0.5,0.3-1.1,0.5-1.6,0.8c-0.1,0.1-0.3,0.1-0.5,0.2
			c-0.4,0.2-0.9,0.4-1.3,0.5c-0.2,0.1-0.4,0.2-0.7,0.2c-0.4,0.1-0.9,0.3-1.3,0.4c-0.2,0.1-0.5,0.1-0.7,0.2c-0.5,0.1-1,0.3-1.5,0.4
			c-0.2,0.1-0.4,0.1-0.6,0.2c-0.7,0.2-1.5,0.3-2.2,0.5c-0.1,0-0.3,0-0.4,0.1c-0.6,0.1-1.3,0.2-1.9,0.3c-0.3,0-0.5,0.1-0.8,0.1
			c-0.9,0.1-1.4,0.1-2,0.2c-0.3,0-0.6,0.1-0.9,0.1c-0.6,0-1.2,0.1-1.8,0.1c-0.3,0-0.5,0-0.8,0c-0.9,0-1.8,0.1-2.7,0.1
			s-1.8,0-2.7-0.1c-0.3,0-0.5,0-0.8,0c-0.6,0-1.2-0.1-1.8-0.1c-0.3,0-0.6-0.1-0.9-0.1c-0.5-0.1-1-0.1-1.6-0.2
			c-0.3,0-0.5-0.1-0.8-0.1c-0.7-0.1-1.3-0.2-1.9-0.3c-0.1,0-0.3,0-0.4-0.1c-0.8-0.1-1.5-0.3-2.2-0.5c-0.2,0-0.4-0.1-0.6-0.2
			c-0.5-0.1-1-0.3-1.5-0.4c-0.2-0.1-0.5-0.1-0.7-0.2c-0.4-0.1-0.9-0.3-1.3-0.4c-0.2-0.1-0.4-0.2-0.7-0.2C9.4,21.3,9,21.1,8.5,21
			c-0.2-0.1-0.3-0.1-0.5-0.2c-0.6-0.3-1.1-0.5-1.6-0.8c-0.2,0-0.3-0.1-0.4-0.2c-0.4-0.2-0.8-0.4-1.1-0.7c-0.2-0.1-0.3-0.2-0.5-0.3
			c-0.3-0.2-0.6-0.4-0.9-0.6c-0.1-0.1-0.3-0.2-0.4-0.3c-0.3-0.2-0.5-0.5-0.7-0.7c-0.1-0.1-0.2-0.2-0.3-0.3c-0.3-0.3-0.6-0.7-0.8-1
			v9.4c0,5.9,12.2,10.9,26.6,10.9s26.6-5,26.6-10.9v-9.4c-0.2,0.3-0.5,0.7-0.8,1C53.5,17,53.4,17.1,53.3,17.2z"/>
		<path class="st0" d="M27.9,1.3c-14.4,0-26.6,5-26.6,10.9c0,0.4,0,0.7,0.1,1.1C1.6,14,2,14.7,2.5,15.4c0.8,1,1.9,2,3.4,2.9
			c1,0.6,2.1,1.1,3.3,1.6c4.9,2,11.5,3.2,18.7,3.2s13.9-1.3,18.7-3.2c1.2-0.5,2.3-1,3.3-1.6c1.5-0.9,2.6-1.8,3.4-2.9
			c0.5-0.7,0.9-1.4,1.1-2.1c0.1-0.4,0.1-0.7,0.1-1.1C54.5,6.3,42.3,1.3,27.9,1.3z"/>
		<path class="st1" d="M27.9,0C12.2,0,0,5.4,0,12.2v13.1v13.1v13.1v13.1c0,6.8,12.2,12.2,27.9,12.2c15.6,0,27.9-5.4,27.9-12.2V51.4
			V38.3v-13V12.2C55.7,5.4,43.5,0,27.9,0z M54.5,64.4c0,5.9-12.2,10.9-26.6,10.9s-26.6-5-26.6-10.9V55c0.2,0.3,0.5,0.7,0.8,1
			c0.1,0.1,0.2,0.2,0.3,0.3c0.2,0.2,0.5,0.5,0.7,0.7c0.1,0.1,0.3,0.2,0.4,0.3c0.3,0.2,0.6,0.4,0.9,0.6c0.2,0.1,0.3,0.2,0.5,0.3
			C5.2,58.6,5.6,58.8,6,59c0.1,0.1,0.2,0.1,0.3,0.2C6.9,59.5,7.4,59.7,8,60c0.1,0.1,0.3,0.1,0.5,0.2c0.4,0.2,0.9,0.4,1.4,0.5
			c0.2,0.1,0.4,0.2,0.7,0.2c0.4,0.1,0.9,0.3,1.3,0.4c0.2,0.1,0.5,0.1,0.7,0.2c0.5,0.1,1,0.3,1.5,0.4c0.2,0,0.4,0.1,0.6,0.2
			c0.7,0.2,1.5,0.3,2.2,0.5c0.1,0,0.3,0,0.4,0.1c0.6,0.1,1.3,0.2,1.9,0.3c0.3,0,0.5,0.1,0.8,0.1c0.6,0.1,1.1,0.1,1.7,0.2
			c0.3,0,0.6,0.1,0.9,0.1c0.6,0,1.2,0.1,1.8,0.1c0.3,0,0.5,0,0.8,0c0.9,0,1.8,0.1,2.7,0.1s1.8,0,2.7-0.1c0.3,0,0.5,0,0.8,0
			c0.6,0,1.2-0.1,1.8-0.1c0.3,0,0.6-0.1,0.9-0.1c0.6-0.1,1.1-0.1,1.7-0.2c0.3,0,0.5-0.1,0.8-0.1c0.7-0.1,1.3-0.2,1.9-0.3
			c0.1,0,0.3,0,0.4-0.1c0.8-0.1,1.5-0.3,2.2-0.5c0.2,0,0.4-0.1,0.6-0.2c0.5-0.1,1-0.3,1.5-0.4c0.2-0.1,0.5-0.1,0.7-0.2
			c0.4-0.1,0.9-0.3,1.3-0.4c0.2-0.1,0.5-0.2,0.7-0.2c0.5-0.2,0.9-0.3,1.3-0.5c0.2-0.1,0.3-0.1,0.5-0.2c0.6-0.3,1.1-0.5,1.6-0.8
			c0.1-0.1,0.2-0.1,0.3-0.2c0.4-0.2,0.8-0.4,1.1-0.7c0.2-0.1,0.3-0.2,0.5-0.3c0.3-0.2,0.6-0.4,0.8-0.6c0.1-0.1,0.3-0.2,0.4-0.3
			c0.3-0.2,0.5-0.5,0.7-0.7c0.1-0.1,0.2-0.2,0.3-0.3c0.3-0.3,0.6-0.7,0.8-1v9.3H54.5z M54.5,51.4c0,5.9-12.2,10.9-26.6,10.9
			s-26.6-5-26.6-10.9V42c0.2,0.3,0.5,0.7,0.8,1c0.1,0.1,0.2,0.2,0.3,0.3c0.2,0.2,0.5,0.5,0.8,0.7c0.1,0.1,0.3,0.2,0.4,0.3
			c0.3,0.2,0.6,0.4,0.9,0.6c0.1,0.1,0.3,0.2,0.4,0.3C5.2,45.5,5.6,45.7,6,46c0.1,0.1,0.2,0.1,0.3,0.2c0.5,0.3,1.1,0.5,1.6,0.8
			c0.1,0.1,0.3,0.1,0.4,0.2c0.4,0.2,0.9,0.4,1.4,0.5c0.2,0.1,0.4,0.2,0.7,0.2c0.4,0.2,0.9,0.3,1.3,0.4c0.2,0.1,0.5,0.1,0.7,0.2
			c0.5,0.1,1,0.3,1.6,0.4c0.2,0,0.4,0.1,0.6,0.1c0.7,0.2,1.5,0.3,2.3,0.5c0.1,0,0.2,0,0.3,0.1c0.7,0.1,1.3,0.2,2,0.3
			c0.3,0,0.5,0.1,0.8,0.1c0.6,0.1,1.2,0.1,1.7,0.2c0.3,0,0.6,0.1,0.8,0.1c0.6,0.1,1.3,0.1,1.9,0.1c0.2,0,0.5,0,0.7,0
			c0.9,0,1.8,0.1,2.7,0.1c0.9,0,1.8,0,2.7-0.1c0.2,0,0.5,0,0.7,0c0.7,0,1.3-0.1,1.9-0.1c0.3,0,0.5,0,0.8-0.1
			c0.6-0.1,1.2-0.1,1.8-0.2c0.2,0,0.5-0.1,0.7-0.1c0.7-0.1,1.4-0.2,2.1-0.3c0.1,0,0.2,0,0.2,0c0.8-0.1,1.5-0.3,2.3-0.5
			c0.2,0,0.3-0.1,0.5-0.1c0.6-0.1,1.1-0.3,1.7-0.4c0.2-0.1,0.4-0.1,0.6-0.2c0.5-0.1,0.9-0.3,1.4-0.5c0.2-0.1,0.4-0.1,0.6-0.2
			c0.5-0.2,1-0.4,1.4-0.6c0.1-0.1,0.2-0.1,0.4-0.2c0.6-0.3,1.1-0.5,1.7-0.8c0.1,0,0.2-0.1,0.3-0.2c0.4-0.2,0.8-0.5,1.2-0.7
			c0.1-0.1,0.3-0.2,0.4-0.3c0.3-0.2,0.6-0.4,0.9-0.6c0.1-0.1,0.3-0.2,0.4-0.3c0.3-0.2,0.5-0.5,0.8-0.7c0.1-0.1,0.2-0.2,0.3-0.3
			c0.3-0.3,0.6-0.7,0.8-1L54.5,51.4L54.5,51.4z M54.5,38.3c0,5.9-12.2,10.9-26.6,10.9s-26.6-5-26.6-10.9v-9.4c0.2,0.3,0.5,0.7,0.8,1
			c0.1,0.1,0.2,0.2,0.3,0.3c0.2,0.2,0.5,0.5,0.7,0.7c0.1,0.1,0.3,0.2,0.4,0.3c0.3,0.2,0.6,0.4,0.9,0.6c0.2,0.1,0.3,0.2,0.5,0.3
			c0.4,0.2,0.7,0.5,1.1,0.7C6.1,33,6.2,33,6.4,33.1c0.5,0.3,1.1,0.5,1.6,0.8C8.1,34,8.3,34,8.5,34.1c0.4,0.2,0.9,0.4,1.4,0.5
			c0.2,0.1,0.4,0.2,0.7,0.2c0.4,0.1,0.9,0.3,1.3,0.4c0.2,0.1,0.5,0.1,0.7,0.2c0.5,0.1,1,0.3,1.5,0.4c0.2,0,0.4,0.1,0.6,0.2
			c0.7,0.2,1.5,0.3,2.2,0.5c0.1,0,0.3,0,0.4,0.1c0.6,0.1,1.3,0.2,1.9,0.3c0.3,0,0.5,0.1,0.8,0.1c0.6,0.1,1.1,0.1,1.7,0.2
			c0.3,0,0.6,0.1,0.9,0.1c0.6,0,1.2,0.1,1.8,0.1c0.3,0,0.5,0,0.8,0c0.9,0,1.8,0.1,2.7,0.1s1.8,0,2.7-0.1c0.3,0,0.5,0,0.8,0
			c0.6,0,1.2-0.1,1.8-0.1c0.3,0,0.6-0.1,0.9-0.1c0.6-0.1,1.1-0.1,1.7-0.2c0.3,0,0.5-0.1,0.8-0.1c0.7-0.1,1.3-0.2,1.9-0.3
			c0.1,0,0.3,0,0.4-0.1c0.8-0.1,1.5-0.3,2.2-0.5c0.2,0,0.4-0.1,0.6-0.2c0.5-0.1,1-0.3,1.5-0.4c0.2-0.1,0.5-0.1,0.7-0.2
			c0.4-0.1,0.9-0.3,1.3-0.4c0.2-0.1,0.5-0.2,0.7-0.2c0.5-0.2,0.9-0.3,1.3-0.5c0.2-0.1,0.3-0.1,0.5-0.2c0.6-0.3,1.1-0.5,1.6-0.8
			c0.1-0.1,0.2-0.1,0.3-0.2c0.4-0.2,0.8-0.4,1.1-0.7c0.2-0.1,0.3-0.2,0.5-0.3c0.3-0.2,0.6-0.4,0.8-0.6c0.1-0.1,0.3-0.2,0.4-0.3
			c0.3-0.2,0.5-0.5,0.7-0.7c0.1-0.1,0.2-0.2,0.3-0.3c0.3-0.3,0.6-0.7,0.8-1v9.3H54.5z M54.5,25.3c0,5.9-12.2,10.9-26.6,10.9
			s-26.6-5-26.6-10.9v-9.4c0.2,0.3,0.5,0.7,0.8,1c0.1,0.1,0.2,0.2,0.3,0.3c0.2,0.2,0.5,0.5,0.7,0.7c0.1,0.1,0.3,0.2,0.4,0.3
			c0.3,0.2,0.6,0.4,0.9,0.6c0.2,0.1,0.3,0.2,0.5,0.3c0.4,0.2,0.7,0.5,1.1,0.7C6.1,19.9,6.2,20,6.4,20c0.5,0.3,1.1,0.5,1.6,0.8
			c0.1,0.1,0.3,0.1,0.5,0.2c0.4,0.2,0.9,0.4,1.4,0.5c0.2,0.1,0.4,0.2,0.7,0.2c0.4,0.1,0.9,0.3,1.3,0.4c0.2,0.1,0.5,0.1,0.7,0.2
			c0.5,0.1,1,0.3,1.5,0.4c0.2,0,0.4,0.1,0.6,0.2c0.7,0.2,1.5,0.3,2.2,0.5c0.1,0,0.3,0,0.4,0.1c0.6,0.1,1.3,0.2,1.9,0.3
			c0.3,0,0.5,0.1,0.8,0.1c0.6,0.1,1.1,0.1,1.7,0.2c0.3,0,0.6,0.1,0.9,0.1c0.6,0,1.2,0.1,1.8,0.1c0.3,0,0.5,0,0.8,0
			c0.9,0,1.8,0.1,2.7,0.1s1.8,0,2.7-0.1c0.3,0,0.5,0,0.8,0c0.6,0,1.2-0.1,1.8-0.1c0.3,0,0.6-0.1,0.9-0.1c0.6-0.1,1.1-0.1,1.7-0.2
			c0.3,0,0.5-0.1,0.8-0.1c0.7-0.1,1.3-0.2,1.9-0.3c0.1,0,0.3,0,0.4-0.1c0.8-0.1,1.5-0.3,2.2-0.5c0.2,0,0.4-0.1,0.6-0.2
			c0.5-0.1,1-0.3,1.5-0.4c0.2-0.1,0.5-0.1,0.7-0.2c0.4-0.1,0.9-0.3,1.3-0.4c0.2-0.1,0.5-0.2,0.7-0.2c0.5-0.2,0.9-0.3,1.3-0.5
			c0.2-0.1,0.3-0.1,0.5-0.2c0.6-0.3,1.1-0.5,1.6-0.8c0.1-0.1,0.2-0.1,0.3-0.2c0.4-0.2,0.8-0.4,1.1-0.7c0.2-0.1,0.3-0.2,0.5-0.3
			c0.3-0.2,0.6-0.4,0.8-0.6c0.1-0.1,0.3-0.2,0.4-0.3c0.3-0.2,0.5-0.5,0.7-0.7c0.1-0.1,0.2-0.2,0.3-0.3c0.3-0.3,0.6-0.7,0.8-1v9.4
			H54.5z M54.3,13.3c-0.2,0.7-0.6,1.4-1.1,2.1c-0.8,1-1.9,2-3.4,2.9c-1,0.6-2.1,1.1-3.3,1.6c-4.8,2-11.5,3.2-18.7,3.2
			s-13.9-1.3-18.7-3.2c-1.2-0.5-2.3-1-3.3-1.6c-1.5-0.9-2.6-1.8-3.4-2.9c-0.5-0.7-0.9-1.4-1.1-2.1c-0.1-0.4-0.1-0.7-0.1-1.1
			c0-5.9,12.2-10.9,26.6-10.9s26.6,5,26.6,10.9C54.5,12.6,54.4,12.9,54.3,13.3z"/>
	</g>
	<g>
		<path class="st0" d="M74.8,62.9c-0.2,0.2-0.5,0.5-0.8,0.7c-0.1,0.1-0.3,0.2-0.4,0.3c-0.3,0.2-0.6,0.4-0.9,0.6
			c-0.1,0.1-0.3,0.2-0.4,0.3c-0.4,0.2-0.8,0.5-1.2,0.7c-0.1,0-0.2,0.1-0.3,0.2c-0.5,0.3-1.1,0.5-1.7,0.8c-0.1,0.1-0.2,0.1-0.4,0.2
			c-0.5,0.2-0.9,0.4-1.4,0.6c-0.2,0.1-0.4,0.1-0.6,0.2c-0.5,0.2-0.9,0.3-1.4,0.5c-0.2,0.1-0.4,0.1-0.6,0.2c-0.5,0.2-1.1,0.3-1.7,0.4
			c-0.2,0-0.3,0.1-0.5,0.1c-0.7,0.2-1.5,0.3-2.3,0.5c-0.1,0-0.2,0-0.2,0c-0.7,0.1-1.4,0.2-2.1,0.3c-0.2,0-0.5,0.1-0.7,0.1
			c-0.6,0.1-1.2,0.1-1.8,0.2c-0.3,0-0.5,0-0.8,0.1C54,70,53.3,70,52.7,70c-0.2,0-0.4,0-0.7,0c-0.9,0-1.8,0.1-2.7,0.1s-1.8,0-2.7-0.1
			c-0.2,0-0.5,0-0.7,0c-0.6,0-1.3-0.1-1.9-0.1c-0.3,0-0.6,0-0.8-0.1c-0.6-0.1-1.2-0.1-1.7-0.2c-0.3,0-0.5-0.1-0.8-0.1
			c-0.7-0.1-1.4-0.2-2-0.3c-0.1,0-0.2,0-0.3-0.1c-0.8-0.1-1.5-0.3-2.3-0.5c-0.2,0-0.4-0.1-0.6-0.1c-0.5-0.1-1.1-0.3-1.6-0.4
			c-0.2-0.1-0.5-0.1-0.7-0.2c-0.5-0.1-0.9-0.3-1.3-0.4c-0.2-0.1-0.4-0.2-0.7-0.2c-0.5-0.2-0.9-0.4-1.4-0.5c-0.1-0.1-0.3-0.1-0.4-0.2
			c-0.6-0.3-1.1-0.5-1.6-0.8c-0.1-0.1-0.2-0.1-0.3-0.2c-0.4-0.2-0.8-0.5-1.2-0.7c-0.2-0.1-0.3-0.2-0.4-0.3c-0.3-0.2-0.6-0.4-0.9-0.6
			c-0.1-0.1-0.3-0.2-0.4-0.3c-0.3-0.2-0.5-0.5-0.8-0.7c-0.1-0.1-0.2-0.2-0.3-0.3c-0.3-0.3-0.6-0.7-0.8-1V71
			c0,5.9,12.2,10.9,26.6,10.9s26.6-5,26.6-10.9v-9.4c-0.2,0.3-0.5,0.7-0.8,1C75,62.7,74.9,62.8,74.8,62.9z"/>
		<path class="st0" d="M74.7,76c-0.2,0.2-0.5,0.5-0.7,0.7c-0.1,0.1-0.3,0.2-0.4,0.3c-0.3,0.2-0.6,0.4-0.8,0.6
			c-0.2,0.1-0.3,0.2-0.5,0.3c-0.4,0.2-0.7,0.4-1.1,0.7c-0.1,0.1-0.2,0.1-0.3,0.2c-0.5,0.3-1.1,0.5-1.6,0.8c-0.1,0.1-0.3,0.1-0.5,0.2
			c-0.4,0.2-0.9,0.4-1.3,0.5c-0.2,0.1-0.4,0.2-0.7,0.2c-0.4,0.1-0.9,0.3-1.3,0.4C65.3,81,65,81,64.8,81.1c-0.5,0.1-1,0.3-1.5,0.4
			c-0.2,0.1-0.4,0.1-0.6,0.2c-0.7,0.2-1.5,0.3-2.2,0.5c-0.1,0-0.3,0-0.4,0.1c-0.6,0.1-1.3,0.2-1.9,0.3c-0.3,0-0.5,0.1-0.8,0.1
			c-0.5,0.1-1.1,0.1-1.7,0.2c-0.3,0-0.6,0.1-0.9,0.1c-0.6,0-1.2,0.1-1.8,0.1c-0.3,0-0.5,0-0.8,0c-0.9,0-1.8,0.1-2.7,0.1
			s-1.8,0-2.7-0.1c-0.3,0-0.5,0-0.8,0c-0.6,0-1.2-0.1-1.8-0.1c-0.3,0-0.6-0.1-0.9-0.1c-0.6-0.1-1.1-0.1-1.7-0.2
			c-0.3,0-0.5-0.1-0.8-0.1c-0.7-0.1-1.3-0.2-1.9-0.3c-0.1,0-0.3,0-0.4-0.1c-0.8-0.1-1.5-0.3-2.2-0.5c-0.2,0-0.4-0.1-0.6-0.2
			c-0.5-0.1-1-0.3-1.5-0.4C34,81,33.7,81,33.5,80.9c-0.4-0.1-0.9-0.3-1.3-0.4c-0.2-0.1-0.4-0.2-0.7-0.2c-0.5-0.2-0.9-0.4-1.4-0.5
			c-0.2-0.1-0.3-0.1-0.5-0.2c-0.6-0.3-1.1-0.5-1.6-0.8c-0.1-0.1-0.2-0.1-0.3-0.2c-0.4-0.2-0.8-0.4-1.1-0.7c-0.2-0.1-0.3-0.2-0.5-0.3
			c-0.3-0.2-0.6-0.4-0.9-0.6c-0.1-0.1-0.3-0.2-0.4-0.3c-0.3-0.2-0.5-0.5-0.7-0.7c-0.1-0.1-0.2-0.2-0.3-0.3c-0.3-0.3-0.6-0.7-0.8-1
			V84c-0.3,6,11.9,11,26.3,11s26.6-5,26.6-10.9v-9.4c-0.2,0.3-0.5,0.7-0.8,1C75,75.8,74.8,75.9,74.7,76z"/>
		<path class="st0" d="M74.7,49.9c-0.2,0.2-0.5,0.5-0.7,0.7c-0.1,0.1-0.3,0.2-0.4,0.3c-0.3,0.2-0.6,0.4-0.8,0.6
			c-0.2,0.1-0.3,0.2-0.5,0.3c-0.4,0.2-0.7,0.4-1.1,0.7c-0.1,0.1-0.2,0.1-0.3,0.2c-0.5,0.3-1.1,0.5-1.6,0.8c-0.1,0.1-0.3,0.1-0.5,0.2
			c-0.4,0.2-0.9,0.4-1.3,0.5c-0.2,0.1-0.4,0.2-0.7,0.2c-0.4,0.1-0.9,0.3-1.3,0.4c-0.2,0.1-0.5,0.1-0.7,0.2c-0.5,0.1-1,0.3-1.5,0.4
			c-0.2,0.1-0.4,0.1-0.6,0.2c-0.7,0.2-1.5,0.3-2.2,0.5c-0.1,0-0.3,0-0.4,0.1c-0.6,0.1-1.3,0.2-1.9,0.3c-0.3,0-0.5,0.1-0.8,0.1
			c-0.5,0.1-1.1,0.1-1.7,0.2c-0.3,0-0.6,0.1-0.9,0.1c-0.6,0-1.2,0.1-1.8,0.1c-0.3,0-0.5,0-0.8,0c-0.9,0-1.8,0.1-2.7,0.1
			s-1.8,0-2.7-0.1c-0.3,0-0.5,0-0.8,0c-0.6,0-1.2-0.1-1.8-0.1c-0.3,0-0.6-0.1-0.9-0.1c-0.6-0.1-1.1-0.1-1.7-0.2
			c-0.3,0-0.5-0.1-0.8-0.1c-0.7-0.1-1.3-0.2-1.9-0.3c-0.1,0-0.3,0-0.4-0.1c-0.8-0.1-1.5-0.3-2.2-0.5c-0.2,0-0.4-0.1-0.6-0.2
			c-0.5-0.1-1-0.3-1.5-0.4c-0.2-0.1-0.5-0.1-0.7-0.2c-0.4-0.1-0.9-0.3-1.3-0.4c-0.2-0.1-0.4-0.2-0.7-0.2c-0.5-0.2-0.9-0.4-1.4-0.5
			c-0.2-0.1-0.3-0.1-0.5-0.2C29,53.2,28.5,53,28,52.7c-0.1-0.1-0.2-0.1-0.3-0.2c-0.4-0.2-0.8-0.4-1.1-0.7c-0.2-0.1-0.3-0.2-0.5-0.3
			c-0.3-0.2-0.6-0.4-0.9-0.6c-0.1-0.1-0.3-0.2-0.4-0.3c-0.3-0.2-0.5-0.5-0.7-0.7c-0.1-0.1-0.2-0.2-0.3-0.3c-0.3-0.3-0.6-0.7-0.8-1
			V58c0,5.9,12.2,10.9,26.6,10.9s26.6-5,26.6-10.9v-9.4c-0.2,0.3-0.5,0.7-0.8,1C75,49.7,74.8,49.8,74.7,49.9z"/>
		<path class="st0" d="M74.7,36.8c-0.2,0.2-0.5,0.5-0.7,0.7c-0.1,0.1-0.3,0.2-0.4,0.3c-0.3,0.2-0.6,0.4-0.8,0.6
			c-0.2,0.1-0.3,0.2-0.5,0.3c-0.4,0.2-0.7,0.4-1.1,0.7c-0.1,0.1-0.2,0.1-0.3,0.2c-0.5,0.3-1.1,0.5-1.6,0.8c-0.1,0.1-0.3,0.1-0.5,0.2
			c-0.4,0.2-0.9,0.4-1.3,0.5c-0.2,0.1-0.4,0.2-0.7,0.2c-0.4,0.1-0.9,0.3-1.3,0.4c-0.2,0.1-0.5,0.1-0.7,0.2c-0.5,0.1-1,0.3-1.5,0.4
			c-0.2,0.1-0.4,0.1-0.6,0.2c-0.7,0.2-1.5,0.3-2.2,0.5c-0.1,0-0.3,0-0.4,0.1c-0.6,0.1-1.3,0.2-1.9,0.3c-0.3,0-0.5,0.1-0.8,0.1
			c-0.5,0.1-1.1,0.1-1.7,0.2c-0.3,0-0.6,0.1-0.9,0.1c-0.6,0-1.2,0.1-1.8,0.1c-0.3,0-0.5,0-0.8,0c-0.9,0-1.8,0.1-2.7,0.1
			s-1.8,0-2.7-0.1c-0.3,0-0.5,0-0.8,0c-0.6,0-1.2-0.1-1.8-0.1c-0.3,0-0.6-0.1-0.9-0.1c-0.6-0.1-1.1-0.1-1.7-0.2
			c-0.3,0-0.5-0.1-0.8-0.1c-0.7-0.1-1.3-0.2-1.9-0.3c-0.1,0-0.3,0-0.4-0.1c-0.8-0.1-1.5-0.3-2.2-0.5c-0.2,0-0.4-0.1-0.6-0.2
			c-0.5-0.1-1-0.3-1.5-0.4c-0.2-0.1-0.5-0.1-0.7-0.2c-0.4-0.1-0.9-0.3-1.3-0.4c-0.2-0.1-0.4-0.2-0.7-0.2c-0.5-0.2-0.9-0.4-1.4-0.5
			c-0.2-0.1-0.3-0.1-0.5-0.2c-0.6-0.3-1.1-0.5-1.6-0.8c-0.1-0.1-0.2-0.1-0.3-0.2c-0.4-0.2-0.8-0.4-1.1-0.7c-0.2-0.1-0.3-0.2-0.5-0.3
			c-0.3-0.2-0.6-0.4-0.9-0.6c-0.1-0.1-0.3-0.2-0.4-0.3c-0.3-0.2-0.5-0.5-0.7-0.7c-0.1-0.1-0.2-0.2-0.3-0.3c-0.3-0.3-0.6-0.7-0.8-1
			v9.4c0,5.9,12.2,10.9,26.6,10.9s26.6-5,26.6-10.9v-9.4c-0.2,0.3-0.5,0.7-0.8,1C75,36.6,74.8,36.7,74.7,36.8z"/>
		<path class="st0" d="M49.3,20.9c-14.4,0-26.6,5-26.6,10.9c0,0.4,0,0.7,0.1,1.1c0.2,0.7,0.6,1.4,1.1,2.1c0.8,1,1.9,2,3.4,2.9
			c1,0.6,2.1,1.1,3.3,1.6c4.9,2,11.5,3.2,18.7,3.2s13.9-1.3,18.7-3.2c1.2-0.5,2.3-1,3.3-1.6c1.5-0.9,2.6-1.8,3.4-2.9
			c0.5-0.7,0.9-1.4,1.1-2.1c0.1-0.4,0.1-0.7,0.1-1.1C75.9,25.9,63.7,20.9,49.3,20.9z"/>
		<path class="st1" d="M49.3,19.6c-15.6,0-27.9,5.4-27.9,12.2v13.1V58v13v13c0,6.8,12.2,12.2,27.9,12.2c15.6,0,27.9-5.4,27.9-12.2
			V71V57.9v-13V31.8C77.1,25,64.9,19.6,49.3,19.6z M75.9,84c0,6-12.2,11-26.6,11s-26.6-5-26.6-11v-9.4c0.2,0.3,0.5,0.7,0.8,1
			c0.1,0.1,0.2,0.2,0.3,0.3c0.2,0.2,0.5,0.5,0.7,0.7c0.1,0.1,0.3,0.2,0.4,0.3c0.3,0.2,0.6,0.4,0.9,0.6c0.2,0.1,0.3,0.2,0.5,0.3
			c0.4,0.2,0.7,0.5,1.1,0.7c0.1,0.1,0.2,0.1,0.3,0.2c0.5,0.3,1.1,0.5,1.6,0.8c0.1,0.1,0.3,0.1,0.5,0.2c0.4,0.2,0.9,0.4,1.4,0.5
			c0.2,0.1,0.4,0.2,0.7,0.2c0.4,0.1,0.9,0.3,1.3,0.4c0.2,0.1,0.5,0.1,0.7,0.2c0.5,0.1,1,0.3,1.5,0.4c0.2,0,0.4,0.1,0.6,0.2
			c0.7,0.2,1.5,0.3,2.2,0.5c0.1,0,0.3,0,0.4,0.1c0.6,0.1,1.3,0.2,1.9,0.3c0.3,0,0.5,0.1,0.8,0.1c0.6,0.1,1.1,0.1,1.7,0.2
			c0.3,0,0.6,0.1,0.9,0.1c0.6,0,1.2,0.1,1.8,0.1c0.3,0,0.5,0,0.8,0c0.9,0,1.8,0.1,2.7,0.1s1.8,0,2.7-0.1c0.3,0,0.5,0,0.8,0
			c0.6,0,1.2-0.1,1.8-0.1c0.3,0,0.6-0.1,0.9-0.1c0.6-0.1,1.1-0.1,1.7-0.2c0.3,0,0.5-0.1,0.8-0.1c0.7-0.1,1.3-0.2,1.9-0.3
			c0.1,0,0.3,0,0.4-0.1c0.8-0.1,1.5-0.3,2.2-0.5c0.2,0,0.4-0.1,0.6-0.2c0.5-0.1,1-0.3,1.5-0.4c0.2-0.1,0.5-0.1,0.7-0.2
			c0.4-0.1,0.9-0.3,1.3-0.4c0.2-0.1,0.5-0.2,0.7-0.2c0.5-0.2,0.9-0.3,1.3-0.5c0.2-0.1,0.3-0.1,0.5-0.2c0.6-0.3,1.1-0.5,1.6-0.8
			c0.1-0.1,0.2-0.1,0.3-0.2c0.4-0.2,0.8-0.4,1.1-0.7c0.2-0.1,0.3-0.2,0.5-0.3c0.3-0.2,0.6-0.4,0.8-0.6c0.1-0.1,0.3-0.2,0.4-0.3
			c0.3-0.2,0.5-0.5,0.7-0.7c0.1-0.1,0.2-0.2,0.3-0.3c0.3-0.3,0.6-0.7,0.8-1V84H75.9z M75.9,71c0,5.9-12.2,10.9-26.6,10.9
			s-26.6-5-26.6-10.9v-9.4c0.2,0.3,0.5,0.7,0.8,1c0.1,0.1,0.2,0.2,0.3,0.3c0.2,0.2,0.5,0.5,0.8,0.7c0.1,0.1,0.3,0.2,0.4,0.3
			c0.3,0.2,0.6,0.4,0.9,0.6c0.1,0.1,0.3,0.2,0.4,0.3c0.4,0.2,0.8,0.5,1.2,0.7c0.1,0.1,0.2,0.1,0.3,0.2c0.5,0.3,1.1,0.5,1.6,0.8
			c0.1,0.1,0.3,0.1,0.4,0.2c0.4,0.2,0.9,0.4,1.4,0.5c0.2,0.1,0.4,0.2,0.7,0.2c0.4,0.2,0.9,0.3,1.3,0.4c0.2,0.1,0.5,0.1,0.7,0.2
			c0.5,0.1,1,0.3,1.6,0.4c0.2,0,0.4,0.1,0.6,0.1c0.7,0.2,1.5,0.3,2.3,0.5c0.1,0,0.2,0,0.3,0.1c0.7,0.1,1.3,0.2,2,0.3
			c0.3,0,0.5,0.1,0.8,0.1c0.6,0.1,1.2,0.1,1.7,0.2c0.3,0,0.6,0.1,0.8,0.1c0.6,0.1,1.3,0.1,1.9,0.1c0.2,0,0.5,0,0.7,0
			c0.9,0,1.8,0.1,2.7,0.1s1.8,0,2.7-0.1c0.2,0,0.5,0,0.7,0c0.7,0,1.3-0.1,1.9-0.1c0.3,0,0.5,0,0.8-0.1c0.6-0.1,1.2-0.1,1.8-0.2
			c0.2,0,0.5-0.1,0.7-0.1c0.7-0.1,1.4-0.2,2.1-0.3c0.1,0,0.2,0,0.2,0c0.8-0.1,1.5-0.3,2.3-0.5c0.2,0,0.3-0.1,0.5-0.1
			c0.6-0.1,1.1-0.3,1.7-0.4c0.2-0.1,0.4-0.1,0.6-0.2c0.5-0.1,0.9-0.3,1.4-0.5c0.2-0.1,0.4-0.1,0.6-0.2c0.5-0.2,1-0.4,1.4-0.6
			c0.1-0.1,0.2-0.1,0.4-0.2c0.6-0.3,1.1-0.5,1.7-0.8c0.1,0,0.2-0.1,0.3-0.2c0.4-0.2,0.8-0.5,1.2-0.7c0.1-0.1,0.3-0.2,0.4-0.3
			c0.3-0.2,0.6-0.4,0.9-0.6c0.1-0.1,0.3-0.2,0.4-0.3c0.3-0.2,0.5-0.5,0.8-0.7c0.1-0.1,0.2-0.2,0.3-0.3c0.3-0.3,0.6-0.7,0.8-1
			C75.9,61.5,75.9,71,75.9,71z M75.9,57.9c0,5.9-12.2,10.9-26.6,10.9s-26.6-5-26.6-10.9v-9.4c0.2,0.3,0.5,0.7,0.8,1
			c0.1,0.1,0.2,0.2,0.3,0.3c0.2,0.2,0.5,0.5,0.7,0.7c0.1,0.1,0.3,0.2,0.4,0.3c0.3,0.2,0.6,0.4,0.9,0.6c0.2,0.1,0.3,0.2,0.5,0.3
			c0.4,0.2,0.7,0.5,1.1,0.7c0.1,0.1,0.2,0.1,0.3,0.2c0.5,0.3,1.1,0.5,1.6,0.8c0.1,0.1,0.3,0.1,0.5,0.2c0.4,0.2,0.9,0.4,1.4,0.5
			c0.2,0.1,0.4,0.2,0.7,0.2c0.4,0.1,0.9,0.3,1.3,0.4c0.2,0.1,0.5,0.1,0.7,0.2c0.5,0.1,1,0.3,1.5,0.4c0.2,0,0.4,0.1,0.6,0.2
			c0.7,0.2,1.5,0.3,2.2,0.5c0.1,0,0.3,0,0.4,0.1c0.6,0.1,1.3,0.2,1.9,0.3c0.3,0,0.5,0.1,0.8,0.1c0.6,0.1,1.1,0.1,1.7,0.2
			c0.3,0,0.6,0.1,0.9,0.1c0.6,0,1.2,0.1,1.8,0.1c0.3,0,0.5,0,0.8,0c0.9,0,1.8,0.1,2.7,0.1s1.8,0,2.7-0.1c0.3,0,0.5,0,0.8,0
			c0.6,0,1.2-0.1,1.8-0.1c0.3,0,0.6-0.1,0.9-0.1c0.6-0.1,1.1-0.1,1.7-0.2c0.3,0,0.5-0.1,0.8-0.1c0.7-0.1,1.3-0.2,1.9-0.3
			c0.1,0,0.3,0,0.4-0.1c0.8-0.1,1.5-0.3,2.2-0.5c0.2,0,0.4-0.1,0.6-0.2c0.5-0.1,1-0.3,1.5-0.4c0.2-0.1,0.5-0.1,0.7-0.2
			c0.4-0.1,0.9-0.3,1.3-0.4c0.2-0.1,0.5-0.2,0.7-0.2c0.5-0.2,0.9-0.3,1.3-0.5c0.2-0.1,0.3-0.1,0.5-0.2c0.6-0.3,1.1-0.5,1.6-0.8
			c0.1-0.1,0.2-0.1,0.3-0.2c0.4-0.2,0.8-0.4,1.1-0.7c0.2-0.1,0.3-0.2,0.5-0.3c0.3-0.2,0.6-0.4,0.8-0.6c0.1-0.1,0.3-0.2,0.4-0.3
			c0.3-0.2,0.5-0.5,0.7-0.7c0.1-0.1,0.2-0.2,0.3-0.3c0.3-0.3,0.6-0.7,0.8-1v9.4H75.9z M75.9,44.9c0,5.9-12.2,10.9-26.6,10.9
			s-26.6-5-26.6-10.9v-9.4c0.2,0.3,0.5,0.7,0.8,1c0.1,0.1,0.2,0.2,0.3,0.3c0.2,0.2,0.5,0.5,0.7,0.7c0.1,0.1,0.3,0.2,0.4,0.3
			c0.3,0.2,0.6,0.4,0.9,0.6c0.2,0.1,0.3,0.2,0.5,0.3c0.4,0.2,0.7,0.5,1.1,0.7c0.1,0.1,0.2,0.1,0.3,0.2c0.5,0.3,1.1,0.5,1.6,0.8
			c0.1,0.1,0.3,0.1,0.5,0.2c0.4,0.2,0.9,0.4,1.4,0.5c0.2,0.1,0.4,0.2,0.7,0.2c0.4,0.1,0.9,0.3,1.3,0.4c0.2,0.1,0.5,0.1,0.7,0.2
			c0.5,0.1,1,0.3,1.5,0.4c0.2,0,0.4,0.1,0.6,0.2c0.7,0.2,1.5,0.3,2.2,0.5c0.1,0,0.3,0,0.4,0.1c0.6,0.1,1.3,0.2,1.9,0.3
			c0.3,0,0.5,0.1,0.8,0.1c0.6,0.1,1.1,0.1,1.7,0.2c0.3,0,0.6,0.1,0.9,0.1c0.6,0,1.2,0.1,1.8,0.1c0.3,0,0.5,0,0.8,0
			c0.9,0,1.8,0.1,2.7,0.1s1.8,0,2.7-0.1c0.3,0,0.5,0,0.8,0c0.6,0,1.2-0.1,1.8-0.1c0.3,0,0.6-0.1,0.9-0.1c0.6-0.1,1.1-0.1,1.7-0.2
			c0.3,0,0.5-0.1,0.8-0.1c0.7-0.1,1.3-0.2,1.9-0.3c0.1,0,0.3,0,0.4-0.1c0.8-0.1,1.5-0.3,2.2-0.5c0.2,0,0.4-0.1,0.6-0.2
			c0.5-0.1,1-0.3,1.5-0.4c0.2-0.1,0.5-0.1,0.7-0.2c0.4-0.1,0.9-0.3,1.3-0.4c0.2-0.1,0.5-0.2,0.7-0.2c0.5-0.2,0.9-0.3,1.3-0.5
			c0.2-0.1,0.3-0.1,0.5-0.2c0.6-0.3,1.1-0.5,1.6-0.8c0.1-0.1,0.2-0.1,0.3-0.2c0.4-0.2,0.8-0.4,1.1-0.7c0.2-0.1,0.3-0.2,0.5-0.3
			c0.3-0.2,0.6-0.4,0.8-0.6c0.1-0.1,0.3-0.2,0.4-0.3c0.3-0.2,0.5-0.5,0.7-0.7c0.1-0.1,0.2-0.2,0.3-0.3c0.3-0.3,0.6-0.7,0.8-1v9.4
			H75.9z M75.8,32.9c-0.2,0.7-0.6,1.4-1.1,2.1c-0.8,1-1.9,2-3.4,2.9c-1,0.6-2.1,1.1-3.3,1.6c-4.8,2-11.5,3.2-18.7,3.2
			s-13.9-1.3-18.7-3.2c-1.2-0.5-2.3-1-3.3-1.6C25.8,37,24.7,36,23.9,35c-0.5-0.7-0.9-1.4-1.1-2.1c-0.1-0.4-0.1-0.7-0.1-1.1
			c0-5.9,12.2-10.9,26.6-10.9s26.6,5,26.6,10.9C75.9,32.2,75.8,32.5,75.8,32.9z"/>
	</g>
	<g>
		<path class="st0" d="M100.2,82.4c-0.2,0.2-0.5,0.5-0.8,0.7c-0.1,0.1-0.3,0.2-0.4,0.3c-0.3,0.2-0.6,0.4-0.9,0.6
			c-0.1,0.1-0.3,0.2-0.4,0.3c-0.4,0.2-0.8,0.5-1.2,0.7c-0.1,0-0.2,0.1-0.3,0.2c-0.5,0.3-1.1,0.5-1.7,0.8c-0.1,0.1-0.2,0.1-0.4,0.2
			c-0.5,0.2-0.9,0.4-1.4,0.6c-0.2,0.1-0.4,0.1-0.6,0.2c-0.5,0.2-0.9,0.3-1.4,0.5c-0.2,0.1-0.4,0.1-0.6,0.2c-0.5,0.2-1.1,0.3-1.7,0.4
			c-0.2,0-0.3,0.1-0.5,0.1c-0.7,0.2-1.5,0.3-2.3,0.5c-0.1,0-0.2,0-0.2,0c-0.7,0.1-1.4,0.2-2.1,0.3c-0.2,0-0.5,0.1-0.7,0.1
			c-0.6,0.1-1.2,0.1-1.8,0.2c-0.3,0-0.5,0-0.8,0.1c-0.6,0.1-1.3,0.1-1.9,0.1c-0.2,0-0.4,0-0.7,0c-0.9,0-1.8,0.1-2.7,0.1
			c-0.9,0-1.8,0-2.7-0.1c-0.2,0-0.5,0-0.7,0c-0.6,0-1.3-0.1-1.9-0.1c-0.3,0-0.6,0-0.8-0.1c-0.6-0.1-1.2-0.1-1.7-0.2
			c-0.3,0-0.5-0.1-0.8-0.1c-0.7-0.1-1.4-0.2-2-0.3c-0.1,0-0.2,0-0.3-0.1c-0.8-0.1-1.5-0.3-2.3-0.5c-0.2,0-0.4-0.1-0.6-0.1
			c-0.5-0.1-1.1-0.3-1.6-0.4c-0.2-0.1-0.5-0.1-0.7-0.2c-0.5-0.1-0.9-0.3-1.3-0.4c-0.2-0.1-0.4-0.2-0.7-0.2c-0.5-0.2-0.9-0.4-1.4-0.5
			c-0.1-0.1-0.3-0.1-0.4-0.2c-0.6-0.3-1.1-0.5-1.6-0.8c-0.1-0.1-0.2-0.1-0.3-0.2c-0.4-0.2-0.8-0.5-1.2-0.7c-0.2-0.1-0.3-0.2-0.4-0.3
			c-0.3-0.2-0.6-0.4-0.9-0.6c-0.1-0.1-0.3-0.2-0.4-0.3c-0.3-0.2-0.5-0.5-0.8-0.7c-0.1-0.1-0.2-0.2-0.3-0.3c-0.3-0.3-0.6-0.7-0.8-1
			v9.4c0,5.9,12.2,10.9,26.6,10.9s26.6-5,26.6-10.9v-9.4c-0.2,0.3-0.5,0.7-0.8,1C100.4,82.2,100.3,82.3,100.2,82.4z"/>
		<path class="st0" d="M100.2,95.5c-0.2,0.2-0.5,0.5-0.7,0.7c-0.1,0.1-0.3,0.2-0.4,0.3c-0.3,0.2-0.6,0.4-0.8,0.6
			c-0.2,0.1-0.3,0.2-0.5,0.3c-0.4,0.2-0.7,0.4-1.1,0.7c-0.1,0.1-0.2,0.1-0.3,0.2c-0.5,0.3-1.1,0.5-1.6,0.8c-0.1,0.1-0.3,0.1-0.5,0.2
			c-0.4,0.2-0.9,0.4-1.3,0.5c-0.2,0.1-0.4,0.2-0.7,0.2c-0.4,0.1-0.9,0.3-1.3,0.4c-0.2,0.1-0.5,0.1-0.7,0.2c-0.5,0.1-1,0.3-1.5,0.4
			c-0.2,0.1-0.4,0.1-0.6,0.2c-0.7,0.2-1.5,0.3-2.2,0.5c-0.1,0-0.3,0-0.4,0.1c-0.6,0.1-1.3,0.2-1.9,0.3c-0.3,0-0.5,0.1-0.8,0.1
			c-0.5,0.1-1.1,0.1-1.7,0.2c-0.3,0-0.6,0.1-0.9,0.1c-0.6,0-1.2,0.1-1.8,0.1c-0.3,0-0.5,0-0.8,0c-0.9,0-1.8,0.1-2.7,0.1
			c-0.9,0-1.8,0-2.7-0.1c-0.3,0-0.5,0-0.8,0c-0.6,0-1.2-0.1-1.8-0.1c-0.3,0-0.6-0.1-0.9-0.1c-0.6-0.1-1.1-0.1-1.7-0.2
			c-0.3,0-0.5-0.1-0.8-0.1c-0.7-0.1-1.3-0.2-1.9-0.3c-0.1,0-0.3,0-0.4-0.1c-0.8-0.1-1.5-0.3-2.2-0.5c-0.2,0-0.4-0.1-0.6-0.2
			c-0.5-0.1-1-0.3-1.5-0.4c-0.2-0.1-0.5-0.1-0.7-0.2c-0.4-0.1-0.9-0.3-1.3-0.4c-0.2-0.1-0.4-0.2-0.7-0.2c-0.5-0.2-0.9-0.4-1.4-0.5
			c-0.2-0.1-0.3-0.1-0.5-0.2c-0.6-0.3-1.1-0.5-1.6-0.8c-0.1-0.1-0.2-0.1-0.3-0.2c-0.4-0.2-0.8-0.4-1.1-0.7c-0.2-0.1-0.3-0.2-0.5-0.3
			c-0.3-0.2-0.6-0.4-0.9-0.6c-0.1-0.1-0.3-0.2-0.4-0.3c-0.3-0.2-0.5-0.5-0.7-0.7c-0.1-0.1-0.2-0.2-0.3-0.3c-0.3-0.3-0.6-0.7-0.8-1
			v9.4c0,5.9,12.2,10.9,26.6,10.9s26.6-5,26.6-10.9v-9.4c-0.2,0.3-0.5,0.7-0.8,1C100.4,95.3,100.3,95.4,100.2,95.5z"/>
		<path class="st0" d="M100.2,69.4c-0.2,0.2-0.5,0.5-0.7,0.7c-0.1,0.1-0.3,0.2-0.4,0.3c-0.3,0.2-0.6,0.4-0.8,0.6
			c-0.2,0.1-0.3,0.2-0.5,0.3c-0.4,0.2-0.7,0.4-1.1,0.7c-0.1,0.1-0.2,0.1-0.3,0.2c-0.5,0.3-1.1,0.5-1.6,0.8c-0.1,0.1-0.3,0.1-0.5,0.2
			c-0.4,0.2-0.9,0.4-1.3,0.5c-0.2,0.1-0.4,0.2-0.7,0.2c-0.4,0.1-0.9,0.3-1.3,0.4c-0.2,0.1-0.5,0.1-0.7,0.2c-0.5,0.1-1,0.3-1.5,0.4
			c-0.2,0.1-0.4,0.1-0.6,0.2c-0.7,0.2-1.5,0.3-2.2,0.5c-0.1,0-0.3,0-0.4,0.1c-0.6,0.1-1.3,0.2-1.9,0.3c-0.3,0-0.5,0.1-0.8,0.1
			c-0.5,0.1-1.1,0.1-1.7,0.2c-0.3,0-0.6,0.1-0.9,0.1c-0.6,0-1.2,0.1-1.8,0.1c-0.3,0-0.5,0-0.8,0c-0.9,0-1.8,0.1-2.7,0.1
			c-0.9,0-1.8,0-2.7-0.1c-0.3,0-0.5,0-0.8,0c-0.6,0-1.2-0.1-1.8-0.1c-0.3,0-0.6-0.1-0.9-0.1c-0.6-0.1-1.1-0.1-1.7-0.2
			c-0.3,0-0.5-0.1-0.8-0.1c-0.7-0.1-1.3-0.2-1.9-0.3c-0.1,0-0.3,0-0.4-0.1c-0.8-0.1-1.5-0.3-2.2-0.5c-0.2,0-0.4-0.1-0.6-0.2
			c-0.5-0.1-1-0.3-1.5-0.4c-0.2-0.1-0.5-0.1-0.7-0.2c-0.4-0.1-0.9-0.3-1.3-0.4c-0.2-0.1-0.4-0.2-0.7-0.2c-0.5-0.2-0.9-0.4-1.4-0.5
			C55.2,73.1,55,73,54.9,73c-0.6-0.3-1.1-0.5-1.6-0.8c-0.1-0.1-0.2-0.1-0.3-0.2c-0.4-0.2-0.8-0.4-1.1-0.7c-0.2-0.1-0.3-0.2-0.5-0.3
			c-0.3-0.2-0.6-0.4-0.9-0.6c-0.1-0.1-0.3-0.2-0.4-0.3c-0.3-0.2-0.5-0.5-0.7-0.7c-0.1-0.1-0.2-0.2-0.3-0.3c-0.3-0.3-0.6-0.7-0.8-1
			v9.4c0,5.9,12.2,10.9,26.6,10.9s26.6-5,26.6-10.9V68c-0.2,0.3-0.5,0.7-0.8,1C100.4,69.2,100.3,69.3,100.2,69.4z"/>
		<path class="st0" d="M100.2,56.3c-0.2,0.2-0.5,0.5-0.7,0.7c-0.1,0.1-0.3,0.2-0.4,0.3c-0.3,0.2-0.6,0.4-0.8,0.6
			c-0.2,0.1-0.3,0.2-0.5,0.3c-0.4,0.2-0.7,0.4-1.1,0.7c-0.1,0.1-0.2,0.1-0.3,0.2c-0.5,0.3-1.1,0.5-1.6,0.8c-0.1,0.1-0.3,0.1-0.5,0.2
			c-0.4,0.2-0.9,0.4-1.3,0.5c-0.2,0.1-0.4,0.2-0.7,0.2c-0.4,0.1-0.9,0.3-1.3,0.4c-0.2,0.1-0.5,0.1-0.7,0.2c-0.5,0.1-1,0.3-1.5,0.4
			C88.4,62,88.2,62,88,62.1c-0.7,0.2-1.5,0.3-2.2,0.5c-0.1,0-0.3,0-0.4,0.1c-0.6,0.1-1.3,0.2-1.9,0.3c-0.3,0-0.5,0.1-0.8,0.1
			c-0.5,0.1-1.1,0.1-1.7,0.2c-0.3,0-0.6,0.1-0.9,0.1c-0.6,0-1.2,0.1-1.8,0.1c-0.3,0-0.5,0-0.8,0c-0.9,0-1.8,0.1-2.7,0.1
			c-0.9,0-1.8,0-2.7-0.1c-0.3,0-0.5,0-0.8,0c-0.6,0-1.2-0.1-1.8-0.1c-0.3,0-0.6-0.1-0.9-0.1c-0.6-0.1-1.1-0.1-1.7-0.2
			c-0.3,0-0.5-0.1-0.8-0.1c-0.7-0.1-1.3-0.2-1.9-0.3c-0.1,0-0.3,0-0.4-0.1c-0.8-0.1-1.5-0.3-2.2-0.5c-0.2,0-0.4-0.1-0.6-0.2
			c-0.5-0.1-1-0.3-1.5-0.4c-0.2-0.1-0.5-0.1-0.7-0.2c-0.4-0.1-0.9-0.3-1.3-0.4c-0.2-0.1-0.4-0.2-0.7-0.2c-0.5-0.2-0.9-0.4-1.4-0.5
			C55.2,60,55,60,54.9,59.9c-0.6-0.3-1.1-0.5-1.6-0.8C53.2,59,53.1,59,53,58.9c-0.4-0.2-0.8-0.4-1.1-0.7c-0.2-0.1-0.3-0.2-0.5-0.3
			c-0.3-0.2-0.6-0.4-0.9-0.6c-0.1-0.1-0.3-0.2-0.4-0.3c-0.3-0.2-0.5-0.5-0.7-0.7c-0.1-0.1-0.2-0.2-0.3-0.3c-0.3-0.3-0.6-0.7-0.8-1
			v9.4c0,5.9,12.2,10.9,26.6,10.9s26.6-5,26.6-10.9V55c-0.2,0.3-0.5,0.7-0.8,1C100.4,56.1,100.3,56.2,100.2,56.3z"/>
		<path class="st0" d="M74.8,40.4c-14.4,0-26.6,5-26.6,10.9c0,0.4,0,0.7,0.1,1.1c0.2,0.7,0.6,1.4,1.1,2.1c0.8,1,1.9,2,3.4,2.9
			c1,0.6,2.1,1.1,3.3,1.6c4.9,2,11.5,3.2,18.7,3.2s13.9-1.3,18.7-3.2c1.2-0.5,2.3-1,3.3-1.6c1.5-0.9,2.6-1.8,3.4-2.9
			c0.5-0.7,0.9-1.4,1.1-2.1c0.1-0.4,0.1-0.7,0.1-1.1C101.4,45.4,89.2,40.4,74.8,40.4z"/>
		<path class="st1" d="M74.8,39.1c-15.6,0-27.9,5.4-27.9,12.2v13.1v13.1v13.1v13.1c0,6.8,12.2,12.2,27.9,12.2
			c15.6,0,27.9-5.4,27.9-12.2V90.5V77.4v-13V51.3C102.6,44.5,90.4,39.1,74.8,39.1z M101.4,103.5c0,5.9-12.2,10.9-26.6,10.9
			s-26.6-5-26.6-10.9v-9.4c0.2,0.3,0.5,0.7,0.8,1c0.1,0.1,0.2,0.2,0.3,0.3c0.2,0.2,0.5,0.5,0.7,0.7c0.1,0.1,0.3,0.2,0.4,0.3
			c0.3,0.2,0.6,0.4,0.9,0.6c0.2,0.1,0.3,0.2,0.5,0.3c0.4,0.2,0.7,0.5,1.1,0.7c0.1,0.1,0.2,0.1,0.3,0.2c0.5,0.3,1.1,0.5,1.6,0.8
			c0.1,0.1,0.3,0.1,0.5,0.2c0.4,0.2,0.9,0.4,1.4,0.5c0.2,0.1,0.4,0.2,0.7,0.2c0.4,0.1,0.9,0.3,1.3,0.4c0.2,0.1,0.5,0.1,0.7,0.2
			c0.5,0.1,1,0.3,1.5,0.4c0.2,0,0.4,0.1,0.6,0.2c0.7,0.2,1.5,0.3,2.2,0.5c0.1,0,0.3,0,0.4,0.1c0.6,0.1,1.3,0.2,1.9,0.3
			c0.3,0,0.5,0.1,0.8,0.1c0.6,0.1,1.1,0.1,1.7,0.2c0.3,0,0.6,0.1,0.9,0.1c0.6,0,1.2,0.1,1.8,0.1c0.3,0,0.5,0,0.8,0
			c0.9,0,1.8,0.1,2.7,0.1c0.9,0,1.8,0,2.7-0.1c0.3,0,0.5,0,0.8,0c0.6,0,1.2-0.1,1.8-0.1c0.3,0,0.6-0.1,0.9-0.1
			c0.6-0.1,1.1-0.1,1.7-0.2c0.3,0,0.5-0.1,0.8-0.1c0.7-0.1,1.3-0.2,1.9-0.3c0.1,0,0.3,0,0.4-0.1c0.8-0.1,1.5-0.3,2.2-0.5
			c0.2,0,0.4-0.1,0.6-0.2c0.5-0.1,1-0.3,1.5-0.4c0.2-0.1,0.5-0.1,0.7-0.2c0.4-0.1,0.9-0.3,1.3-0.4c0.2-0.1,0.5-0.2,0.7-0.2
			c0.5-0.2,0.9-0.3,1.3-0.5c0.2-0.1,0.3-0.1,0.5-0.2c0.6-0.3,1.1-0.5,1.6-0.8c0.1-0.1,0.2-0.1,0.3-0.2c0.4-0.2,0.8-0.4,1.1-0.7
			c0.2-0.1,0.3-0.2,0.5-0.3c0.3-0.2,0.6-0.4,0.8-0.6c0.1-0.1,0.3-0.2,0.4-0.3c0.3-0.2,0.5-0.5,0.7-0.7c0.1-0.1,0.2-0.2,0.3-0.3
			c0.3-0.3,0.6-0.7,0.8-1v9.4H101.4z M101.4,90.5c0,5.9-12.2,10.9-26.6,10.9s-26.6-5-26.6-10.9v-9.4c0.2,0.3,0.5,0.7,0.8,1
			c0.1,0.1,0.2,0.2,0.3,0.3c0.2,0.2,0.5,0.5,0.8,0.7c0.1,0.1,0.3,0.2,0.4,0.3c0.3,0.2,0.6,0.4,0.9,0.6c0.1,0.1,0.3,0.2,0.4,0.3
			c0.4,0.2,0.8,0.5,1.2,0.7c0.1,0.1,0.2,0.1,0.3,0.2c0.5,0.3,1.1,0.5,1.6,0.8c0.1,0.1,0.3,0.1,0.4,0.2c0.4,0.2,0.9,0.4,1.4,0.5
			c0.2,0.1,0.4,0.2,0.7,0.2c0.4,0.2,0.9,0.3,1.3,0.4c0.2,0.1,0.5,0.1,0.7,0.2c0.5,0.1,1,0.3,1.6,0.4c0.2,0,0.4,0.1,0.6,0.1
			c0.7,0.2,1.5,0.3,2.3,0.5c0.1,0,0.2,0,0.3,0.1c0.7,0.1,1.3,0.2,2,0.3c0.3,0,0.5,0.1,0.8,0.1c0.6,0.1,1.2,0.1,1.7,0.2
			c0.3,0,0.6,0.1,0.8,0.1c0.6,0.1,1.3,0.1,1.9,0.1c0.2,0,0.5,0,0.7,0c0.9,0,1.8,0.1,2.7,0.1c0.9,0,1.8,0,2.7-0.1c0.2,0,0.5,0,0.7,0
			c0.7,0,1.3-0.1,1.9-0.1c0.3,0,0.5,0,0.8-0.1c0.6-0.1,1.2-0.1,1.8-0.2c0.2,0,0.5-0.1,0.7-0.1c0.7-0.1,1.4-0.2,2.1-0.3
			c0.1,0,0.2,0,0.2,0c0.8-0.1,1.5-0.3,2.3-0.5c0.2,0,0.3-0.1,0.5-0.1c0.6-0.1,1.1-0.3,1.7-0.4c0.2-0.1,0.4-0.1,0.6-0.2
			c0.5-0.1,0.9-0.3,1.4-0.5c0.2-0.1,0.4-0.1,0.6-0.2c0.5-0.2,1-0.4,1.4-0.6c0.1-0.1,0.2-0.1,0.4-0.2c0.6-0.3,1.1-0.5,1.7-0.8
			c0.1,0,0.2-0.1,0.3-0.2c0.4-0.2,0.8-0.5,1.2-0.7c0.1-0.1,0.3-0.2,0.4-0.3c0.3-0.2,0.6-0.4,0.9-0.6c0.1-0.1,0.3-0.2,0.4-0.3
			c0.3-0.2,0.5-0.5,0.8-0.7c0.1-0.1,0.2-0.2,0.3-0.3c0.3-0.3,0.6-0.7,0.8-1C101.4,81,101.4,90.5,101.4,90.5z M101.4,77.4
			c0,5.9-12.2,10.9-26.6,10.9s-26.6-5-26.6-10.9V68c0.2,0.3,0.5,0.7,0.8,1c0.1,0.1,0.2,0.2,0.3,0.3c0.2,0.2,0.5,0.5,0.7,0.7
			c0.1,0.1,0.3,0.2,0.4,0.3c0.3,0.2,0.6,0.4,0.9,0.6c0.2,0.1,0.3,0.2,0.5,0.3c0.4,0.2,0.7,0.5,1.1,0.7c0.1,0.1,0.2,0.1,0.3,0.2
			c0.5,0.3,1.1,0.5,1.6,0.8c0.1,0.1,0.3,0.1,0.5,0.2c0.4,0.2,0.9,0.4,1.4,0.5c0.2,0.1,0.4,0.2,0.7,0.2c0.4,0.1,0.9,0.3,1.3,0.4
			c0.2,0.1,0.5,0.1,0.7,0.2c0.5,0.1,1,0.3,1.5,0.4c0.2,0,0.4,0.1,0.6,0.2c0.7,0.2,1.5,0.3,2.2,0.5c0.1,0,0.3,0,0.4,0.1
			c0.6,0.1,1.3,0.2,1.9,0.3c0.3,0,0.5,0.1,0.8,0.1c0.6,0.1,1.1,0.1,1.7,0.2c0.3,0,0.6,0.1,0.9,0.1c0.6,0,1.2,0.1,1.8,0.1
			c0.3,0,0.5,0,0.8,0c0.9,0,1.8,0.1,2.7,0.1c0.9,0,1.8,0,2.7-0.1c0.3,0,0.5,0,0.8,0c0.6,0,1.2-0.1,1.8-0.1c0.3,0,0.6-0.1,0.9-0.1
			c0.6-0.1,1.1-0.1,1.7-0.2c0.3,0,0.5-0.1,0.8-0.1c0.7-0.1,1.3-0.2,1.9-0.3c0.1,0,0.3,0,0.4-0.1c0.8-0.1,1.5-0.3,2.2-0.5
			c0.2,0,0.4-0.1,0.6-0.2c0.5-0.1,1-0.3,1.5-0.4c0.2-0.1,0.5-0.1,0.7-0.2c0.4-0.1,0.9-0.3,1.3-0.4c0.2-0.1,0.5-0.2,0.7-0.2
			c0.5-0.2,0.9-0.3,1.3-0.5c0.2-0.1,0.3-0.1,0.5-0.2c0.6-0.3,1.1-0.5,1.6-0.8c0.1-0.1,0.2-0.1,0.3-0.2c0.4-0.2,0.8-0.4,1.1-0.7
			c0.2-0.1,0.3-0.2,0.5-0.3c0.3-0.2,0.6-0.4,0.8-0.6c0.1-0.1,0.3-0.2,0.4-0.3c0.3-0.2,0.5-0.5,0.7-0.7c0.1-0.1,0.2-0.2,0.3-0.3
			c0.3-0.3,0.6-0.7,0.8-1v9.4H101.4z M101.4,64.4c0,5.9-12.2,10.9-26.6,10.9s-26.6-5-26.6-10.9V55c0.2,0.3,0.5,0.7,0.8,1
			c0.1,0.1,0.2,0.2,0.3,0.3c0.2,0.2,0.5,0.5,0.7,0.7c0.1,0.1,0.3,0.2,0.4,0.3c0.3,0.2,0.6,0.4,0.9,0.6c0.2,0.1,0.3,0.2,0.5,0.3
			c0.4,0.2,0.7,0.5,1.1,0.7c0.1,0.1,0.2,0.1,0.3,0.2c0.5,0.3,1.1,0.5,1.6,0.8c0.1,0.1,0.3,0.1,0.5,0.2c0.4,0.2,0.9,0.4,1.4,0.5
			c0.2,0.1,0.4,0.2,0.7,0.2c0.4,0.1,0.9,0.3,1.3,0.4c0.2,0.1,0.5,0.1,0.7,0.2c0.5,0.1,1,0.3,1.5,0.4c0.2,0,0.4,0.1,0.6,0.2
			c0.7,0.2,1.5,0.3,2.2,0.5c0.1,0,0.3,0,0.4,0.1c0.6,0.1,1.3,0.2,1.9,0.3c0.3,0,0.5,0.1,0.8,0.1c0.6,0.1,1.1,0.1,1.7,0.2
			c0.3,0,0.6,0.1,0.9,0.1c0.6,0,1.2,0.1,1.8,0.1c0.3,0,0.5,0,0.8,0c0.9,0,1.8,0.1,2.7,0.1c0.9,0,1.8,0,2.7-0.1c0.3,0,0.5,0,0.8,0
			c0.6,0,1.2-0.1,1.8-0.1c0.3,0,0.6-0.1,0.9-0.1c0.6-0.1,1.1-0.1,1.7-0.2c0.3,0,0.5-0.1,0.8-0.1c0.7-0.1,1.3-0.2,1.9-0.3
			c0.1,0,0.3,0,0.4-0.1c0.8-0.1,1.5-0.3,2.2-0.5c0.2,0,0.4-0.1,0.6-0.2c0.5-0.1,1-0.3,1.5-0.4c0.2-0.1,0.5-0.1,0.7-0.2
			c0.4-0.1,0.9-0.3,1.3-0.4c0.2-0.1,0.5-0.2,0.7-0.2c0.5-0.2,0.9-0.3,1.3-0.5c0.2-0.1,0.3-0.1,0.5-0.2c0.6-0.3,1.1-0.5,1.6-0.8
			c0.1-0.1,0.2-0.1,0.3-0.2c0.4-0.2,0.8-0.4,1.1-0.7c0.2-0.1,0.3-0.2,0.5-0.3c0.3-0.2,0.6-0.4,0.8-0.6c0.1-0.1,0.3-0.2,0.4-0.3
			c0.3-0.2,0.5-0.5,0.7-0.7c0.1-0.1,0.2-0.2,0.3-0.3c0.3-0.3,0.6-0.7,0.8-1v9.4H101.4z M101.2,52.4c-0.2,0.7-0.6,1.4-1.1,2.1
			c-0.8,1-1.9,2-3.4,2.9c-1,0.6-2.1,1.1-3.3,1.6c-4.8,2-11.5,3.2-18.7,3.2S60.9,61,56,59c-1.2-0.5-2.3-1-3.3-1.6
			c-1.5-0.9-2.6-1.8-3.4-2.9c-0.5-0.7-0.9-1.4-1.1-2.1c-0.1-0.4-0.1-0.7-0.1-1.1c0-5.9,12.2-10.9,26.6-10.9s26.6,5,26.6,10.9
			C101.4,51.7,101.3,52,101.2,52.4z"/>
	</g>
	<g>
		<path class="st0" d="M125.3,103c-0.2,0.2-0.5,0.5-0.8,0.7c-0.1,0.1-0.3,0.2-0.4,0.3c-0.3,0.2-0.6,0.4-0.9,0.6
			c-0.1,0.1-0.3,0.2-0.4,0.3c-0.4,0.2-0.8,0.5-1.2,0.7c-0.1,0-0.2,0.1-0.3,0.2c-0.5,0.3-1.1,0.5-1.7,0.8c-0.1,0.1-0.2,0.1-0.4,0.2
			c-0.5,0.2-0.9,0.4-1.4,0.6c-0.2,0.1-0.4,0.1-0.6,0.2c-0.5,0.2-0.9,0.3-1.4,0.5c-0.2,0.1-0.4,0.1-0.6,0.2c-0.5,0.2-1.1,0.3-1.7,0.4
			c-0.2,0-0.3,0.1-0.5,0.1c-0.7,0.2-1.5,0.3-2.3,0.5c-0.1,0-0.2,0-0.2,0c-0.7,0.1-1.4,0.2-2.1,0.3c-0.2,0-0.5,0.1-0.7,0.1
			c-0.6,0.1-1.2,0.1-1.8,0.2c-0.3,0-0.5,0-0.8,0.1c-0.6,0.1-1.3,0.1-1.9,0.1c-0.2,0-0.4,0-0.7,0c-0.9,0-1.8,0.1-2.7,0.1
			c-0.9,0-1.8,0-2.7-0.1c-0.2,0-0.5,0-0.7,0c-0.6,0-1.3-0.1-1.9-0.1c-0.3,0-0.6,0-0.8-0.1c-0.6-0.1-1.2-0.1-1.7-0.2
			c-0.3,0-0.5-0.1-0.8-0.1c-0.7-0.1-1.4-0.2-2-0.3c-0.1,0-0.2,0-0.3-0.1c-0.8-0.1-1.5-0.3-2.3-0.5c-0.2,0-0.4-0.1-0.6-0.1
			c-0.5-0.1-1.1-0.3-1.6-0.4c-0.2-0.1-0.5-0.1-0.7-0.2c-0.5-0.1-0.9-0.3-1.3-0.4c-0.2-0.1-0.4-0.2-0.7-0.2c-0.5-0.2-0.9-0.4-1.4-0.5
			c-0.1-0.1-0.3-0.1-0.4-0.2c-0.6-0.3-1.1-0.5-1.6-0.8c-0.1-0.1-0.2-0.1-0.3-0.2c-0.4-0.2-0.8-0.5-1.2-0.7c-0.2-0.1-0.3-0.2-0.4-0.3
			c-0.3-0.2-0.6-0.4-0.9-0.6c-0.1-0.1-0.3-0.2-0.4-0.3c-0.3-0.2-0.5-0.5-0.8-0.7c-0.1-0.1-0.2-0.2-0.3-0.3c-0.3-0.3-0.6-0.7-0.8-1
			v9.4c0,5.9,12.2,10.9,26.6,10.9s26.6-5,26.6-10.9v-9.4c-0.2,0.3-0.5,0.7-0.8,1C125.5,102.8,125.4,102.9,125.3,103z"/>
		<path class="st0" d="M125.2,116.1c-0.2,0.2-0.5,0.5-0.7,0.7c-0.1,0.1-0.3,0.2-0.4,0.3c-0.3,0.2-0.6,0.4-0.8,0.6
			c-0.2,0.1-0.3,0.2-0.5,0.3c-0.4,0.2-0.7,0.4-1.1,0.7c-0.1,0.1-0.2,0.1-0.3,0.2c-0.5,0.3-1.1,0.5-1.6,0.8c-0.1,0.1-0.3,0.1-0.5,0.2
			c-0.4,0.2-0.9,0.4-1.3,0.5c-0.2,0.1-0.4,0.2-0.7,0.2c-0.4,0.1-0.9,0.3-1.3,0.4c-0.2,0.1-0.5,0.1-0.7,0.2c-0.5,0.1-1,0.3-1.5,0.4
			c-0.2,0.1-0.4,0.1-0.6,0.2c-0.7,0.2-1.5,0.3-2.2,0.5c-0.1,0-0.3,0-0.4,0.1c-0.6,0.1-1.3,0.2-1.9,0.3c-0.3,0-0.5,0.1-0.8,0.1
			c-0.5,0.1-1.1,0.1-1.7,0.2c-0.3,0-0.6,0.1-0.9,0.1c-0.6,0-1.2,0.1-1.8,0.1c-0.3,0-0.5,0-0.8,0c-0.9,0-1.8,0.1-2.7,0.1
			c-0.9,0-1.8,0-2.7-0.1c-0.3,0-0.5,0-0.8,0c-0.6,0-1.2-0.1-1.8-0.1c-0.3,0-0.6-0.1-0.9-0.1c-0.6-0.1-1.1-0.1-1.7-0.2
			c-0.3,0-0.5-0.1-0.8-0.1c-0.7-0.1-1.3-0.2-1.9-0.3c-0.1,0-0.3,0-0.4-0.1c-0.8-0.1-1.5-0.3-2.2-0.5c-0.2,0-0.4-0.1-0.6-0.2
			c-0.5-0.1-1-0.3-1.5-0.4c-0.2-0.1-0.5-0.1-0.7-0.2c-0.4-0.1-0.9-0.3-1.3-0.4c-0.2-0.1-0.4-0.2-0.7-0.2c-0.5-0.2-0.9-0.4-1.4-0.5
			c-0.2-0.1-0.3-0.1-0.5-0.2c-0.6-0.3-1.1-0.5-1.6-0.8c-0.1-0.1-0.2-0.1-0.3-0.2c-0.4-0.2-0.8-0.4-1.1-0.7c-0.2-0.1-0.3-0.2-0.5-0.3
			c-0.3-0.2-0.6-0.4-0.9-0.6c-0.1-0.1-0.3-0.2-0.4-0.3c-0.3-0.2-0.5-0.5-0.7-0.7c-0.1-0.1-0.2-0.2-0.3-0.3c-0.3-0.3-0.6-0.7-0.8-1
			v9.4c0,5.9,12.2,10.9,26.6,10.9s26.6-5,26.6-10.9v-9.4c-0.2,0.3-0.5,0.7-0.8,1C125.5,115.9,125.3,116,125.2,116.1z"/>
		<path class="st0" d="M125.2,90c-0.2,0.2-0.5,0.5-0.7,0.7c-0.1,0.1-0.3,0.2-0.4,0.3c-0.3,0.2-0.6,0.4-0.8,0.6
			c-0.2,0.1-0.3,0.2-0.5,0.3c-0.4,0.2-0.7,0.4-1.1,0.7c-0.1,0.1-0.2,0.1-0.3,0.2c-0.5,0.3-1.1,0.5-1.6,0.8c-0.1,0.1-0.3,0.1-0.5,0.2
			c-0.4,0.2-0.9,0.4-1.3,0.5c-0.2,0.1-0.4,0.2-0.7,0.2c-0.4,0.1-0.9,0.3-1.3,0.4c-0.2,0.1-0.5,0.1-0.7,0.2c-0.5,0.1-1,0.3-1.5,0.4
			c-0.2,0.1-0.4,0.1-0.6,0.2c-0.7,0.2-1.5,0.3-2.2,0.5c-0.1,0-0.3,0-0.4,0.1c-0.6,0.1-1.3,0.2-1.9,0.3c-0.3,0-0.5,0.1-0.8,0.1
			c-0.5,0.1-1.1,0.1-1.7,0.2c-0.3,0-0.6,0.1-0.9,0.1c-0.6,0-1.2,0.1-1.8,0.1c-0.3,0-0.5,0-0.8,0c-0.9,0-1.8,0.1-2.7,0.1
			c-0.9,0-1.8,0-2.7-0.1c-0.3,0-0.5,0-0.8,0c-0.6,0-1.2-0.1-1.8-0.1c-0.3,0-0.6-0.1-0.9-0.1c-0.6-0.1-1.1-0.1-1.7-0.2
			c-0.3,0-0.5-0.1-0.8-0.1c-0.7-0.1-1.3-0.2-1.9-0.3c-0.1,0-0.3,0-0.4-0.1c-0.8-0.1-1.5-0.3-2.2-0.5c-0.2,0-0.4-0.1-0.6-0.2
			c-0.5-0.1-1-0.3-1.5-0.4C84.5,95,84.2,95,84,94.9c-0.4-0.1-0.9-0.3-1.3-0.4c-0.2-0.1-0.4-0.2-0.7-0.2c-0.5-0.2-0.9-0.4-1.4-0.5
			c-0.2-0.1-0.3-0.1-0.5-0.2c-0.6-0.3-1.1-0.5-1.6-0.8c-0.1-0.1-0.2-0.1-0.3-0.2c-0.4-0.2-0.8-0.4-1.1-0.7c-0.2-0.1-0.3-0.2-0.5-0.3
			c-0.3-0.2-0.6-0.4-0.9-0.6c-0.1-0.1-0.3-0.2-0.4-0.3c-0.3-0.2-0.5-0.5-0.7-0.7c-0.1-0.1-0.2-0.2-0.3-0.3c-0.3-0.3-0.6-0.7-0.8-1
			V98c0,5.9,12.2,10.9,26.6,10.9s26.6-5,26.6-10.9v-9.4c-0.2,0.3-0.5,0.7-0.8,1C125.5,89.8,125.3,89.9,125.2,90z"/>
		<path class="st0" d="M125.2,76.9c-0.2,0.2-0.5,0.5-0.7,0.7c-0.1,0.1-0.3,0.2-0.4,0.3c-0.3,0.2-0.6,0.4-0.8,0.6
			c-0.2,0.1-0.3,0.2-0.5,0.3c-0.4,0.2-0.7,0.4-1.1,0.7c-0.1,0.1-0.2,0.1-0.3,0.2c-0.5,0.3-1.1,0.5-1.6,0.8c-0.1,0.1-0.3,0.1-0.5,0.2
			c-0.4,0.2-0.9,0.4-1.3,0.5c-0.2,0.1-0.4,0.2-0.7,0.2c-0.4,0.1-0.9,0.3-1.3,0.4c-0.2,0.1-0.5,0.1-0.7,0.2c-0.5,0.1-1,0.3-1.5,0.4
			c-0.2,0.1-0.4,0.1-0.6,0.2c-0.7,0.2-1.5,0.3-2.2,0.5c-0.1,0-0.3,0-0.4,0.1c-0.6,0.1-1.3,0.2-1.9,0.3c-0.3,0-0.5,0.1-0.8,0.1
			c-0.5,0.1-1.1,0.1-1.7,0.2c-0.3,0-0.6,0.1-0.9,0.1c-0.6,0-1.2,0.1-1.8,0.1c-0.3,0-0.5,0-0.8,0c-0.9,0-1.8,0.1-2.7,0.1
			c-0.9,0-1.8,0-2.7-0.1c-0.3,0-0.5,0-0.8,0c-0.6,0-1.2-0.1-1.8-0.1c-0.3,0-0.6-0.1-0.9-0.1c-0.6-0.1-1.1-0.1-1.7-0.2
			c-0.3,0-0.5-0.1-0.8-0.1c-0.7-0.1-1.3-0.2-1.9-0.3c-0.1,0-0.3,0-0.4-0.1c-0.8-0.1-1.5-0.3-2.2-0.5c-0.2,0-0.4-0.1-0.6-0.2
			c-0.5-0.1-1-0.3-1.5-0.4c-0.2-0.1-0.5-0.1-0.7-0.2c-0.4-0.1-0.9-0.3-1.3-0.4c-0.2-0.1-0.4-0.2-0.7-0.2c-0.5-0.2-0.9-0.4-1.4-0.5
			c-0.2-0.1-0.3-0.1-0.5-0.2c-0.6-0.3-1.1-0.5-1.6-0.8c-0.1-0.1-0.2-0.1-0.3-0.2c-0.4-0.2-0.8-0.4-1.1-0.7c-0.2-0.1-0.3-0.2-0.5-0.3
			c-0.3-0.2-0.6-0.4-0.9-0.6c-0.1-0.1-0.3-0.2-0.4-0.3c-0.3-0.2-0.5-0.5-0.7-0.7c-0.1-0.1-0.2-0.2-0.3-0.3c-0.3-0.3-0.6-0.7-0.8-1
			V85c0,5.9,12.2,10.9,26.6,10.9s26.6-5,26.6-10.9v-9.4c-0.2,0.3-0.5,0.7-0.8,1C125.5,76.7,125.3,76.8,125.2,76.9z"/>
		<path class="st0" d="M99.8,61c-14.4,0-26.6,5-26.6,10.9c0,0.4,0,0.7,0.1,1.1c0.2,0.7,0.6,1.4,1.1,2.1c0.8,1,1.9,2,3.4,2.9
			c1,0.6,2.1,1.1,3.3,1.6c4.9,2,11.5,3.2,18.7,3.2s13.9-1.3,18.7-3.2c1.2-0.5,2.3-1,3.3-1.6c1.5-0.9,2.6-1.8,3.4-2.9
			c0.5-0.7,0.9-1.4,1.1-2.1c0.1-0.4,0.1-0.7,0.1-1.1C126.4,66,114.2,61,99.8,61z"/>
		<path class="st1" d="M99.8,59.7c-15.6,0-27.9,5.4-27.9,12.2V85v13v13.1v13.1c0,6.8,12.2,12.2,27.9,12.2c15.6,0,27.9-5.4,27.9-12.2
			v-13.1V98V85V71.9C127.6,65.1,115.4,59.7,99.8,59.7z M126.4,124.2c0,5.9-12.2,10.9-26.6,10.9s-26.6-5-26.6-10.9v-9.4
			c0.2,0.3,0.5,0.7,0.8,1c0.1,0.1,0.2,0.2,0.3,0.3c0.2,0.2,0.5,0.5,0.7,0.7c0.1,0.1,0.3,0.2,0.4,0.3c0.3,0.2,0.6,0.4,0.9,0.6
			c0.2,0.1,0.3,0.2,0.5,0.3c0.4,0.2,0.7,0.5,1.1,0.7c0.1,0.1,0.2,0.1,0.3,0.2c0.5,0.3,1.1,0.5,1.6,0.8c0.1,0.1,0.3,0.1,0.5,0.2
			c0.4,0.2,0.9,0.4,1.4,0.5c0.2,0.1,0.4,0.2,0.7,0.2c0.4,0.1,0.9,0.3,1.3,0.4c0.2,0.1,0.5,0.1,0.7,0.2c0.5,0.1,1,0.3,1.5,0.4
			c0.2,0,0.4,0.1,0.6,0.2c0.7,0.2,1.5,0.3,2.2,0.5c0.1,0,0.3,0,0.4,0.1c0.6,0.1,1.3,0.2,1.9,0.3c0.3,0,0.5,0.1,0.8,0.1
			c0.6,0.1,1.1,0.1,1.7,0.2c0.3,0,0.6,0.1,0.9,0.1c0.6,0,1.2,0.1,1.8,0.1c0.3,0,0.5,0,0.8,0c0.9,0,1.8,0.1,2.7,0.1
			c0.9,0,1.8,0,2.7-0.1c0.3,0,0.5,0,0.8,0c0.6,0,1.2-0.1,1.8-0.1c0.3,0,0.6-0.1,0.9-0.1c0.6-0.1,1.1-0.1,1.7-0.2
			c0.3,0,0.5-0.1,0.8-0.1c0.7-0.1,1.3-0.2,1.9-0.3c0.1,0,0.3,0,0.4-0.1c0.8-0.1,1.5-0.3,2.2-0.5c0.2,0,0.4-0.1,0.6-0.2
			c0.5-0.1,1-0.3,1.5-0.4c0.2-0.1,0.5-0.1,0.7-0.2c0.4-0.1,0.9-0.3,1.3-0.4c0.2-0.1,0.5-0.2,0.7-0.2c0.5-0.2,0.9-0.3,1.3-0.5
			c0.2-0.1,0.3-0.1,0.5-0.2c0.6-0.3,1.1-0.5,1.6-0.8c0.1-0.1,0.2-0.1,0.3-0.2c0.4-0.2,0.8-0.4,1.1-0.7c0.2-0.1,0.3-0.2,0.5-0.3
			c0.3-0.2,0.6-0.4,0.8-0.6c0.1-0.1,0.3-0.2,0.4-0.3c0.3-0.2,0.5-0.5,0.7-0.7c0.1-0.1,0.2-0.2,0.3-0.3c0.3-0.3,0.6-0.7,0.8-1v9.4
			H126.4z M126.4,111.1c0,5.9-12.2,10.9-26.6,10.9s-26.6-5-26.6-10.9v-9.4c0.2,0.3,0.5,0.7,0.8,1c0.1,0.1,0.2,0.2,0.3,0.3
			c0.2,0.2,0.5,0.5,0.8,0.7c0.1,0.1,0.3,0.2,0.4,0.3c0.3,0.2,0.6,0.4,0.9,0.6c0.1,0.1,0.3,0.2,0.4,0.3c0.4,0.2,0.8,0.5,1.2,0.7
			c0.1,0.1,0.2,0.1,0.3,0.2c0.5,0.3,1.1,0.5,1.6,0.8c0.1,0.1,0.3,0.1,0.4,0.2c0.4,0.2,0.9,0.4,1.4,0.5c0.2,0.1,0.4,0.2,0.7,0.2
			c0.4,0.2,0.9,0.3,1.3,0.4c0.2,0.1,0.5,0.1,0.7,0.2c0.5,0.1,1,0.3,1.6,0.4c0.2,0,0.4,0.1,0.6,0.1c0.7,0.2,1.5,0.3,2.3,0.5
			c0.1,0,0.2,0,0.3,0.1c0.7,0.1,1.3,0.2,2,0.3c0.3,0,0.5,0.1,0.8,0.1c0.6,0.1,1.2,0.1,1.7,0.2c0.3,0,0.6,0.1,0.8,0.1
			c0.6,0.1,1.3,0.1,1.9,0.1c0.2,0,0.5,0,0.7,0c0.9,0,1.8,0.1,2.7,0.1c0.9,0,1.8,0,2.7-0.1c0.2,0,0.5,0,0.7,0c0.7,0,1.3-0.1,1.9-0.1
			c0.3,0,0.5,0,0.8-0.1c0.6-0.1,1.2-0.1,1.8-0.2c0.2,0,0.5-0.1,0.7-0.1c0.7-0.1,1.4-0.2,2.1-0.3c0.1,0,0.2,0,0.2,0
			c0.8-0.1,1.5-0.3,2.3-0.5c0.2,0,0.3-0.1,0.5-0.1c0.6-0.1,1.1-0.3,1.7-0.4c0.2-0.1,0.4-0.1,0.6-0.2c0.5-0.1,0.9-0.3,1.4-0.5
			c0.2-0.1,0.4-0.1,0.6-0.2c0.5-0.2,1-0.4,1.4-0.6c0.1-0.1,0.2-0.1,0.4-0.2c0.6-0.3,1.1-0.5,1.7-0.8c0.1,0,0.2-0.1,0.3-0.2
			c0.4-0.2,0.8-0.5,1.2-0.7c0.1-0.1,0.3-0.2,0.4-0.3c0.3-0.2,0.6-0.4,0.9-0.6c0.1-0.1,0.3-0.2,0.4-0.3c0.3-0.2,0.5-0.5,0.8-0.7
			c0.1-0.1,0.2-0.2,0.3-0.3c0.3-0.3,0.6-0.7,0.8-1L126.4,111.1L126.4,111.1z M126.4,98c0,5.9-12.2,10.9-26.6,10.9s-26.6-5-26.6-10.9
			v-9.4c0.2,0.3,0.5,0.7,0.8,1c0.1,0.1,0.2,0.2,0.3,0.3c0.2,0.2,0.5,0.5,0.7,0.7c0.1,0.1,0.3,0.2,0.4,0.3c0.3,0.2,0.6,0.4,0.9,0.6
			c0.2,0.1,0.3,0.2,0.5,0.3c0.4,0.2,0.7,0.5,1.1,0.7c0.1,0.1,0.2,0.1,0.3,0.2c0.5,0.3,1.1,0.5,1.6,0.8c0.1,0.1,0.3,0.1,0.5,0.2
			c0.4,0.2,0.9,0.4,1.4,0.5c0.2,0.1,0.4,0.2,0.7,0.2c0.4,0.1,0.9,0.3,1.3,0.4c0.2,0.1,0.5,0.1,0.7,0.2c0.5,0.1,1,0.3,1.5,0.4
			c0.2,0,0.4,0.1,0.6,0.2c0.7,0.2,1.5,0.3,2.2,0.5c0.1,0,0.3,0,0.4,0.1c0.6,0.1,1.3,0.2,1.9,0.3c0.3,0,0.5,0.1,0.8,0.1
			c0.6,0.1,1.1,0.1,1.7,0.2c0.3,0,0.6,0.1,0.9,0.1c0.6,0,1.2,0.1,1.8,0.1c0.3,0,0.5,0,0.8,0c0.9,0,1.8,0.1,2.7,0.1
			c0.9,0,1.8,0,2.7-0.1c0.3,0,0.5,0,0.8,0c0.6,0,1.2-0.1,1.8-0.1c0.3,0,0.6-0.1,0.9-0.1c0.6-0.1,1.1-0.1,1.7-0.2
			c0.3,0,0.5-0.1,0.8-0.1c0.7-0.1,1.3-0.2,1.9-0.3c0.1,0,0.3,0,0.4-0.1c0.8-0.1,1.5-0.3,2.2-0.5c0.2,0,0.4-0.1,0.6-0.2
			c0.5-0.1,1-0.3,1.5-0.4c0.2-0.1,0.5-0.1,0.7-0.2c0.4-0.1,0.9-0.3,1.3-0.4c0.2-0.1,0.5-0.2,0.7-0.2c0.5-0.2,0.9-0.3,1.3-0.5
			c0.2-0.1,0.3-0.1,0.5-0.2c0.6-0.3,1.1-0.5,1.6-0.8c0.1-0.1,0.2-0.1,0.3-0.2c0.4-0.2,0.8-0.4,1.1-0.7c0.2-0.1,0.3-0.2,0.5-0.3
			c0.3-0.2,0.6-0.4,0.8-0.6c0.1-0.1,0.3-0.2,0.4-0.3c0.3-0.2,0.5-0.5,0.7-0.7c0.1-0.1,0.2-0.2,0.3-0.3c0.3-0.3,0.6-0.7,0.8-1V98
			H126.4z M126.4,85c0,5.9-12.2,10.9-26.6,10.9s-26.6-5-26.6-10.9v-9.4c0.2,0.3,0.5,0.7,0.8,1c0.1,0.1,0.2,0.2,0.3,0.3
			c0.2,0.2,0.5,0.5,0.7,0.7c0.1,0.1,0.3,0.2,0.4,0.3c0.3,0.2,0.6,0.4,0.9,0.6c0.2,0.1,0.3,0.2,0.5,0.3c0.4,0.2,0.7,0.5,1.1,0.7
			c0.1,0.1,0.2,0.1,0.3,0.2c0.5,0.3,1.1,0.5,1.6,0.8c0.1,0.1,0.3,0.1,0.5,0.2c0.4,0.2,0.9,0.4,1.4,0.5c0.2,0.1,0.4,0.2,0.7,0.2
			c0.4,0.1,0.9,0.3,1.3,0.4c0.2,0.1,0.5,0.1,0.7,0.2c0.5,0.1,1,0.3,1.5,0.4c0.2,0,0.4,0.1,0.6,0.2c0.7,0.2,1.5,0.3,2.2,0.5
			c0.1,0,0.3,0,0.4,0.1c0.6,0.1,1.3,0.2,1.9,0.3c0.3,0,0.5,0.1,0.8,0.1c0.6,0.1,1.1,0.1,1.7,0.2c0.3,0,0.6,0.1,0.9,0.1
			c0.6,0,1.2,0.1,1.8,0.1c0.3,0,0.5,0,0.8,0c0.9,0,1.8,0.1,2.7,0.1c0.9,0,1.8,0,2.7-0.1c0.3,0,0.5,0,0.8,0c0.6,0,1.2-0.1,1.8-0.1
			c0.3,0,0.6-0.1,0.9-0.1c0.6-0.1,1.1-0.1,1.7-0.2c0.3,0,0.5-0.1,0.8-0.1c0.7-0.1,1.3-0.2,1.9-0.3c0.1,0,0.3,0,0.4-0.1
			c0.8-0.1,1.5-0.3,2.2-0.5c0.2,0,0.4-0.1,0.6-0.2c0.5-0.1,1-0.3,1.5-0.4c0.2-0.1,0.5-0.1,0.7-0.2c0.4-0.1,0.9-0.3,1.3-0.4
			c0.2-0.1,0.5-0.2,0.7-0.2c0.5-0.2,0.9-0.3,1.3-0.5c0.2-0.1,0.3-0.1,0.5-0.2c0.6-0.3,1.1-0.5,1.6-0.8c0.1-0.1,0.2-0.1,0.3-0.2
			c0.4-0.2,0.8-0.4,1.1-0.7c0.2-0.1,0.3-0.2,0.5-0.3c0.3-0.2,0.6-0.4,0.8-0.6c0.1-0.1,0.3-0.2,0.4-0.3c0.3-0.2,0.5-0.5,0.7-0.7
			c0.1-0.1,0.2-0.2,0.3-0.3c0.3-0.3,0.6-0.7,0.8-1V85H126.4z M126.2,73c-0.2,0.7-0.6,1.4-1.1,2.1c-0.8,1-1.9,2-3.4,2.9
			c-1,0.6-2.1,1.1-3.3,1.6c-4.8,2-11.5,3.2-18.7,3.2S85.8,81.5,81,79.6c-1.2-0.5-2.3-1-3.3-1.6c-1.5-0.9-2.6-1.8-3.4-2.9
			c-0.5-0.7-0.9-1.4-1.1-2.1c-0.1-0.4-0.1-0.7-0.1-1.1C73.2,66,85.3,61,99.8,61c14.4,0,26.6,5,26.6,10.9
			C126.4,72.3,126.3,72.7,126.2,73z"/>
	</g>
</g>
</svg>
