<?xml version="1.0" encoding="utf-8"?>
<!-- Generator: Adobe Illustrator 22.1.0, SVG Export Plug-In . SVG Version: 6.00 Build 0)  -->
<svg version="1.1" id="Layer_1" xmlns="http://www.w3.org/2000/svg" xmlns:xlink="http://www.w3.org/1999/xlink" x="0px" y="0px"
	 viewBox="0 0 55.7 76.6" style="enable-background:new 0 0 55.7 76.6;" xml:space="preserve">
<style type="text/css">
	.st0{display:none;}
	.st1{display:inline;}
	.st2{fill:#FFFFFF;}
	.st3{fill:#4B4B4B;}
	.st4{fill:#175C85;}
</style>
<g class="st0">
	<g class="st1">
		<path class="st2" d="M13.4,11c-0.2,0.2-0.5,0.5-0.8,0.7c-0.1,0.1-0.3,0.2-0.4,0.3c-0.3,0.2-0.6,0.4-0.9,0.6
			c-0.1,0.1-0.3,0.2-0.4,0.3c-0.4,0.2-0.8,0.5-1.2,0.7c-0.1,0-0.2,0.1-0.3,0.2c-0.5,0.3-1.1,0.5-1.7,0.8c-0.1,0.1-0.2,0.1-0.4,0.2
			c-0.5,0.2-0.9,0.4-1.4,0.6c-0.2,0.1-0.4,0.1-0.6,0.2c-0.5,0.2-0.9,0.3-1.4,0.5c-0.2,0.1-0.4,0.1-0.6,0.2c-0.5,0.2-1.1,0.3-1.7,0.4
			c-0.2,0-0.3,0.1-0.5,0.1c-0.7,0.2-1.5,0.3-2.3,0.5c-0.1,0-0.2,0-0.2,0c-0.7,0.1-1.4,0.2-2.1,0.3c-0.2,0-0.5,0.1-0.7,0.1
			c-0.6,0.1-1.2,0.1-1.8,0.2c-0.3,0-0.5,0-0.8,0.1c-0.6,0.1-1.3,0.1-1.9,0.1c-0.2,0-0.4,0-0.7,0c-0.9,0-1.8,0.1-2.7,0.1
			s-1.8,0-2.7-0.1c-0.2,0-0.5,0-0.7,0c-0.6,0-1.3-0.1-1.9-0.1c-0.3,0-0.6,0-0.8-0.1c-0.6-0.1-1.2-0.1-1.7-0.2
			c-0.3,0-0.5-0.1-0.8-0.1c-0.7-0.1-1.4-0.2-2-0.3c-0.1,0-0.2,0-0.3-0.1c-0.8-0.1-1.5-0.3-2.3-0.5c-0.2,0-0.4-0.1-0.6-0.1
			c-0.5-0.1-1.1-0.3-1.6-0.4c-0.2-0.1-0.5-0.1-0.7-0.2c-0.5-0.1-0.9-0.3-1.3-0.4c-0.2-0.1-0.4-0.2-0.7-0.2c-0.5-0.2-0.9-0.4-1.4-0.5
			c-0.1-0.1-0.3-0.1-0.4-0.2c-0.6-0.3-1.1-0.5-1.6-0.8c-0.1-0.1-0.2-0.1-0.3-0.2c-0.4-0.2-0.8-0.5-1.2-0.7c-0.2-0.1-0.3-0.2-0.4-0.3
			c-0.3-0.2-0.6-0.4-0.9-0.6c-0.1-0.1-0.3-0.2-0.4-0.3c-0.3-0.2-0.5-0.5-0.8-0.7c-0.1-0.1-0.2-0.2-0.3-0.3c-0.3-0.3-0.6-0.7-0.8-1
			v9.4C-38.7,25-26.5,30-12.1,30s26.6-5,26.6-10.9V9.7c-0.2,0.3-0.5,0.7-0.8,1C13.6,10.8,13.5,10.9,13.4,11z"/>
		<path class="st2" d="M13.3,24.1c-0.2,0.2-0.5,0.5-0.7,0.7c-0.1,0.1-0.3,0.2-0.4,0.3c-0.3,0.2-0.6,0.4-0.8,0.6
			c-0.2,0.1-0.3,0.2-0.5,0.3c-0.4,0.2-0.7,0.4-1.1,0.7c-0.1,0.1-0.2,0.1-0.3,0.2c-0.5,0.3-1.1,0.5-1.6,0.8c-0.1,0.1-0.3,0.1-0.5,0.2
			c-0.4,0.2-0.9,0.4-1.3,0.5c-0.2,0.1-0.4,0.2-0.7,0.2C5,28.7,4.5,28.9,4.1,29c-0.2,0.1-0.5,0.1-0.7,0.2c-0.5,0.1-1,0.3-1.5,0.4
			c-0.2,0.1-0.4,0.1-0.6,0.2c-0.7,0.2-1.5,0.3-2.2,0.5c-0.1,0-0.3,0-0.4,0.1c-0.6,0.1-1.3,0.2-1.9,0.3c-0.3,0-0.5,0.1-0.8,0.1
			c-0.8,0-1.4,0.1-2,0.2c-0.3,0-0.6,0-0.9,0c-0.6,0-1.2,0.1-1.8,0.1c-0.3,0-0.5,0-0.8,0c-0.9,0-1.8,0.1-2.7,0.1s-1.8,0-2.7-0.1
			c-0.3,0-0.5,0-0.8,0c-0.6,0-1.2-0.1-1.8-0.1c-0.3,0-0.6-0.1-0.9-0.1c-0.6-0.1-1.1-0.1-1.7-0.2c-0.3,0-0.5-0.1-0.8-0.1
			c-0.7-0.1-1.3-0.2-1.9-0.3c-0.1,0-0.3,0-0.4-0.1c-0.8-0.1-1.5-0.3-2.2-0.5c-0.2,0-0.4-0.1-0.6-0.2c-0.5-0.1-1-0.3-1.5-0.4
			c-0.2-0.1-0.5-0.1-0.7-0.2c-0.4-0.1-0.9-0.3-1.3-0.4c-0.2-0.1-0.4-0.2-0.7-0.2c-0.5-0.2-0.9-0.4-1.4-0.5c-0.2-0.1-0.3-0.1-0.5-0.2
			c-0.6-0.3-1.1-0.5-1.6-0.8c-0.1-0.1-0.2-0.1-0.3-0.2c-0.4-0.2-0.8-0.4-1.1-0.7c-0.2-0.1-0.3-0.2-0.5-0.3c-0.3-0.2-0.6-0.4-0.9-0.6
			c-0.1-0.1-0.3-0.2-0.4-0.3c-0.3-0.2-0.5-0.5-0.7-0.7c-0.1-0.1-0.2-0.2-0.3-0.3c-0.3-0.3-0.6-0.7-0.8-1v9.4
			C-38.7,38-26.5,43-12.1,43s26.6-5,26.6-10.9v-9.4c-0.2,0.3-0.5,0.7-0.8,1C13.6,23.9,13.4,24,13.3,24.1z"/>
		<path class="st2" d="M13.3-2c-0.2,0.2-0.5,0.5-0.7,0.7c-0.1,0.1-0.3,0.2-0.4,0.3c-0.3,0.2-0.6,0.4-0.8,0.6
			c-0.2,0.1-0.3,0.2-0.5,0.3c-0.4,0.2-0.7,0.4-1.1,0.7c-0.2,0-0.3,0.1-0.4,0.2C8.9,1,8.3,1.3,7.8,1.6c-0.2,0-0.4,0.1-0.5,0.2
			C6.9,1.9,6.4,2.1,6,2.3C5.7,2.4,5.5,2.4,5.3,2.5C4.9,2.7,4.4,2.8,4,2.9C3.7,3,3.5,3.1,3.3,3.2c-0.5,0.1-1,0.3-1.5,0.4
			c-0.3,0-0.5,0.1-0.7,0.1C0.4,3.9-0.3,4-1.1,4.2c-0.1,0-0.3,0-0.4,0.1c-0.6,0.1-1.3,0.2-1.9,0.3c-0.3,0-0.5,0.1-0.8,0.1
			c-0.6,0-1.2,0.1-1.8,0.1c-0.3,0-0.6,0.1-0.9,0.1C-7.5,5-8,5-8.6,5c-0.3,0-0.5,0-0.8,0c-0.9,0-1.8,0.1-2.7,0.1s-1.8,0-2.7-0.1
			c-0.3,0-0.5,0-0.8,0c-0.6,0-1.2-0.1-1.8-0.1c-0.3,0-0.6-0.1-0.9-0.1c-0.6-0.1-1.1-0.1-1.7-0.2c-0.3,0-0.5-0.1-0.8-0.1
			c-0.7-0.1-1.3-0.2-1.9-0.3c-0.1,0-0.3,0-0.4-0.1c-0.8-0.1-1.5-0.3-2.2-0.5c-0.2,0-0.4-0.1-0.6-0.2c-0.5-0.1-1-0.3-1.5-0.4
			c-0.3,0.1-0.6,0-0.8-0.1c-0.4-0.1-0.9-0.3-1.3-0.4c-0.2-0.1-0.4-0.2-0.7-0.2c-0.5-0.2-0.9-0.4-1.4-0.5c-0.2-0.1-0.3-0.1-0.5-0.2
			c-0.6-0.3-1.1-0.5-1.6-0.8c-0.1-0.1-0.2-0.1-0.3-0.2c-0.4-0.2-0.8-0.4-1.1-0.7c-0.2-0.1-0.3-0.2-0.5-0.3c-0.3-0.2-0.6-0.4-0.9-0.6
			c-0.1-0.1-0.3-0.2-0.4-0.3c-0.3-0.2-0.5-0.5-0.7-0.7c-0.1-0.1-0.2-0.2-0.3-0.3c-0.3-0.3-0.6-0.7-0.8-1V6
			c0,5.9,12.2,10.9,26.6,10.9s26.6-5,26.6-10.9v-9.4c-0.2,0.3-0.5,0.7-0.8,1C13.6-2.2,13.4-2.1,13.3-2z"/>
		<path class="st2" d="M13.3-15.1c-0.2,0.2-0.5,0.5-0.7,0.7c-0.1,0.1-0.3,0.2-0.4,0.3c-0.3,0.2-0.6,0.4-0.8,0.6
			c-0.2,0.1-0.3,0.2-0.5,0.3c-0.4,0.2-0.7,0.4-1.1,0.7c-0.1,0.1-0.2,0.1-0.3,0.2C9-12,8.4-11.8,7.9-11.5c-0.1,0.1-0.3,0.1-0.5,0.2
			c-0.4,0.2-0.9,0.4-1.3,0.5c-0.2,0.1-0.4,0.2-0.7,0.2c-0.4,0.1-0.9,0.3-1.3,0.4C3.7-10,3.5-10,3.3-9.9c-0.5,0.1-1,0.3-1.5,0.4
			C1.5-9.4,1.3-9.4,1.1-9.3C0.4-9.2-0.3-9-1.1-8.9c-0.1,0-0.3,0-0.4,0.1c-0.6,0.1-1.3,0.2-1.9,0.3c-0.3,0-0.5,0.1-0.8,0.1
			C-4.8-8.3-5.4-8.3-6-8.2c-0.3,0-0.6,0.1-0.9,0.1c-0.6,0-1.1,0-1.7,0.1c-0.3,0-0.5,0-0.8,0c-0.9,0-1.8,0.1-2.7,0.1s-1.8,0-2.7-0.1
			c-0.3,0-0.5,0-0.8,0c-0.6,0-1.2-0.1-1.8-0.1c-0.3,0-0.6-0.1-0.9-0.1c-0.6-0.1-1.1-0.1-1.7-0.2c-0.3,0-0.5-0.1-0.8-0.1
			c-0.7-0.1-1.3-0.2-1.9-0.3c-0.1,0-0.3,0-0.4-0.1c-0.8-0.1-1.5-0.3-2.2-0.5c-0.2,0-0.4-0.1-0.6-0.2c-0.5-0.1-1-0.3-1.5-0.4
			c-0.2-0.1-0.5-0.1-0.7-0.2c-0.4-0.1-0.9-0.3-1.3-0.4c-0.2-0.1-0.4-0.2-0.7-0.2c-0.5-0.2-0.9-0.4-1.4-0.5c-0.2-0.1-0.3-0.1-0.5-0.2
			c-0.6-0.3-1.1-0.5-1.6-0.8c-0.1-0.1-0.2-0.1-0.3-0.2c-0.4-0.2-0.8-0.4-1.1-0.7c-0.2-0.1-0.3-0.2-0.5-0.3c-0.3-0.2-0.6-0.4-0.9-0.6
			c-0.1-0.1-0.3-0.2-0.4-0.3c-0.3-0.2-0.5-0.5-0.7-0.7c-0.1-0.1-0.2-0.2-0.3-0.3c-0.3-0.3-0.6-0.7-0.8-1V-7
			c0,5.9,12.2,10.9,26.6,10.9S14.6-1.1,14.6-7v-9.4c-0.2,0.3-0.5,0.7-0.8,1C13.6-15.3,13.4-15.2,13.3-15.1z"/>
		<path class="st3" d="M-12.1-32.3C-27.7-32.3-40-27-40-20.1V-7V6v13.1v13.1c0,6.8,12.2,12.2,27.9,12.2c15.6,0,27.9-5.4,27.9-12.2
			V19.1V6V-7.1v-13.1C15.7-27,3.5-32.3-12.1-32.3z M14.5,32.1C14.5,38,2.3,43-12.1,43s-26.6-5-26.6-10.9v-9.4c0.2,0.3,0.5,0.7,0.8,1
			c0.1,0.1,0.2,0.2,0.3,0.3c0.2,0.2,0.5,0.5,0.7,0.7c0.1,0.1,0.3,0.2,0.4,0.3c0.3,0.2,0.6,0.4,0.9,0.6c0.2,0.1,0.3,0.2,0.5,0.3
			c0.4,0.2,0.7,0.5,1.1,0.7c0.1,0.1,0.2,0.1,0.3,0.2c0.5,0.3,1.1,0.5,1.6,0.8c0.1,0.1,0.3,0.1,0.5,0.2c0.4,0.2,0.9,0.4,1.4,0.5
			c0.2,0.1,0.4,0.2,0.7,0.2c0.4,0.1,0.9,0.3,1.3,0.4c0.2,0.1,0.5,0.1,0.7,0.2c0.5,0.1,1,0.3,1.5,0.4c0.2,0,0.4,0.1,0.6,0.2
			c0.7,0.2,1.5,0.3,2.2,0.5c0.1,0,0.3,0,0.4,0.1c0.6,0.1,1.3,0.2,1.9,0.3c0.3,0,0.5,0.1,0.8,0.1c0.6,0.1,1.1,0.1,1.7,0.2
			c0.3,0,0.6,0.1,0.9,0.1c0.6,0,1.2,0.1,1.8,0.1c0.3,0,0.5,0,0.8,0c0.9,0,1.8,0.1,2.7,0.1s1.8,0,2.7-0.1c0.3,0,0.5,0,0.8,0
			c0.6,0,1.2-0.1,1.8-0.1c0.3,0,0.6,0,0.9,0c0.6-0.1,1.1-0.1,1.7-0.2c0.3,0,0.5-0.1,0.8-0.1c0.7-0.1,1.3-0.2,1.9-0.3
			c0.1,0,0.3,0,0.4-0.1c0.8-0.1,1.5-0.3,2.2-0.5c0.2,0,0.4-0.1,0.6-0.2c0.5-0.1,1-0.3,1.5-0.4c0.2-0.1,0.5-0.1,0.7-0.2
			c0.4-0.1,0.9-0.3,1.3-0.4c0.2-0.1,0.5-0.2,0.7-0.2c0.5-0.2,0.9-0.3,1.3-0.5c0.2-0.1,0.3-0.1,0.5-0.2c0.6-0.3,1.1-0.5,1.6-0.8
			c0.1-0.1,0.2-0.1,0.3-0.2c0.4-0.2,0.8-0.4,1.1-0.7c0.2-0.1,0.3-0.2,0.5-0.3c0.3-0.2,0.6-0.4,0.8-0.6c0.1-0.1,0.3-0.2,0.4-0.3
			c0.3-0.2,0.5-0.5,0.7-0.7c0.1-0.1,0.2-0.2,0.3-0.3c0.3-0.3,0.6-0.7,0.8-1v9.3H14.5z M14.5,19.1C14.5,25,2.3,30-12.1,30
			s-26.6-5-26.6-10.9V9.7c0.2,0.3,0.5,0.7,0.8,1c0.1,0.1,0.2,0.2,0.3,0.3c0.2,0.2,0.5,0.5,0.8,0.7c0.1,0.1,0.3,0.2,0.4,0.3
			c0.3,0.2,0.6,0.4,0.9,0.6c0.1,0.1,0.3,0.2,0.4,0.3c0.4,0.2,0.8,0.5,1.2,0.7c0.1,0.1,0.2,0.1,0.3,0.2c0.5,0.3,1.1,0.5,1.6,0.8
			c0.1,0.1,0.3,0.1,0.4,0.2c0.4,0.2,0.9,0.4,1.4,0.5c0.2,0.1,0.4,0.2,0.7,0.2c0.4,0.2,0.9,0.3,1.3,0.4c0.2,0.1,0.5,0.1,0.7,0.2
			c0.5,0.1,1,0.3,1.6,0.4c0.2,0,0.4,0.1,0.6,0.1c0.7,0.2,1.5,0.3,2.3,0.5c0.1,0,0.2,0,0.3,0.1c0.7,0.1,1.3,0.2,2,0.3
			c0.3,0,0.5,0.1,0.8,0.1c0.6,0.1,1.2,0.1,1.7,0.2c0.3,0,0.6,0.1,0.8,0.1c0.6,0.1,1.3,0.1,1.9,0.1c0.2,0,0.5,0,0.7,0
			c0.9,0,1.8,0.1,2.7,0.1s1.8,0,2.7-0.1c0.2,0,0.5,0,0.7,0c0.7,0,1.3-0.1,1.9-0.1c0.3,0,0.5,0,0.8-0.1c0.6-0.1,1.2-0.1,1.8-0.2
			c0.2,0,0.5-0.1,0.7-0.1c0.7-0.1,1.4-0.2,2.1-0.3c0.1,0,0.2,0,0.2,0c0.8-0.1,1.5-0.3,2.3-0.5c0.2,0,0.3-0.1,0.5-0.1
			c0.6-0.1,1.1-0.3,1.7-0.4c0.2-0.1,0.4-0.1,0.6-0.2c0.5-0.1,0.9-0.3,1.4-0.5c0.2-0.1,0.4-0.1,0.6-0.2c0.5-0.2,1-0.4,1.4-0.6
			c0.1-0.1,0.2-0.1,0.4-0.2c0.6-0.3,1.1-0.5,1.7-0.8c0.1,0,0.2-0.1,0.3-0.2c0.4-0.2,0.8-0.5,1.2-0.7c0.1-0.1,0.3-0.2,0.4-0.3
			c0.3-0.2,0.6-0.4,0.9-0.6c0.1-0.1,0.3-0.2,0.4-0.3c0.3-0.2,0.5-0.5,0.8-0.7c0.1-0.1,0.2-0.2,0.3-0.3c0.3-0.3,0.6-0.7,0.8-1
			C14.5,9.6,14.5,19.1,14.5,19.1z M14.5,6c0,5.9-12.2,10.9-26.6,10.9s-26.6-5-26.6-10.9v-9.4c0.2,0.3,0.5,0.7,0.8,1
			c0.1,0.1,0.2,0.2,0.3,0.3c0.2,0.2,0.5,0.5,0.7,0.7c0.1,0.1,0.3,0.2,0.4,0.3c0.3,0.2,0.6,0.4,0.9,0.6c0.2,0.1,0.3,0.2,0.5,0.3
			c0.4,0.2,0.7,0.5,1.1,0.7c0.1,0.1,0.2,0.1,0.3,0.2c0.5,0.3,1.1,0.5,1.6,0.8c0.1,0.1,0.3,0.1,0.5,0.2c0.4,0.2,0.9,0.4,1.4,0.5
			c0.2,0.1,0.4,0.2,0.7,0.2c0.4,0.1,0.9,0.3,1.3,0.4c0.2,0.1,0.5,0.1,0.7,0.2c0.5,0.1,1,0.3,1.5,0.4c0.2,0,0.4,0.1,0.6,0.2
			c0.7,0.2,1.5,0.3,2.2,0.5c0.1,0,0.3,0,0.4,0.1c0.6,0.1,1.3,0.2,1.9,0.3c0.3,0,0.5,0.1,0.8,0.1c0.6,0.1,1.1,0.1,1.7,0.2
			c0.3,0,0.6,0.1,0.9,0.1c0.6,0,1.2,0.1,1.8,0.1c0.3,0,0.5,0,0.8,0c0.9,0,1.8,0.1,2.7,0.1s1.8,0,2.7-0.1C-9.2,5-9,5-8.7,5
			C-8,5-7.5,5-6.9,4.9c0.3,0,0.6-0.1,0.9-0.1c0.6-0.1,1.1-0.1,1.7-0.2c0.3,0,0.5-0.1,0.8-0.1c0.7-0.1,1.3-0.2,1.9-0.3
			c0.1,0,0.3,0,0.4-0.1C-0.3,4,0.4,3.9,1.1,3.7c0.2,0,0.4-0.1,0.6-0.2c0.5-0.1,1-0.3,1.5-0.4C3.5,3.1,3.7,3,4,2.9
			c0.4-0.1,0.9-0.3,1.3-0.4C5.5,2.4,5.7,2.4,6,2.3C6.5,2.1,6.9,2,7.3,1.8c0.2-0.1,0.3-0.1,0.5-0.2C8.3,1.3,8.9,1,9.4,0.8
			c0.1-0.1,0.2-0.1,0.3-0.2c0.4-0.2,0.8-0.4,1.1-0.7c0.2-0.1,0.3-0.2,0.5-0.3c0.3-0.2,0.6-0.4,0.8-0.6c0.1-0.1,0.3-0.2,0.4-0.3
			C12.8-1.5,13-1.8,13.2-2c0.1-0.1,0.2-0.2,0.3-0.3c0.3-0.3,0.6-0.7,0.8-1V6H14.5z M14.5-7.1c0,5.9-12.2,10.9-26.6,10.9
			s-26.6-5-26.6-10.9v-9.4c0.2,0.3,0.5,0.7,0.8,1c0.1,0.1,0.2,0.2,0.3,0.3c0.2,0.2,0.5,0.5,0.7,0.7c0.1,0.1,0.3,0.2,0.4,0.3
			c0.3,0.2,0.6,0.4,0.9,0.6c0.2,0.1,0.3,0.2,0.5,0.3c0.4,0.2,0.7,0.5,1.1,0.7c0.1,0.1,0.2,0.1,0.3,0.2c0.5,0.3,1.1,0.5,1.6,0.8
			c0.1,0.1,0.3,0.1,0.5,0.2c0.4,0.2,0.9,0.4,1.4,0.5c0.2,0.1,0.4,0.2,0.7,0.2c0.4,0.1,0.9,0.3,1.3,0.4c0.2,0.1,0.5,0.1,0.7,0.2
			c0.5,0.1,1,0.3,1.5,0.4c0.2,0,0.4,0.1,0.6,0.2c0.7,0.2,1.5,0.3,2.2,0.5c0.1,0,0.3,0,0.4,0.1c0.6,0.1,1.3,0.2,1.9,0.3
			c0.3,0,0.5,0.1,0.8,0.1c0.6,0.1,1.1,0.1,1.7,0.2c0.3,0,0.6,0.1,0.9,0.1c0.6,0,1.2,0.1,1.8,0.1c0.3,0,0.5,0,0.8,0
			c0.9,0,1.8,0.1,2.7,0.1s1.8,0,2.7-0.1c0.3,0,0.5,0,0.8,0c0.6,0,1.2-0.1,1.8-0.1c0.3,0,0.6-0.1,0.9-0.1c0.6-0.1,1.1-0.1,1.7-0.2
			c0.3,0,0.5-0.1,0.8-0.1c0.7-0.1,1.3-0.2,1.9-0.3c0.1,0,0.3,0,0.4-0.1c0.9,0,1.6-0.2,2.3-0.3c0.2,0,0.4-0.1,0.6-0.2
			c0.5-0.1,1-0.3,1.5-0.4C3.5-10,3.7-10,4-10.1c0.4-0.1,0.9-0.3,1.3-0.4c0.2-0.1,0.5-0.2,0.7-0.2c0.5-0.2,0.9-0.3,1.3-0.5
			c0.2-0.1,0.3-0.1,0.5-0.2c0.6-0.3,1.1-0.5,1.6-0.8c0.1-0.1,0.2-0.1,0.3-0.2c0.4-0.2,0.8-0.4,1.1-0.7c0.2-0.1,0.3-0.2,0.5-0.3
			c0.3-0.2,0.6-0.4,0.8-0.6c0.1-0.1,0.3-0.2,0.4-0.3c0.3-0.2,0.5-0.5,0.7-0.7c0.1-0.1,0.2-0.2,0.3-0.3c0.3-0.3,0.6-0.7,0.8-1v9.2
			H14.5z M14.4-19c-0.2,0.7-0.6,1.4-1.1,2.1c-0.8,1-1.9,2-3.4,2.9c-1,0.6-2.1,1.1-3.3,1.6c-4.8,2-11.5,3.2-18.7,3.2
			s-13.9-1.3-18.7-3.2c-1.2-0.5-2.3-1-3.3-1.6c-1.5-0.9-2.6-1.8-3.4-2.9c-0.5-0.7-0.9-1.4-1.1-2.1c-0.1-0.4-0.1-0.7-0.1-1.1
			C-38.7-26-26.5-31-12.1-31s26.6,5,26.6,10.9C14.5-19.7,14.4-19.4,14.4-19z"/>
	</g>
	<g class="st1">
		<path class="st2" d="M34.8,30.6c-0.2,0.2-0.5,0.5-0.8,0.7c-0.1,0.1-0.3,0.2-0.4,0.3c-0.3,0.2-0.6,0.4-0.9,0.6
			c-0.1,0.1-0.3,0.2-0.4,0.3c-0.4,0.2-0.8,0.5-1.2,0.7c-0.1,0-0.2,0.1-0.3,0.2c-0.5,0.3-1.1,0.5-1.7,0.8c-0.1,0.1-0.2,0.1-0.4,0.2
			c-0.5,0.2-0.9,0.4-1.4,0.6c-0.2,0.1-0.4,0.1-0.6,0.2c-0.5,0.2-0.9,0.3-1.4,0.5c-0.2,0.1-0.4,0.1-0.6,0.2c-0.5,0.2-1.1,0.3-1.7,0.4
			c-0.2,0-0.3,0.1-0.5,0.1c-0.7,0.2-1.5,0.3-2.3,0.5c-0.1,0-0.2,0-0.2,0c-0.7,0.1-1.4,0.2-2.1,0.3c-0.2,0-0.5,0.1-0.7,0.1
			c-0.6,0.1-1.2,0.1-1.8,0.2c-0.3,0-0.5,0-0.8,0.1c-0.6,0.1-1.3,0.1-1.9,0.1c-0.2,0-0.4,0-0.7,0c-0.9,0-1.8,0.1-2.7,0.1
			s-1.8,0-2.7-0.1c-0.2,0-0.5,0-0.7,0c-0.6,0-1.3-0.1-1.9-0.1c-0.3,0-0.6,0-0.8-0.1c-0.6-0.1-1.2-0.1-1.7-0.2
			c-0.3,0-0.5-0.1-0.8-0.1c-0.7-0.1-1.4-0.2-2-0.3c-0.1,0-0.2,0-0.3-0.1c-0.8-0.1-1.5-0.3-2.3-0.5c-0.2,0-0.4-0.1-0.6-0.1
			c-0.5-0.1-1.1-0.3-1.6-0.4c-0.2-0.1-0.5-0.1-0.7-0.2c-0.5-0.1-0.9-0.3-1.3-0.4C-8.3,35.1-8.6,35-8.8,35c-0.5-0.2-0.9-0.4-1.4-0.5
			c-0.1-0.1-0.3-0.1-0.4-0.2c-0.6-0.3-1.1-0.5-1.6-0.8c-0.1-0.1-0.2-0.1-0.3-0.2c-0.4-0.2-0.8-0.5-1.2-0.7c-0.2-0.1-0.3-0.2-0.4-0.3
			c-0.3-0.2-0.6-0.4-0.9-0.6c-0.1-0.1-0.3-0.2-0.4-0.3c-0.3-0.2-0.5-0.5-0.8-0.7c-0.1-0.1-0.2-0.2-0.3-0.3c-0.3-0.3-0.6-0.7-0.8-1
			v9.4c0,5.9,12.2,10.9,26.6,10.9s26.6-5,26.6-10.9v-9.4c-0.2,0.3-0.5,0.7-0.8,1C35,30.4,34.9,30.5,34.8,30.6z"/>
		<path class="st2" d="M34.8,43.7c-0.2,0.2-0.5,0.5-0.7,0.7c-0.1,0.1-0.3,0.2-0.4,0.3c-0.3,0.2-0.6,0.4-0.8,0.6
			c-0.2,0.1-0.3,0.2-0.5,0.3c-0.4,0.2-0.7,0.4-1.1,0.7c-0.1,0.1-0.2,0.1-0.3,0.2c-0.5,0.3-1.1,0.5-1.6,0.8c-0.1,0.1-0.3,0.1-0.5,0.2
			c-0.4,0.2-0.9,0.4-1.3,0.5c-0.2,0.1-0.4,0.2-0.7,0.2c-0.4,0.1-0.9,0.3-1.3,0.4c-0.2,0.1-0.5,0.1-0.7,0.2c-0.5,0.1-1,0.3-1.5,0.4
			c-0.2,0.1-0.4,0.1-0.6,0.2c-0.7,0.2-1.5,0.3-2.2,0.5c-0.1,0-0.3,0-0.4,0.1c-0.6,0.1-1.3,0.2-1.9,0.3c-0.3,0-0.5,0.1-0.8,0.1
			c-0.5,0.1-1.1,0.1-1.7,0.2c-0.3,0-0.6,0.1-0.9,0.1c-0.6,0-1.2,0.1-1.8,0.1c-0.3,0-0.5,0-0.8,0c-0.9,0-1.8,0.1-2.7,0.1
			s-1.8,0-2.7-0.1c-0.3,0-0.5,0-0.8,0c-0.6,0-1.2-0.1-1.8-0.1c-0.3,0-0.6-0.1-0.9-0.1c-0.6-0.1-1.1-0.1-1.7-0.2
			c-0.3,0-0.5-0.1-0.8-0.1C0,50.2-0.7,50.1-1.3,50c-0.1,0-0.3,0-0.4-0.1c-0.8-0.1-1.5-0.3-2.2-0.5c-0.2,0-0.4-0.1-0.6-0.2
			c-0.5-0.1-1-0.3-1.5-0.4c-0.2-0.1-0.5-0.1-0.7-0.2c-0.4-0.1-0.9-0.3-1.3-0.4C-8.2,48.1-8.4,48-8.7,48c-0.5-0.2-0.9-0.4-1.4-0.5
			c-0.2-0.1-0.3-0.1-0.5-0.2c-0.6-0.3-1.1-0.5-1.6-0.8c-0.1-0.1-0.2-0.1-0.3-0.2c-0.4-0.2-0.8-0.4-1.1-0.7c-0.2-0.1-0.3-0.2-0.5-0.3
			c-0.3-0.2-0.6-0.4-0.9-0.6c-0.1-0.1-0.3-0.2-0.4-0.3c-0.3-0.2-0.5-0.5-0.7-0.7c-0.1-0.1-0.2-0.2-0.3-0.3c-0.3-0.3-0.6-0.7-0.8-1
			v9.4c0,5.9,12.2,10.9,26.6,10.9S36,57.7,36,51.8v-9.4c-0.2,0.3-0.5,0.7-0.8,1C35,43.5,34.9,43.6,34.8,43.7z"/>
		<path class="st2" d="M34.8,17.6c-0.2,0.2-0.5,0.5-0.7,0.7c-0.1,0.1-0.3,0.2-0.4,0.3c-0.3,0.2-0.6,0.4-0.8,0.6
			c-0.2,0.1-0.3,0.2-0.5,0.3c-0.4,0.2-0.7,0.4-1.1,0.7c-0.1,0.1-0.2,0.1-0.3,0.2c-0.5,0.3-1.1,0.5-1.6,0.8c-0.1,0.1-0.3,0.1-0.5,0.2
			c-0.4,0.2-0.9,0.4-1.3,0.5c-0.2,0.1-0.4,0.2-0.7,0.2c-0.4,0.1-0.9,0.3-1.3,0.4c-0.2,0.1-0.5,0.1-0.7,0.2c-0.5,0.1-1,0.3-1.5,0.4
			c-0.2,0.1-0.4,0.1-0.6,0.2c-0.7,0.2-1.5,0.3-2.2,0.5c-0.1,0-0.3,0-0.4,0.1c-0.6,0.1-1.3,0.2-1.9,0.3c-0.3,0-0.5,0.1-0.8,0.1
			c-0.5,0.1-1.1,0.1-1.7,0.2c-0.3,0-0.6,0.1-0.9,0.1c-0.6,0-1.2,0.1-1.8,0.1c-0.3,0-0.5,0-0.8,0c-0.9,0-1.8,0.1-2.7,0.1
			s-1.8,0-2.7-0.1c-0.3,0-0.5,0-0.8,0c-0.6,0-1.2-0.1-1.8-0.1c-0.3,0-0.6-0.1-0.9-0.1c-0.6-0.1-1.1-0.1-1.7-0.2
			c-0.3,0-0.5-0.1-0.8-0.1C0,24.1-0.7,24-1.3,23.9c-0.1,0-0.3,0-0.4-0.1c-0.8-0.1-1.5-0.3-2.2-0.5c-0.2,0-0.4-0.1-0.6-0.2
			C-5,23-5.5,22.8-6,22.7c-0.2-0.1-0.5-0.1-0.7-0.2c-0.4-0.1-0.9-0.3-1.3-0.4c-0.2-0.1-0.4-0.2-0.7-0.2c-0.5-0.2-0.9-0.4-1.4-0.5
			c-0.2-0.1-0.3-0.1-0.5-0.2c-0.6-0.3-1.1-0.5-1.6-0.8c-0.1-0.1-0.2-0.1-0.3-0.2c-0.4-0.2-0.8-0.4-1.1-0.7c-0.2-0.1-0.3-0.2-0.5-0.3
			c-0.3-0.2-0.6-0.4-0.9-0.6c-0.1-0.1-0.3-0.2-0.4-0.3c-0.3-0.2-0.5-0.5-0.7-0.7c-0.1-0.1-0.2-0.2-0.3-0.3c-0.3-0.3-0.6-0.7-0.8-1
			v9.4c0,5.9,12.2,10.9,26.6,10.9S36,31.6,36,25.7v-9.4c-0.2,0.3-0.5,0.7-0.8,1C35,17.4,34.9,17.5,34.8,17.6z"/>
		<path class="st2" d="M34.8,4.5C34.5,4.7,34.3,5,34,5.2c-0.1,0.1-0.3,0.2-0.4,0.3C33.3,5.8,33,6,32.7,6.2c-0.2,0.1-0.3,0.2-0.5,0.3
			c-0.4,0.2-0.7,0.4-1.1,0.7c-0.1,0.1-0.2,0.1-0.3,0.2c-0.5,0.3-1.1,0.5-1.6,0.8c-0.1,0.1-0.3,0.1-0.5,0.2c-0.4,0.2-0.9,0.4-1.3,0.5
			C27.2,9,27,9.1,26.7,9.1c-0.4,0.1-0.9,0.3-1.3,0.4c-0.2,0.1-0.5,0.1-0.7,0.2c-0.5,0.1-1,0.3-1.5,0.4c-0.2,0.1-0.4,0.1-0.6,0.2
			c-0.7,0.2-1.5,0.3-2.2,0.5c-0.1,0-0.3,0-0.4,0.1c-0.6,0.1-1.3,0.2-1.9,0.3c-0.3,0-0.5,0.1-0.8,0.1c-0.5,0.1-1.1,0.1-1.7,0.2
			c-0.3,0-0.6,0.1-0.9,0.1c-0.6,0-1.2,0.1-1.8,0.1c-0.3,0-0.5,0-0.8,0c-0.9,0-1.8,0.1-2.7,0.1s-1.8,0-2.7-0.1c-0.3,0-0.5,0-0.8,0
			c-0.6,0-1.2-0.1-1.8-0.1c-0.3,0-0.6-0.1-0.9-0.1c-0.6-0.1-1.1-0.1-1.7-0.2c-0.3,0-0.5-0.1-0.8-0.1c-0.7-0.2-1.4-0.3-2-0.4
			c-0.1,0-0.3,0-0.4-0.1c-0.8-0.1-1.5-0.3-2.2-0.5c-0.2,0-0.4-0.1-0.6-0.2C-5,9.9-5.5,9.7-6,9.6c-0.2-0.1-0.5-0.1-0.7-0.2
			C-7.1,9.3-7.6,9.1-8,9c-0.3,0-0.6-0.1-0.8-0.2c-0.5-0.2-0.9-0.4-1.4-0.5c-0.2-0.1-0.3-0.1-0.5-0.2c-0.6-0.3-1.1-0.5-1.6-0.8
			c-0.1-0.1-0.2-0.1-0.3-0.2c-0.4-0.2-0.8-0.4-1.1-0.7c-0.2-0.1-0.3-0.2-0.5-0.3C-14.5,6-14.7,5.7-15,5.5c-0.1-0.1-0.3-0.2-0.4-0.3
			c-0.3-0.2-0.5-0.5-0.7-0.7c-0.1-0.1-0.2-0.2-0.3-0.3c-0.3-0.3-0.6-0.7-0.8-1v9.4c0,5.9,12.2,10.9,26.6,10.9S36,18.5,36,12.6V3.2
			c-0.2,0.3-0.5,0.7-0.8,1C35,4.3,34.9,4.4,34.8,4.5z"/>
		<path class="st2" d="M9.3-11.4c-14.4,0-26.6,5-26.6,10.9c0,0.4,0,0.7,0.1,1.1c0.2,0.7,0.6,1.4,1.1,2.1c0.8,1,1.9,2,3.4,2.9
			c1,0.6,2.1,1.1,3.3,1.6c4.9,2,11.5,3.2,18.7,3.2S23.2,9.1,28,7.2c1.2-0.5,2.3-1,3.3-1.6c1.5-0.9,2.6-1.8,3.4-2.9
			c0.5-0.7,0.9-1.4,1.1-2.1c0.1-0.4,0.1-0.7,0.1-1.1C35.9-6.4,23.7-11.4,9.3-11.4z"/>
		<path class="st3" d="M9.3-12.7c-15.6,0-27.9,5.4-27.9,12.2v13.1v13.1v13.1v13.1c0,6.8,12.2,12.2,27.9,12.2
			c15.6,0,27.9-5.4,27.9-12.2V38.7V25.6v-13V-0.5C37.2-7.3,24.9-12.7,9.3-12.7z M35.9,51.7c0,5.9-12.2,10.9-26.6,10.9
			s-26.6-5-26.6-10.9v-9.4c0.2,0.3,0.5,0.7,0.8,1c0.1,0.1,0.2,0.2,0.3,0.3c0.2,0.2,0.5,0.5,0.7,0.7c0.1,0.1,0.3,0.2,0.4,0.3
			c0.3,0.2,0.6,0.4,0.9,0.6c0.2,0.1,0.3,0.2,0.5,0.3c0.4,0.2,0.7,0.5,1.1,0.7c0.1,0.1,0.2,0.1,0.3,0.2c0.5,0.3,1.1,0.5,1.6,0.8
			c0.1,0.1,0.3,0.1,0.5,0.2c0.4,0.2,0.9,0.4,1.4,0.5c0.2,0.1,0.4,0.2,0.7,0.2c0.4,0.1,0.9,0.3,1.3,0.4c0.2,0.1,0.5,0.1,0.7,0.2
			c0.5,0.1,1,0.3,1.5,0.4c0.2,0,0.4,0.1,0.6,0.2c0.7,0.2,1.5,0.3,2.2,0.5c0.1,0,0.3,0,0.4,0.1c0.6,0.1,1.3,0.2,1.9,0.3
			c0.3,0,0.5,0.1,0.8,0.1c0.6,0.1,1.1,0.1,1.7,0.2c0.3,0,0.6,0.1,0.9,0.1c0.6,0,1.2,0.1,1.8,0.1c0.3,0,0.5,0,0.8,0
			c0.9,0,1.8,0.1,2.7,0.1s1.8,0,2.7-0.1c0.3,0,0.5,0,0.8,0c0.6,0,1.2-0.1,1.8-0.1c0.3,0,0.6-0.1,0.9-0.1c0.6-0.1,1.1-0.1,1.7-0.2
			c0.3,0,0.5-0.1,0.8-0.1c0.7-0.1,1.3-0.2,1.9-0.3c0.1,0,0.3,0,0.4-0.1c0.8-0.1,1.5-0.3,2.2-0.5c0.2,0,0.4-0.1,0.6-0.2
			c0.5-0.1,1-0.3,1.5-0.4c0.2-0.1,0.5-0.1,0.7-0.2c0.4-0.1,0.9-0.3,1.3-0.4c0.2-0.1,0.5-0.2,0.7-0.2c0.5-0.2,0.9-0.3,1.3-0.5
			c0.2-0.1,0.3-0.1,0.5-0.2c0.6-0.3,1.1-0.5,1.6-0.8c0.1-0.1,0.2-0.1,0.3-0.2c0.4-0.2,0.8-0.4,1.1-0.7c0.2-0.1,0.3-0.2,0.5-0.3
			c0.3-0.2,0.6-0.4,0.8-0.6c0.1-0.1,0.3-0.2,0.4-0.3c0.3-0.2,0.5-0.5,0.7-0.7c0.1-0.1,0.2-0.2,0.3-0.3c0.3-0.3,0.6-0.7,0.8-1v9.4
			H35.9z M35.9,38.7c0,5.9-12.2,10.9-26.6,10.9s-26.6-5-26.6-10.9v-9.4c0.2,0.3,0.5,0.7,0.8,1c0.1,0.1,0.2,0.2,0.3,0.3
			c0.2,0.2,0.5,0.5,0.8,0.7c0.1,0.1,0.3,0.2,0.4,0.3c0.3,0.2,0.6,0.4,0.9,0.6c0.1,0.1,0.3,0.2,0.4,0.3c0.4,0.2,0.8,0.5,1.2,0.7
			c0.1,0.1,0.2,0.1,0.3,0.2c0.5,0.3,1.1,0.5,1.6,0.8c0.1,0.1,0.3,0.1,0.4,0.2c0.4,0.2,0.9,0.4,1.4,0.5c0.2,0.1,0.4,0.2,0.7,0.2
			c0.4,0.2,0.9,0.3,1.3,0.4c0.2,0.1,0.5,0.1,0.7,0.2c0.5,0.1,1,0.3,1.6,0.4c0.2,0,0.4,0.1,0.6,0.1c0.7,0.2,1.5,0.3,2.3,0.5
			c0.1,0,0.2,0,0.3,0.1c0.7,0.1,1.3,0.2,2,0.3c0.3,0,0.5,0.1,0.8,0.1c0.6,0.1,1.2,0.1,1.7,0.2c0.3,0,0.6,0.1,0.8,0.1
			c0.6,0.1,1.3,0.1,1.9,0.1c0.2,0,0.5,0,0.7,0c0.9,0,1.8,0.1,2.7,0.1c0.9,0,1.8,0,2.7-0.1c0.2,0,0.5,0,0.7,0c0.7,0,1.3-0.1,1.9-0.1
			c0.3,0,0.5,0,0.8-0.1c0.6-0.1,1.2-0.1,1.8-0.2c0.2,0,0.5-0.1,0.7-0.1c0.7-0.1,1.4-0.2,2.1-0.3c0.1,0,0.2,0,0.2,0
			c0.8-0.1,1.5-0.3,2.3-0.5c0.2,0,0.3-0.1,0.5-0.1c0.6-0.1,1.1-0.3,1.7-0.4c0.2-0.1,0.4-0.1,0.6-0.2c0.5-0.1,0.9-0.3,1.4-0.5
			c0.2-0.1,0.4-0.1,0.6-0.2c0.5-0.2,1-0.4,1.4-0.6c0.1-0.1,0.2-0.1,0.4-0.2c0.6-0.3,1.1-0.5,1.7-0.8c0.1,0,0.2-0.1,0.3-0.2
			c0.4-0.2,0.8-0.5,1.2-0.7c0.1-0.1,0.3-0.2,0.4-0.3c0.3-0.2,0.6-0.4,0.9-0.6c0.1-0.1,0.3-0.2,0.4-0.3c0.3-0.2,0.5-0.5,0.8-0.7
			c0.1-0.1,0.2-0.2,0.3-0.3c0.3-0.3,0.6-0.7,0.8-1V38.7z M35.9,25.6c0,5.9-12.2,10.9-26.6,10.9s-26.6-5-26.6-10.9v-9.4
			c0.2,0.3,0.5,0.7,0.8,1c0.1,0.1,0.2,0.2,0.3,0.3c0.2,0.2,0.5,0.5,0.7,0.7c0.1,0.1,0.3,0.2,0.4,0.3c0.3,0.2,0.6,0.4,0.9,0.6
			c0.2,0.1,0.3,0.2,0.5,0.3c0.4,0.2,0.7,0.5,1.1,0.7c0.1,0.1,0.2,0.1,0.3,0.2c0.5,0.3,1.1,0.5,1.6,0.8c0.1,0.1,0.3,0.1,0.5,0.2
			c0.4,0.2,0.9,0.4,1.4,0.5c0.2,0.1,0.4,0.2,0.7,0.2c0.4,0.1,0.9,0.3,1.3,0.4c0.2,0.1,0.5,0.1,0.7,0.2c0.5,0.1,1,0.3,1.5,0.4
			c0.2,0,0.4,0.1,0.6,0.2c0.7,0.2,1.5,0.3,2.2,0.5c0.1,0,0.3,0,0.4,0.1c0.6,0.1,1.3,0.2,1.9,0.3c0.3,0,0.5,0.1,0.8,0.1
			c0.6,0.1,1.1,0.1,1.7,0.2c0.3,0,0.6,0.1,0.9,0.1c0.6,0,1.2,0.1,1.8,0.1c0.3,0,0.5,0,0.8,0c0.9,0,1.8,0.1,2.7,0.1s1.8,0,2.7-0.1
			c0.3,0,0.5,0,0.8,0c0.6,0,1.2-0.1,1.8-0.1c0.3,0,0.6-0.1,0.9-0.1c0.6-0.1,1.1-0.1,1.7-0.2c0.3,0,0.5-0.1,0.8-0.1
			c0.7-0.1,1.3-0.2,1.9-0.3c0.1,0,0.3,0,0.4-0.1c0.8-0.1,1.5-0.3,2.2-0.5c0.2,0,0.4-0.1,0.6-0.2c0.5-0.1,1-0.3,1.5-0.4
			c0.2-0.1,0.5-0.1,0.7-0.2c0.4-0.1,0.9-0.3,1.3-0.4c0.2-0.1,0.5-0.2,0.7-0.2c0.5-0.2,0.9-0.3,1.3-0.5c0.2-0.1,0.3-0.1,0.5-0.2
			c0.6-0.3,1.1-0.5,1.6-0.8c0.1-0.1,0.2-0.1,0.3-0.2c0.4-0.2,0.8-0.4,1.1-0.7c0.2-0.1,0.3-0.2,0.5-0.3c0.3-0.2,0.6-0.4,0.8-0.6
			c0.1-0.1,0.3-0.2,0.4-0.3c0.3-0.2,0.5-0.5,0.7-0.7c0.1-0.1,0.2-0.2,0.3-0.3c0.3-0.3,0.6-0.7,0.8-1v9.4H35.9z M35.9,12.6
			c0,5.9-12.2,10.9-26.6,10.9s-26.6-5-26.6-10.9V3.2c0.2,0.3,0.5,0.7,0.8,1c0.1,0.1,0.2,0.2,0.3,0.3c0.2,0.2,0.5,0.5,0.7,0.7
			c0.1,0.1,0.3,0.2,0.4,0.3c0.3,0.2,0.6,0.4,0.9,0.6c0.2,0.1,0.3,0.2,0.5,0.3c0.4,0.2,0.7,0.5,1.1,0.7c0.1,0.1,0.2,0.1,0.3,0.2
			c0.5,0.3,1.1,0.5,1.6,0.8c0.1,0.1,0.3,0.1,0.5,0.2c0.4,0.2,0.9,0.4,1.4,0.5C-8.6,8.9-8.3,9-8.1,9.1c0.4,0.1,0.9,0.3,1.3,0.4
			c0.2,0.1,0.5,0.1,0.7,0.2c0.5,0.1,1,0.3,1.5,0.4c0.2,0,0.4,0.1,0.6,0.2c0.7,0.2,1.5,0.3,2.2,0.5c0.1,0,0.3,0,0.4,0.1
			c0.6,0.1,1.3,0.2,1.9,0.3c0.3,0,0.5,0.1,0.8,0.1c0.6,0.1,1.1,0.1,1.7,0.2c0.3,0,0.6,0.1,0.9,0.1c0.6,0,1.2,0.1,1.8,0.1
			c0.3,0,0.5,0,0.8,0c0.9,0,1.8,0.1,2.7,0.1s1.8,0,2.7-0.1c0.3,0,0.5,0,0.8,0c0.6,0,1.2-0.1,1.8-0.1c0.3,0,0.6-0.1,0.9-0.1
			c0.6-0.1,1.1-0.1,1.7-0.2c0.3,0,0.5-0.1,0.8-0.1c0.7-0.1,1.3-0.2,1.9-0.3c0.1,0,0.3,0,0.4-0.1c0.8-0.1,1.5-0.3,2.2-0.5
			c0.2,0,0.4-0.1,0.6-0.2c0.5-0.1,1-0.3,1.5-0.4c0.2-0.1,0.5-0.1,0.7-0.2c0.4-0.1,0.9-0.3,1.3-0.4C26.7,9,27,8.9,27.2,8.9
			c0.5-0.2,0.9-0.3,1.3-0.5c0.2-0.1,0.3-0.1,0.5-0.2c0.6-0.3,1.1-0.5,1.6-0.8c0.1-0.1,0.2-0.1,0.3-0.2C31.3,7,31.7,6.8,32,6.5
			c0.2-0.1,0.3-0.2,0.5-0.3C33,6,33.3,5.8,33.6,5.5c0.1-0.1,0.3-0.2,0.4-0.3c0.3-0.2,0.5-0.5,0.7-0.7c0.1-0.1,0.2-0.2,0.3-0.3
			c0.3-0.3,0.6-0.7,0.8-1v9.4H35.9z M35.8,0.6c-0.2,0.7-0.6,1.4-1.1,2.1c-0.8,1-1.9,2-3.4,2.9c-1,0.6-2.1,1.1-3.3,1.6
			c-4.8,2-11.5,3.2-18.7,3.2S-4.6,9.1-9.4,7.2c-1.2-0.5-2.3-1-3.3-1.6c-1.5-0.9-2.6-1.8-3.4-2.9C-16.6,2-17,1.3-17.2,0.6
			c-0.1-0.4-0.1-0.7-0.1-1.1c0-5.9,12.2-10.9,26.6-10.9s26.6,5,26.6,10.9C35.9-0.1,35.9,0.2,35.8,0.6z"/>
	</g>
	<g class="st1">
		<path class="st2" d="M60.3,50.1c-0.2,0.2-0.5,0.5-0.8,0.7c-0.1,0.1-0.3,0.2-0.4,0.3c-0.3,0.2-0.6,0.4-0.9,0.6
			c-0.1,0.1-0.3,0.2-0.4,0.3c-0.4,0.2-0.8,0.5-1.2,0.7c-0.1,0-0.2,0.1-0.3,0.2c-0.5,0.3-1.1,0.5-1.7,0.8c-0.1,0.1-0.2,0.1-0.4,0.2
			c-0.5,0.2-0.9,0.4-1.4,0.6c-0.2,0.1-0.4,0.1-0.6,0.2c-0.5,0.2-0.9,0.3-1.4,0.5c-0.2,0.1-0.4,0.1-0.6,0.2c-0.5,0.2-1.1,0.3-1.7,0.4
			c-0.2,0-0.3,0.1-0.5,0.1c-0.7,0.2-1.5,0.3-2.3,0.5c-0.1,0-0.2,0-0.2,0c-0.7,0.1-1.4,0.2-2.1,0.3c-0.2,0-0.5,0.1-0.7,0.1
			c-0.6,0.1-1.2,0.1-1.8,0.2c-0.3,0-0.5,0-0.8,0.1c-0.6,0.1-1.3,0.1-1.9,0.1c-0.2,0-0.4,0-0.7,0c-0.9,0-1.8,0.1-2.7,0.1
			s-1.8,0-2.7-0.1c-0.2,0-0.5,0-0.7,0c-0.6,0-1.3-0.1-1.9-0.1c-0.3,0-0.6,0-0.8-0.1c-0.6-0.1-1.2-0.1-1.7-0.2
			c-0.3,0-0.5-0.1-0.8-0.1c-0.7-0.1-1.4-0.2-2-0.3c-0.1,0-0.2,0-0.3-0.1c-0.8-0.1-1.5-0.3-2.3-0.5c-0.2,0-0.4-0.1-0.6-0.1
			c-0.5-0.1-1.1-0.3-1.6-0.4c-0.2-0.1-0.5-0.1-0.7-0.2c-0.5-0.1-0.9-0.3-1.3-0.4c-0.2-0.1-0.4-0.2-0.7-0.2c-0.5-0.2-0.9-0.4-1.4-0.5
			c-0.1-0.1-0.3-0.1-0.4-0.2c-0.6-0.3-1.1-0.5-1.6-0.8c-0.1-0.1-0.2-0.1-0.3-0.2c-0.4-0.2-0.8-0.5-1.2-0.7c-0.2-0.1-0.3-0.2-0.4-0.3
			c-0.3-0.2-0.6-0.4-0.9-0.6c-0.1-0.1-0.3-0.2-0.4-0.3c-0.3-0.2-0.5-0.5-0.8-0.7C9.2,50,9.1,49.9,9,49.8c-0.3-0.3-0.6-0.7-0.8-1v9.4
			c0,5.9,12.2,10.9,26.6,10.9s26.6-5,26.6-10.9v-9.4c-0.2,0.3-0.5,0.7-0.8,1C60.5,49.9,60.4,50,60.3,50.1z"/>
		<path class="st2" d="M60.2,63.2c-0.2,0.2-0.5,0.5-0.7,0.7c-0.1,0.1-0.3,0.2-0.4,0.3c-0.3,0.2-0.6,0.4-0.8,0.6
			c-0.2,0.1-0.3,0.2-0.5,0.3c-0.4,0.2-0.7,0.4-1.1,0.7c-0.1,0.1-0.2,0.1-0.3,0.2c-0.5,0.3-1.1,0.5-1.6,0.8c-0.1,0.1-0.3,0.1-0.5,0.2
			c-0.4,0.2-0.9,0.4-1.3,0.5c-0.2,0.1-0.4,0.2-0.7,0.2c-0.4,0.1-0.9,0.3-1.3,0.4c-0.2,0.1-0.5,0.1-0.7,0.2c-0.5,0.1-1,0.3-1.5,0.4
			c-0.2,0.1-0.4,0.1-0.6,0.2c-0.7,0.2-1.5,0.3-2.2,0.5c-0.1,0-0.3,0-0.4,0.1c-0.6,0.1-1.3,0.2-1.9,0.3c-0.3,0-0.5,0.1-0.8,0.1
			c-0.5,0.1-1.1,0.1-1.7,0.2c-0.3,0-0.6,0.1-0.9,0.1c-0.6,0-1.2,0.1-1.8,0.1c-0.3,0-0.5,0-0.8,0c-0.9,0-1.8,0.1-2.7,0.1
			s-1.8,0-2.7-0.1c-0.3,0-0.5,0-0.8,0c-0.6,0-1.2-0.1-1.8-0.1c-0.3,0-0.6-0.1-0.9-0.1c-0.6-0.1-1.1-0.1-1.7-0.2
			c-0.3,0-0.5-0.1-0.8-0.1c-0.7-0.1-1.3-0.2-1.9-0.3c-0.1,0-0.3,0-0.4-0.1c-0.8-0.1-1.5-0.3-2.2-0.5c-0.2,0-0.4-0.1-0.6-0.2
			c-0.5-0.1-1-0.3-1.5-0.4c-0.2-0.1-0.5-0.1-0.7-0.2c-0.4-0.1-0.9-0.3-1.3-0.4c-0.2-0.1-0.4-0.2-0.7-0.2c-0.5-0.2-0.9-0.4-1.4-0.5
			c-0.2-0.1-0.3-0.1-0.5-0.2c-0.6-0.3-1.1-0.5-1.6-0.8c-0.1-0.1-0.2-0.1-0.3-0.2c-0.4-0.2-0.8-0.4-1.1-0.7c-0.2-0.1-0.3-0.2-0.5-0.3
			c-0.3-0.2-0.6-0.4-0.9-0.6c-0.1-0.1-0.3-0.2-0.4-0.3c-0.3-0.2-0.5-0.5-0.7-0.7C9.2,63.1,9.1,63,9,62.9c-0.3-0.3-0.6-0.7-0.8-1v9.4
			c0,5.9,12.2,10.9,26.6,10.9s26.6-5,26.6-10.9v-9.4c-0.2,0.3-0.5,0.7-0.8,1C60.5,63,60.3,63.1,60.2,63.2z"/>
		<path class="st2" d="M60.2,37.1c-0.2,0.2-0.5,0.5-0.7,0.7c-0.1,0.1-0.3,0.2-0.4,0.3c-0.3,0.2-0.6,0.4-0.8,0.6
			c-0.2,0.1-0.3,0.2-0.5,0.3c-0.4,0.2-0.7,0.4-1.1,0.7c-0.1,0.1-0.2,0.1-0.3,0.2c-0.5,0.3-1.1,0.5-1.6,0.8c-0.1,0.1-0.3,0.1-0.5,0.2
			c-0.4,0.2-0.9,0.4-1.3,0.5c-0.2,0.1-0.4,0.2-0.7,0.2c-0.4,0.1-0.9,0.3-1.3,0.4c-0.2,0.1-0.5,0.1-0.7,0.2c-0.5,0.1-1,0.3-1.5,0.4
			c-0.2,0.1-0.4,0.1-0.6,0.2c-0.7,0.2-1.5,0.3-2.2,0.5c-0.1,0-0.3,0-0.4,0.1c-0.6,0.1-1.3,0.2-1.9,0.3c-0.3,0-0.5,0.1-0.8,0.1
			c-0.5,0.1-1.1,0.1-1.7,0.2c-0.6,0-0.9,0-1.2,0c-0.6,0-1.2,0.1-1.8,0.1c-0.3,0-0.5,0-0.8,0c-0.9,0-1.8,0.1-2.7,0.1s-1.8,0-2.7-0.1
			c-0.3,0-0.5,0-0.8,0c-0.6,0-1.2-0.1-1.8-0.1c-0.3,0-0.6-0.1-0.9-0.1c-0.6-0.1-1.1-0.1-1.7-0.2c-0.3,0-0.5-0.1-0.8-0.1
			c-0.7-0.1-1.3-0.2-1.9-0.3c-0.1,0-0.3,0-0.4-0.1c-0.8-0.1-1.5-0.3-2.2-0.5c-0.2,0-0.4-0.1-0.6-0.2c-0.5-0.1-1-0.3-1.5-0.4
			c-0.2-0.1-0.5-0.1-0.7-0.2c-0.4-0.1-0.9-0.3-1.3-0.4c-0.2-0.1-0.4-0.2-0.7-0.2c-0.5-0.2-0.9-0.4-1.4-0.5c-0.2-0.1-0.3-0.1-0.5-0.2
			c-0.6-0.3-1.1-0.5-1.6-0.8c-0.1-0.1-0.2-0.1-0.3-0.2c-0.4-0.2-0.8-0.4-1.1-0.7c-0.2-0.1-0.3-0.2-0.5-0.3c-0.3-0.2-0.6-0.4-0.9-0.6
			c-0.1-0.1-0.3-0.2-0.4-0.3c-0.3-0.2-0.5-0.5-0.7-0.7c-0.1,0-0.2-0.1-0.3-0.3c-0.3-0.3-0.6-0.7-0.8-1v9.4C8.2,51,20.3,56,34.8,56
			c14.4,0,26.6-5,26.6-10.9v-9.4c-0.2,0.3-0.5,0.7-0.8,1C60.5,36.9,60.3,37,60.2,37.1z"/>
		<path class="st2" d="M60.2,24c-0.2,0.2-0.5,0.5-0.7,0.7c-0.1,0.1-0.3,0.2-0.4,0.3c-0.3,0.2-0.6,0.4-0.8,0.6
			c-0.2,0.1-0.3,0.2-0.5,0.3c-0.4,0.2-0.7,0.4-1.1,0.7c-0.1,0.1-0.2,0.1-0.3,0.2c-0.5,0.3-1.1,0.5-1.6,0.8c-0.1,0.1-0.3,0.1-0.5,0.2
			c-0.4,0.2-0.9,0.4-1.3,0.5c-0.2,0.1-0.4,0.2-0.7,0.2c-0.4,0.1-0.9,0.3-1.3,0.4c-0.2,0.1-0.5,0.1-0.7,0.2c-0.5,0.1-1,0.3-1.5,0.4
			c-0.2,0.1-0.4,0.1-0.6,0.2c-0.7,0.2-1.5,0.3-2.2,0.5c-0.1,0-0.3,0-0.4,0.1c-0.6,0.1-1.3,0.2-1.9,0.3c-0.3,0-0.5,0.1-0.8,0.1
			c-0.5,0.1-1.1,0.1-1.7,0.2c-0.3,0-0.6,0.1-0.9,0.1c-0.6,0-1.2,0.1-1.8,0.1c-0.3,0-0.5,0-0.8,0c-0.9,0-1.8,0.1-2.7,0.1
			s-1.8,0-2.7-0.1c-0.3,0-0.5,0-0.8,0c-0.6,0-1.2-0.1-1.8-0.1c-0.3,0-0.6-0.1-0.9-0.1c-0.6-0.1-1.1-0.1-1.7-0.2
			c-0.3,0-0.5-0.1-0.8-0.1c-0.7-0.1-1.3-0.2-1.9-0.3c-0.1,0-0.3,0-0.4-0.1c-0.8-0.1-1.5-0.3-2.2-0.5c-0.2,0-0.4-0.1-0.6-0.2
			c-0.5-0.1-1-0.3-1.5-0.4C19.5,29,19.2,29,19,28.9c-0.4-0.1-0.9-0.3-1.3-0.4c-0.2-0.1-0.4-0.2-0.7-0.2c-0.5-0.2-0.9-0.4-1.4-0.5
			c-0.2-0.1-0.3-0.1-0.5-0.2c-0.6-0.3-1.1-0.5-1.6-0.8c-0.1-0.1-0.2-0.1-0.3-0.2c-0.4-0.2-0.8-0.4-1.1-0.7c-0.2-0.1-0.3-0.2-0.5-0.3
			c-0.3-0.2-0.6-0.4-0.9-0.6c-0.1-0.1-0.3-0.2-0.4-0.3C10,24.5,9.8,24.2,9.6,24c-0.1-0.1-0.2-0.2-0.3-0.3c-0.3-0.3-0.6-0.7-0.8-1V32
			c-0.3,6,11.8,11,26.3,11c14.4,0,26.6-5,26.6-10.9v-9.4c-0.2,0.3-0.5,0.7-0.8,1C60.5,23.8,60.3,23.9,60.2,24z"/>
		<path class="st2" d="M34.8,8C20.3,8,8.2,13,8.2,19c0,0.4,0,0.7,0.1,1.1c0.2,0.7,0.6,1.4,1.1,2.1c0.8,1,1.9,2,3.4,2.9
			c1,0.6,2.1,1.1,3.3,1.6c4.9,2,11.5,3.2,18.7,3.2s13.9-1.3,18.7-3.2c1.2-0.5,2.3-1,3.3-1.6c1.5-0.9,2.6-1.8,3.4-2.9
			c0.5-0.7,0.9-1.4,1.1-2.1c0.1-0.4,0.1-0.7,0.1-1.1C61.4,13,49.2,8,34.8,8z"/>
		<path class="st3" d="M34.8,6.8C19.1,6.8,6.9,12.1,6.9,19v13v13.1v13.1v13.1c0,6.8,12.2,12.2,27.9,12.2c15.6,0,27.9-5.4,27.9-12.2
			V58.2V45.1V32V19C62.6,12.1,50.4,6.8,34.8,6.8z M61.4,71.2c0,5.9-12.2,10.9-26.6,10.9s-26.6-5-26.6-10.9v-9.4
			c0.2,0.3,0.5,0.7,0.8,1c0.1,0.1,0.2,0.2,0.3,0.3c0.2,0.2,0.5,0.5,0.7,0.7c0.1,0.1,0.3,0.2,0.4,0.3c0.3,0.2,0.6,0.4,0.9,0.6
			c0.2,0.1,0.3,0.2,0.5,0.3c0.4,0.2,0.7,0.5,1.1,0.7c0.1,0.1,0.2,0.1,0.3,0.2c0.5,0.3,1.1,0.5,1.6,0.8c0.1,0.1,0.3,0.1,0.5,0.2
			c0.4,0.2,0.9,0.4,1.4,0.5c0.2,0.1,0.4,0.2,0.7,0.2c0.4,0.1,0.9,0.3,1.3,0.4c0.2,0.1,0.5,0.1,0.7,0.2c0.5,0.1,1,0.3,1.5,0.4
			c0.2,0,0.4,0.1,0.6,0.2c0.7,0.2,1.5,0.3,2.2,0.5c0.1,0,0.3,0,0.4,0.1c0.6,0.1,1.3,0.2,1.9,0.3c0.3,0,0.5,0.1,0.8,0.1
			c0.6,0.1,1.1,0.1,1.7,0.2c0.3,0,0.6,0.1,0.9,0.1c0.6,0,1.2,0.1,1.8,0.1c0.3,0,0.5,0,0.8,0c0.9,0,1.8,0.1,2.7,0.1s1.8,0,2.7-0.1
			c0.3,0,0.5,0,0.8,0c0.6,0,1.2-0.1,1.8-0.1c0.3,0,0.6-0.1,0.9-0.1c0.6-0.1,1.1-0.1,1.7-0.2c0.3,0,0.5-0.1,0.8-0.1
			c0.7-0.1,1.3-0.2,1.9-0.3c0.1,0,0.3,0,0.4-0.1c0.8-0.1,1.5-0.3,2.2-0.5c0.2,0,0.4-0.1,0.6-0.2c0.5-0.1,1-0.3,1.5-0.4
			c0.2-0.1,0.5-0.1,0.7-0.2c0.4-0.1,0.9-0.3,1.3-0.4c0.2-0.1,0.5-0.2,0.7-0.2c0.5-0.2,0.9-0.3,1.3-0.5c0.2-0.1,0.3-0.1,0.5-0.2
			c0.6-0.3,1.1-0.5,1.6-0.8c0.1-0.1,0.2-0.1,0.3-0.2c0.4-0.2,0.8-0.4,1.1-0.7c0.2-0.1,0.3-0.2,0.5-0.3c0.3-0.2,0.6-0.4,0.8-0.6
			c0.1-0.1,0.3-0.2,0.4-0.3c0.3-0.2,0.5-0.5,0.7-0.7c0.1-0.1,0.2-0.2,0.3-0.3c0.3-0.3,0.6-0.7,0.8-1v9.4H61.4z M61.4,58.2
			c0,5.9-12.2,10.9-26.6,10.9s-26.6-5-26.6-10.9v-9.4c0.2,0.3,0.5,0.7,0.8,1c0.1,0.1,0.2,0.2,0.3,0.3c0.2,0.2,0.5,0.5,0.8,0.7
			c0.1,0.1,0.3,0.2,0.4,0.3c0.3,0.2,0.6,0.4,0.9,0.6c0.1,0.1,0.3,0.2,0.4,0.3c0.4,0.2,0.8,0.5,1.2,0.7c0.1,0.1,0.2,0.1,0.3,0.2
			c0.5,0.3,1.1,0.5,1.6,0.8c0.1,0.1,0.3,0.1,0.4,0.2c0.4,0.2,0.9,0.4,1.4,0.5c0.2,0.1,0.4,0.2,0.7,0.2c0.4,0.2,0.9,0.3,1.3,0.4
			c0.2,0.1,0.5,0.1,0.7,0.2c0.5,0.1,1,0.3,1.6,0.4c0.2,0,0.4,0.1,0.6,0.1c0.7,0.2,1.5,0.3,2.3,0.5c0.1,0,0.2,0,0.3,0.1
			c0.7,0.1,1.3,0.2,2,0.3c0.3,0,0.5,0.1,0.8,0.1c0.6,0.1,1.2,0.1,1.7,0.2c0.3,0,0.6,0.1,0.8,0.1c0.6,0.1,1.3,0.1,1.9,0.1
			c0.2,0,0.5,0,0.7,0c0.9,0,1.8,0.1,2.7,0.1s1.8,0,2.7-0.1c0.2,0,0.5,0,0.7,0c0.7,0,1.3-0.1,1.9-0.1c0.3,0,0.5,0,0.8-0.1
			c0.6-0.1,1.2-0.1,1.8-0.2c0.2,0,0.5-0.1,0.7-0.1c0.7-0.1,1.4-0.2,2.1-0.3c0.1,0,0.2,0,0.2,0c0.8-0.1,1.5-0.3,2.3-0.5
			c0.2,0,0.3-0.1,0.5-0.1c0.6-0.1,1.1-0.3,1.7-0.4c0.2-0.1,0.4-0.1,0.6-0.2c0.5-0.1,0.9-0.3,1.4-0.5c0.2-0.1,0.4-0.1,0.6-0.2
			c0.5-0.2,1-0.4,1.4-0.6c0.1-0.1,0.2-0.1,0.4-0.2c0.6-0.3,1.1-0.5,1.7-0.8c0.1,0,0.2-0.1,0.3-0.2c0.4-0.2,0.8-0.5,1.2-0.7
			c0.1-0.1,0.3-0.2,0.4-0.3c0.3-0.2,0.6-0.4,0.9-0.6c0.1-0.1,0.3-0.2,0.4-0.3c0.3-0.2,0.5-0.5,0.8-0.7c0.1-0.1,0.2-0.2,0.3-0.3
			c0.3-0.3,0.6-0.7,0.8-1C61.4,48.7,61.4,58.2,61.4,58.2z M61.4,45.1C61.4,51,49.2,56,34.8,56C20.3,56,8.2,51,8.2,45.1v-9.4
			c0.2,0.3,0.5,0.7,0.8,1c0.1,0.1,0.2,0.2,0.3,0.3c0.2,0.2,0.5,0.5,0.7,0.7c0.1,0.1,0.3,0.2,0.4,0.3c0.3,0.2,0.6,0.4,0.9,0.6
			c0.2,0.1,0.3,0.2,0.5,0.3c0.4,0.2,0.7,0.5,1.1,0.7c0.1,0.1,0.2,0.1,0.3,0.2c0.5,0.3,1.1,0.5,1.6,0.8c0.1,0.1,0.3,0.1,0.5,0.2
			c0.4,0.2,0.9,0.4,1.4,0.5c0.2,0.1,0.4,0.2,0.7,0.2c0.4,0.1,0.9,0.3,1.3,0.4c0.2,0.1,0.5,0.1,0.7,0.2c0.5,0.1,1,0.3,1.5,0.4
			c0.2,0,0.4,0.1,0.6,0.2c0.7,0.2,1.5,0.3,2.2,0.5c0.1,0,0.3,0,0.4,0.1c0.6,0.1,1.3,0.2,1.9,0.3c0.3,0,0.5,0.1,0.8,0.1
			c0.6,0.1,1.1,0.1,1.7,0.2c0.3,0,0.6,0.1,0.9,0.1c0.6,0,1.2,0.1,1.8,0.1c0.3,0,0.5,0,0.8,0c0.9,0,1.8,0.1,2.7,0.1s1.8,0,2.7-0.1
			c0.3,0,0.5,0,0.8,0c0.6,0,1.2-0.1,1.8-0.1c0.3,0,0.6-0.1,0.9-0.1c0.6-0.1,1.1-0.1,1.7-0.2c0.3,0,0.5-0.1,0.8-0.1
			c0.7-0.1,1.3-0.2,1.9-0.3c0.1,0,0.3,0,0.4-0.1c0.8-0.1,1.5-0.3,2.2-0.5c0.2,0,0.4-0.1,0.6-0.2c0.5-0.1,1-0.3,1.5-0.4
			c0.2-0.1,0.5-0.1,0.7-0.2c0.4-0.1,0.9-0.3,1.3-0.4c0.2-0.1,0.5-0.2,0.7-0.2c0.5-0.2,0.9-0.3,1.3-0.5c0.2-0.1,0.3-0.1,0.5-0.2
			c0.6-0.3,1.1-0.5,1.6-0.8c0.1-0.1,0.2-0.1,0.3-0.2c0.4-0.2,0.8-0.4,1.1-0.7c0.2-0.1,0.3-0.2,0.5-0.3c0.3-0.2,0.6-0.4,0.8-0.6
			c0.1-0.1,0.3-0.2,0.4-0.3c0.3-0.2,0.5-0.5,0.7-0.7c0.1-0.1,0.2-0.2,0.3-0.3c0.3-0.3,0.6-0.7,0.8-1v9.4H61.4z M61.4,32
			c0,6-12.2,11-26.6,11C20.3,43,8.2,38,8.2,32v-9.4c0.2,0.3,0.5,0.7,0.8,1c0.1,0.1,0.2,0.2,0.3,0.3c0.2,0.2,0.5,0.5,0.7,0.7
			c0.1,0.1,0.3,0.2,0.4,0.3c0.3,0.2,0.6,0.4,0.9,0.6c0.2,0.1,0.3,0.2,0.5,0.3c0.4,0.2,0.7,0.5,1.1,0.7c0.1,0.1,0.2,0.1,0.3,0.2
			c0.5,0.3,1.1,0.5,1.6,0.8c0.1,0.1,0.3,0.1,0.5,0.2c0.4,0.2,0.9,0.4,1.4,0.5c0.2,0.1,0.4,0.2,0.7,0.2c0.4,0.1,0.9,0.3,1.3,0.4
			c0.2,0.1,0.5,0.1,0.7,0.2c0.5,0.1,1,0.3,1.5,0.4c0.2,0,0.4,0.1,0.6,0.2c0.7,0.2,1.5,0.3,2.2,0.5c0.1,0,0.3,0,0.4,0.1
			c0.6,0.1,1.3,0.2,1.9,0.3c0.3,0,0.5,0.1,0.8,0.1c0.6,0.1,1.1,0.1,1.7,0.2c0.3,0,0.6,0.1,0.9,0.1c0.6,0,1.2,0.1,1.8,0.1
			c0.3,0,0.5,0,0.8,0c0.9,0,1.8,0.1,2.7,0.1s1.8,0,2.7-0.1c0.3,0,0.5,0,0.8,0c0.6,0,1.2-0.1,1.8-0.1c0.3,0,0.6-0.1,0.9-0.1
			c0.6-0.1,1.1-0.1,1.7-0.2c0.3,0,0.5-0.1,0.8-0.1c0.7-0.1,1.3-0.2,1.9-0.3c0.1,0,0.3,0,0.4-0.1c0.8-0.1,1.5-0.3,2.2-0.5
			c0.2,0,0.4-0.1,0.6-0.2c0.5-0.1,1-0.3,1.5-0.4c0.2-0.1,0.5-0.1,0.7-0.2c0.4-0.1,0.9-0.3,1.3-0.4c0.2-0.1,0.5-0.2,0.7-0.2
			c0.5-0.2,0.9-0.3,1.3-0.5c0.2-0.1,0.3-0.1,0.5-0.2c0.6-0.3,1.1-0.5,1.6-0.8c0.1-0.1,0.2-0.1,0.3-0.2c0.4-0.2,0.8-0.4,1.1-0.7
			c0.2-0.1,0.3-0.2,0.5-0.3c0.3-0.2,0.6-0.4,0.8-0.6c0.1-0.1,0.3-0.2,0.4-0.3c0.3-0.2,0.5-0.5,0.7-0.7c0.1-0.1,0.2-0.2,0.3-0.3
			c0.3-0.3,0.6-0.7,0.8-1V32H61.4z M61.2,20.1c-0.2,0.7-0.6,1.4-1.1,2.1c-0.8,1-1.9,2-3.4,2.9c-1,0.6-2.1,1.1-3.3,1.6
			c-4.8,2-11.5,3.2-18.7,3.2S20.8,28.6,16,26.7c-1.2-0.5-2.3-1-3.3-1.6c-1.5-0.9-2.6-1.8-3.4-2.9c-0.5-0.7-0.9-1.4-1.1-2.1
			c-0.1-0.4-0.1-0.7-0.1-1.1C8.2,13,20.3,8,34.8,8c14.4,0,26.6,5,26.6,11C61.4,19.4,61.3,19.7,61.2,20.1z"/>
	</g>
	<g class="st1">
		<path class="st2" d="M85.3,70.7c-0.2,0.2-0.5,0.5-0.8,0.7c-0.1,0.1-0.3,0.2-0.4,0.3c-0.3,0.2-0.6,0.4-0.9,0.6
			c-0.1,0.1-0.3,0.2-0.4,0.3c-0.4,0.2-0.8,0.5-1.2,0.7c-0.1,0-0.2,0.1-0.3,0.2c-0.5,0.3-1.1,0.5-1.7,0.8c-0.1,0.1-0.2,0.1-0.4,0.2
			c-0.5,0.2-0.9,0.4-1.4,0.6c-0.2,0.1-0.4,0.1-0.6,0.2c-0.5,0.2-0.9,0.3-1.4,0.5c-0.2,0.1-0.4,0.1-0.6,0.2c-0.5,0.2-1.1,0.3-1.7,0.4
			c-0.2,0-0.3,0.1-0.5,0.1c-0.7,0.2-1.5,0.3-2.3,0.5c-0.1,0-0.2,0-0.2,0c-0.7,0.1-1.4,0.2-2.1,0.3c-0.2,0-0.5,0.1-0.7,0.1
			c-0.6,0.1-1.2,0.1-1.8,0.2c-0.3,0-0.5,0-0.8,0.1c-0.6,0.1-1.3,0.1-1.9,0.1c-0.2,0-0.4,0-0.7,0c-0.9,0-1.8,0.1-2.7,0.1
			s-1.8,0-2.7-0.1c-0.2,0-0.5,0-0.7,0c-0.6,0-1.3-0.1-1.9-0.1c-0.3,0-0.6,0-0.8-0.1c-0.6-0.1-1.2-0.1-1.7-0.2
			c-0.3,0-0.5-0.1-0.8-0.1c-0.7-0.1-1.4-0.2-2-0.3c-0.1,0-0.2,0-0.3-0.1c-0.8-0.1-1.5-0.3-2.3-0.5c-0.2,0-0.4-0.1-0.6-0.1
			c-0.5-0.1-1.1-0.3-1.6-0.4c-0.2-0.1-0.5-0.1-0.7-0.2c-0.5-0.1-0.9-0.3-1.3-0.4c-0.2-0.1-0.4-0.2-0.7-0.2c-0.5-0.2-0.9-0.4-1.4-0.5
			c-0.1-0.1-0.3-0.1-0.4-0.2c-0.6-0.3-1.1-0.5-1.6-0.8c-0.1-0.1-0.2-0.1-0.3-0.2c-0.4-0.2-0.8-0.5-1.2-0.7c-0.2-0.1-0.3-0.2-0.4-0.3
			c-0.3-0.2-0.6-0.4-0.9-0.6c-0.1-0.1-0.3-0.2-0.4-0.3c-0.3-0.2-0.5-0.5-0.8-0.7c-0.1-0.1-0.2-0.2-0.3-0.3c-0.3-0.3-0.6-0.7-0.8-1
			v9.4c0,5.9,12.2,10.9,26.6,10.9s26.6-5,26.6-10.9v-9.4c-0.2,0.3-0.5,0.7-0.8,1C85.5,70.5,85.4,70.6,85.3,70.7z"/>
		<path class="st2" d="M85.3,57.7c-0.2,0.2-0.5,0.5-0.7,0.7c-0.1,0.1-0.3,0.2-0.4,0.3c-0.3,0.2-0.6,0.4-0.8,0.6
			c-0.2,0.1-0.3,0.2-0.5,0.3c-0.4,0.2-0.7,0.4-1.1,0.7c-0.1,0.1-0.2,0.1-0.3,0.2c-0.5,0.3-1.1,0.5-1.6,0.8c-0.1,0.1-0.3,0.1-0.5,0.2
			c-0.4,0.2-0.9,0.4-1.3,0.5c-0.2,0.1-0.4,0.2-0.7,0.2c-0.4,0.1-0.9,0.3-1.3,0.4c-0.2,0.1-0.5,0.1-0.7,0.2c-0.5,0.1-1,0.3-1.5,0.4
			c-0.2,0.1-0.4,0.1-0.6,0.2c-0.7,0.2-1.5,0.3-2.2,0.5c-0.1,0-0.3,0-0.4,0.1c-0.6,0.1-1.3,0.2-1.9,0.3c-0.3,0-0.5,0.1-0.8,0.1
			c-0.5,0.1-1.1,0.1-1.7,0.2c-0.3,0-0.6,0.1-0.9,0.1c-0.6,0-1.2,0.1-1.8,0.1c-0.3,0-0.5,0-0.8,0c-0.9,0-1.8,0.1-2.7,0.1
			s-1.8,0-2.7-0.1c-0.3,0-0.5,0-0.8,0c-0.6,0-1.2-0.1-1.8-0.1c-0.3,0-0.6-0.1-0.9-0.1c-0.6-0.1-1.1-0.1-1.7-0.2
			c-0.3,0-0.5-0.1-0.8-0.1c-0.7-0.1-1.3-0.2-1.9-0.3c-0.1,0-0.3,0-0.4-0.1c-0.8-0.1-1.5-0.3-2.2-0.5c-0.2,0-0.4-0.1-0.6-0.2
			c-0.5-0.1-1-0.3-1.5-0.4c-0.2-0.1-0.5-0.1-0.7-0.2c-0.4-0.1-0.9-0.3-1.3-0.4c-0.2-0.1-0.4-0.2-0.7-0.2c-0.5-0.2-0.9-0.4-1.4-0.5
			c-0.2-0.1-0.3-0.1-0.5-0.2c-0.6-0.3-1.1-0.5-1.6-0.8c-0.1-0.1-0.2-0.1-0.3-0.2c-0.4-0.2-0.8-0.4-1.1-0.7c-0.2-0.1-0.3-0.2-0.5-0.3
			c-0.3-0.2-0.6-0.4-0.9-0.6c-0.1-0.1-0.3-0.2-0.4-0.3c-0.3-0.2-0.5-0.5-0.7-0.7c-0.1-0.1-0.2-0.2-0.3-0.3c-0.3-0.3-0.6-0.7-0.8-1
			v9.4c0,5.9,12.2,10.9,26.6,10.9s26.6-5,26.6-10.9v-9.4c-0.2,0.3-0.5,0.7-0.8,1C85.5,57.5,85.4,57.6,85.3,57.7z"/>
		<path class="st2" d="M85.3,44.6c-0.2,0.2-0.5,0.5-0.7,0.7c-0.1,0.1-0.3,0.2-0.4,0.3c-0.3,0.2-0.6,0.4-0.8,0.6
			c-0.2,0.1-0.3,0.2-0.5,0.3c-0.4,0.2-0.7,0.4-1.1,0.7c-0.1,0.1-0.2,0.1-0.3,0.2c-0.5,0.3-1.1,0.5-1.6,0.8c-0.1,0.1-0.3,0.1-0.5,0.2
			c-0.4,0.2-0.9,0.4-1.3,0.5c-0.2,0.1-0.4,0.2-0.7,0.2c-0.4,0.1-0.9,0.3-1.3,0.4c-0.2,0.1-0.5,0.1-0.7,0.2c-0.5,0.1-1,0.3-1.5,0.4
			c-0.2,0.1-0.4,0.1-0.6,0.2c-0.7,0.2-1.5,0.3-2.2,0.5c-0.1,0-0.3,0-0.4,0.1c-0.6,0.1-1.3,0.2-1.9,0.3c-0.3,0-0.5,0.1-0.8,0.1
			c-0.5,0.1-1.1,0.1-1.7,0.2c-0.3,0-0.6,0.1-0.9,0.1c-0.6,0-1.2,0.1-1.8,0.1c-0.3,0-0.5,0-0.8,0c-0.9,0-1.8,0.1-2.7,0.1
			s-1.8,0-2.7-0.1c-0.3,0-0.5,0-0.8,0c-0.6,0-1.2-0.1-1.8-0.1c-0.3,0-0.6-0.1-0.9-0.1c-0.6-0.1-1.1-0.1-1.7-0.2
			c-0.3,0-0.5-0.1-0.8-0.1c-0.7-0.1-1.3-0.2-1.9-0.3c-0.1,0-0.3,0-0.4-0.1c-0.8-0.1-1.5-0.3-2.2-0.5c-0.2,0-0.4-0.1-0.6-0.2
			c-0.5-0.1-1-0.3-1.5-0.4c-0.2-0.1-0.5-0.1-0.7-0.2c-0.4-0.1-0.9-0.3-1.3-0.4c-0.2-0.1-0.4-0.2-0.7-0.2c-0.5-0.2-0.9-0.4-1.4-0.5
			c-0.2-0.1-0.3-0.1-0.5-0.2c-0.6-0.3-1.1-0.5-1.6-0.8c-0.1-0.1-0.2-0.1-0.3-0.2c-0.4-0.2-0.8-0.4-1.1-0.7c-0.2-0.1-0.3-0.2-0.5-0.3
			c-0.3-0.2-0.6-0.4-0.9-0.6c-0.1-0.1-0.3-0.2-0.4-0.3c-0.3-0.2-0.5-0.5-0.7-0.7c-0.1-0.1-0.2-0.2-0.3-0.3c-0.3-0.3-0.6-0.7-0.8-1
			v9.4c0,5.9,12.2,10.9,26.6,10.9s26.6-5,26.6-10.9v-9.4c-0.2,0.3-0.5,0.7-0.8,1C85.5,44.4,85.4,44.5,85.3,44.6z"/>
		<path class="st2" d="M59.8,28.7c-14.4,0-26.6,5-26.6,10.9c0,0.4,0,0.7,0.1,1.1c0.2,0.7,0.6,1.4,1.1,2.1c0.8,1,1.9,2,3.4,2.9
			c1,0.6,2.1,1.1,3.3,1.6c4.9,2,11.5,3.2,18.7,3.2s13.9-1.3,18.7-3.2c1.2-0.5,2.3-1,3.3-1.6c1.5-0.9,2.6-1.8,3.4-2.9
			c0.5-0.7,0.9-1.4,1.1-2.1c0.1-0.4,0.1-0.7,0.1-1.1C86.4,33.7,74.2,28.7,59.8,28.7z"/>
		<path class="st3" d="M59.8,27.4c-15.6,0-27.9,5.4-27.9,12.2v13.1v13.1v13.1V92c0,6.8,12.2,12.2,27.9,12.2
			c15.6,0,27.9-5.4,27.9-12.2V78.8V65.7v-13V39.6C87.7,32.8,75.4,27.4,59.8,27.4z M86.4,91.8c0,5.9-12.2,10.9-26.6,10.9
			s-26.6-5-26.6-10.9v-9.4c0.2,0.3,0.5,0.7,0.8,1c0.1,0.1,0.2,0.2,0.3,0.3c0.2,0.2,0.5,0.5,0.7,0.7c0.1,0.1,0.3,0.2,0.4,0.3
			c0.3,0.2,0.6,0.4,0.9,0.6c0.2,0.1,0.3,0.2,0.5,0.3c0.4,0.2,0.7,0.5,1.1,0.7c0.1,0.1,0.2,0.1,0.3,0.2c0.5,0.3,1.1,0.5,1.6,0.8
			c0.1,0.1,0.3,0.1,0.5,0.2c0.4,0.2,0.9,0.4,1.4,0.5c0.2,0.1,0.4,0.2,0.7,0.2c0.4,0.1,0.9,0.3,1.3,0.4c0.2,0.1,0.5,0.1,0.7,0.2
			c0.5,0.1,1,0.3,1.5,0.4c0.2,0,0.4,0.1,0.6,0.2c0.7,0.2,1.5,0.3,2.2,0.5c0.1,0,0.3,0,0.4,0.1c0.6,0.1,1.3,0.2,1.9,0.3
			c0.3,0,0.5,0.1,0.8,0.1c0.6,0.1,1.1,0.1,1.7,0.2c0.3,0,0.6,0.1,0.9,0.1c0.6,0,1.2,0.1,1.8,0.1c0.3,0,0.5,0,0.8,0
			c0.9,0,1.8,0.1,2.7,0.1s1.8,0,2.7-0.1c0.3,0,0.5,0,0.8,0c0.6,0,1.2-0.1,1.8-0.1c0.3,0,0.6-0.1,0.9-0.1c0.6-0.1,1.1-0.1,1.7-0.2
			c0.3,0,0.5-0.1,0.8-0.1c0.7-0.1,1.3-0.2,1.9-0.3c0.1,0,0.3,0,0.4-0.1c0.8-0.1,1.5-0.3,2.2-0.5c0.2,0,0.4-0.1,0.6-0.2
			c0.5-0.1,1-0.3,1.5-0.4c0.2-0.1,0.5-0.1,0.7-0.2c0.4-0.1,0.9-0.3,1.3-0.4c0.2-0.1,0.5-0.2,0.7-0.2c0.5-0.2,0.9-0.3,1.3-0.5
			c0.2-0.1,0.3-0.1,0.5-0.2c0.6-0.3,1.1-0.5,1.6-0.8c0.1-0.1,0.2-0.1,0.3-0.2c0.4-0.2,0.8-0.4,1.1-0.7c0.2-0.1,0.3-0.2,0.5-0.3
			c0.3-0.2,0.6-0.4,0.8-0.6c0.1-0.1,0.3-0.2,0.4-0.3c0.3-0.2,0.5-0.5,0.7-0.7c0.1-0.1,0.2-0.2,0.3-0.3c0.3-0.3,0.6-0.7,0.8-1v9.4
			H86.4z M86.4,78.8c0,5.9-12.2,10.9-26.6,10.9s-26.6-5-26.6-10.9v-9.4c0.2,0.3,0.5,0.7,0.8,1c0.1,0.1,0.2,0.2,0.3,0.3
			c0.2,0.2,0.5,0.5,0.8,0.7c0.1,0.1,0.3,0.2,0.4,0.3c0.3,0.2,0.6,0.4,0.9,0.6c0.1,0.1,0.3,0.2,0.4,0.3c0.4,0.2,0.8,0.5,1.2,0.7
			c0.1,0.1,0.2,0.1,0.3,0.2c0.5,0.3,1.1,0.5,1.6,0.8c0.1,0.1,0.3,0.1,0.4,0.2c0.4,0.2,0.9,0.4,1.4,0.5c0.2,0.1,0.4,0.2,0.7,0.2
			c0.4,0.2,0.9,0.3,1.3,0.4c0.2,0.1,0.5,0.1,0.7,0.2c0.5,0.1,1,0.3,1.6,0.4c0.2,0,0.4,0.1,0.6,0.1c0.7,0.2,1.5,0.3,2.3,0.5
			c0.1,0,0.2,0,0.3,0.1c0.7,0.1,1.3,0.2,2,0.3c0.3,0,0.5,0.1,0.8,0.1c0.6,0.1,1.2,0.1,1.7,0.2c0.3,0,0.6,0.1,0.8,0.1
			c0.6,0.1,1.3,0.1,1.9,0.1c0.2,0,0.5,0,0.7,0c0.9,0,1.8,0.1,2.7,0.1s1.8,0,2.7-0.1c0.2,0,0.5,0,0.7,0c0.7,0,1.3-0.1,1.9-0.1
			c0.3,0,0.5,0,0.8-0.1c0.6-0.1,1.2-0.1,1.8-0.2c0.2,0,0.5-0.1,0.7-0.1c0.7-0.1,1.4-0.2,2.1-0.3c0.1,0,0.2,0,0.2,0
			c0.8-0.1,1.5-0.3,2.3-0.5c0.2,0,0.3-0.1,0.5-0.1c0.6-0.1,1.1-0.3,1.7-0.4c0.2-0.1,0.4-0.1,0.6-0.2c0.5-0.1,0.9-0.3,1.4-0.5
			c0.2-0.1,0.4-0.1,0.6-0.2c0.5-0.2,1-0.4,1.4-0.6c0.1-0.1,0.2-0.1,0.4-0.2c0.6-0.3,1.1-0.5,1.7-0.8c0.1,0,0.2-0.1,0.3-0.2
			c0.4-0.2,0.8-0.5,1.2-0.7c0.1-0.1,0.3-0.2,0.4-0.3c0.3-0.2,0.6-0.4,0.9-0.6c0.1-0.1,0.3-0.2,0.4-0.3c0.3-0.2,0.5-0.5,0.8-0.7
			c0.1-0.1,0.2-0.2,0.3-0.3c0.3-0.3,0.6-0.7,0.8-1L86.4,78.8L86.4,78.8z M86.4,65.7c0,5.9-12.2,10.9-26.6,10.9s-26.6-5-26.6-10.9
			v-9.4c0.2,0.3,0.5,0.7,0.8,1c0.1,0.1,0.2,0.2,0.3,0.3c0.2,0.2,0.5,0.5,0.7,0.7c0.1,0.1,0.3,0.2,0.4,0.3c0.3,0.2,0.6,0.4,0.9,0.6
			c0.2,0.1,0.3,0.2,0.5,0.3c0.4,0.2,0.7,0.5,1.1,0.7c0.1,0.1,0.2,0.1,0.3,0.2c0.5,0.3,1.1,0.5,1.6,0.8c0.1,0.1,0.3,0.1,0.5,0.2
			c0.4,0.2,0.9,0.4,1.4,0.5c0.2,0.1,0.4,0.2,0.7,0.2c0.4,0.1,0.9,0.3,1.3,0.4c0.2,0.1,0.5,0.1,0.7,0.2c0.5,0.1,1,0.3,1.5,0.4
			c0.2,0,0.4,0.1,0.6,0.2c0.7,0.2,1.5,0.3,2.2,0.5c0.1,0,0.3,0,0.4,0.1c0.6,0.1,1.3,0.2,1.9,0.3c0.3,0,0.5,0.1,0.8,0.1
			c0.6,0.1,1.1,0.1,1.7,0.2c0.3,0,0.6,0.1,0.9,0.1c0.6,0,1.2,0.1,1.8,0.1c0.3,0,0.5,0,0.8,0c0.9,0,1.8,0.1,2.7,0.1s1.8,0,2.7-0.1
			c0.3,0,0.5,0,0.8,0c0.6,0,1.2-0.1,1.8-0.1c0.3,0,0.6-0.1,0.9-0.1c0.6-0.1,1.1-0.1,1.7-0.2c0.3,0,0.5-0.1,0.8-0.1
			c0.7-0.1,1.3-0.2,1.9-0.3c0.1,0,0.3,0,0.4-0.1c0.8-0.1,1.5-0.3,2.2-0.5c0.2,0,0.4-0.1,0.6-0.2c0.5-0.1,1-0.3,1.5-0.4
			c0.2-0.1,0.5-0.1,0.7-0.2c0.4-0.1,0.9-0.3,1.3-0.4c0.2-0.1,0.5-0.2,0.7-0.2c0.5-0.2,0.9-0.3,1.3-0.5c0.2-0.1,0.3-0.1,0.5-0.2
			c0.6-0.3,1.1-0.5,1.6-0.8c0.1-0.1,0.2-0.1,0.3-0.2c0.4-0.2,0.8-0.4,1.1-0.7c0.2-0.1,0.3-0.2,0.5-0.3c0.3-0.2,0.6-0.4,0.8-0.6
			c0.1-0.1,0.3-0.2,0.4-0.3c0.3-0.2,0.5-0.5,0.7-0.7c0.1-0.1,0.2-0.2,0.3-0.3c0.3-0.3,0.6-0.7,0.8-1v9.4H86.4z M86.4,52.7
			c0,5.9-12.2,10.9-26.6,10.9s-26.6-5-26.6-10.9v-9.4c0.2,0.3,0.5,0.7,0.8,1c0.1,0.1,0.2,0.2,0.3,0.3c0.2,0.2,0.5,0.5,0.7,0.7
			c0.1,0.1,0.3,0.2,0.4,0.3c0.3,0.2,0.6,0.4,0.9,0.6c0.2,0.1,0.3,0.2,0.5,0.3c0.4,0.2,0.7,0.5,1.1,0.7c0.1,0.1,0.2,0.1,0.3,0.2
			c0.5,0.3,1.1,0.5,1.6,0.8c0.1,0.1,0.3,0.1,0.5,0.2c0.4,0.2,0.9,0.4,1.4,0.5c0.2,0.1,0.4,0.2,0.7,0.2c0.4,0.1,0.9,0.3,1.3,0.4
			c0.2,0.1,0.5,0.1,0.7,0.2c0.5,0.1,1,0.3,1.5,0.4c0.2,0,0.4,0.1,0.6,0.2c0.7,0.2,1.5,0.3,2.2,0.5c0.1,0,0.3,0,0.4,0.1
			c0.6,0.1,1.3,0.2,1.9,0.3c0.3,0,0.5,0.1,0.8,0.1c0.6,0.1,1.1,0.1,1.7,0.2c0.3,0,0.6,0.1,0.9,0.1c0.6,0,1.2,0.1,1.8,0.1
			c0.3,0,0.5,0,0.8,0c0.9,0,1.8,0.1,2.7,0.1s1.8,0,2.7-0.1c0.3,0,0.5,0,0.8,0c0.6,0,1.2-0.1,1.8-0.1c0.3,0,0.6-0.1,0.9-0.1
			c0.6-0.1,1.1-0.1,1.7-0.2c0.3,0,0.5-0.1,0.8-0.1c0.7-0.1,1.3-0.2,1.9-0.3c0.1,0,0.3,0,0.4-0.1c0.8-0.1,1.5-0.3,2.2-0.5
			c0.2,0,0.4-0.1,0.6-0.2c0.5-0.1,1-0.3,1.5-0.4c0.2-0.1,0.5-0.1,0.7-0.2c0.4-0.1,0.9-0.3,1.3-0.4c0.2-0.1,0.5-0.2,0.7-0.2
			c0.5-0.2,0.9-0.3,1.3-0.5c0.2-0.1,0.3-0.1,0.5-0.2c0.6-0.3,1.1-0.5,1.6-0.8c0.1-0.1,0.2-0.1,0.3-0.2c0.4-0.2,0.8-0.4,1.1-0.7
			c0.2-0.1,0.3-0.2,0.5-0.3c0.3-0.2,0.6-0.4,0.8-0.6c0.1-0.1,0.3-0.2,0.4-0.3c0.3-0.2,0.5-0.5,0.7-0.7c0.1-0.1,0.2-0.2,0.3-0.3
			c0.3-0.3,0.6-0.7,0.8-1v9.4H86.4z M86.3,40.7c-0.2,0.7-0.6,1.4-1.1,2.1c-0.8,1-1.9,2-3.4,2.9c-1,0.6-2.1,1.1-3.3,1.6
			c-4.8,2-11.5,3.2-18.7,3.2s-13.9-1.3-18.7-3.2c-1.2-0.5-2.3-1-3.3-1.6c-1.5-0.9-2.6-1.8-3.4-2.9c-0.5-0.7-0.9-1.4-1.1-2.1
			c-0.1-0.4-0.1-0.7-0.1-1.1c0-5.9,12.2-10.9,26.6-10.9s26.6,5,26.6,10.9C86.4,40,86.4,40.3,86.3,40.7z"/>
	</g>
</g>
<g>
	<g>
		<path class="st4" d="M53.4,43.3c-0.2,0.2-0.5,0.5-0.8,0.7c-0.1,0.1-0.3,0.2-0.4,0.3c-0.3,0.2-0.6,0.4-0.9,0.6
			c-0.1,0.1-0.3,0.2-0.4,0.3c-0.4,0.2-0.8,0.5-1.2,0.7c-0.1,0-0.2,0.1-0.3,0.2c-0.5,0.3-1.1,0.5-1.7,0.8c-0.1,0.1-0.2,0.1-0.4,0.2
			c-0.5,0.2-0.9,0.4-1.4,0.6c-0.2,0.1-0.4,0.1-0.6,0.2c-0.5,0.2-0.9,0.3-1.4,0.5c-0.2,0.1-0.4,0.1-0.6,0.2c-0.5,0.2-1.1,0.3-1.7,0.4
			c-0.2,0-0.3,0.1-0.5,0.1c-0.7,0.2-1.5,0.3-2.3,0.5c-0.1,0-0.2,0-0.2,0c-0.7,0.1-1.4,0.2-2.1,0.3C36.2,50,36,50,35.8,50
			c-0.6,0.1-1.2,0.1-1.8,0.2c-0.3,0-0.5,0-0.8,0.1c-0.6,0.1-1.3,0.1-1.9,0.1c-0.2,0-0.4,0-0.7,0c-0.9,0-1.8,0.1-2.7,0.1
			c-0.9,0-1.8,0-2.7-0.1c-0.2,0-0.5,0-0.7,0c-0.6,0-1.3-0.1-1.9-0.1c-0.3,0-0.6,0-0.8-0.1c-0.6-0.1-1.2-0.1-1.7-0.2
			c-0.3,0-0.5-0.1-0.8-0.1c-0.7-0.1-1.4-0.2-2-0.3c-0.1,0-0.2,0-0.3-0.1c-0.8-0.1-1.5-0.3-2.3-0.5c-0.2,0-0.4-0.1-0.6-0.1
			c-0.5-0.1-1.1-0.3-1.6-0.4c-0.2-0.1-0.5-0.1-0.7-0.2c-0.5-0.1-0.9-0.3-1.3-0.4c-0.2-0.1-0.4-0.2-0.7-0.2c-0.5-0.2-0.9-0.4-1.4-0.5
			C8.3,47.1,8.1,47,8,46.9c-0.6-0.3-1.1-0.5-1.6-0.8C6.2,46.1,6.1,46,6,46c-0.4-0.2-0.8-0.5-1.2-0.7c-0.2-0.1-0.3-0.2-0.4-0.3
			c-0.3-0.2-0.6-0.4-0.9-0.6c-0.1-0.1-0.3-0.2-0.4-0.3c-0.3-0.2-0.5-0.5-0.8-0.7c-0.1-0.1-0.2-0.2-0.3-0.3c-0.3-0.3-0.6-0.7-0.8-1
			v9.4c0,5.9,12.2,10.9,26.6,10.9s26.6-5,26.6-10.9V42c-0.2,0.3-0.5,0.7-0.8,1C53.5,43.1,53.4,43.2,53.4,43.3z"/>
		<path class="st4" d="M53.3,56.4c-0.2,0.2-0.5,0.5-0.7,0.7c-0.1,0.1-0.3,0.2-0.4,0.3c-0.3,0.2-0.6,0.4-0.8,0.6
			c-0.2,0.1-0.3,0.2-0.5,0.3c-0.4,0.2-0.7,0.4-1.1,0.7c-0.1,0.1-0.2,0.1-0.3,0.2c-0.5,0.3-1.1,0.5-1.6,0.8c-0.1,0.1-0.3,0.1-0.5,0.2
			c-0.4,0.2-0.9,0.4-1.3,0.5c-0.2,0.1-0.4,0.2-0.7,0.2c-0.4,0.1-0.9,0.3-1.3,0.4c-0.2,0.1-0.5,0.1-0.7,0.2c-0.5,0.1-1,0.3-1.5,0.4
			c-0.2,0.1-0.4,0.1-0.6,0.2c-0.7,0.2-1.5,0.3-2.2,0.5c-0.1,0-0.3,0-0.4,0.1c-0.6,0.1-1.3,0.2-1.9,0.3c-0.3,0-0.5,0.1-0.8,0.1
			c-0.5,0.1-1.1,0.1-1.7,0.2c-0.3,0-0.6,0.1-0.9,0.1c-0.6,0-1.2,0.1-1.8,0.1c-0.3,0-0.5,0-0.8,0c-0.9,0-1.8,0.1-2.7,0.1
			s-1.8,0-2.7-0.1c-0.3,0-0.5,0-0.8,0c-0.6,0-1.2-0.1-1.8-0.1c-0.3,0-0.6-0.1-0.9-0.1c-0.6-0.1-1.1-0.1-1.7-0.2
			c-0.3,0-0.5-0.1-0.8-0.1c-0.7-0.1-1.3-0.2-1.9-0.3c-0.1,0-0.3,0-0.4-0.1c-0.8-0.1-1.5-0.3-2.2-0.5c-0.2,0-0.4-0.1-0.6-0.2
			c-0.5-0.1-1-0.3-1.5-0.4c-0.2-0.1-0.5-0.1-0.7-0.2c-0.4-0.1-0.9-0.3-1.3-0.4c-0.2-0.1-0.4-0.2-0.7-0.2c-0.5-0.2-0.9-0.4-1.4-0.5
			C8.3,60.1,8.1,60.1,8,60c-0.6-0.3-1.1-0.5-1.6-0.8C6.2,59.1,6.1,59.1,6,59c-0.4-0.2-0.8-0.4-1.1-0.7c-0.2-0.1-0.3-0.2-0.5-0.3
			c-0.3-0.2-0.6-0.4-0.9-0.6c-0.1-0.1-0.3-0.2-0.4-0.3c-0.3-0.2-0.5-0.5-0.7-0.7c-0.1-0.1-0.2-0.2-0.3-0.3c-0.3-0.3-0.6-0.7-0.8-1
			v9.4c0,5.9,12.2,10.9,26.6,10.9s26.6-5,26.6-10.9v-9.4c-0.2,0.3-0.5,0.7-0.8,1C53.5,56.2,53.4,56.3,53.3,56.4z"/>
		<path class="st4" d="M53.3,30.3c-0.2,0.2-0.5,0.5-0.7,0.7c-0.1,0.1-0.3,0.2-0.4,0.3c-0.3,0.2-0.6,0.4-0.8,0.6
			c-0.2,0.1-0.3,0.2-0.5,0.3c-0.4,0.2-0.7,0.4-1.1,0.7c-0.1,0.1-0.2,0.1-0.3,0.2c-0.5,0.3-1.1,0.5-1.6,0.8c-0.1,0.1-0.3,0.1-0.5,0.2
			c-0.4,0.2-0.9,0.4-1.3,0.5c-0.2,0.1-0.4,0.2-0.7,0.2c-0.4,0.1-0.9,0.3-1.3,0.4c-0.2,0.1-0.5,0.1-0.7,0.2c-0.5,0.1-1,0.3-1.5,0.4
			c-0.2,0.1-0.4,0.1-0.6,0.2c-0.7,0.2-1.5,0.3-2.2,0.5c-0.1,0-0.3,0-0.4,0.1c-0.6,0.1-1.3,0.2-1.9,0.3c-0.3,0-0.5,0.1-0.8,0.1
			c-0.5,0.1-1.1,0.1-1.7,0.2c-0.3,0-0.6,0.1-0.9,0.1c-0.6,0-1.2,0.1-1.8,0.1c-0.3,0-0.5,0-0.8,0c-0.9,0-1.8,0.1-2.7,0.1
			s-1.8,0-2.7-0.1c-0.3,0-0.5,0-0.8,0c-0.6,0-1.2-0.1-1.8-0.1c-0.3,0-0.6-0.1-0.9-0.1C21.1,37.1,20.6,37,20,37
			c-0.3,0-0.5-0.1-0.8-0.1c-0.7-0.1-1.3-0.2-1.9-0.3c-0.1,0-0.3,0-0.4-0.1c-0.8-0.1-1.5-0.3-2.2-0.5c-0.2,0-0.4-0.1-0.6-0.2
			c-0.5-0.1-1-0.3-1.5-0.4c-0.2-0.1-0.5-0.1-0.7-0.2c-0.4-0.1-0.9-0.3-1.3-0.4c-0.2-0.1-0.4-0.2-0.7-0.2c-0.5-0.2-0.9-0.4-1.4-0.5
			C8.3,34,8.1,33.9,8,33.9c-0.6-0.3-1.1-0.5-1.6-0.8C6.2,33,6.1,33,6,32.9c-0.4-0.2-0.8-0.4-1.1-0.7c-0.2-0.1-0.3-0.2-0.5-0.3
			c-0.3-0.2-0.6-0.4-0.9-0.6c-0.1-0.1-0.3-0.2-0.4-0.3c-0.3-0.2-0.5-0.5-0.7-0.7c-0.1-0.1-0.2-0.2-0.3-0.3c-0.3-0.3-0.6-0.7-0.8-1
			v9.4c0,5.9,12.2,10.9,26.6,10.9s26.6-5,26.6-10.9V29c-0.2,0.3-0.5,0.7-0.8,1C53.5,30.1,53.4,30.2,53.3,30.3z"/>
		<path class="st4" d="M53.3,17.2c-0.2,0.2-0.5,0.5-0.7,0.7c-0.1,0.1-0.3,0.2-0.4,0.3c-0.3,0.2-0.6,0.4-0.8,0.6
			c-0.2,0.1-0.3,0.2-0.5,0.3c-0.4,0.2-0.7,0.4-1.1,0.7c-0.1,0.1-0.2,0.1-0.3,0.2c-0.5,0.3-1.1,0.5-1.6,0.8c-0.1,0.1-0.3,0.1-0.5,0.2
			c-0.4,0.2-0.9,0.4-1.3,0.5c-0.2,0.1-0.4,0.2-0.7,0.2c-0.4,0.1-0.9,0.3-1.3,0.4c-0.2,0.1-0.5,0.1-0.7,0.2c-0.5,0.1-1,0.3-1.5,0.4
			c-0.2,0.1-0.4,0.1-0.6,0.2c-0.7,0.2-1.5,0.3-2.2,0.5c-0.1,0-0.3,0-0.4,0.1c-0.6,0.1-1.3,0.2-1.9,0.3c-0.3,0-0.5,0.1-0.8,0.1
			c-0.9,0.1-1.4,0.1-2,0.2c-0.3,0-0.6,0.1-0.9,0.1c-0.6,0-1.2,0.1-1.8,0.1c-0.3,0-0.5,0-0.8,0c-0.9,0-1.8,0.1-2.7,0.1
			s-1.8,0-2.7-0.1c-0.3,0-0.5,0-0.8,0c-0.6,0-1.2-0.1-1.8-0.1c-0.3,0-0.6-0.1-0.9-0.1c-0.5-0.1-1-0.1-1.6-0.2
			c-0.3,0-0.5-0.1-0.8-0.1c-0.7-0.1-1.3-0.2-1.9-0.3c-0.1,0-0.3,0-0.4-0.1c-0.8-0.1-1.5-0.3-2.2-0.5c-0.2,0-0.4-0.1-0.6-0.2
			c-0.5-0.1-1-0.3-1.5-0.4c-0.2-0.1-0.5-0.1-0.7-0.2c-0.4-0.1-0.9-0.3-1.3-0.4c-0.2-0.1-0.4-0.2-0.7-0.2C9.4,21.3,9,21.1,8.5,21
			c-0.2-0.1-0.3-0.1-0.5-0.2c-0.6-0.3-1.1-0.5-1.6-0.8c-0.2,0-0.3-0.1-0.4-0.2c-0.4-0.2-0.8-0.4-1.1-0.7c-0.2-0.1-0.3-0.2-0.5-0.3
			c-0.3-0.2-0.6-0.4-0.9-0.6c-0.1-0.1-0.3-0.2-0.4-0.3c-0.3-0.2-0.5-0.5-0.7-0.7c-0.1-0.1-0.2-0.2-0.3-0.3c-0.3-0.3-0.6-0.7-0.8-1
			v9.4c0,5.9,12.2,10.9,26.6,10.9s26.6-5,26.6-10.9v-9.4c-0.2,0.3-0.5,0.7-0.8,1C53.5,17,53.4,17.1,53.3,17.2z"/>
		<path class="st4" d="M27.9,1.3c-14.4,0-26.6,5-26.6,10.9c0,0.4,0,0.7,0.1,1.1C1.6,14,2,14.7,2.5,15.4c0.8,1,1.9,2,3.4,2.9
			c1,0.6,2.1,1.1,3.3,1.6c4.9,2,11.5,3.2,18.7,3.2s13.9-1.3,18.7-3.2c1.2-0.5,2.3-1,3.3-1.6c1.5-0.9,2.6-1.8,3.4-2.9
			c0.5-0.7,0.9-1.4,1.1-2.1c0.1-0.4,0.1-0.7,0.1-1.1C54.5,6.3,42.3,1.3,27.9,1.3z"/>
		<path class="st2" d="M27.9,0C12.2,0,0,5.4,0,12.2v13.1v13.1v13.1v13.1c0,6.8,12.2,12.2,27.9,12.2c15.6,0,27.9-5.4,27.9-12.2V51.4
			V38.3v-13V12.2C55.7,5.4,43.5,0,27.9,0z M54.5,64.4c0,5.9-12.2,10.9-26.6,10.9s-26.6-5-26.6-10.9V55c0.2,0.3,0.5,0.7,0.8,1
			c0.1,0.1,0.2,0.2,0.3,0.3c0.2,0.2,0.5,0.5,0.7,0.7c0.1,0.1,0.3,0.2,0.4,0.3c0.3,0.2,0.6,0.4,0.9,0.6c0.2,0.1,0.3,0.2,0.5,0.3
			C5.2,58.6,5.6,58.8,6,59c0.1,0.1,0.2,0.1,0.3,0.2C6.9,59.5,7.4,59.7,8,60c0.1,0.1,0.3,0.1,0.5,0.2c0.4,0.2,0.9,0.4,1.4,0.5
			c0.2,0.1,0.4,0.2,0.7,0.2c0.4,0.1,0.9,0.3,1.3,0.4c0.2,0.1,0.5,0.1,0.7,0.2c0.5,0.1,1,0.3,1.5,0.4c0.2,0,0.4,0.1,0.6,0.2
			c0.7,0.2,1.5,0.3,2.2,0.5c0.1,0,0.3,0,0.4,0.1c0.6,0.1,1.3,0.2,1.9,0.3c0.3,0,0.5,0.1,0.8,0.1c0.6,0.1,1.1,0.1,1.7,0.2
			c0.3,0,0.6,0.1,0.9,0.1c0.6,0,1.2,0.1,1.8,0.1c0.3,0,0.5,0,0.8,0c0.9,0,1.8,0.1,2.7,0.1s1.8,0,2.7-0.1c0.3,0,0.5,0,0.8,0
			c0.6,0,1.2-0.1,1.8-0.1c0.3,0,0.6-0.1,0.9-0.1c0.6-0.1,1.1-0.1,1.7-0.2c0.3,0,0.5-0.1,0.8-0.1c0.7-0.1,1.3-0.2,1.9-0.3
			c0.1,0,0.3,0,0.4-0.1c0.8-0.1,1.5-0.3,2.2-0.5c0.2,0,0.4-0.1,0.6-0.2c0.5-0.1,1-0.3,1.5-0.4c0.2-0.1,0.5-0.1,0.7-0.2
			c0.4-0.1,0.9-0.3,1.3-0.4c0.2-0.1,0.5-0.2,0.7-0.2c0.5-0.2,0.9-0.3,1.3-0.5c0.2-0.1,0.3-0.1,0.5-0.2c0.6-0.3,1.1-0.5,1.6-0.8
			c0.1-0.1,0.2-0.1,0.3-0.2c0.4-0.2,0.8-0.4,1.1-0.7c0.2-0.1,0.3-0.2,0.5-0.3c0.3-0.2,0.6-0.4,0.8-0.6c0.1-0.1,0.3-0.2,0.4-0.3
			c0.3-0.2,0.5-0.5,0.7-0.7c0.1-0.1,0.2-0.2,0.3-0.3c0.3-0.3,0.6-0.7,0.8-1v9.3H54.5z M54.5,51.4c0,5.9-12.2,10.9-26.6,10.9
			s-26.6-5-26.6-10.9V42c0.2,0.3,0.5,0.7,0.8,1c0.1,0.1,0.2,0.2,0.3,0.3c0.2,0.2,0.5,0.5,0.8,0.7c0.1,0.1,0.3,0.2,0.4,0.3
			c0.3,0.2,0.6,0.4,0.9,0.6c0.1,0.1,0.3,0.2,0.4,0.3C5.2,45.5,5.6,45.7,6,46c0.1,0.1,0.2,0.1,0.3,0.2c0.5,0.3,1.1,0.5,1.6,0.8
			c0.1,0.1,0.3,0.1,0.4,0.2c0.4,0.2,0.9,0.4,1.4,0.5c0.2,0.1,0.4,0.2,0.7,0.2c0.4,0.2,0.9,0.3,1.3,0.4c0.2,0.1,0.5,0.1,0.7,0.2
			c0.5,0.1,1,0.3,1.6,0.4c0.2,0,0.4,0.1,0.6,0.1c0.7,0.2,1.5,0.3,2.3,0.5c0.1,0,0.2,0,0.3,0.1c0.7,0.1,1.3,0.2,2,0.3
			c0.3,0,0.5,0.1,0.8,0.1c0.6,0.1,1.2,0.1,1.7,0.2c0.3,0,0.6,0.1,0.8,0.1c0.6,0.1,1.3,0.1,1.9,0.1c0.2,0,0.5,0,0.7,0
			c0.9,0,1.8,0.1,2.7,0.1c0.9,0,1.8,0,2.7-0.1c0.2,0,0.5,0,0.7,0c0.7,0,1.3-0.1,1.9-0.1c0.3,0,0.5,0,0.8-0.1
			c0.6-0.1,1.2-0.1,1.8-0.2c0.2,0,0.5-0.1,0.7-0.1c0.7-0.1,1.4-0.2,2.1-0.3c0.1,0,0.2,0,0.2,0c0.8-0.1,1.5-0.3,2.3-0.5
			c0.2,0,0.3-0.1,0.5-0.1c0.6-0.1,1.1-0.3,1.7-0.4c0.2-0.1,0.4-0.1,0.6-0.2c0.5-0.1,0.9-0.3,1.4-0.5c0.2-0.1,0.4-0.1,0.6-0.2
			c0.5-0.2,1-0.4,1.4-0.6c0.1-0.1,0.2-0.1,0.4-0.2c0.6-0.3,1.1-0.5,1.7-0.8c0.1,0,0.2-0.1,0.3-0.2c0.4-0.2,0.8-0.5,1.2-0.7
			c0.1-0.1,0.3-0.2,0.4-0.3c0.3-0.2,0.6-0.4,0.9-0.6c0.1-0.1,0.3-0.2,0.4-0.3c0.3-0.2,0.5-0.5,0.8-0.7c0.1-0.1,0.2-0.2,0.3-0.3
			c0.3-0.3,0.6-0.7,0.8-1L54.5,51.4L54.5,51.4z M54.5,38.3c0,5.9-12.2,10.9-26.6,10.9s-26.6-5-26.6-10.9v-9.4c0.2,0.3,0.5,0.7,0.8,1
			c0.1,0.1,0.2,0.2,0.3,0.3c0.2,0.2,0.5,0.5,0.7,0.7c0.1,0.1,0.3,0.2,0.4,0.3c0.3,0.2,0.6,0.4,0.9,0.6c0.2,0.1,0.3,0.2,0.5,0.3
			c0.4,0.2,0.7,0.5,1.1,0.7C6.1,33,6.2,33,6.4,33.1c0.5,0.3,1.1,0.5,1.6,0.8C8.1,34,8.3,34,8.5,34.1c0.4,0.2,0.9,0.4,1.4,0.5
			c0.2,0.1,0.4,0.2,0.7,0.2c0.4,0.1,0.9,0.3,1.3,0.4c0.2,0.1,0.5,0.1,0.7,0.2c0.5,0.1,1,0.3,1.5,0.4c0.2,0,0.4,0.1,0.6,0.2
			c0.7,0.2,1.5,0.3,2.2,0.5c0.1,0,0.3,0,0.4,0.1c0.6,0.1,1.3,0.2,1.9,0.3c0.3,0,0.5,0.1,0.8,0.1c0.6,0.1,1.1,0.1,1.7,0.2
			c0.3,0,0.6,0.1,0.9,0.1c0.6,0,1.2,0.1,1.8,0.1c0.3,0,0.5,0,0.8,0c0.9,0,1.8,0.1,2.7,0.1s1.8,0,2.7-0.1c0.3,0,0.5,0,0.8,0
			c0.6,0,1.2-0.1,1.8-0.1c0.3,0,0.6-0.1,0.9-0.1c0.6-0.1,1.1-0.1,1.7-0.2c0.3,0,0.5-0.1,0.8-0.1c0.7-0.1,1.3-0.2,1.9-0.3
			c0.1,0,0.3,0,0.4-0.1c0.8-0.1,1.5-0.3,2.2-0.5c0.2,0,0.4-0.1,0.6-0.2c0.5-0.1,1-0.3,1.5-0.4c0.2-0.1,0.5-0.1,0.7-0.2
			c0.4-0.1,0.9-0.3,1.3-0.4c0.2-0.1,0.5-0.2,0.7-0.2c0.5-0.2,0.9-0.3,1.3-0.5c0.2-0.1,0.3-0.1,0.5-0.2c0.6-0.3,1.1-0.5,1.6-0.8
			c0.1-0.1,0.2-0.1,0.3-0.2c0.4-0.2,0.8-0.4,1.1-0.7c0.2-0.1,0.3-0.2,0.5-0.3c0.3-0.2,0.6-0.4,0.8-0.6c0.1-0.1,0.3-0.2,0.4-0.3
			c0.3-0.2,0.5-0.5,0.7-0.7c0.1-0.1,0.2-0.2,0.3-0.3c0.3-0.3,0.6-0.7,0.8-1v9.3H54.5z M54.5,25.3c0,5.9-12.2,10.9-26.6,10.9
			s-26.6-5-26.6-10.9v-9.4c0.2,0.3,0.5,0.7,0.8,1c0.1,0.1,0.2,0.2,0.3,0.3c0.2,0.2,0.5,0.5,0.7,0.7c0.1,0.1,0.3,0.2,0.4,0.3
			c0.3,0.2,0.6,0.4,0.9,0.6c0.2,0.1,0.3,0.2,0.5,0.3c0.4,0.2,0.7,0.5,1.1,0.7C6.1,19.9,6.2,20,6.4,20c0.5,0.3,1.1,0.5,1.6,0.8
			c0.1,0.1,0.3,0.1,0.5,0.2c0.4,0.2,0.9,0.4,1.4,0.5c0.2,0.1,0.4,0.2,0.7,0.2c0.4,0.1,0.9,0.3,1.3,0.4c0.2,0.1,0.5,0.1,0.7,0.2
			c0.5,0.1,1,0.3,1.5,0.4c0.2,0,0.4,0.1,0.6,0.2c0.7,0.2,1.5,0.3,2.2,0.5c0.1,0,0.3,0,0.4,0.1c0.6,0.1,1.3,0.2,1.9,0.3
			c0.3,0,0.5,0.1,0.8,0.1c0.6,0.1,1.1,0.1,1.7,0.2c0.3,0,0.6,0.1,0.9,0.1c0.6,0,1.2,0.1,1.8,0.1c0.3,0,0.5,0,0.8,0
			c0.9,0,1.8,0.1,2.7,0.1s1.8,0,2.7-0.1c0.3,0,0.5,0,0.8,0c0.6,0,1.2-0.1,1.8-0.1c0.3,0,0.6-0.1,0.9-0.1c0.6-0.1,1.1-0.1,1.7-0.2
			c0.3,0,0.5-0.1,0.8-0.1c0.7-0.1,1.3-0.2,1.9-0.3c0.1,0,0.3,0,0.4-0.1c0.8-0.1,1.5-0.3,2.2-0.5c0.2,0,0.4-0.1,0.6-0.2
			c0.5-0.1,1-0.3,1.5-0.4c0.2-0.1,0.5-0.1,0.7-0.2c0.4-0.1,0.9-0.3,1.3-0.4c0.2-0.1,0.5-0.2,0.7-0.2c0.5-0.2,0.9-0.3,1.3-0.5
			c0.2-0.1,0.3-0.1,0.5-0.2c0.6-0.3,1.1-0.5,1.6-0.8c0.1-0.1,0.2-0.1,0.3-0.2c0.4-0.2,0.8-0.4,1.1-0.7c0.2-0.1,0.3-0.2,0.5-0.3
			c0.3-0.2,0.6-0.4,0.8-0.6c0.1-0.1,0.3-0.2,0.4-0.3c0.3-0.2,0.5-0.5,0.7-0.7c0.1-0.1,0.2-0.2,0.3-0.3c0.3-0.3,0.6-0.7,0.8-1v9.4
			H54.5z M54.3,13.3c-0.2,0.7-0.6,1.4-1.1,2.1c-0.8,1-1.9,2-3.4,2.9c-1,0.6-2.1,1.1-3.3,1.6c-4.8,2-11.5,3.2-18.7,3.2
			s-13.9-1.3-18.7-3.2c-1.2-0.5-2.3-1-3.3-1.6c-1.5-0.9-2.6-1.8-3.4-2.9c-0.5-0.7-0.9-1.4-1.1-2.1c-0.1-0.4-0.1-0.7-0.1-1.1
			c0-5.9,12.2-10.9,26.6-10.9s26.6,5,26.6,10.9C54.5,12.6,54.4,12.9,54.3,13.3z"/>
	</g>
</g>
</svg>
