<?xml version="1.0" encoding="utf-8"?>
<!-- Generator: Adobe Illustrator 22.1.0, SVG Export Plug-In . SVG Version: 6.00 Build 0)  -->
<svg version="1.1" id="Layer_1" xmlns="http://www.w3.org/2000/svg" xmlns:xlink="http://www.w3.org/1999/xlink" x="0px" y="0px"
	 viewBox="0 0 79.2 98.2" style="enable-background:new 0 0 79.2 98.2;" xml:space="preserve">
<style type="text/css">
	.st0{display:none;}
	.st1{display:inline;}
	.st2{fill:#FFFFFF;}
	.st3{fill:#4B4B4B;}
	.st4{fill:#175C85;}
	.st5{fill:#FFFFFF;stroke:#FFFFFF;stroke-width:2;stroke-miterlimit:10;}
</style>
<g class="st0">
	<g class="st1">
		<path class="st2" d="M24.4,24c-0.2,0.2-0.5,0.5-0.8,0.7c-0.1,0.1-0.3,0.2-0.4,0.3c-0.3,0.2-0.6,0.4-0.9,0.6
			c-0.1,0.1-0.3,0.2-0.4,0.3c-0.4,0.2-0.8,0.5-1.2,0.7c-0.1,0-0.2,0.1-0.3,0.2c-0.5,0.3-1.1,0.5-1.7,0.8c-0.1,0.1-0.2,0.1-0.4,0.2
			c-0.5,0.2-0.9,0.4-1.4,0.6c-0.2,0.1-0.4,0.1-0.6,0.2c-0.5,0.2-0.9,0.3-1.4,0.5c-0.2,0.1-0.4,0.1-0.6,0.2c-0.5,0.2-1.1,0.3-1.7,0.4
			c-0.2,0-0.3,0.1-0.5,0.1c-0.7,0.2-1.5,0.3-2.3,0.5c-0.1,0-0.2,0-0.2,0c-0.7,0.1-1.4,0.2-2.1,0.3c-0.2,0-0.5,0.1-0.7,0.1
			c-0.6,0.1-1.2,0.1-1.8,0.2c-0.3,0-0.5,0-0.8,0.1c-0.6,0.1-1.3,0.1-1.9,0.1c-0.2,0-0.4,0-0.7,0c-0.9,0-1.8,0.1-2.7,0.1
			s-1.8,0-2.7-0.1c-0.2,0-0.5,0-0.7,0c-0.6,0-1.3-0.1-1.9-0.1c-0.3,0-0.6,0-0.8-0.1c-0.6-0.1-1.2-0.1-1.7-0.2
			c-0.3,0-0.5-0.1-0.8-0.1c-0.7-0.1-1.4-0.2-2-0.3c-0.1,0-0.2,0-0.3-0.1c-0.8-0.1-1.5-0.3-2.3-0.5c-0.2,0-0.4-0.1-0.6-0.1
			c-0.5-0.1-1.1-0.3-1.6-0.4c-0.2-0.1-0.5-0.1-0.7-0.2c-0.5-0.1-0.9-0.3-1.3-0.4c-0.2-0.1-0.4-0.2-0.7-0.2c-0.5-0.2-0.9-0.4-1.4-0.5
			c-0.1-0.1-0.3-0.1-0.4-0.2c-0.6-0.3-1.1-0.5-1.6-0.8c-0.1-0.1-0.2-0.1-0.3-0.2c-0.4-0.2-0.8-0.5-1.2-0.7c-0.2-0.1-0.3-0.2-0.4-0.3
			c-0.3-0.2-0.6-0.4-0.9-0.6c-0.1-0.1-0.3-0.2-0.4-0.3c-0.3-0.2-0.5-0.5-0.8-0.7c-0.1-0.1-0.2-0.2-0.3-0.3c-0.3-0.3-0.6-0.7-0.8-1
			v9.4C-27.7,38-15.5,43-1.1,43s26.6-5,26.6-10.9v-9.4c-0.2,0.3-0.5,0.7-0.8,1C24.6,23.8,24.5,23.9,24.4,24z"/>
		<path class="st2" d="M24.3,37.1c-0.2,0.2-0.5,0.5-0.7,0.7c-0.1,0.1-0.3,0.2-0.4,0.3c-0.3,0.2-0.6,0.4-0.8,0.6
			c-0.2,0.1-0.3,0.2-0.5,0.3c-0.4,0.2-0.7,0.4-1.1,0.7c-0.1,0.1-0.2,0.1-0.3,0.2c-0.5,0.3-1.1,0.5-1.6,0.8c-0.1,0.1-0.3,0.1-0.5,0.2
			c-0.4,0.2-0.9,0.4-1.3,0.5c-0.2,0.1-0.4,0.2-0.7,0.2c-0.4,0.1-0.9,0.3-1.3,0.4c-0.2,0.1-0.5,0.1-0.7,0.2c-0.5,0.1-1,0.3-1.5,0.4
			c-0.2,0.1-0.4,0.1-0.6,0.2c-0.7,0.2-1.5,0.3-2.2,0.5c-0.1,0-0.3,0-0.4,0.1c-0.6,0.1-1.3,0.2-1.9,0.3c-0.3,0-0.5,0.1-0.8,0.1
			c-0.8,0-1.4,0.1-2,0.2c-0.3,0-0.6,0-0.9,0c-0.6,0-1.2,0.1-1.8,0.1c-0.3,0-0.5,0-0.8,0c-0.9,0-1.8,0.1-2.7,0.1s-1.8,0-2.7-0.1
			c-0.3,0-0.5,0-0.8,0c-0.6,0-1.2-0.1-1.8-0.1c-0.2,0-0.5,0-0.8,0c-0.6-0.1-1.1-0.1-1.7-0.2c-0.3,0-0.5-0.1-0.8-0.1
			c-0.7-0.1-1.3-0.2-1.9-0.3c-0.1,0-0.3,0-0.4-0.1c-0.8-0.1-1.5-0.3-2.2-0.5c-0.2,0-0.4-0.1-0.6-0.2c-0.5-0.1-1-0.3-1.5-0.4
			c-0.2-0.1-0.5-0.1-0.7-0.2c-0.4-0.1-0.9-0.3-1.3-0.4c-0.2-0.1-0.4-0.2-0.7-0.2c-0.5-0.2-0.9-0.4-1.4-0.5c-0.2-0.1-0.3-0.1-0.5-0.2
			c-0.6-0.3-1.1-0.5-1.6-0.8c-0.1-0.1-0.2-0.1-0.3-0.2c-0.4-0.2-0.8-0.4-1.1-0.7c-0.2-0.1-0.3-0.2-0.5-0.3c-0.3-0.2-0.6-0.4-0.9-0.6
			c-0.1-0.1-0.3-0.2-0.4-0.3c-0.3-0.2-0.5-0.5-0.7-0.7c-0.1-0.1-0.2-0.2-0.3-0.3c-0.3-0.3-0.6-0.7-0.8-1v9.4
			c0,5.9,12.2,10.9,26.6,10.9s26.6-5,26.6-10.9v-9.4c-0.2,0.3-0.5,0.7-0.8,1C24.6,36.9,24.4,37,24.3,37.1z"/>
		<path class="st2" d="M24.3,11c-0.2,0.2-0.5,0.5-0.7,0.7c-0.1,0.1-0.3,0.2-0.4,0.3c-0.3,0.2-0.6,0.4-0.8,0.6
			c-0.2,0.1-0.3,0.2-0.5,0.3c-0.4,0.2-0.7,0.4-1.1,0.7c-0.1,0.1-0.2,0.1-0.3,0.2c-0.5,0.3-1.1,0.5-1.6,0.8c-0.1,0.1-0.3,0.1-0.5,0.2
			c-0.4,0.2-0.9,0.4-1.3,0.5c-0.2,0.1-0.4,0.2-0.7,0.2c-0.4,0.1-0.9,0.3-1.3,0.4c-0.2,0.1-0.5,0.1-0.7,0.2c-0.5,0.1-1,0.3-1.5,0.4
			c-0.2,0.1-0.4,0.1-0.6,0.2c-0.7,0.2-1.5,0.3-2.2,0.5c-0.1,0-0.3,0-0.4,0.1c-0.6,0.1-1.3,0.2-1.9,0.3c-0.3,0-0.5,0.1-0.8,0.1
			c-0.5,0.1-1.1,0.1-1.7,0.2C5,17.9,4.7,18,4.4,18c-0.9,0-1.4,0-2,0c-0.3,0-0.5,0-0.8,0c-0.9,0-1.8,0.1-2.7,0.1s-1.8,0-2.7-0.1
			c-0.3,0-0.5,0-0.8,0c-0.6,0-1.2-0.1-1.8-0.1c-0.3,0-0.6-0.1-0.9-0.1c-0.6-0.1-1.1-0.1-1.7-0.2c-0.3,0-0.5-0.1-0.8-0.1
			c-0.7-0.1-1.3-0.2-1.9-0.3c-0.1,0-0.3,0-0.4-0.1c-0.8-0.1-1.5-0.3-2.2-0.5c-0.2,0-0.4-0.1-0.6-0.2c-0.5-0.1-1-0.3-1.5-0.4
			c-0.2-0.1-0.5-0.1-0.7-0.2c-0.4-0.1-0.9-0.3-1.3-0.4c-0.2-0.1-0.4-0.2-0.7-0.2c-0.5-0.2-0.9-0.4-1.4-0.5c-0.2-0.1-0.3-0.1-0.5-0.2
			c-0.6-0.3-1.1-0.5-1.6-0.8c-0.1-0.1-0.2-0.1-0.3-0.2c-0.4-0.2-0.8-0.4-1.1-0.7c-0.2-0.1-0.3-0.2-0.5-0.3c-0.3-0.2-0.6-0.4-0.9-0.6
			c-0.1-0.1-0.3-0.2-0.4-0.3c-0.3-0.2-0.5-0.5-0.7-0.7c-0.1-0.1-0.2-0.2-0.3-0.3c-0.3-0.3-0.6-0.7-0.8-1V19
			c0,5.9,12.2,10.9,26.6,10.9s26.6-5,26.6-10.9V9.6c-0.2,0.3-0.5,0.7-0.8,1C24.6,10.8,24.4,10.9,24.3,11z"/>
		<path class="st2" d="M24.3-2.1c-0.2,0.2-0.5,0.5-0.7,0.7c-0.1,0.1-0.3,0.2-0.4,0.3c-0.3,0.2-0.6,0.4-0.8,0.6
			c-0.2,0.1-0.3,0.2-0.5,0.3c-0.4,0.2-0.7,0.4-1.1,0.7c-0.1,0.1-0.2,0.1-0.3,0.2C20,1,19.4,1.2,18.9,1.5c-0.1,0.1-0.3,0.1-0.5,0.2
			c-0.4,0.2-0.9,0.4-1.3,0.5c-0.2,0.1-0.4,0.2-0.7,0.2c-0.4,0.1-0.9,0.3-1.3,0.4C14.7,3,14.5,3,14.3,3.1c-0.5,0.1-1,0.3-1.5,0.4
			c-0.2,0.1-0.4,0.1-0.6,0.2C11.4,3.8,10.7,4,9.9,4.1c-0.1,0-0.3,0-0.4,0.1c-0.7,0.1-1.3,0.2-2,0.3C7.3,4.5,7,4.6,6.7,4.6
			C6.2,4.7,5.6,4.7,5,4.8c-0.3,0-0.6,0.1-0.9,0.1C3.5,4.9,3,4.9,2.4,5C2.1,5,1.8,5,1.5,5C0.6,5-0.3,5.1-1.2,5.1S-3,5.1-3.9,5
			c-0.3,0-0.5,0-0.8,0c-0.6,0-1.2-0.1-1.8-0.1c-0.3,0-0.6-0.1-0.9-0.1C-8,4.7-8.5,4.7-9.1,4.6c-0.3,0-0.5-0.1-0.8-0.1
			c-0.7-0.1-1.3-0.2-1.9-0.3c-0.1,0-0.3,0-0.4-0.1C-13,4-13.7,3.8-14.4,3.6c-0.2,0-0.4-0.1-0.6-0.2c-0.5-0.1-1-0.3-1.5-0.4
			c-0.2,0-0.5,0-0.7-0.1c-0.4-0.1-0.9-0.3-1.3-0.4c-0.2-0.1-0.4-0.2-0.7-0.2c-0.5-0.2-0.9-0.4-1.4-0.5c-0.2-0.1-0.3-0.1-0.5-0.2
			c-0.6-0.3-1.1-0.5-1.6-0.8c-0.1-0.1-0.2-0.1-0.3-0.2c-0.4-0.2-0.8-0.4-1.1-0.7c-0.2-0.1-0.3-0.2-0.5-0.3c-0.3-0.2-0.6-0.4-0.9-0.6
			c-0.1-0.1-0.3-0.2-0.4-0.3c-0.3-0.2-0.5-0.5-0.7-0.7c-0.1-0.1-0.2-0.2-0.3-0.3c-0.3-0.3-0.6-0.7-0.8-1v9.4
			C-27.7,12-15.5,17-1.1,17s26.6-5,26.6-10.9v-9.4c-0.2,0.3-0.5,0.7-0.8,1C24.6-2.3,24.4-2.2,24.3-2.1z"/>
		<path class="st2" d="M-1.1-18.1c-14.4,0-26.6,5-26.6,10.9c0,0.4,0,0.7,0.1,1.1c0.2,0.7,0.6,1.4,1.1,2.1c0.8,1,1.9,2,3.4,2.9
			c1,0.6,2.1,1.1,3.3,1.6c4.9,2,11.5,3.2,18.7,3.2s13.9-1.3,18.7-3.2c1.2-0.5,2.3-1,3.3-1.6C22.4-2,23.5-2.9,24.3-4
			c0.5-0.7,0.9-1.4,1.1-2.1c0.1-0.4,0.1-0.7,0.1-1.1C25.5-13.1,13.3-18.1-1.1-18.1z"/>
		<path class="st3" d="M-1.1-19.3C-16.7-19.3-29-14-29-7.1v13V19v13.1v13.1c0,6.8,12.2,12.2,27.9,12.2c15.6,0,27.9-5.4,27.9-12.2
			V32.1V19V5.9v-13C26.7-14,14.5-19.3-1.1-19.3z M25.5,45.1C25.5,51,13.3,56-1.1,56s-26.6-5-26.6-10.9v-9.4c0.2,0.3,0.5,0.7,0.8,1
			c0.1,0.1,0.2,0.2,0.3,0.3c0.2,0.2,0.5,0.5,0.7,0.7c0.1,0.1,0.3,0.2,0.4,0.3c0.3,0.2,0.6,0.4,0.9,0.6c0.2,0.1,0.3,0.2,0.5,0.3
			c0.4,0.2,0.7,0.5,1.1,0.7c0.1,0.1,0.2,0.1,0.3,0.2c0.5,0.3,1.1,0.5,1.6,0.8c0.1,0.1,0.3,0.1,0.5,0.2c0.4,0.2,0.9,0.4,1.4,0.5
			c0.2,0.1,0.4,0.2,0.7,0.2c0.4,0.1,0.9,0.3,1.3,0.4c0.2,0.1,0.5,0.1,0.7,0.2c0.5,0.1,1,0.3,1.5,0.4c0.2,0,0.4,0.1,0.6,0.2
			c0.7,0.2,1.5,0.3,2.2,0.5c0.1,0,0.3,0,0.4,0.1c0.6,0.1,1.3,0.2,1.9,0.3c0.3,0,0.5,0.1,0.8,0.1c0.6,0.1,1.1,0.1,1.7,0.2
			C-7,44-6.7,44-6.4,44c0.6,0,1.2,0.1,1.8,0.1c0.3,0,0.5,0,0.8,0c0.9,0,1.8,0.1,2.7,0.1s1.8,0,2.7-0.1c0.3,0,0.5,0,0.8,0
			C3,44.1,3.6,44,4.2,44c0.2,0,0.5,0,0.8,0c0.6-0.1,1.1-0.1,1.7-0.2c0.3,0,0.5-0.1,0.8-0.1c0.7-0.1,1.3-0.2,1.9-0.3
			c0.1,0,0.3,0,0.4-0.1c0.8-0.1,1.5-0.3,2.2-0.5c0.2,0,0.4-0.1,0.6-0.2c0.5-0.1,1-0.3,1.5-0.4c0.2-0.1,0.5-0.1,0.7-0.2
			c0.4-0.1,0.9-0.3,1.3-0.4c0.2-0.1,0.5-0.2,0.7-0.2c0.5-0.2,0.9-0.3,1.3-0.5c0.2-0.1,0.3-0.1,0.5-0.2c0.6-0.3,1.1-0.5,1.6-0.8
			c0.1-0.1,0.2-0.1,0.3-0.2c0.4-0.2,0.8-0.4,1.1-0.7c0.2-0.1,0.3-0.2,0.5-0.3c0.3-0.2,0.6-0.4,0.8-0.6c0.1-0.1,0.3-0.2,0.4-0.3
			c0.3-0.2,0.5-0.5,0.7-0.7c0.1-0.1,0.2-0.2,0.3-0.3c0.3-0.3,0.6-0.7,0.8-1v9.3H25.5z M25.5,32.1C25.5,38,13.3,43-1.1,43
			s-26.6-5-26.6-10.9v-9.4c0.2,0.3,0.5,0.7,0.8,1c0.1,0.1,0.2,0.2,0.3,0.3c0.2,0.2,0.5,0.5,0.8,0.7c0.1,0.1,0.3,0.2,0.4,0.3
			c0.3,0.2,0.6,0.4,0.9,0.6c0.1,0.1,0.3,0.2,0.4,0.3c0.4,0.2,0.8,0.5,1.2,0.7c0.1,0.1,0.2,0.1,0.3,0.2c0.5,0.3,1.1,0.5,1.6,0.8
			c0.1,0.1,0.3,0.1,0.4,0.2c0.4,0.2,0.9,0.4,1.4,0.5c0.2,0.1,0.4,0.2,0.7,0.2c0.4,0.2,0.9,0.3,1.3,0.4c0.2,0.1,0.5,0.1,0.7,0.2
			c0.5,0.1,1,0.3,1.6,0.4c0.2,0,0.4,0.1,0.6,0.1c0.7,0.2,1.5,0.3,2.3,0.5c0.1,0,0.2,0,0.3,0.1c0.7,0.1,1.3,0.2,2,0.3
			c0.3,0,0.5,0.1,0.8,0.1c0.6,0.1,1.2,0.1,1.7,0.2c0.3,0,0.6,0.1,0.8,0.1C-5.8,31-5.1,31-4.5,31c0.2,0,0.5,0,0.7,0
			c0.9,0,1.8,0.1,2.7,0.1s1.8,0,2.7-0.1c0.2,0,0.5,0,0.7,0c0.7,0,1.3-0.1,1.9-0.1c0.3,0,0.5,0,0.8-0.1c0.6-0.1,1.2-0.1,1.8-0.2
			c0.2,0,0.5-0.1,0.7-0.1c0.7-0.1,1.4-0.2,2.1-0.3c0.1,0,0.2,0,0.2,0c0.8-0.1,1.5-0.3,2.3-0.5c0.2,0,0.3-0.1,0.5-0.1
			c0.6-0.1,1.1-0.3,1.7-0.4c0.2-0.1,0.4-0.1,0.6-0.2c0.5-0.1,0.9-0.3,1.4-0.5c0.2-0.1,0.4-0.1,0.6-0.2c0.5-0.2,1-0.4,1.4-0.6
			c0.1-0.1,0.2-0.1,0.4-0.2c0.6-0.3,1.1-0.5,1.7-0.8c0.1,0,0.2-0.1,0.3-0.2c0.4-0.2,0.8-0.5,1.2-0.7c0.1-0.1,0.3-0.2,0.4-0.3
			c0.3-0.2,0.6-0.4,0.9-0.6c0.1-0.1,0.3-0.2,0.4-0.3c0.3-0.2,0.5-0.5,0.8-0.7c0.1-0.1,0.2-0.2,0.3-0.3c0.3-0.3,0.6-0.7,0.8-1
			C25.5,22.6,25.5,32.1,25.5,32.1z M25.5,19c0,5.9-12.2,10.9-26.6,10.9s-26.6-5-26.6-10.9V9.6c0.2,0.3,0.5,0.7,0.8,1
			c0.1,0.1,0.2,0.2,0.3,0.3c0.2,0.2,0.5,0.5,0.7,0.7c0.1,0.1,0.3,0.2,0.4,0.3c0.3,0.2,0.6,0.4,0.9,0.6c0.2,0.1,0.3,0.2,0.5,0.3
			c0.4,0.2,0.7,0.5,1.1,0.7c0.1,0.1,0.2,0.1,0.3,0.2c0.5,0.3,1.1,0.5,1.6,0.8c0.1,0.1,0.3,0.1,0.5,0.2c0.4,0.2,0.9,0.4,1.4,0.5
			c0.2,0.1,0.4,0.2,0.7,0.2c0.4,0.1,0.9,0.3,1.3,0.4c0.2,0.1,0.5,0.1,0.7,0.2c0.5,0.1,1,0.3,1.5,0.4c0.2,0,0.4,0.1,0.6,0.2
			c0.7,0.2,1.5,0.3,2.2,0.5c0.1,0,0.3,0,0.4,0.1c0.6,0.1,1.3,0.2,1.9,0.3c0.3,0,0.5,0.1,0.8,0.1c0.6,0.1,1.1,0.1,1.7,0.2
			c0.3,0,0.6,0.1,0.9,0.1c0.6,0,1.2,0.1,1.8,0.1c0.3,0,0.5,0,0.8,0c0.9,0,1.8,0.1,2.7,0.1s1.8,0,2.7-0.1c0.3,0,0.5,0,0.8,0
			c0.7,0,1.2,0,1.8-0.1c0.3,0,0.6-0.1,0.9-0.1c0.6-0.1,1.1-0.1,1.7-0.2c0.3,0,0.5-0.1,0.8-0.1c0.7-0.1,1.3-0.2,1.9-0.3
			c0.1,0,0.3,0,0.4-0.1c0.8-0.1,1.5-0.3,2.2-0.5c0.2,0,0.4-0.1,0.6-0.2c0.5-0.1,1-0.3,1.5-0.4c0.2-0.1,0.5-0.1,0.7-0.2
			c0.4-0.1,0.9-0.3,1.3-0.4c0.2-0.1,0.5-0.2,0.7-0.2c0.5-0.2,0.9-0.3,1.3-0.5c0.2-0.1,0.3-0.1,0.5-0.2c0.6-0.3,1.1-0.5,1.6-0.8
			c0.1-0.1,0.2-0.1,0.3-0.2c0.4-0.2,0.8-0.4,1.1-0.7c0.2-0.1,0.3-0.2,0.5-0.3c0.3-0.2,0.6-0.4,0.8-0.6c0.1-0.1,0.3-0.2,0.4-0.3
			c0.3-0.2,0.5-0.5,0.7-0.7c0.1-0.1,0.2-0.2,0.3-0.3c0.3-0.3,0.6-0.7,0.8-1V19H25.5z M25.5,5.9c0,5.9-12.2,10.9-26.6,10.9
			s-26.6-5-26.6-10.9v-9.4c0.2,0.3,0.5,0.7,0.8,1c0.1,0.1,0.2,0.2,0.3,0.3c0.2,0.2,0.5,0.5,0.7,0.7c0.1,0.1,0.3,0.2,0.4,0.3
			c0.3,0.2,0.6,0.4,0.9,0.6c0.2,0.1,0.3,0.2,0.5,0.3c0.4,0.2,0.7,0.5,1.1,0.7c0.1,0.1,0.2,0.1,0.3,0.2c0.5,0.3,1.1,0.5,1.6,0.8
			c0.1,0.1,0.3,0.1,0.5,0.2c0.4,0.2,0.9,0.4,1.4,0.5c0.2,0.1,0.4,0.2,0.7,0.2c0.4,0.1,0.9,0.3,1.3,0.4C-17,3-16.7,3-16.5,3.1
			c0.5,0.1,1,0.3,1.5,0.4c0.2,0,0.4,0.1,0.6,0.2c0.7,0.2,1.5,0.3,2.2,0.5c0.1,0,0.3,0,0.4,0.1c0.6,0.1,1.3,0.2,1.9,0.3
			c0.3,0,0.5,0.1,0.8,0.1C-8.5,4.8-8,4.8-7.4,4.9C-7.1,4.9-6.8,5-6.5,5c0.6,0,1.2,0.1,1.8,0.1c0.3,0,0.5,0,0.8,0
			c0.9,0,1.8,0.1,2.7,0.1s1.8,0,2.7-0.1c0.3,0,0.5,0,0.8,0C2.9,5.1,3.5,5,4.1,5C4.4,5,4.7,4.9,5,4.9c0.6-0.1,1.1-0.1,1.7-0.2
			c0.3,0,0.5-0.1,0.8-0.1c0.7-0.1,1.3-0.2,1.9-0.3c0.1,0,0.3,0,0.4-0.1c0.8-0.1,1.5-0.3,2.2-0.5c0.2,0,0.4-0.1,0.6-0.2
			c0.5-0.1,1-0.3,1.5-0.4C14.5,3,14.7,3,15,2.9c0.4-0.1,0.9-0.3,1.3-0.4c0.2-0.1,0.5-0.2,0.7-0.2c0.5-0.2,0.9-0.3,1.3-0.5
			c0.2-0.1,0.3-0.1,0.5-0.2c0.6-0.3,1.1-0.5,1.6-0.8c0.1-0.1,0.2-0.1,0.3-0.2c0.4-0.2,0.8-0.4,1.1-0.7c0.2-0.1,0.3-0.2,0.5-0.3
			c0.3-0.2,0.6-0.4,0.8-0.6c0.1-0.1,0.3-0.2,0.4-0.3C23.8-1.5,24-1.8,24.2-2c0.1-0.1,0.2-0.2,0.3-0.3c0.3-0.3,0.6-0.7,0.8-1v9.2
			C25.3,5.9,25.5,5.9,25.5,5.9z M25.4-6c-0.2,0.7-0.6,1.4-1.1,2.1c-0.8,1-1.9,2-3.4,2.9c-1,0.6-2.1,1.1-3.3,1.6
			c-4.8,2-11.5,3.2-18.7,3.2S-15,2.5-19.8,0.6c-1.2-0.5-2.3-1-3.3-1.6c-1.5-0.9-2.6-1.8-3.4-2.9C-27-4.6-27.4-5.3-27.6-6
			c-0.1-0.4-0.1-0.7-0.1-1.1C-27.7-13-15.5-18-1.1-18s26.6,5,26.6,10.9C25.5-6.7,25.4-6.4,25.4-6z"/>
	</g>
	<g class="st1">
		<path class="st2" d="M45.8,43.6c-0.2,0.2-0.5,0.5-0.8,0.7c-0.1,0.1-0.3,0.2-0.4,0.3c-0.3,0.2-0.6,0.4-0.9,0.6
			c-0.1,0.1-0.3,0.2-0.4,0.3c-0.4,0.2-0.8,0.5-1.2,0.7c-0.1,0-0.2,0.1-0.3,0.2c-0.5,0.3-1.1,0.5-1.7,0.8c-0.1,0.1-0.2,0.1-0.4,0.2
			c-0.5,0.2-0.9,0.4-1.4,0.6c-0.2,0.1-0.4,0.1-0.6,0.2c-0.5,0.2-0.9,0.3-1.4,0.5c-0.2,0.1-0.4,0.1-0.6,0.2c-0.5,0.2-1.1,0.3-1.7,0.4
			c-0.2,0-0.3,0.1-0.5,0.1c-0.7,0.2-1.5,0.3-2.3,0.5c-0.1,0-0.2,0-0.2,0c-0.7,0.1-1.4,0.2-2.1,0.3c-0.2,0-0.5,0.1-0.7,0.1
			c-0.6,0.1-1.2,0.1-1.8,0.2c-0.3,0-0.5,0-0.8,0.1c-0.6,0.1-1.3,0.1-1.9,0.1c-0.2,0-0.4,0-0.7,0c-0.9,0-1.8,0.1-2.7,0.1
			c-0.9,0-1.8,0-2.7-0.1c-0.2,0-0.5,0-0.7,0c-0.6,0-1.3-0.1-1.9-0.1c-0.3,0-0.6,0-0.8-0.1c-0.6-0.1-1.2-0.1-1.7-0.2
			c-0.3,0-0.5-0.1-0.8-0.1c-0.7-0.1-1.4-0.2-2-0.3c-0.1,0-0.2,0-0.3-0.1c-0.8-0.1-1.5-0.3-2.3-0.5c-0.2,0-0.4-0.1-0.6-0.1
			c-0.5-0.1-1.1-0.3-1.6-0.4c-0.2-0.1-0.5-0.1-0.7-0.2c-0.5-0.1-0.9-0.3-1.3-0.4C2.7,48.1,2.4,48,2.2,48c-0.5-0.2-0.9-0.4-1.4-0.5
			c-0.1-0.1-0.3-0.1-0.4-0.2c-0.6-0.3-1.1-0.5-1.6-0.8c-0.1-0.1-0.2-0.1-0.3-0.2c-0.4-0.2-0.8-0.5-1.2-0.7c-0.2-0.1-0.3-0.2-0.4-0.3
			c-0.3-0.2-0.6-0.4-0.9-0.6c-0.1-0.1-0.3-0.2-0.4-0.3c-0.3-0.2-0.5-0.5-0.8-0.7c-0.1-0.1-0.2-0.2-0.3-0.3c-0.3-0.3-0.6-0.7-0.8-1
			v9.4c0,5.9,12.2,10.9,26.6,10.9s26.6-5,26.6-10.9v-9.4c-0.2,0.3-0.5,0.7-0.8,1C46,43.4,45.9,43.5,45.8,43.6z"/>
		<path class="st2" d="M45.8,56.7c-0.2,0.2-0.5,0.5-0.7,0.7c-0.1,0.1-0.3,0.2-0.4,0.3c-0.3,0.2-0.6,0.4-0.8,0.6
			c-0.2,0.1-0.3,0.2-0.5,0.3c-0.4,0.2-0.7,0.4-1.1,0.7c-0.1,0.1-0.2,0.1-0.3,0.2c-0.5,0.3-1.1,0.5-1.6,0.8c-0.1,0.1-0.3,0.1-0.5,0.2
			c-0.4,0.2-0.9,0.4-1.3,0.5c-0.2,0.1-0.4,0.2-0.7,0.2c-0.4,0.1-0.9,0.3-1.3,0.4c-0.2,0.1-0.5,0.1-0.7,0.2c-0.5,0.1-1,0.3-1.5,0.4
			c-0.2,0.1-0.4,0.1-0.6,0.2c-0.7,0.2-1.5,0.3-2.2,0.5c-0.1,0-0.3,0-0.4,0.1c-0.6,0.1-1.3,0.2-1.9,0.3c-0.3,0-0.5,0.1-0.8,0.1
			c-0.5,0.1-1.1,0.1-1.7,0.2c-0.3,0-0.6,0.1-0.9,0.1c-0.6,0-1.2,0.1-1.8,0.1c-0.3,0-0.5,0-0.8,0c-0.9,0-1.8,0.1-2.7,0.1
			c-0.9,0-1.8,0-2.7-0.1c-0.3,0-0.5,0-0.8,0c-0.6,0-1.2-0.1-1.8-0.1c-0.3,0-0.6-0.1-0.9-0.1c-0.6-0.1-1.1-0.1-1.7-0.2
			c-0.3,0-0.5-0.1-0.8-0.1c-0.9-0.1-1.6-0.2-2.2-0.3c-0.1,0-0.3,0-0.4-0.1c-0.8-0.1-1.5-0.3-2.2-0.5c-0.2,0-0.4-0.1-0.6-0.2
			c-0.5-0.1-1-0.3-1.5-0.4c-0.2-0.1-0.5-0.1-0.7-0.2c-0.4-0.1-0.9-0.3-1.3-0.4C2.8,61.1,2.6,61,2.3,61c-0.5-0.2-0.9-0.4-1.4-0.5
			c-0.2-0.1-0.3-0.1-0.5-0.2c-0.6-0.3-1.1-0.5-1.6-0.8c-0.1-0.1-0.2-0.1-0.3-0.2c-0.4-0.2-0.8-0.4-1.1-0.7c-0.2-0.1-0.3-0.2-0.5-0.3
			c-0.3-0.2-0.6-0.4-0.9-0.6c-0.1-0.1-0.3-0.2-0.4-0.3c-0.3-0.2-0.5-0.5-0.7-0.7c-0.1-0.1-0.2-0.2-0.3-0.3c-0.3-0.3-0.6-0.7-0.8-1
			v9.4c0,5.9,12.2,10.9,26.6,10.9S47,70.7,47,64.8v-9.4c-0.2,0.3-0.5,0.7-0.8,1C46,56.5,45.9,56.6,45.8,56.7z"/>
		<path class="st2" d="M45.8,30.6c-0.2,0.2-0.5,0.5-0.7,0.7c-0.1,0.1-0.3,0.2-0.4,0.3c-0.3,0.2-0.6,0.4-0.8,0.6
			c-0.2,0.1-0.3,0.2-0.5,0.3c-0.4,0.2-0.7,0.4-1.1,0.7c-0.1,0.1-0.2,0.1-0.3,0.2c-0.5,0.3-1.1,0.5-1.6,0.8c-0.1,0.1-0.3,0.1-0.5,0.2
			c-0.4,0.2-0.9,0.4-1.3,0.5c-0.2,0.1-0.4,0.2-0.7,0.2c-0.4,0.1-0.9,0.3-1.3,0.4c-0.2,0.1-0.5,0.1-0.7,0.2c-0.5,0.1-1,0.3-1.5,0.4
			c-0.2,0.1-0.4,0.1-0.6,0.2c-0.7,0.2-1.5,0.3-2.2,0.5c-0.1,0-0.3,0-0.4,0.1c-0.6,0.1-1.3,0.2-1.9,0.3c-0.3,0-0.5,0.1-0.8,0.1
			c-0.5,0.1-1.1,0.1-1.7,0.2c-0.3,0-0.6,0.1-0.9,0.1c-0.6,0-1.2,0.1-1.8,0.1c-0.3,0-0.5,0-0.8,0c-0.9,0-1.8,0.1-2.7,0.1
			c-0.9,0-1.8,0-2.7-0.1c-0.3,0-0.5,0-0.8,0c-0.6,0-1.2-0.1-1.8-0.1c-0.3,0-0.6-0.1-0.9-0.1c-0.6-0.1-1.1-0.1-1.7-0.2
			c-0.3,0-0.5-0.1-0.8-0.1c-0.9-0.1-1.6-0.2-2.2-0.3c-0.1,0-0.3,0-0.4-0.1c-0.8-0.1-1.5-0.3-2.2-0.5c-0.2,0-0.4-0.1-0.6-0.2
			C6,36,5.5,35.8,5,35.7c-0.2-0.1-0.5-0.1-0.7-0.2c-0.4-0.1-0.9-0.3-1.3-0.4c-0.2-0.1-0.4-0.2-0.7-0.2c-0.5-0.2-0.9-0.4-1.4-0.5
			c-0.2-0.1-0.3-0.1-0.5-0.2c-0.6-0.3-1.1-0.5-1.6-0.8c-0.1-0.1-0.2-0.1-0.3-0.2c-0.4-0.2-0.8-0.4-1.1-0.7c-0.2-0.1-0.3-0.2-0.5-0.3
			C-3.5,32-3.7,31.8-4,31.6c-0.1-0.1-0.3-0.2-0.4-0.3c-0.3-0.2-0.5-0.5-0.7-0.7c-0.1-0.1-0.2-0.2-0.3-0.3c-0.3-0.3-0.6-0.7-0.8-1
			v9.4c0,5.9,12.2,10.9,26.6,10.9S47,44.6,47,38.7v-9.4c-0.2,0.3-0.5,0.7-0.8,1C46,30.4,45.9,30.5,45.8,30.6z"/>
		<path class="st2" d="M45.8,17.5c-0.2,0.2-0.5,0.5-0.7,0.7c-0.1,0.1-0.3,0.2-0.4,0.3c-0.3,0.2-0.6,0.4-0.8,0.6
			c-0.2,0.1-0.3,0.2-0.5,0.3c-0.4,0.2-0.7,0.4-1.1,0.7c-0.1,0.1-0.2,0.1-0.3,0.2c-0.5,0.3-1.1,0.5-1.6,0.8c-0.1,0.1-0.3,0.1-0.5,0.2
			c-0.4,0.2-0.9,0.4-1.3,0.5c-0.2,0.1-0.4,0.2-0.7,0.2c-0.4,0.1-0.9,0.3-1.3,0.4c-0.2,0.1-0.5,0.1-0.7,0.2c-0.5,0.1-1,0.3-1.5,0.4
			c-0.2,0.1-0.4,0.1-0.6,0.2c-0.7,0.2-1.5,0.3-2.2,0.5c-0.1,0-0.3,0-0.4,0.1c-0.6,0.1-1.3,0.2-1.9,0.3c-0.3,0-0.5,0.1-0.8,0.1
			c-0.5,0.1-1.1,0.1-1.7,0.2c-0.3,0-0.6,0.1-0.9,0.1c-0.6,0-1.2,0.1-1.8,0.1c-0.3,0-0.5,0-0.8,0c-0.9,0-1.8,0.1-2.7,0.1
			c-0.9,0-1.8,0-2.7-0.1c-0.3,0-0.5,0-0.8,0c-0.6,0-1.2-0.1-1.8-0.1c-0.3,0-0.6-0.1-0.9-0.1c-0.6-0.1-1.1-0.1-1.7-0.2
			c-0.3,0-0.5-0.1-0.8-0.1c-0.9-0.1-1.6-0.2-2.2-0.3c-0.1,0-0.3,0-0.4-0.1c-0.8-0.1-1.5-0.3-2.2-0.5c-0.2,0-0.4-0.1-0.6-0.2
			c-0.5-0.1-1-0.3-1.5-0.4c-0.2-0.1-0.5-0.1-0.7-0.2C3.9,22.3,3.4,22.1,3,22c-0.2-0.1-0.4-0.2-0.7-0.2c-0.5-0.2-0.9-0.4-1.4-0.5
			c-0.2-0.1-0.3-0.1-0.5-0.2c-0.6-0.3-1.1-0.5-1.6-0.8c-0.1-0.1-0.2-0.1-0.3-0.2c-0.4-0.2-0.8-0.4-1.1-0.7c-0.2-0.1-0.3-0.2-0.5-0.3
			C-3.5,19-3.7,18.7-4,18.5c-0.1-0.1-0.3-0.2-0.4-0.3c-0.3-0.2-0.5-0.5-0.7-0.7c-0.1-0.1-0.2-0.2-0.3-0.3c-0.3-0.3-0.6-0.7-0.8-1
			v9.4c0,5.9,12.2,10.9,26.6,10.9S47,31.5,47,25.6v-9.4c-0.2,0.3-0.5,0.7-0.8,1C46,17.3,45.9,17.4,45.8,17.5z"/>
		<path class="st2" d="M20.3,1.6c-14.4,0-26.6,5-26.6,10.9c0,0.4,0,0.7,0.1,1.1c0.2,0.7,0.6,1.4,1.1,2.1c0.8,1,1.9,2,3.4,2.9
			c1,0.6,2.1,1.1,3.3,1.6c4.9,2,11.5,3.2,18.7,3.2s13.9-1.3,18.7-3.2c1.2-0.5,2.3-1,3.3-1.6c1.5-0.9,2.6-1.8,3.4-2.9
			c0.5-0.7,0.9-1.4,1.1-2.1c0.1-0.4,0.1-0.7,0.1-1.1C46.9,6.6,34.7,1.6,20.3,1.6z"/>
		<path class="st3" d="M20.3,0.3C4.7,0.3-7.6,5.7-7.6,12.5v13.1v13.1v13.1v13.1c0,6.8,12.2,12.2,27.9,12.2
			c15.6,0,27.9-5.4,27.9-12.2V51.7V38.6v-13V12.5C48.2,5.7,35.9,0.3,20.3,0.3z M46.9,64.7c0,5.9-12.2,10.9-26.6,10.9
			s-26.6-5-26.6-10.9v-9.4c0.2,0.3,0.5,0.7,0.8,1c0.1,0.1,0.2,0.2,0.3,0.3c0.2,0.2,0.5,0.5,0.7,0.7c0.1,0.1,0.3,0.2,0.4,0.3
			c0.3,0.2,0.6,0.4,0.9,0.6c0.2,0.1,0.3,0.2,0.5,0.3c0.4,0.2,0.7,0.5,1.1,0.7c0.1,0.1,0.2,0.1,0.3,0.2c0.5,0.3,1.1,0.5,1.6,0.8
			c0.1,0.1,0.3,0.1,0.5,0.2c0.4,0.2,0.9,0.4,1.4,0.5c0.2,0.1,0.4,0.2,0.7,0.2c0.4,0.1,0.9,0.3,1.3,0.4c0.2,0.1,0.5,0.1,0.7,0.2
			c0.5,0.1,1,0.3,1.5,0.4c0.2,0,0.4,0.1,0.6,0.2c0.7,0.2,1.5,0.3,2.2,0.5c0.1,0,0.3,0,0.4,0.1c0.6,0.1,1.3,0.2,1.9,0.3
			c0.3,0,0.5,0.1,0.8,0.1c0.6,0.1,1.1,0.1,1.7,0.2c0.3,0,0.6,0.1,0.9,0.1c0.6,0,1.2,0.1,1.8,0.1c0.3,0,0.5,0,0.8,0
			c0.9,0,1.8,0.1,2.7,0.1c0.9,0,1.8,0,2.7-0.1c0.3,0,0.5,0,0.8,0c0.6,0,1.2-0.1,1.8-0.1c0.3,0,0.6-0.1,0.9-0.1
			c0.6-0.1,1.1-0.1,1.7-0.2c0.3,0,0.5-0.1,0.8-0.1c0.7-0.1,1.3-0.2,1.9-0.3c0.1,0,0.3,0,0.4-0.1c0.8-0.1,1.5-0.3,2.2-0.5
			c0.2,0,0.4-0.1,0.6-0.2c0.5-0.1,1-0.3,1.5-0.4c0.2-0.1,0.5-0.1,0.7-0.2c0.4-0.1,0.9-0.3,1.3-0.4c0.2-0.1,0.5-0.2,0.7-0.2
			c0.5-0.2,0.9-0.3,1.3-0.5c0.2-0.1,0.3-0.1,0.5-0.2c0.6-0.3,1.1-0.5,1.6-0.8c0.1-0.1,0.2-0.1,0.3-0.2c0.4-0.2,0.8-0.4,1.1-0.7
			c0.2-0.1,0.3-0.2,0.5-0.3c0.3-0.2,0.6-0.4,0.8-0.6c0.1-0.1,0.3-0.2,0.4-0.3c0.3-0.2,0.5-0.5,0.7-0.7c0.1-0.1,0.2-0.2,0.3-0.3
			c0.3-0.3,0.6-0.7,0.8-1v9.4C46.5,64.7,46.9,64.7,46.9,64.7z M46.9,51.7c0,5.9-12.2,10.9-26.6,10.9s-26.6-5-26.6-10.9v-9.4
			c0.2,0.3,0.5,0.7,0.8,1c0.1,0.1,0.2,0.2,0.3,0.3c0.2,0.2,0.5,0.5,0.8,0.7c0.1,0.1,0.3,0.2,0.4,0.3c0.3,0.2,0.6,0.4,0.9,0.6
			c0.1,0.1,0.3,0.2,0.4,0.3c0.4,0.2,0.8,0.5,1.2,0.7c0.1,0.1,0.2,0.1,0.3,0.2c0.5,0.3,1.1,0.5,1.6,0.8c0.1,0.1,0.3,0.1,0.4,0.2
			c0.4,0.2,0.9,0.4,1.4,0.5c0.2,0.1,0.4,0.2,0.7,0.2c0.4,0.2,0.9,0.3,1.3,0.4c0.2,0.1,0.5,0.1,0.7,0.2c0.5,0.1,1,0.3,1.6,0.4
			c0.2,0,0.4,0.1,0.6,0.1c0.7,0.2,1.5,0.3,2.3,0.5c0.1,0,0.2,0,0.3,0.1c0.7,0.1,1.3,0.2,2,0.3c0.3,0,0.5,0.1,0.8,0.1
			c0.6,0.1,1.2,0.1,1.7,0.2c0.3,0,0.6,0.1,0.8,0.1c0.6,0.1,1.3,0.1,1.9,0.1c0.2,0,0.5,0,0.7,0c0.9,0,1.8,0.1,2.7,0.1
			c0.9,0,1.8,0,2.7-0.1c0.2,0,0.5,0,0.7,0c0.7,0,1.3-0.1,1.9-0.1c0.3,0,0.5,0,0.8-0.1c0.6-0.1,1.2-0.1,1.8-0.2
			c0.2,0,0.5-0.1,0.7-0.1c0.7-0.1,1.4-0.2,2.1-0.3c0.1,0,0.2,0,0.2,0c0.8-0.1,1.5-0.3,2.3-0.5c0.2,0,0.3-0.1,0.5-0.1
			c0.6-0.1,1.1-0.3,1.7-0.4c0.2-0.1,0.4-0.1,0.6-0.2c0.5-0.1,0.9-0.3,1.4-0.5c0.2-0.1,0.4-0.1,0.6-0.2c0.5-0.2,1-0.4,1.4-0.6
			c0.1-0.1,0.2-0.1,0.4-0.2c0.6-0.3,1.1-0.5,1.7-0.8c0.1,0,0.2-0.1,0.3-0.2c0.4-0.2,0.8-0.5,1.2-0.7c0.1-0.1,0.3-0.2,0.4-0.3
			c0.3-0.2,0.6-0.4,0.9-0.6c0.1-0.1,0.3-0.2,0.4-0.3c0.3-0.2,0.5-0.5,0.8-0.7c0.1-0.1,0.2-0.2,0.3-0.3c0.3-0.3,0.6-0.7,0.8-1
			C46.9,42.2,46.9,51.7,46.9,51.7z M46.9,38.6c0,5.9-12.2,10.9-26.6,10.9s-26.6-5-26.6-10.9v-9.4c0.2,0.3,0.5,0.7,0.8,1
			c0.1,0.1,0.2,0.2,0.3,0.3c0.2,0.2,0.5,0.5,0.7,0.7c0.1,0.1,0.3,0.2,0.4,0.3c0.3,0.2,0.6,0.4,0.9,0.6c0.2,0.1,0.3,0.2,0.5,0.3
			c0.4,0.2,0.7,0.5,1.1,0.7c0.1,0.1,0.2,0.1,0.3,0.2c0.5,0.3,1.1,0.5,1.6,0.8c0.1,0.1,0.3,0.1,0.5,0.2c0.4,0.2,0.9,0.4,1.4,0.5
			C2.4,34.9,2.6,35,2.9,35c0.4,0.1,0.9,0.3,1.3,0.4c0.2,0.1,0.5,0.1,0.7,0.2c0.5,0.1,1,0.3,1.5,0.4c0.2,0,0.4,0.1,0.6,0.2
			c0.7,0.2,1.5,0.3,2.2,0.5c0.1,0,0.3,0,0.4,0.1c0.6,0.1,1.3,0.2,1.9,0.3c0.3,0,0.5,0.1,0.8,0.1c0.6,0.1,1.1,0.1,1.7,0.2
			c0.3,0,0.6,0.1,0.9,0.1c0.6,0,1.2,0.1,1.8,0.1c0.3,0,0.5,0,0.8,0c0.9,0,1.8,0.1,2.7,0.1c0.9,0,1.8,0,2.7-0.1c0.3,0,0.5,0,0.8,0
			c0.6,0,1.2-0.1,1.8-0.1c0.3,0,0.6-0.1,0.9-0.1c0.6-0.1,1.1-0.1,1.7-0.2c0.3,0,0.5-0.1,0.8-0.1c0.7-0.1,1.3-0.2,1.9-0.3
			c0.1,0,0.3,0,0.4-0.1c0.8-0.1,1.5-0.3,2.2-0.5c0.2,0,0.4-0.1,0.6-0.2c0.5-0.1,1-0.3,1.5-0.4c0.2-0.1,0.5-0.1,0.7-0.2
			c0.4-0.1,0.9-0.3,1.3-0.4c0.2-0.1,0.5-0.2,0.7-0.2c0.5-0.2,0.9-0.3,1.3-0.5c0.2-0.1,0.3-0.1,0.5-0.2c0.6-0.3,1.1-0.5,1.6-0.8
			c0.1-0.1,0.2-0.1,0.3-0.2c0.4-0.2,0.8-0.4,1.1-0.7c0.2-0.1,0.3-0.2,0.5-0.3c0.3-0.2,0.6-0.4,0.8-0.6c0.1-0.1,0.3-0.2,0.4-0.3
			c0.3-0.2,0.5-0.5,0.7-0.7c0.1-0.1,0.2-0.2,0.3-0.3c0.3-0.3,0.6-0.7,0.8-1v9.4H46.9z M46.9,25.6c0,5.9-12.2,10.9-26.6,10.9
			s-26.6-5-26.6-10.9v-9.4c0.2,0.3,0.5,0.7,0.8,1c0.1,0.1,0.2,0.2,0.3,0.3c0.2,0.2,0.5,0.5,0.7,0.7c0.1,0.1,0.3,0.2,0.4,0.3
			c0.3,0.2,0.6,0.4,0.9,0.6c0.2,0.1,0.3,0.2,0.5,0.3c0.4,0.2,0.7,0.5,1.1,0.7c0.1,0.1,0.2,0.1,0.3,0.2c0.5,0.3,1.1,0.5,1.6,0.8
			c0.1,0.1,0.3,0.1,0.5,0.2c0.4,0.2,0.9,0.4,1.4,0.5C2.4,21.9,2.6,22,2.9,22c0.4,0.1,0.9,0.3,1.3,0.4c0.2,0.1,0.5,0.1,0.7,0.2
			c0.5,0.1,1,0.3,1.5,0.4c0.2,0,0.4,0.1,0.6,0.2c0.7,0.2,1.5,0.3,2.2,0.5c0.1,0,0.3,0,0.4,0.1c0.6,0.1,1.3,0.2,1.9,0.3
			c0.3,0,0.5,0.1,0.8,0.1c0.6,0.1,1.1,0.1,1.7,0.2c0.3,0,0.6,0.1,0.9,0.1c0.6,0,1.2,0.1,1.8,0.1c0.3,0,0.5,0,0.8,0
			c0.9,0,1.8,0.1,2.7,0.1c0.9,0,1.8,0,2.7-0.1c0.3,0,0.5,0,0.8,0c0.6,0,1.2-0.1,1.8-0.1c0.3,0,0.6-0.1,0.9-0.1
			c0.6-0.1,1.1-0.1,1.7-0.2c0.3,0,0.5-0.1,0.8-0.1c0.7-0.1,1.3-0.2,1.9-0.3c0.1,0,0.3,0,0.4-0.1c0.8-0.1,1.5-0.3,2.2-0.5
			c0.2,0,0.4-0.1,0.6-0.2c0.5-0.1,1-0.3,1.5-0.4c0.2-0.1,0.5-0.1,0.7-0.2c0.4-0.1,0.9-0.3,1.3-0.4c0.2-0.1,0.5-0.2,0.7-0.2
			c0.5-0.2,0.9-0.3,1.3-0.5c0.2-0.1,0.3-0.1,0.5-0.2c0.6-0.3,1.1-0.5,1.6-0.8c0.1-0.1,0.2-0.1,0.3-0.2c0.4-0.2,0.8-0.4,1.1-0.7
			c0.2-0.1,0.3-0.2,0.5-0.3c0.3-0.2,0.6-0.4,0.8-0.6c0.1-0.1,0.3-0.2,0.4-0.3c0.3-0.2,0.5-0.5,0.7-0.7c0.1-0.1,0.2-0.2,0.3-0.3
			c0.3-0.3,0.6-0.7,0.8-1v9.4C46.5,25.6,46.9,25.6,46.9,25.6z M46.8,13.6c-0.2,0.7-0.6,1.4-1.1,2.1c-0.8,1-1.9,2-3.4,2.9
			c-1,0.6-2.1,1.1-3.3,1.6c-4.8,2-11.5,3.2-18.7,3.2S6.4,22.1,1.6,20.2c-1.2-0.5-2.3-1-3.3-1.6c-1.5-0.9-2.6-1.8-3.4-2.9
			C-5.6,15-6,14.3-6.2,13.6c-0.1-0.4-0.1-0.7-0.1-1.1c0-5.9,12.2-10.9,26.6-10.9s26.6,5,26.6,10.9C46.9,12.9,46.9,13.2,46.8,13.6z"
			/>
	</g>
	<g class="st1">
		<path class="st2" d="M71.3,63.1c-0.2,0.2-0.5,0.5-0.8,0.7c-0.1,0.1-0.3,0.2-0.4,0.3c-0.3,0.2-0.6,0.4-0.9,0.6
			c-0.1,0.1-0.3,0.2-0.4,0.3c-0.4,0.2-0.8,0.5-1.2,0.7c-0.1,0-0.2,0.1-0.3,0.2c-0.5,0.3-1.1,0.5-1.7,0.8c-0.1,0.1-0.2,0.1-0.4,0.2
			c-0.5,0.2-0.9,0.4-1.4,0.6c-0.2,0.1-0.4,0.1-0.6,0.2c-0.5,0.2-0.9,0.3-1.4,0.5c-0.2,0.1-0.4,0.1-0.6,0.2c-0.5,0.2-1.1,0.3-1.7,0.4
			c-0.2,0-0.3,0.1-0.5,0.1c-0.7,0.2-1.5,0.3-2.3,0.5c-0.1,0-0.2,0-0.2,0c-0.7,0.1-1.4,0.2-2.1,0.3c-0.2,0-0.5,0.1-0.7,0.1
			c-0.6,0.1-1.2,0.1-1.8,0.2c-0.3,0-0.5,0-0.8,0.1c-0.6,0.1-1.3,0.1-1.9,0.1c-0.2,0-0.4,0-0.7,0c-0.9,0-1.8,0.1-2.7,0.1
			s-1.8,0-2.7-0.1c-0.2,0-0.5,0-0.7,0c-0.6,0-1.3-0.1-1.9-0.1c-0.3,0-0.6,0-0.8-0.1c-0.6-0.1-1.2-0.1-1.7-0.2
			c-0.3,0-0.5-0.1-0.8-0.1c-0.7-0.1-1.4-0.2-2-0.3c-0.1,0-0.2,0-0.3-0.1c-0.8-0.1-1.5-0.3-2.3-0.5c-0.2,0-0.4-0.1-0.6-0.1
			c-0.5-0.1-1.1-0.3-1.6-0.4c-0.2-0.1-0.5-0.1-0.7-0.2c-0.5-0.1-0.9-0.3-1.3-0.4c-0.2-0.1-0.4-0.2-0.7-0.2c-0.5-0.2-0.9-0.4-1.4-0.5
			c-0.1-0.1-0.3-0.1-0.4-0.2c-0.6-0.3-1.1-0.5-1.6-0.8c-0.1-0.1-0.2-0.1-0.3-0.2c-0.4-0.2-0.8-0.5-1.2-0.7c-0.2-0.1-0.3-0.2-0.4-0.3
			c-0.3-0.2-0.6-0.4-0.9-0.6c-0.1-0.1-0.3-0.2-0.4-0.3c-0.3-0.2-0.5-0.5-0.8-0.7c-0.1-0.1-0.2-0.2-0.3-0.3c-0.3-0.3-0.6-0.7-0.8-1
			v9.4c0,5.9,12.2,10.9,26.6,10.9s26.6-5,26.6-10.9v-9.4c-0.2,0.3-0.5,0.7-0.8,1C71.5,62.9,71.4,63,71.3,63.1z"/>
		<path class="st2" d="M71.2,76.2c-0.2,0.2-0.5,0.5-0.7,0.7c-0.1,0.1-0.3,0.2-0.4,0.3c-0.3,0.2-0.6,0.4-0.8,0.6
			c-0.2,0.1-0.3,0.2-0.5,0.3c-0.4,0.2-0.7,0.4-1.1,0.7c-0.1,0.1-0.2,0.1-0.3,0.2c-0.5,0.3-1.1,0.5-1.6,0.8c-0.1,0.1-0.3,0.1-0.5,0.2
			c-0.4,0.2-0.9,0.4-1.3,0.5c-0.2,0.1-0.4,0.2-0.7,0.2c-0.4,0.1-0.9,0.3-1.3,0.4c-0.2,0.1-0.5,0.1-0.7,0.2c-0.5,0.1-1,0.3-1.5,0.4
			c-0.2,0.1-0.4,0.1-0.6,0.2c-0.7,0.2-1.5,0.3-2.2,0.5c-0.1,0-0.3,0-0.4,0.1c-0.6,0.1-1.3,0.2-1.9,0.3c-0.3,0-0.5,0.1-0.8,0.1
			c-0.5,0.1-1.1,0.1-1.7,0.2c-0.3,0-0.6,0.1-0.9,0.1c-0.6,0-1.2,0.1-1.8,0.1c-0.3,0-0.5,0-0.8,0c-0.9,0-1.8,0.1-2.7,0.1
			s-1.8,0-2.7-0.1c-0.3,0-0.5,0-0.8,0c-0.6,0-1.2-0.1-1.8-0.1c-0.3,0-0.6-0.1-0.9-0.1c-0.6-0.1-1.1-0.1-1.7-0.2
			c-0.3,0-0.5-0.1-0.8-0.1c-0.7-0.1-1.3-0.2-1.9-0.3c-0.1,0-0.3,0-0.4-0.1c-0.8-0.1-1.5-0.3-2.2-0.5c-0.2,0-0.4-0.1-0.6-0.2
			c-0.5-0.1-1-0.3-1.5-0.4c-0.2-0.1-0.5-0.1-0.7-0.2c-0.4-0.1-0.9-0.3-1.3-0.4c-0.2-0.1-0.4-0.2-0.7-0.2c-0.5-0.2-0.9-0.4-1.4-0.5
			c-0.2-0.1-0.3-0.1-0.5-0.2c-0.6-0.3-1.1-0.5-1.6-0.8c-0.1-0.1-0.2-0.1-0.3-0.2c-0.4-0.2-0.8-0.4-1.1-0.7c-0.2-0.1-0.3-0.2-0.5-0.3
			c-0.3-0.2-0.6-0.4-0.9-0.6c-0.1-0.1-0.3-0.2-0.4-0.3c-0.3-0.2-0.5-0.5-0.7-0.7c-0.1-0.1-0.2-0.2-0.3-0.3c-0.3-0.3-0.6-0.7-0.8-1
			v9.4c0,5.9,12.2,10.9,26.6,10.9s26.6-5,26.6-10.9v-9.4c-0.2,0.3-0.5,0.7-0.8,1C71.5,76,71.3,76.1,71.2,76.2z"/>
		<path class="st2" d="M71.2,50.1c-0.2,0.2-0.5,0.5-0.7,0.7c-0.1,0.1-0.3,0.2-0.4,0.3c-0.3,0.2-0.6,0.4-0.8,0.6
			c-0.2,0.1-0.3,0.2-0.5,0.3c-0.4,0.2-0.7,0.4-1.1,0.7c-0.1,0.1-0.2,0.1-0.3,0.2c-0.5,0.3-1.1,0.5-1.6,0.8c-0.1,0.1-0.3,0.1-0.5,0.2
			c-0.4,0.2-0.9,0.4-1.3,0.5c-0.2,0.1-0.4,0.2-0.7,0.2c-0.4,0.1-0.9,0.3-1.3,0.4c-0.2,0.1-0.5,0.1-0.7,0.2c-0.5,0.1-1,0.3-1.5,0.4
			c-0.2,0.1-0.4,0.1-0.6,0.2c-0.7,0.2-1.5,0.3-2.2,0.5c-0.1,0-0.3,0-0.4,0.1c-0.6,0.1-1.3,0.2-1.9,0.3c-0.3,0-0.5,0.1-0.8,0.1
			c-0.5,0.1-1.1,0.1-1.7,0.2c-0.6,0-0.9,0-1.2,0c-0.6,0-1.2,0.1-1.8,0.1c-0.3,0-0.5,0-0.8,0c-0.9,0-1.8,0.1-2.7,0.1s-1.8,0-2.7-0.1
			c-0.3,0-0.5,0-0.8,0c-0.6,0-1.2-0.1-1.8-0.1c-0.3,0-0.6-0.1-0.9-0.1c-0.6-0.1-1.1-0.1-1.7-0.2c-0.3,0-0.5-0.1-0.8-0.1
			c-0.7-0.1-1.3-0.2-1.9-0.3c-0.1,0-0.3,0-0.4-0.1c-0.8-0.1-1.5-0.3-2.2-0.5c-0.2,0-0.4-0.1-0.6-0.2c-0.5-0.1-1-0.3-1.5-0.4
			c-0.2-0.1-0.5-0.1-0.7-0.2c-0.4-0.1-0.9-0.3-1.3-0.4c-0.2-0.1-0.4-0.2-0.7-0.2c-0.5-0.2-0.9-0.4-1.4-0.5c-0.2-0.1-0.3-0.1-0.5-0.2
			c-0.6-0.3-1.1-0.5-1.6-0.8c-0.1-0.1-0.2-0.1-0.3-0.2c-0.4-0.2-0.8-0.4-1.1-0.7c-0.2-0.1-0.3-0.2-0.5-0.3c-0.3-0.2-0.6-0.4-0.9-0.6
			c-0.1-0.1-0.3-0.2-0.4-0.3c-0.3-0.2-0.5-0.5-0.7-0.7c-0.1-0.1-0.2-0.2-0.3-0.3c-0.3-0.3-0.6-0.7-0.8-1v9.4
			C19.2,64,31.3,69,45.8,69c14.4,0,26.6-5,26.6-10.9v-9.4c-0.2,0.3-0.5,0.7-0.8,1C71.5,49.9,71.3,50,71.2,50.1z"/>
		<path class="st2" d="M71.2,37c-0.2,0.2-0.5,0.5-0.7,0.7c-0.1,0.1-0.3,0.2-0.4,0.3c-0.3,0.2-0.6,0.4-0.8,0.6
			c-0.2,0.1-0.3,0.2-0.5,0.3c-0.4,0.2-0.7,0.4-1.1,0.7c-0.1,0.1-0.2,0.1-0.3,0.2c-0.5,0.3-1.1,0.5-1.6,0.8c-0.1,0.1-0.3,0.1-0.5,0.2
			c-0.4,0.2-0.9,0.4-1.3,0.5c-0.2,0.1-0.4,0.2-0.7,0.2c-0.4,0.1-0.9,0.3-1.3,0.4c-0.2,0.1-0.5,0.1-0.7,0.2c-0.5,0.1-1,0.3-1.5,0.4
			c-0.2,0.1-0.4,0.1-0.6,0.2c-0.7,0.2-1.5,0.3-2.2,0.5c-0.1,0-0.3,0-0.4,0.1c-0.6,0.1-1.3,0.2-1.9,0.3c-0.3,0-0.5,0.1-0.8,0.1
			c-0.5,0.1-1.1,0.1-1.7,0.2c-0.3,0-0.6,0.1-0.9,0.1c-0.6,0-1.2,0.1-1.8,0.1c-0.3,0-0.5,0-0.8,0c-0.9,0-1.8,0.1-2.7,0.1
			s-1.8,0-2.7-0.1c-0.3,0-0.5,0-0.8,0c-0.6,0-1.2-0.1-1.8-0.1c-0.3,0-0.6-0.1-0.9-0.1c-0.6-0.1-1.1-0.1-1.7-0.2
			c-0.3,0-0.5-0.1-0.8-0.1c-0.7-0.1-1.3-0.2-1.9-0.3c-0.1,0-0.3,0-0.4-0.1c-0.8-0.1-1.5-0.3-2.2-0.5c-0.2,0-0.4-0.1-0.6-0.2
			c-0.5-0.1-1-0.3-1.5-0.4C30.5,42,30.2,42,30,41.9c-0.4-0.1-0.9-0.3-1.3-0.4c-0.2-0.1-0.4-0.2-0.7-0.2c-0.5-0.2-0.9-0.4-1.4-0.5
			c-0.2-0.1-0.3-0.1-0.5-0.2c-0.6-0.3-1.1-0.5-1.6-0.8c-0.1-0.1-0.2-0.1-0.3-0.2c-0.4-0.2-0.8-0.4-1.1-0.7c-0.2-0.1-0.3-0.2-0.5-0.3
			c-0.3-0.2-0.6-0.4-0.9-0.6c-0.1-0.1-0.3-0.2-0.4-0.3c-0.3-0.2-0.5-0.5-0.7-0.7c-0.1-0.1-0.2-0.2-0.3-0.3c-0.3-0.3-0.6-0.7-0.8-1
			V45c-0.3,6,11.8,11,26.3,11c14.4,0,26.6-5,26.6-10.9v-9.4c-0.2,0.3-0.5,0.7-0.8,1C71.5,36.8,71.3,36.9,71.2,37z"/>
		<path class="st2" d="M45.8,21c-14.5,0-26.6,5-26.6,11c0,0.4,0,0.7,0.1,1.1c0.2,0.7,0.6,1.4,1.1,2.1c0.8,1,1.9,2,3.4,2.9
			c1,0.6,2.1,1.1,3.3,1.6c4.9,2,11.5,3.2,18.7,3.2s13.9-1.3,18.7-3.2c1.2-0.5,2.3-1,3.3-1.6c1.5-0.9,2.6-1.8,3.4-2.9
			c0.5-0.7,0.9-1.4,1.1-2.1c0.1-0.4,0.1-0.7,0.1-1.1C72.4,26,60.2,21,45.8,21z"/>
		<path class="st3" d="M45.8,19.8c-15.6,0-27.9,5.4-27.9,12.2v13v13.1v13.1v13.1c0,6.8,12.2,12.2,27.9,12.2
			c15.6,0,27.9-5.4,27.9-12.2V71.2V58.1V45V32C73.6,25.1,61.4,19.8,45.8,19.8z M72.4,84.2c0,5.9-12.2,10.9-26.6,10.9
			s-26.6-5-26.6-10.9v-9.4c0.2,0.3,0.5,0.7,0.8,1c0.1,0.1,0.2,0.2,0.3,0.3c0.2,0.2,0.5,0.5,0.7,0.7c0.1,0.1,0.3,0.2,0.4,0.3
			c0.3,0.2,0.6,0.4,0.9,0.6c0.2,0.1,0.3,0.2,0.5,0.3c0.4,0.2,0.7,0.5,1.1,0.7c0.1,0.1,0.2,0.1,0.3,0.2c0.5,0.3,1.1,0.5,1.6,0.8
			c0.1,0.1,0.3,0.1,0.5,0.2c0.4,0.2,0.9,0.4,1.4,0.5c0.2,0.1,0.4,0.2,0.7,0.2c0.4,0.1,0.9,0.3,1.3,0.4c0.2,0.1,0.5,0.1,0.7,0.2
			c0.5,0.1,1,0.3,1.5,0.4c0.2,0,0.4,0.1,0.6,0.2c0.7,0.2,1.5,0.3,2.2,0.5c0.1,0,0.3,0,0.4,0.1c0.6,0.1,1.3,0.2,1.9,0.3
			c0.3,0,0.5,0.1,0.8,0.1c0.6,0.1,1.1,0.1,1.7,0.2c0.3,0,0.6,0.1,0.9,0.1c0.6,0,1.2,0.1,1.8,0.1c0.3,0,0.5,0,0.8,0
			c0.9,0,1.8,0.1,2.7,0.1s1.8,0,2.7-0.1c0.3,0,0.5,0,0.8,0c0.6,0,1.2-0.1,1.8-0.1c0.3,0,0.6-0.1,0.9-0.1c0.6-0.1,1.1-0.1,1.7-0.2
			c0.3,0,0.5-0.1,0.8-0.1c0.7-0.1,1.3-0.2,1.9-0.3c0.1,0,0.3,0,0.4-0.1c0.8-0.1,1.5-0.3,2.2-0.5c0.2,0,0.4-0.1,0.6-0.2
			c0.5-0.1,1-0.3,1.5-0.4c0.2-0.1,0.5-0.1,0.7-0.2c0.4-0.1,0.9-0.3,1.3-0.4c0.2-0.1,0.5-0.2,0.7-0.2c0.5-0.2,0.9-0.3,1.3-0.5
			c0.2-0.1,0.3-0.1,0.5-0.2c0.6-0.3,1.1-0.5,1.6-0.8c0.1-0.1,0.2-0.1,0.3-0.2c0.4-0.2,0.8-0.4,1.1-0.7c0.2-0.1,0.3-0.2,0.5-0.3
			c0.3-0.2,0.6-0.4,0.8-0.6c0.1-0.1,0.3-0.2,0.4-0.3c0.3-0.2,0.5-0.5,0.7-0.7c0.1-0.1,0.2-0.2,0.3-0.3c0.3-0.3,0.6-0.7,0.8-1v9.4
			H72.4z M72.4,71.2c0,5.9-12.2,10.9-26.6,10.9s-26.6-5-26.6-10.9v-9.4c0.2,0.3,0.5,0.7,0.8,1c0.1,0.1,0.2,0.2,0.3,0.3
			c0.2,0.2,0.5,0.5,0.8,0.7c0.1,0.1,0.3,0.2,0.4,0.3c0.3,0.2,0.6,0.4,0.9,0.6c0.1,0.1,0.3,0.2,0.4,0.3c0.4,0.2,0.8,0.5,1.2,0.7
			c0.1,0.1,0.2,0.1,0.3,0.2c0.5,0.3,1.1,0.5,1.6,0.8c0.1,0.1,0.3,0.1,0.4,0.2c0.4,0.2,0.9,0.4,1.4,0.5c0.2,0.1,0.4,0.2,0.7,0.2
			c0.4,0.2,0.9,0.3,1.3,0.4c0.2,0.1,0.5,0.1,0.7,0.2c0.5,0.1,1,0.3,1.6,0.4c0.2,0,0.4,0.1,0.6,0.1c0.7,0.2,1.5,0.3,2.3,0.5
			c0.1,0,0.2,0,0.3,0.1c0.7,0.1,1.3,0.2,2,0.3c0.3,0,0.5,0.1,0.8,0.1c0.6,0.1,1.2,0.1,1.7,0.2c0.3,0,0.6,0.1,0.8,0.1
			c0.6,0.1,1.3,0.1,1.9,0.1c0.2,0,0.5,0,0.7,0c0.9,0,1.8,0.1,2.7,0.1s1.8,0,2.7-0.1c0.2,0,0.5,0,0.7,0c0.7,0,1.3-0.1,1.9-0.1
			c0.3,0,0.5,0,0.8-0.1c0.6-0.1,1.2-0.1,1.8-0.2c0.2,0,0.5-0.1,0.7-0.1c0.7-0.1,1.4-0.2,2.1-0.3c0.1,0,0.2,0,0.2,0
			c0.8-0.1,1.5-0.3,2.3-0.5c0.2,0,0.3-0.1,0.5-0.1c0.6-0.1,1.1-0.3,1.7-0.4c0.2-0.1,0.4-0.1,0.6-0.2c0.5-0.1,0.9-0.3,1.4-0.5
			c0.2-0.1,0.4-0.1,0.6-0.2c0.5-0.2,1-0.4,1.4-0.6c0.1-0.1,0.2-0.1,0.4-0.2c0.6-0.3,1.1-0.5,1.7-0.8c0.1,0,0.2-0.1,0.3-0.2
			c0.4-0.2,0.8-0.5,1.2-0.7c0.1-0.1,0.3-0.2,0.4-0.3c0.3-0.2,0.6-0.4,0.9-0.6c0.1-0.1,0.3-0.2,0.4-0.3c0.3-0.2,0.5-0.5,0.8-0.7
			c0.1-0.1,0.2-0.2,0.3-0.3c0.3-0.3,0.6-0.7,0.8-1L72.4,71.2L72.4,71.2z M72.4,58.1C72.4,64,60.2,69,45.8,69s-26.6-5-26.6-10.9v-9.4
			c0.2,0.3,0.5,0.7,0.8,1c0.1,0.1,0.2,0.2,0.3,0.3c0.2,0.2,0.5,0.5,0.7,0.7c0.1,0.1,0.3,0.2,0.4,0.3c0.3,0.2,0.6,0.4,0.9,0.6
			c0.2,0.1,0.3,0.2,0.5,0.3c0.4,0.2,0.7,0.5,1.1,0.7c0.1,0.1,0.2,0.1,0.3,0.2c0.5,0.3,1.1,0.5,1.6,0.8c0.1,0.1,0.3,0.1,0.5,0.2
			c0.4,0.2,0.9,0.4,1.4,0.5c0.2,0.1,0.4,0.2,0.7,0.2c0.4,0.1,0.9,0.3,1.3,0.4c0.2,0.1,0.5,0.1,0.7,0.2c0.5,0.1,1,0.3,1.5,0.4
			c0.2,0,0.4,0.1,0.6,0.2c0.7,0.2,1.5,0.3,2.2,0.5c0.1,0,0.3,0,0.4,0.1c0.6,0.1,1.3,0.2,1.9,0.3c0.3,0,0.5,0.1,0.8,0.1
			c0.6,0.1,1.1,0.1,1.7,0.2c0.3,0,0.6,0.1,0.9,0.1c0.6,0,1.2,0.1,1.8,0.1c0.3,0,0.5,0,0.8,0c0.9,0,1.8,0.1,2.7,0.1s1.8,0,2.7-0.1
			c0.3,0,0.5,0,0.8,0c0.6,0,1.2-0.1,1.8-0.1c0.3,0,0.6-0.1,0.9-0.1c0.6-0.1,1.1-0.1,1.7-0.2c0.3,0,0.5-0.1,0.8-0.1
			c0.7-0.1,1.3-0.2,1.9-0.3c0.1,0,0.3,0,0.4-0.1c0.8-0.1,1.5-0.3,2.2-0.5c0.2,0,0.4-0.1,0.6-0.2c0.5-0.1,1-0.3,1.5-0.4
			c0.2-0.1,0.5-0.1,0.7-0.2c0.4-0.1,0.9-0.3,1.3-0.4c0.2-0.1,0.5-0.2,0.7-0.2c0.5-0.2,0.9-0.3,1.3-0.5c0.2-0.1,0.3-0.1,0.5-0.2
			c0.6-0.3,1.1-0.5,1.6-0.8c0.1-0.1,0.2-0.1,0.3-0.2c0.4-0.2,0.8-0.4,1.1-0.7c0.2-0.1,0.3-0.2,0.5-0.3c0.3-0.2,0.6-0.4,0.8-0.6
			c0.1-0.1,0.3-0.2,0.4-0.3c0.3-0.2,0.5-0.5,0.7-0.7c0.1-0.1,0.2-0.2,0.3-0.3c0.3-0.3,0.6-0.7,0.8-1v9.4H72.4z M72.4,45
			c0,6-12.2,11-26.6,11c-14.5,0-26.6-5-26.6-11v-9.4c0.2,0.3,0.5,0.7,0.8,1c0.1,0.1,0.2,0.2,0.3,0.3c0.2,0.2,0.5,0.5,0.7,0.7
			c0.1,0.1,0.3,0.2,0.4,0.3c0.3,0.2,0.6,0.4,0.9,0.6c0.2,0.1,0.3,0.2,0.5,0.3c0.4,0.2,0.7,0.5,1.1,0.7c0.1,0.1,0.2,0.1,0.3,0.2
			c0.5,0.3,1.1,0.5,1.6,0.8c0.1,0.1,0.3,0.1,0.5,0.2c0.4,0.2,0.9,0.4,1.4,0.5c0.2,0.1,0.4,0.2,0.7,0.2c0.4,0.1,0.9,0.3,1.3,0.4
			c0.2,0.1,0.5,0.1,0.7,0.2c0.5,0.1,1,0.3,1.5,0.4c0.2,0,0.4,0.1,0.6,0.2c0.7,0.2,1.5,0.3,2.2,0.5c0.1,0,0.3,0,0.4,0.1
			c0.6,0.1,1.3,0.2,1.9,0.3c0.3,0,0.5,0.1,0.8,0.1c0.6,0.1,1.1,0.1,1.7,0.2c0.3,0,0.6,0.1,0.9,0.1c0.6,0,1.2,0.1,1.8,0.1
			c0.3,0,0.5,0,0.8,0c0.9,0,1.8,0.1,2.7,0.1s1.8,0,2.7-0.1c0.3,0,0.5,0,0.8,0c0.6,0,1.2-0.1,1.8-0.1c0.3,0,0.6-0.1,0.9-0.1
			c0.6-0.1,1.1-0.1,1.7-0.2c0.3,0,0.5-0.1,0.8-0.1c0.7-0.1,1.3-0.2,1.9-0.3c0.1,0,0.3,0,0.4-0.1c0.8-0.1,1.5-0.3,2.2-0.5
			c0.2,0,0.4-0.1,0.6-0.2c0.5-0.1,1-0.3,1.5-0.4c0.2-0.1,0.5-0.1,0.7-0.2c0.4-0.1,0.9-0.3,1.3-0.4c0.2-0.1,0.5-0.2,0.7-0.2
			c0.5-0.2,0.9-0.3,1.3-0.5c0.2-0.1,0.3-0.1,0.5-0.2c0.6-0.3,1.1-0.5,1.6-0.8c0.1-0.1,0.2-0.1,0.3-0.2c0.4-0.2,0.8-0.4,1.1-0.7
			c0.2-0.1,0.3-0.2,0.5-0.3c0.3-0.2,0.6-0.4,0.8-0.6c0.1-0.1,0.3-0.2,0.4-0.3c0.3-0.2,0.5-0.5,0.7-0.7c0.1-0.1,0.2-0.2,0.3-0.3
			c0.3-0.3,0.6-0.7,0.8-1V45H72.4z M72.2,33.1c-0.2,0.7-0.6,1.4-1.1,2.1c-0.8,1-1.9,2-3.4,2.9c-1,0.6-2.1,1.1-3.3,1.6
			c-4.8,2-11.5,3.2-18.7,3.2S31.8,41.6,27,39.7c-1.2-0.5-2.3-1-3.3-1.6c-1.5-0.9-2.6-1.8-3.4-2.9c-0.5-0.7-0.9-1.4-1.1-2.1
			c-0.1-0.4-0.1-0.7-0.1-1.1c0.1-6,12.2-11,26.7-11c14.4,0,26.6,5,26.6,10.9C72.4,32.4,72.3,32.7,72.2,33.1z"/>
	</g>
	<g class="st1">
		<path class="st2" d="M96.3,83.7c-0.2,0.2-0.5,0.5-0.8,0.7c-0.1,0.1-0.3,0.2-0.4,0.3c-0.3,0.2-0.6,0.4-0.9,0.6
			c-0.1,0.1-0.3,0.2-0.4,0.3c-0.4,0.2-0.8,0.5-1.2,0.7c-0.1,0-0.2,0.1-0.3,0.2c-0.5,0.3-1.1,0.5-1.7,0.8c-0.1,0.1-0.2,0.1-0.4,0.2
			c-0.5,0.2-0.9,0.4-1.4,0.6c-0.2,0.1-0.4,0.1-0.6,0.2c-0.5,0.2-0.9,0.3-1.4,0.5c-0.2,0.1-0.4,0.1-0.6,0.2c-0.5,0.2-1.1,0.3-1.7,0.4
			c-0.2,0-0.3,0.1-0.5,0.1c-0.7,0.2-1.5,0.3-2.3,0.5c-0.1,0-0.2,0-0.2,0c-0.7,0.1-1.4,0.2-2.1,0.3c-0.2,0-0.5,0.1-0.7,0.1
			c-0.6,0.1-1.2,0.1-1.8,0.2c-0.3,0-0.5,0-0.8,0.1c-0.6,0.1-1.3,0.1-1.9,0.1c-0.2,0-0.4,0-0.7,0c-0.9,0-1.8,0.1-2.7,0.1
			c-0.9,0-1.8,0-2.7-0.1c-0.2,0-0.5,0-0.7,0c-0.6,0-1.3-0.1-1.9-0.1c-0.3,0-0.6,0-0.8-0.1c-0.6-0.1-1.2-0.1-1.7-0.2
			c-0.3,0-0.5-0.1-0.8-0.1c-0.7-0.1-1.4-0.2-2-0.3c-0.1,0-0.2,0-0.3-0.1c-0.8-0.1-1.5-0.3-2.3-0.5c-0.2,0-0.4-0.1-0.6-0.1
			c-0.5-0.1-1.1-0.3-1.6-0.4c-0.2-0.1-0.5-0.1-0.7-0.2c-0.5-0.1-0.9-0.3-1.3-0.4c-0.2-0.1-0.4-0.2-0.7-0.2c-0.5-0.2-0.9-0.4-1.4-0.5
			c-0.1-0.1-0.3-0.1-0.4-0.2c-0.6-0.3-1.1-0.5-1.6-0.8c-0.1-0.1-0.2-0.1-0.3-0.2c-0.4-0.2-0.8-0.5-1.2-0.7c-0.2-0.1-0.3-0.2-0.4-0.3
			c-0.3-0.2-0.6-0.4-0.9-0.6c-0.1-0.1-0.3-0.2-0.4-0.3c-0.3-0.2-0.5-0.5-0.8-0.7c-0.1-0.1-0.2-0.2-0.3-0.3c-0.3-0.3-0.6-0.7-0.8-1
			v9.4c0,5.9,12.2,10.9,26.6,10.9s26.6-5,26.6-10.9v-9.4c-0.2,0.3-0.5,0.7-0.8,1C96.5,83.5,96.4,83.6,96.3,83.7z"/>
		<path class="st2" d="M96.3,96.8c-0.2,0.2-0.5,0.5-0.7,0.7c-0.1,0.1-0.3,0.2-0.4,0.3c-0.3,0.2-0.6,0.4-0.8,0.6
			c-0.2,0.1-0.3,0.2-0.5,0.3c-0.4,0.2-0.7,0.4-1.1,0.7c-0.1,0.1-0.2,0.1-0.3,0.2c-0.5,0.3-1.1,0.5-1.6,0.8c-0.1,0.1-0.3,0.1-0.5,0.2
			c-0.4,0.2-0.9,0.4-1.3,0.5c-0.2,0.1-0.4,0.2-0.7,0.2c-0.4,0.1-0.9,0.3-1.3,0.4c-0.2,0.1-0.5,0.1-0.7,0.2c-0.5,0.1-1,0.3-1.5,0.4
			c-0.2,0.1-0.4,0.1-0.6,0.2c-0.7,0.2-1.5,0.3-2.2,0.5c-0.1,0-0.3,0-0.4,0.1c-0.6,0.1-1.3,0.2-1.9,0.3c-0.3,0-0.5,0.1-0.8,0.1
			c-0.5,0.1-1.1,0.1-1.7,0.2c-0.3,0-0.6,0.1-0.9,0.1c-0.6,0-1.2,0.1-1.8,0.1c-0.3,0-0.5,0-0.8,0c-0.9,0-1.8,0.1-2.7,0.1
			c-0.9,0-1.8,0-2.7-0.1c-0.3,0-0.5,0-0.8,0c-0.6,0-1.2-0.1-1.8-0.1c-0.3,0-0.6-0.1-0.9-0.1c-0.6-0.1-1.1-0.1-1.7-0.2
			c-0.3,0-0.5-0.1-0.8-0.1c-0.7-0.1-1.3-0.2-1.9-0.3c-0.1,0-0.3,0-0.4-0.1c-0.8-0.1-1.5-0.3-2.2-0.5c-0.2,0-0.4-0.1-0.6-0.2
			c-0.5-0.1-1-0.3-1.5-0.4c-0.2-0.1-0.5-0.1-0.7-0.2c-0.4-0.1-0.9-0.3-1.3-0.4c-0.2-0.1-0.4-0.2-0.7-0.2c-0.5-0.2-0.9-0.4-1.4-0.5
			c-0.2-0.1-0.3-0.1-0.5-0.2c-0.6-0.3-1.1-0.5-1.6-0.8c-0.1-0.1-0.2-0.1-0.3-0.2c-0.4-0.2-0.8-0.4-1.1-0.7c-0.2-0.1-0.3-0.2-0.5-0.3
			c-0.3-0.2-0.6-0.4-0.9-0.6c-0.1-0.1-0.3-0.2-0.4-0.3c-0.3-0.2-0.5-0.5-0.7-0.7c-0.1-0.1-0.2-0.2-0.3-0.3c-0.3-0.3-0.6-0.7-0.8-1
			v9.4c0,5.9,12.2,10.9,26.6,10.9s26.6-5,26.6-10.9v-9.4c-0.2,0.3-0.5,0.7-0.8,1C96.5,96.6,96.4,96.7,96.3,96.8z"/>
		<path class="st2" d="M96.3,70.7c-0.2,0.2-0.5,0.5-0.7,0.7c-0.1,0.1-0.3,0.2-0.4,0.3c-0.3,0.2-0.6,0.4-0.8,0.6
			c-0.2,0.1-0.3,0.2-0.5,0.3c-0.4,0.2-0.7,0.4-1.1,0.7c-0.1,0.1-0.2,0.1-0.3,0.2c-0.5,0.3-1.1,0.5-1.6,0.8c-0.1,0.1-0.3,0.1-0.5,0.2
			c-0.4,0.2-0.9,0.4-1.3,0.5c-0.2,0.1-0.4,0.2-0.7,0.2c-0.4,0.1-0.9,0.3-1.3,0.4c-0.2,0.1-0.5,0.1-0.7,0.2c-0.5,0.1-1,0.3-1.5,0.4
			c-0.2,0.1-0.4,0.1-0.6,0.2c-0.7,0.2-1.5,0.3-2.2,0.5c-0.1,0-0.3,0-0.4,0.1c-0.6,0.1-1.3,0.2-1.9,0.3c-0.3,0-0.5,0.1-0.8,0.1
			c-0.5,0.1-1.1,0.1-1.7,0.2c-0.3,0-0.6,0.1-0.9,0.1c-0.6,0-1.2,0.1-1.8,0.1c-0.3,0-0.5,0-0.8,0c-0.9,0-1.8,0.1-2.7,0.1
			c-0.9,0-1.8,0-2.7-0.1c-0.3,0-0.5,0-0.8,0c-0.6,0-1.2-0.1-1.8-0.1c-0.3,0-0.6-0.1-0.9-0.1c-0.6-0.1-1.1-0.1-1.7-0.2
			c-0.3,0-0.5-0.1-0.8-0.1c-0.7-0.1-1.3-0.2-1.9-0.3c-0.1,0-0.3,0-0.4-0.1c-0.8-0.1-1.5-0.3-2.2-0.5c-0.2,0-0.4-0.1-0.6-0.2
			c-0.5-0.1-1-0.3-1.5-0.4c-0.2-0.1-0.5-0.1-0.7-0.2c-0.4-0.1-0.9-0.3-1.3-0.4c-0.2-0.1-0.4-0.2-0.7-0.2c-0.5-0.2-0.9-0.4-1.4-0.5
			c-0.2-0.1-0.3-0.1-0.5-0.2c-0.6-0.3-1.1-0.5-1.6-0.8c-0.1-0.1-0.2-0.1-0.3-0.2c-0.4-0.2-0.8-0.4-1.1-0.7c-0.2-0.1-0.3-0.2-0.5-0.3
			c-0.3-0.2-0.6-0.4-0.9-0.6c-0.1-0.1-0.3-0.2-0.4-0.3c-0.3-0.2-0.5-0.5-0.7-0.7c-0.1-0.1-0.2-0.2-0.3-0.3c-0.3-0.3-0.6-0.7-0.8-1
			v9.4c0,5.9,12.2,10.9,26.6,10.9s26.6-5,26.6-10.9v-9.4c-0.2,0.3-0.5,0.7-0.8,1C96.5,70.5,96.4,70.6,96.3,70.7z"/>
		<path class="st2" d="M96.3,57.6c-0.2,0.2-0.5,0.5-0.7,0.7c-0.1,0.1-0.3,0.2-0.4,0.3c-0.3,0.2-0.6,0.4-0.8,0.6
			c-0.2,0.1-0.3,0.2-0.5,0.3c-0.4,0.2-0.7,0.4-1.1,0.7c-0.1,0.1-0.2,0.1-0.3,0.2c-0.5,0.3-1.1,0.5-1.6,0.8c-0.1,0.1-0.3,0.1-0.5,0.2
			c-0.4,0.2-0.9,0.4-1.3,0.5c-0.2,0.1-0.4,0.2-0.7,0.2c-0.4,0.1-0.9,0.3-1.3,0.4c-0.2,0.1-0.5,0.1-0.7,0.2c-0.5,0.1-1,0.3-1.5,0.4
			c-0.2,0.1-0.4,0.1-0.6,0.2c-0.7,0.2-1.5,0.3-2.2,0.5c-0.1,0-0.3,0-0.4,0.1c-0.6,0.1-1.3,0.2-1.9,0.3c-0.3,0-0.5,0.1-0.8,0.1
			c-0.5,0.1-1.1,0.1-1.7,0.2c-0.3,0-0.6,0.1-0.9,0.1c-0.6,0-1.2,0.1-1.8,0.1c-0.3,0-0.5,0-0.8,0c-0.9,0-1.8,0.1-2.7,0.1
			c-0.9,0-1.8,0-2.7-0.1c-0.3,0-0.5,0-0.8,0c-0.6,0-1.2-0.1-1.8-0.1c-0.3,0-0.6-0.1-0.9-0.1c-0.6-0.1-1.1-0.1-1.7-0.2
			c-0.3,0-0.5-0.1-0.8-0.1c-0.7-0.1-1.3-0.2-1.9-0.3c-0.1,0-0.3,0-0.4-0.1c-0.8-0.1-1.5-0.3-2.2-0.5c-0.2,0-0.4-0.1-0.6-0.2
			c-0.5-0.1-1-0.3-1.5-0.4c-0.2-0.1-0.5-0.1-0.7-0.2c-0.4-0.1-0.9-0.3-1.3-0.4c-0.2-0.1-0.4-0.2-0.7-0.2c-0.5-0.2-0.9-0.4-1.4-0.5
			c-0.2-0.1-0.3-0.1-0.5-0.2c-0.6-0.3-1.1-0.5-1.6-0.8c-0.1-0.1-0.2-0.1-0.3-0.2c-0.4-0.2-0.8-0.4-1.1-0.7c-0.2-0.1-0.3-0.2-0.5-0.3
			c-0.3-0.2-0.6-0.4-0.9-0.6c-0.1-0.1-0.3-0.2-0.4-0.3c-0.3-0.2-0.5-0.5-0.7-0.7c-0.1-0.1-0.2-0.2-0.3-0.3c-0.3-0.3-0.6-0.7-0.8-1
			v9.4c0,5.9,12.2,10.9,26.6,10.9s26.6-5,26.6-10.9v-9.4c-0.2,0.3-0.5,0.7-0.8,1C96.5,57.4,96.4,57.5,96.3,57.6z"/>
		<path class="st2" d="M70.8,41.7c-14.4,0-26.6,5-26.6,10.9c0,0.4,0,0.7,0.1,1.1c0.2,0.7,0.6,1.4,1.1,2.1c0.8,1,1.9,2,3.4,2.9
			c1,0.6,2.1,1.1,3.3,1.6c4.9,2,11.5,3.2,18.7,3.2s13.9-1.3,18.7-3.2c1.2-0.5,2.3-1,3.3-1.6c1.5-0.9,2.6-1.8,3.4-2.9
			c0.5-0.7,0.9-1.4,1.1-2.1c0.1-0.4,0.1-0.7,0.1-1.1C97.4,46.7,85.2,41.7,70.8,41.7z"/>
		<path class="st3" d="M70.8,40.4c-15.6,0-27.9,5.4-27.9,12.2v13.1v13.1v13.1V105c0,6.8,12.2,12.2,27.9,12.2
			c15.6,0,27.9-5.4,27.9-12.2V91.8V78.7v-13V52.6C98.7,45.8,86.4,40.4,70.8,40.4z M97.4,104.8c0,5.9-12.2,10.9-26.6,10.9
			s-26.6-5-26.6-10.9v-9.4c0.2,0.3,0.5,0.7,0.8,1c0.1,0.1,0.2,0.2,0.3,0.3c0.2,0.2,0.5,0.5,0.7,0.7c0.1,0.1,0.3,0.2,0.4,0.3
			c0.3,0.2,0.6,0.4,0.9,0.6c0.2,0.1,0.3,0.2,0.5,0.3c0.4,0.2,0.7,0.5,1.1,0.7c0.1,0.1,0.2,0.1,0.3,0.2c0.5,0.3,1.1,0.5,1.6,0.8
			c0.1,0.1,0.3,0.1,0.5,0.2c0.4,0.2,0.9,0.4,1.4,0.5c0.2,0.1,0.4,0.2,0.7,0.2c0.4,0.1,0.9,0.3,1.3,0.4c0.2,0.1,0.5,0.1,0.7,0.2
			c0.5,0.1,1,0.3,1.5,0.4c0.2,0,0.4,0.1,0.6,0.2c0.7,0.2,1.5,0.3,2.2,0.5c0.1,0,0.3,0,0.4,0.1c0.6,0.1,1.3,0.2,1.9,0.3
			c0.3,0,0.5,0.1,0.8,0.1c0.6,0.1,1.1,0.1,1.7,0.2c0.3,0,0.6,0.1,0.9,0.1c0.6,0,1.2,0.1,1.8,0.1c0.3,0,0.5,0,0.8,0
			c0.9,0,1.8,0.1,2.7,0.1c0.9,0,1.8,0,2.7-0.1c0.3,0,0.5,0,0.8,0c0.6,0,1.2-0.1,1.8-0.1c0.3,0,0.6-0.1,0.9-0.1
			c0.6-0.1,1.1-0.1,1.7-0.2c0.3,0,0.5-0.1,0.8-0.1c0.7-0.1,1.3-0.2,1.9-0.3c0.1,0,0.3,0,0.4-0.1c0.8-0.1,1.5-0.3,2.2-0.5
			c0.2,0,0.4-0.1,0.6-0.2c0.5-0.1,1-0.3,1.5-0.4c0.2-0.1,0.5-0.1,0.7-0.2c0.4-0.1,0.9-0.3,1.3-0.4c0.2-0.1,0.5-0.2,0.7-0.2
			c0.5-0.2,0.9-0.3,1.3-0.5c0.2-0.1,0.3-0.1,0.5-0.2c0.6-0.3,1.1-0.5,1.6-0.8c0.1-0.1,0.2-0.1,0.3-0.2c0.4-0.2,0.8-0.4,1.1-0.7
			c0.2-0.1,0.3-0.2,0.5-0.3c0.3-0.2,0.6-0.4,0.8-0.6c0.1-0.1,0.3-0.2,0.4-0.3c0.3-0.2,0.5-0.5,0.7-0.7c0.1-0.1,0.2-0.2,0.3-0.3
			c0.3-0.3,0.6-0.7,0.8-1v9.4H97.4z M97.4,91.8c0,5.9-12.2,10.9-26.6,10.9s-26.6-5-26.6-10.9v-9.4c0.2,0.3,0.5,0.7,0.8,1
			c0.1,0.1,0.2,0.2,0.3,0.3c0.2,0.2,0.5,0.5,0.8,0.7c0.1,0.1,0.3,0.2,0.4,0.3c0.3,0.2,0.6,0.4,0.9,0.6c0.1,0.1,0.3,0.2,0.4,0.3
			c0.4,0.2,0.8,0.5,1.2,0.7c0.1,0.1,0.2,0.1,0.3,0.2c0.5,0.3,1.1,0.5,1.6,0.8c0.1,0.1,0.3,0.1,0.4,0.2c0.4,0.2,0.9,0.4,1.4,0.5
			c0.2,0.1,0.4,0.2,0.7,0.2c0.4,0.2,0.9,0.3,1.3,0.4c0.2,0.1,0.5,0.1,0.7,0.2c0.5,0.1,1,0.3,1.6,0.4c0.2,0,0.4,0.1,0.6,0.1
			c0.7,0.2,1.5,0.3,2.3,0.5c0.1,0,0.2,0,0.3,0.1c0.7,0.1,1.3,0.2,2,0.3c0.3,0,0.5,0.1,0.8,0.1c0.6,0.1,1.2,0.1,1.7,0.2
			c0.3,0,0.6,0.1,0.8,0.1c0.6,0.1,1.3,0.1,1.9,0.1c0.2,0,0.5,0,0.7,0c0.9,0,1.8,0.1,2.7,0.1c0.9,0,1.8,0,2.7-0.1c0.2,0,0.5,0,0.7,0
			c0.7,0,1.3-0.1,1.9-0.1c0.3,0,0.5,0,0.8-0.1c0.6-0.1,1.2-0.1,1.8-0.2c0.2,0,0.5-0.1,0.7-0.1c0.7-0.1,1.4-0.2,2.1-0.3
			c0.1,0,0.2,0,0.2,0c0.8-0.1,1.5-0.3,2.3-0.5c0.2,0,0.3-0.1,0.5-0.1c0.6-0.1,1.1-0.3,1.7-0.4c0.2-0.1,0.4-0.1,0.6-0.2
			c0.5-0.1,0.9-0.3,1.4-0.5c0.2-0.1,0.4-0.1,0.6-0.2c0.5-0.2,1-0.4,1.4-0.6c0.1-0.1,0.2-0.1,0.4-0.2c0.6-0.3,1.1-0.5,1.7-0.8
			c0.1,0,0.2-0.1,0.3-0.2c0.4-0.2,0.8-0.5,1.2-0.7c0.1-0.1,0.3-0.2,0.4-0.3c0.3-0.2,0.6-0.4,0.9-0.6c0.1-0.1,0.3-0.2,0.4-0.3
			c0.3-0.2,0.5-0.5,0.8-0.7c0.1-0.1,0.2-0.2,0.3-0.3c0.3-0.3,0.6-0.7,0.8-1C97.4,82.3,97.4,91.8,97.4,91.8z M97.4,78.7
			c0,5.9-12.2,10.9-26.6,10.9s-26.6-5-26.6-10.9v-9.4c0.2,0.3,0.5,0.7,0.8,1c0.1,0.1,0.2,0.2,0.3,0.3c0.2,0.2,0.5,0.5,0.7,0.7
			c0.1,0.1,0.3,0.2,0.4,0.3c0.3,0.2,0.6,0.4,0.9,0.6c0.2,0.1,0.3,0.2,0.5,0.3c0.4,0.2,0.7,0.5,1.1,0.7c0.1,0.1,0.2,0.1,0.3,0.2
			c0.5,0.3,1.1,0.5,1.6,0.8c0.1,0.1,0.3,0.1,0.5,0.2c0.4,0.2,0.9,0.4,1.4,0.5c0.2,0.1,0.4,0.2,0.7,0.2c0.4,0.1,0.9,0.3,1.3,0.4
			c0.2,0.1,0.5,0.1,0.7,0.2c0.5,0.1,1,0.3,1.5,0.4c0.2,0,0.4,0.1,0.6,0.2c0.7,0.2,1.5,0.3,2.2,0.5c0.1,0,0.3,0,0.4,0.1
			c0.6,0.1,1.3,0.2,1.9,0.3c0.3,0,0.5,0.1,0.8,0.1c0.6,0.1,1.1,0.1,1.7,0.2c0.3,0,0.6,0.1,0.9,0.1c0.6,0,1.2,0.1,1.8,0.1
			c0.3,0,0.5,0,0.8,0c0.9,0,1.8,0.1,2.7,0.1c0.9,0,1.8,0,2.7-0.1c0.3,0,0.5,0,0.8,0c0.6,0,1.2-0.1,1.8-0.1c0.3,0,0.6-0.1,0.9-0.1
			c0.6-0.1,1.1-0.1,1.7-0.2c0.3,0,0.5-0.1,0.8-0.1c0.7-0.1,1.3-0.2,1.9-0.3c0.1,0,0.3,0,0.4-0.1c0.8-0.1,1.5-0.3,2.2-0.5
			c0.2,0,0.4-0.1,0.6-0.2c0.5-0.1,1-0.3,1.5-0.4c0.2-0.1,0.5-0.1,0.7-0.2c0.4-0.1,0.9-0.3,1.3-0.4c0.2-0.1,0.5-0.2,0.7-0.2
			c0.5-0.2,0.9-0.3,1.3-0.5c0.2-0.1,0.3-0.1,0.5-0.2c0.6-0.3,1.1-0.5,1.6-0.8c0.1-0.1,0.2-0.1,0.3-0.2c0.4-0.2,0.8-0.4,1.1-0.7
			c0.2-0.1,0.3-0.2,0.5-0.3c0.3-0.2,0.6-0.4,0.8-0.6c0.1-0.1,0.3-0.2,0.4-0.3c0.3-0.2,0.5-0.5,0.7-0.7c0.1-0.1,0.2-0.2,0.3-0.3
			c0.3-0.3,0.6-0.7,0.8-1v9.4H97.4z M97.4,65.7c0,5.9-12.2,10.9-26.6,10.9s-26.6-5-26.6-10.9v-9.4c0.2,0.3,0.5,0.7,0.8,1
			c0.1,0.1,0.2,0.2,0.3,0.3c0.2,0.2,0.5,0.5,0.7,0.7c0.1,0.1,0.3,0.2,0.4,0.3c0.3,0.2,0.6,0.4,0.9,0.6c0.2,0.1,0.3,0.2,0.5,0.3
			c0.4,0.2,0.7,0.5,1.1,0.7c0.1,0.1,0.2,0.1,0.3,0.2c0.5,0.3,1.1,0.5,1.6,0.8c0.1,0.1,0.3,0.1,0.5,0.2c0.4,0.2,0.9,0.4,1.4,0.5
			c0.2,0.1,0.4,0.2,0.7,0.2c0.4,0.1,0.9,0.3,1.3,0.4c0.2,0.1,0.5,0.1,0.7,0.2c0.5,0.1,1,0.3,1.5,0.4c0.2,0,0.4,0.1,0.6,0.2
			c0.7,0.2,1.5,0.3,2.2,0.5c0.1,0,0.3,0,0.4,0.1c0.6,0.1,1.3,0.2,1.9,0.3c0.3,0,0.5,0.1,0.8,0.1c0.6,0.1,1.1,0.1,1.7,0.2
			c0.3,0,0.6,0.1,0.9,0.1c0.6,0,1.2,0.1,1.8,0.1c0.3,0,0.5,0,0.8,0c0.9,0,1.8,0.1,2.7,0.1c0.9,0,1.8,0,2.7-0.1c0.3,0,0.5,0,0.8,0
			c0.6,0,1.2-0.1,1.8-0.1c0.3,0,0.6-0.1,0.9-0.1c0.6-0.1,1.1-0.1,1.7-0.2c0.3,0,0.5-0.1,0.8-0.1c0.7-0.1,1.3-0.2,1.9-0.3
			c0.1,0,0.3,0,0.4-0.1c0.8-0.1,1.5-0.3,2.2-0.5c0.2,0,0.4-0.1,0.6-0.2c0.5-0.1,1-0.3,1.5-0.4c0.2-0.1,0.5-0.1,0.7-0.2
			c0.4-0.1,0.9-0.3,1.3-0.4c0.2-0.1,0.5-0.2,0.7-0.2c0.5-0.2,0.9-0.3,1.3-0.5c0.2-0.1,0.3-0.1,0.5-0.2c0.6-0.3,1.1-0.5,1.6-0.8
			c0.1-0.1,0.2-0.1,0.3-0.2c0.4-0.2,0.8-0.4,1.1-0.7c0.2-0.1,0.3-0.2,0.5-0.3c0.3-0.2,0.6-0.4,0.8-0.6c0.1-0.1,0.3-0.2,0.4-0.3
			c0.3-0.2,0.5-0.5,0.7-0.7c0.1-0.1,0.2-0.2,0.3-0.3c0.3-0.3,0.6-0.7,0.8-1v9.4H97.4z M97.3,53.7c-0.2,0.7-0.6,1.4-1.1,2.1
			c-0.8,1-1.9,2-3.4,2.9c-1,0.6-2.1,1.1-3.3,1.6c-4.8,2-11.5,3.2-18.7,3.2s-13.9-1.3-18.7-3.2c-1.2-0.5-2.3-1-3.3-1.6
			c-1.5-0.9-2.6-1.8-3.4-2.9c-0.5-0.7-0.9-1.4-1.1-2.1c-0.1-0.4-0.1-0.7-0.1-1.1c0-5.9,12.2-10.9,26.6-10.9s26.6,5,26.6,10.9
			C97.4,53,97.4,53.3,97.3,53.7z"/>
	</g>
</g>
<g>
	<g>
		<path class="st4" d="M54.4,44.3c-0.2,0.2-0.5,0.5-0.8,0.7c-0.1,0.1-0.3,0.2-0.4,0.3c-0.3,0.2-0.6,0.4-0.9,0.6
			c-0.1,0.1-0.3,0.2-0.4,0.3c-0.4,0.2-0.8,0.5-1.2,0.7c-0.1,0-0.2,0.1-0.3,0.2c-0.5,0.3-1.1,0.5-1.7,0.8c-0.1,0.1-0.2,0.1-0.4,0.2
			c-0.5,0.2-0.9,0.4-1.4,0.6c-0.2,0.1-0.4,0.1-0.6,0.2c-0.5,0.2-0.9,0.3-1.4,0.5c-0.2,0.1-0.4,0.1-0.6,0.2c-0.5,0.2-1.1,0.3-1.7,0.4
			c-0.2,0-0.3,0.1-0.5,0.1c-0.7,0.2-1.5,0.3-2.3,0.5c-0.1,0-0.2,0-0.2,0c-0.7,0.1-1.4,0.2-2.1,0.3C37.2,51,37,51,36.8,51
			c-0.6,0.1-1.2,0.1-1.8,0.2c-0.3,0-0.5,0-0.8,0.1c-0.6,0.1-1.3,0.1-1.9,0.1c-0.2,0-0.4,0-0.7,0c-0.9,0-1.8,0.1-2.7,0.1
			c-0.9,0-1.8,0-2.7-0.1c-0.2,0-0.5,0-0.7,0c-0.6,0-1.3-0.1-1.9-0.1c-0.3,0-0.6,0-0.8-0.1c-0.6-0.1-1.2-0.1-1.7-0.2
			c-0.3,0-0.5-0.1-0.8-0.1c-0.7-0.1-1.4-0.2-2-0.3c-0.1,0-0.2,0-0.3-0.1c-0.8-0.1-1.5-0.3-2.3-0.5c-0.2,0-0.4-0.1-0.6-0.1
			c-0.5-0.1-1.1-0.3-1.6-0.4c-0.2-0.1-0.5-0.1-0.7-0.2c-0.5-0.1-0.9-0.3-1.3-0.4c-0.2-0.1-0.4-0.2-0.7-0.2c-0.5-0.2-0.9-0.4-1.4-0.5
			C9.3,48.1,9.1,48,9,47.9c-0.6-0.3-1.1-0.5-1.6-0.8C7.2,47.1,7.1,47,7,47c-0.4-0.2-0.8-0.5-1.2-0.7c-0.2-0.1-0.3-0.2-0.4-0.3
			c-0.3-0.2-0.6-0.4-0.9-0.6c-0.1-0.1-0.3-0.2-0.4-0.3c-0.3-0.2-0.5-0.5-0.8-0.7c-0.1-0.1-0.2-0.2-0.3-0.3c-0.3-0.3-0.6-0.7-0.8-1
			v9.4c0,5.9,12.2,10.9,26.6,10.9s26.6-5,26.6-10.9V43c-0.2,0.3-0.5,0.7-0.8,1C54.5,44.1,54.4,44.2,54.4,44.3z"/>
		<path class="st4" d="M54.3,57.4c-0.2,0.2-0.5,0.5-0.7,0.7c-0.1,0.1-0.3,0.2-0.4,0.3c-0.3,0.2-0.6,0.4-0.8,0.6
			c-0.2,0.1-0.3,0.2-0.5,0.3c-0.4,0.2-0.7,0.4-1.1,0.7c-0.1,0.1-0.2,0.1-0.3,0.2c-0.5,0.3-1.1,0.5-1.6,0.8c-0.1,0.1-0.3,0.1-0.5,0.2
			c-0.4,0.2-0.9,0.4-1.3,0.5c-0.2,0.1-0.4,0.2-0.7,0.2c-0.4,0.1-0.9,0.3-1.3,0.4c-0.2,0.1-0.5,0.1-0.7,0.2c-0.5,0.1-1,0.3-1.5,0.4
			c-0.2,0.1-0.4,0.1-0.6,0.2c-0.7,0.2-1.5,0.3-2.2,0.5c-0.1,0-0.3,0-0.4,0.1c-0.6,0.1-1.3,0.2-1.9,0.3c-0.3,0-0.5,0.1-0.8,0.1
			c-0.5,0.1-1.1,0.1-1.7,0.2c-0.3,0-0.6,0.1-0.9,0.1c-0.6,0-1.2,0.1-1.8,0.1c-0.3,0-0.5,0-0.8,0c-0.9,0-1.8,0.1-2.7,0.1
			s-1.8,0-2.7-0.1c-0.3,0-0.5,0-0.8,0c-0.6,0-1.2-0.1-1.8-0.1c-0.3,0-0.6-0.1-0.9-0.1c-0.6-0.1-1.1-0.1-1.7-0.2
			c-0.3,0-0.5-0.1-0.8-0.1c-0.7-0.1-1.3-0.2-1.9-0.3c-0.1,0-0.3,0-0.4-0.1c-0.8-0.1-1.5-0.3-2.2-0.5c-0.2,0-0.4-0.1-0.6-0.2
			c-0.5-0.1-1-0.3-1.5-0.4c-0.2-0.1-0.5-0.1-0.7-0.2c-0.4-0.1-0.9-0.3-1.3-0.4c-0.2-0.1-0.4-0.2-0.7-0.2c-0.5-0.2-0.9-0.4-1.4-0.5
			C9.3,61.1,9.1,61.1,9,61c-0.6-0.3-1.1-0.5-1.6-0.8C7.2,60.1,7.1,60.1,7,60c-0.4-0.2-0.8-0.4-1.1-0.7c-0.2-0.1-0.3-0.2-0.5-0.3
			c-0.3-0.2-0.6-0.4-0.9-0.6c-0.1-0.1-0.3-0.2-0.4-0.3c-0.3-0.2-0.5-0.5-0.7-0.7c-0.1-0.1-0.2-0.2-0.3-0.3c-0.3-0.3-0.6-0.7-0.8-1
			v9.4c0,5.9,12.2,10.9,26.6,10.9s26.6-5,26.6-10.9v-9.4c-0.2,0.3-0.5,0.7-0.8,1C54.5,57.2,54.4,57.3,54.3,57.4z"/>
		<path class="st4" d="M54.3,31.3c-0.2,0.2-0.5,0.5-0.7,0.7c-0.1,0.1-0.3,0.2-0.4,0.3c-0.3,0.2-0.6,0.4-0.8,0.6
			c-0.2,0.1-0.3,0.2-0.5,0.3c-0.4,0.2-0.7,0.4-1.1,0.7c-0.1,0.1-0.2,0.1-0.3,0.2c-0.5,0.3-1.1,0.5-1.6,0.8c-0.1,0.1-0.3,0.1-0.5,0.2
			c-0.4,0.2-0.9,0.4-1.3,0.5c-0.2,0.1-0.4,0.2-0.7,0.2c-0.4,0.1-0.9,0.3-1.3,0.4c-0.2,0.1-0.5,0.1-0.7,0.2c-0.5,0.1-1,0.3-1.5,0.4
			c-0.2,0.1-0.4,0.1-0.6,0.2c-0.7,0.2-1.5,0.3-2.2,0.5c-0.1,0-0.3,0-0.4,0.1c-0.6,0.1-1.3,0.2-1.9,0.3c-0.3,0-0.5,0.1-0.8,0.1
			c-0.5,0.1-1.1,0.1-1.7,0.2c-0.3,0-0.6,0.1-0.9,0.1c-0.6,0-1.2,0.1-1.8,0.1c-0.3,0-0.5,0-0.8,0c-0.9,0-1.8,0.1-2.7,0.1
			s-1.8,0-2.7-0.1c-0.3,0-0.5,0-0.8,0c-0.6,0-1.2-0.1-1.8-0.1c-0.3,0-0.6-0.1-0.9-0.1C22.1,38.1,21.6,38,21,38
			c-0.3,0-0.5-0.1-0.8-0.1c-0.7-0.1-1.3-0.2-1.9-0.3c-0.1,0-0.3,0-0.4-0.1c-0.8-0.1-1.5-0.3-2.2-0.5c-0.2,0-0.4-0.1-0.6-0.2
			c-0.5-0.1-1-0.3-1.5-0.4c-0.2-0.1-0.5-0.1-0.7-0.2c-0.4-0.1-0.9-0.3-1.3-0.4c-0.2-0.1-0.4-0.2-0.7-0.2c-0.5-0.2-0.9-0.4-1.4-0.5
			C9.3,35,9.1,34.9,9,34.9c-0.6-0.3-1.1-0.5-1.6-0.8C7.2,34,7.1,34,7,33.9c-0.4-0.2-0.8-0.4-1.1-0.7c-0.2-0.1-0.3-0.2-0.5-0.3
			c-0.3-0.2-0.6-0.4-0.9-0.6c-0.1-0.1-0.3-0.2-0.4-0.3c-0.3-0.2-0.5-0.5-0.7-0.7c-0.1-0.1-0.2-0.2-0.3-0.3c-0.3-0.3-0.6-0.7-0.8-1
			v9.4c0,5.9,12.2,10.9,26.6,10.9s26.6-5,26.6-10.9V30c-0.2,0.3-0.5,0.7-0.8,1C54.5,31.1,54.4,31.2,54.3,31.3z"/>
		<path class="st4" d="M54.3,18.2c-0.2,0.2-0.5,0.5-0.7,0.7c-0.1,0.1-0.3,0.2-0.4,0.3c-0.3,0.2-0.6,0.4-0.8,0.6
			c-0.2,0.1-0.3,0.2-0.5,0.3c-0.4,0.2-0.7,0.4-1.1,0.7c-0.1,0.1-0.2,0.1-0.3,0.2c-0.5,0.3-1.1,0.5-1.6,0.8c-0.1,0.1-0.3,0.1-0.5,0.2
			c-0.4,0.2-0.9,0.4-1.3,0.5c-0.2,0.1-0.4,0.2-0.7,0.2c-0.4,0.1-0.9,0.3-1.3,0.4c-0.2,0.1-0.5,0.1-0.7,0.2c-0.5,0.1-1,0.3-1.5,0.4
			c-0.2,0.1-0.4,0.1-0.6,0.2c-0.7,0.2-1.5,0.3-2.2,0.5c-0.1,0-0.3,0-0.4,0.1c-0.6,0.1-1.3,0.2-1.9,0.3c-0.3,0-0.5,0.1-0.8,0.1
			c-0.9,0.1-1.4,0.1-2,0.2c-0.3,0-0.6,0.1-0.9,0.1c-0.6,0-1.2,0.1-1.8,0.1c-0.3,0-0.5,0-0.8,0c-0.9,0-1.8,0.1-2.7,0.1
			s-1.8,0-2.7-0.1c-0.3,0-0.5,0-0.8,0c-0.6,0-1.2-0.1-1.8-0.1c-0.3,0-0.6-0.1-0.9-0.1c-0.5-0.1-1-0.1-1.6-0.2
			c-0.3,0-0.5-0.1-0.8-0.1c-0.7-0.1-1.3-0.2-1.9-0.3c-0.1,0-0.3,0-0.4-0.1c-0.8-0.1-1.5-0.3-2.2-0.5c-0.2,0-0.4-0.1-0.6-0.2
			c-0.5-0.1-1-0.3-1.5-0.4c-0.2-0.1-0.5-0.1-0.7-0.2c-0.4-0.1-0.9-0.3-1.3-0.4c-0.2-0.1-0.4-0.2-0.7-0.2c-0.5-0.2-0.9-0.4-1.4-0.5
			c-0.2-0.1-0.3-0.1-0.5-0.2c-0.6-0.3-1.1-0.5-1.6-0.8c-0.2,0-0.3-0.1-0.4-0.2c-0.4-0.2-0.8-0.4-1.1-0.7c-0.2-0.1-0.3-0.2-0.5-0.3
			c-0.3-0.2-0.6-0.4-0.9-0.6c-0.1-0.1-0.3-0.2-0.4-0.3c-0.3-0.2-0.5-0.5-0.7-0.7c-0.1-0.1-0.2-0.2-0.3-0.3c-0.3-0.3-0.6-0.7-0.8-1
			v9.4c0,5.9,12.2,10.9,26.6,10.9s26.6-5,26.6-10.9v-9.4c-0.2,0.3-0.5,0.7-0.8,1C54.5,18,54.4,18.1,54.3,18.2z"/>
		<path class="st4" d="M28.9,2.3c-14.4,0-26.6,5-26.6,10.9c0,0.4,0,0.7,0.1,1.1C2.6,15,3,15.7,3.5,16.4c0.8,1,1.9,2,3.4,2.9
			c1,0.6,2.1,1.1,3.3,1.6c4.9,2,11.5,3.2,18.7,3.2s13.9-1.3,18.7-3.2c1.2-0.5,2.3-1,3.3-1.6c1.5-0.9,2.6-1.8,3.4-2.9
			c0.5-0.7,0.9-1.4,1.1-2.1c0.1-0.4,0.1-0.7,0.1-1.1C55.5,7.3,43.3,2.3,28.9,2.3z"/>
		<path class="st5" d="M28.9,1C13.2,1,1,6.4,1,13.2v13.1v13.1v13.1v13.1c0,6.8,12.2,12.2,27.9,12.2c15.6,0,27.9-5.4,27.9-12.2V52.4
			V39.3v-13V13.2C56.7,6.4,44.5,1,28.9,1z M55.5,65.4c0,5.9-12.2,10.9-26.6,10.9s-26.6-5-26.6-10.9V56c0.2,0.3,0.5,0.7,0.8,1
			c0.1,0.1,0.2,0.2,0.3,0.3c0.2,0.2,0.5,0.5,0.7,0.7c0.1,0.1,0.3,0.2,0.4,0.3c0.3,0.2,0.6,0.4,0.9,0.6c0.2,0.1,0.3,0.2,0.5,0.3
			C6.2,59.6,6.6,59.8,7,60c0.1,0.1,0.2,0.1,0.3,0.2C7.9,60.5,8.4,60.7,9,61c0.1,0.1,0.3,0.1,0.5,0.2c0.4,0.2,0.9,0.4,1.4,0.5
			c0.2,0.1,0.4,0.2,0.7,0.2c0.4,0.1,0.9,0.3,1.3,0.4c0.2,0.1,0.5,0.1,0.7,0.2c0.5,0.1,1,0.3,1.5,0.4c0.2,0,0.4,0.1,0.6,0.2
			c0.7,0.2,1.5,0.3,2.2,0.5c0.1,0,0.3,0,0.4,0.1c0.6,0.1,1.3,0.2,1.9,0.3c0.3,0,0.5,0.1,0.8,0.1c0.6,0.1,1.1,0.1,1.7,0.2
			c0.3,0,0.6,0.1,0.9,0.1c0.6,0,1.2,0.1,1.8,0.1c0.3,0,0.5,0,0.8,0c0.9,0,1.8,0.1,2.7,0.1s1.8,0,2.7-0.1c0.3,0,0.5,0,0.8,0
			c0.6,0,1.2-0.1,1.8-0.1c0.3,0,0.6-0.1,0.9-0.1c0.6-0.1,1.1-0.1,1.7-0.2c0.3,0,0.5-0.1,0.8-0.1c0.7-0.1,1.3-0.2,1.9-0.3
			c0.1,0,0.3,0,0.4-0.1c0.8-0.1,1.5-0.3,2.2-0.5c0.2,0,0.4-0.1,0.6-0.2c0.5-0.1,1-0.3,1.5-0.4c0.2-0.1,0.5-0.1,0.7-0.2
			c0.4-0.1,0.9-0.3,1.3-0.4c0.2-0.1,0.5-0.2,0.7-0.2c0.5-0.2,0.9-0.3,1.3-0.5c0.2-0.1,0.3-0.1,0.5-0.2c0.6-0.3,1.1-0.5,1.6-0.8
			c0.1-0.1,0.2-0.1,0.3-0.2c0.4-0.2,0.8-0.4,1.1-0.7c0.2-0.1,0.3-0.2,0.5-0.3c0.3-0.2,0.6-0.4,0.8-0.6c0.1-0.1,0.3-0.2,0.4-0.3
			c0.3-0.2,0.5-0.5,0.7-0.7c0.1-0.1,0.2-0.2,0.3-0.3c0.3-0.3,0.6-0.7,0.8-1v9.3H55.5z M55.5,52.4c0,5.9-12.2,10.9-26.6,10.9
			s-26.6-5-26.6-10.9V43c0.2,0.3,0.5,0.7,0.8,1c0.1,0.1,0.2,0.2,0.3,0.3c0.2,0.2,0.5,0.5,0.8,0.7c0.1,0.1,0.3,0.2,0.4,0.3
			c0.3,0.2,0.6,0.4,0.9,0.6c0.1,0.1,0.3,0.2,0.4,0.3C6.2,46.5,6.6,46.7,7,47c0.1,0.1,0.2,0.1,0.3,0.2c0.5,0.3,1.1,0.5,1.6,0.8
			c0.1,0.1,0.3,0.1,0.4,0.2c0.4,0.2,0.9,0.4,1.4,0.5c0.2,0.1,0.4,0.2,0.7,0.2c0.4,0.2,0.9,0.3,1.3,0.4c0.2,0.1,0.5,0.1,0.7,0.2
			c0.5,0.1,1,0.3,1.6,0.4c0.2,0,0.4,0.1,0.6,0.1c0.7,0.2,1.5,0.3,2.3,0.5c0.1,0,0.2,0,0.3,0.1c0.7,0.1,1.3,0.2,2,0.3
			c0.3,0,0.5,0.1,0.8,0.1c0.6,0.1,1.2,0.1,1.7,0.2c0.3,0,0.6,0.1,0.8,0.1c0.6,0.1,1.3,0.1,1.9,0.1c0.2,0,0.5,0,0.7,0
			c0.9,0,1.8,0.1,2.7,0.1c0.9,0,1.8,0,2.7-0.1c0.2,0,0.5,0,0.7,0c0.7,0,1.3-0.1,1.9-0.1c0.3,0,0.5,0,0.8-0.1
			c0.6-0.1,1.2-0.1,1.8-0.2c0.2,0,0.5-0.1,0.7-0.1c0.7-0.1,1.4-0.2,2.1-0.3c0.1,0,0.2,0,0.2,0c0.8-0.1,1.5-0.3,2.3-0.5
			c0.2,0,0.3-0.1,0.5-0.1c0.6-0.1,1.1-0.3,1.7-0.4c0.2-0.1,0.4-0.1,0.6-0.2c0.5-0.1,0.9-0.3,1.4-0.5c0.2-0.1,0.4-0.1,0.6-0.2
			c0.5-0.2,1-0.4,1.4-0.6c0.1-0.1,0.2-0.1,0.4-0.2c0.6-0.3,1.1-0.5,1.7-0.8c0.1,0,0.2-0.1,0.3-0.2c0.4-0.2,0.8-0.5,1.2-0.7
			c0.1-0.1,0.3-0.2,0.4-0.3c0.3-0.2,0.6-0.4,0.9-0.6c0.1-0.1,0.3-0.2,0.4-0.3c0.3-0.2,0.5-0.5,0.8-0.7c0.1-0.1,0.2-0.2,0.3-0.3
			c0.3-0.3,0.6-0.7,0.8-1L55.5,52.4L55.5,52.4z M55.5,39.3c0,5.9-12.2,10.9-26.6,10.9s-26.6-5-26.6-10.9v-9.4c0.2,0.3,0.5,0.7,0.8,1
			c0.1,0.1,0.2,0.2,0.3,0.3c0.2,0.2,0.5,0.5,0.7,0.7c0.1,0.1,0.3,0.2,0.4,0.3c0.3,0.2,0.6,0.4,0.9,0.6c0.2,0.1,0.3,0.2,0.5,0.3
			c0.4,0.2,0.7,0.5,1.1,0.7C7.1,34,7.2,34,7.4,34.1c0.5,0.3,1.1,0.5,1.6,0.8C9.1,35,9.3,35,9.5,35.1c0.4,0.2,0.9,0.4,1.4,0.5
			c0.2,0.1,0.4,0.2,0.7,0.2c0.4,0.1,0.9,0.3,1.3,0.4c0.2,0.1,0.5,0.1,0.7,0.2c0.5,0.1,1,0.3,1.5,0.4c0.2,0,0.4,0.1,0.6,0.2
			c0.7,0.2,1.5,0.3,2.2,0.5c0.1,0,0.3,0,0.4,0.1c0.6,0.1,1.3,0.2,1.9,0.3c0.3,0,0.5,0.1,0.8,0.1c0.6,0.1,1.1,0.1,1.7,0.2
			c0.3,0,0.6,0.1,0.9,0.1c0.6,0,1.2,0.1,1.8,0.1c0.3,0,0.5,0,0.8,0c0.9,0,1.8,0.1,2.7,0.1s1.8,0,2.7-0.1c0.3,0,0.5,0,0.8,0
			c0.6,0,1.2-0.1,1.8-0.1c0.3,0,0.6-0.1,0.9-0.1c0.6-0.1,1.1-0.1,1.7-0.2c0.3,0,0.5-0.1,0.8-0.1c0.7-0.1,1.3-0.2,1.9-0.3
			c0.1,0,0.3,0,0.4-0.1c0.8-0.1,1.5-0.3,2.2-0.5c0.2,0,0.4-0.1,0.6-0.2c0.5-0.1,1-0.3,1.5-0.4c0.2-0.1,0.5-0.1,0.7-0.2
			c0.4-0.1,0.9-0.3,1.3-0.4c0.2-0.1,0.5-0.2,0.7-0.2c0.5-0.2,0.9-0.3,1.3-0.5c0.2-0.1,0.3-0.1,0.5-0.2c0.6-0.3,1.1-0.5,1.6-0.8
			c0.1-0.1,0.2-0.1,0.3-0.2c0.4-0.2,0.8-0.4,1.1-0.7c0.2-0.1,0.3-0.2,0.5-0.3c0.3-0.2,0.6-0.4,0.8-0.6c0.1-0.1,0.3-0.2,0.4-0.3
			c0.3-0.2,0.5-0.5,0.7-0.7c0.1-0.1,0.2-0.2,0.3-0.3c0.3-0.3,0.6-0.7,0.8-1v9.3H55.5z M55.5,26.3c0,5.9-12.2,10.9-26.6,10.9
			s-26.6-5-26.6-10.9v-9.4c0.2,0.3,0.5,0.7,0.8,1c0.1,0.1,0.2,0.2,0.3,0.3c0.2,0.2,0.5,0.5,0.7,0.7c0.1,0.1,0.3,0.2,0.4,0.3
			c0.3,0.2,0.6,0.4,0.9,0.6c0.2,0.1,0.3,0.2,0.5,0.3c0.4,0.2,0.7,0.5,1.1,0.7C7.1,20.9,7.2,21,7.4,21c0.5,0.3,1.1,0.5,1.6,0.8
			c0.1,0.1,0.3,0.1,0.5,0.2c0.4,0.2,0.9,0.4,1.4,0.5c0.2,0.1,0.4,0.2,0.7,0.2c0.4,0.1,0.9,0.3,1.3,0.4c0.2,0.1,0.5,0.1,0.7,0.2
			c0.5,0.1,1,0.3,1.5,0.4c0.2,0,0.4,0.1,0.6,0.2c0.7,0.2,1.5,0.3,2.2,0.5c0.1,0,0.3,0,0.4,0.1c0.6,0.1,1.3,0.2,1.9,0.3
			c0.3,0,0.5,0.1,0.8,0.1c0.6,0.1,1.1,0.1,1.7,0.2c0.3,0,0.6,0.1,0.9,0.1c0.6,0,1.2,0.1,1.8,0.1c0.3,0,0.5,0,0.8,0
			c0.9,0,1.8,0.1,2.7,0.1s1.8,0,2.7-0.1c0.3,0,0.5,0,0.8,0c0.6,0,1.2-0.1,1.8-0.1c0.3,0,0.6-0.1,0.9-0.1c0.6-0.1,1.1-0.1,1.7-0.2
			c0.3,0,0.5-0.1,0.8-0.1c0.7-0.1,1.3-0.2,1.9-0.3c0.1,0,0.3,0,0.4-0.1c0.8-0.1,1.5-0.3,2.2-0.5c0.2,0,0.4-0.1,0.6-0.2
			c0.5-0.1,1-0.3,1.5-0.4c0.2-0.1,0.5-0.1,0.7-0.2c0.4-0.1,0.9-0.3,1.3-0.4c0.2-0.1,0.5-0.2,0.7-0.2c0.5-0.2,0.9-0.3,1.3-0.5
			c0.2-0.1,0.3-0.1,0.5-0.2c0.6-0.3,1.1-0.5,1.6-0.8c0.1-0.1,0.2-0.1,0.3-0.2c0.4-0.2,0.8-0.4,1.1-0.7c0.2-0.1,0.3-0.2,0.5-0.3
			c0.3-0.2,0.6-0.4,0.8-0.6c0.1-0.1,0.3-0.2,0.4-0.3c0.3-0.2,0.5-0.5,0.7-0.7c0.1-0.1,0.2-0.2,0.3-0.3c0.3-0.3,0.6-0.7,0.8-1v9.4
			H55.5z M55.3,14.3c-0.2,0.7-0.6,1.4-1.1,2.1c-0.8,1-1.9,2-3.4,2.9c-1,0.6-2.1,1.1-3.3,1.6c-4.8,2-11.5,3.2-18.7,3.2
			s-13.9-1.3-18.7-3.2c-1.2-0.5-2.3-1-3.3-1.6c-1.5-0.9-2.6-1.8-3.4-2.9c-0.5-0.7-0.9-1.4-1.1-2.1c-0.1-0.4-0.1-0.7-0.1-1.1
			c0-5.9,12.2-10.9,26.6-10.9s26.6,5,26.6,10.9C55.5,13.6,55.4,13.9,55.3,14.3z"/>
	</g>
	<g>
		<path class="st4" d="M75.8,63.9c-0.2,0.2-0.5,0.5-0.8,0.7c-0.1,0.1-0.3,0.2-0.4,0.3c-0.3,0.2-0.6,0.4-0.9,0.6
			c-0.1,0.1-0.3,0.2-0.4,0.3c-0.4,0.2-0.8,0.5-1.2,0.7c-0.1,0-0.2,0.1-0.3,0.2c-0.5,0.3-1.1,0.5-1.7,0.8c-0.1,0.1-0.2,0.1-0.4,0.2
			c-0.5,0.2-0.9,0.4-1.4,0.6c-0.2,0.1-0.4,0.1-0.6,0.2c-0.5,0.2-0.9,0.3-1.4,0.5c-0.2,0.1-0.4,0.1-0.6,0.2c-0.5,0.2-1.1,0.3-1.7,0.4
			c-0.2,0-0.3,0.1-0.5,0.1c-0.7,0.2-1.5,0.3-2.3,0.5c-0.1,0-0.2,0-0.2,0c-0.7,0.1-1.4,0.2-2.1,0.3c-0.2,0-0.5,0.1-0.7,0.1
			c-0.6,0.1-1.2,0.1-1.8,0.2c-0.3,0-0.5,0-0.8,0.1C55,71,54.3,71,53.7,71c-0.2,0-0.4,0-0.7,0c-0.9,0-1.8,0.1-2.7,0.1s-1.8,0-2.7-0.1
			c-0.2,0-0.5,0-0.7,0c-0.6,0-1.3-0.1-1.9-0.1c-0.3,0-0.6,0-0.8-0.1c-0.6-0.1-1.2-0.1-1.7-0.2c-0.3,0-0.5-0.1-0.8-0.1
			c-0.7-0.1-1.4-0.2-2-0.3c-0.1,0-0.2,0-0.3-0.1c-0.8-0.1-1.5-0.3-2.3-0.5c-0.2,0-0.4-0.1-0.6-0.1c-0.5-0.1-1.1-0.3-1.6-0.4
			c-0.2-0.1-0.5-0.1-0.7-0.2c-0.5-0.1-0.9-0.3-1.3-0.4c-0.2-0.1-0.4-0.2-0.7-0.2c-0.5-0.2-0.9-0.4-1.4-0.5c-0.1-0.1-0.3-0.1-0.4-0.2
			c-0.6-0.3-1.1-0.5-1.6-0.8c-0.1-0.1-0.2-0.1-0.3-0.2c-0.4-0.2-0.8-0.5-1.2-0.7c-0.2-0.1-0.3-0.2-0.4-0.3c-0.3-0.2-0.6-0.4-0.9-0.6
			c-0.1-0.1-0.3-0.2-0.4-0.3c-0.3-0.2-0.5-0.5-0.8-0.7c-0.1-0.1-0.2-0.2-0.3-0.3c-0.3-0.3-0.6-0.7-0.8-1V72
			c0,5.9,12.2,10.9,26.6,10.9s26.6-5,26.6-10.9v-9.4c-0.2,0.3-0.5,0.7-0.8,1C76,63.7,75.9,63.8,75.8,63.9z"/>
		<path class="st4" d="M75.7,77c-0.2,0.2-0.5,0.5-0.7,0.7c-0.1,0.1-0.3,0.2-0.4,0.3c-0.3,0.2-0.6,0.4-0.8,0.6
			c-0.2,0.1-0.3,0.2-0.5,0.3c-0.4,0.2-0.7,0.4-1.1,0.7c-0.1,0.1-0.2,0.1-0.3,0.2c-0.5,0.3-1.1,0.5-1.6,0.8c-0.1,0.1-0.3,0.1-0.5,0.2
			c-0.4,0.2-0.9,0.4-1.3,0.5c-0.2,0.1-0.4,0.2-0.7,0.2c-0.4,0.1-0.9,0.3-1.3,0.4C66.3,82,66,82,65.8,82.1c-0.5,0.1-1,0.3-1.5,0.4
			c-0.2,0.1-0.4,0.1-0.6,0.2c-0.7,0.2-1.5,0.3-2.2,0.5c-0.1,0-0.3,0-0.4,0.1c-0.6,0.1-1.3,0.2-1.9,0.3c-0.3,0-0.5,0.1-0.8,0.1
			c-0.5,0.1-1.1,0.1-1.7,0.2c-0.3,0-0.6,0.1-0.9,0.1c-0.6,0-1.2,0.1-1.8,0.1c-0.3,0-0.5,0-0.8,0c-0.9,0-1.8,0.1-2.7,0.1
			s-1.8,0-2.7-0.1c-0.3,0-0.5,0-0.8,0c-0.6,0-1.2-0.1-1.8-0.1c-0.3,0-0.6-0.1-0.9-0.1c-0.6-0.1-1.1-0.1-1.7-0.2
			c-0.3,0-0.5-0.1-0.8-0.1c-0.7-0.1-1.3-0.2-1.9-0.3c-0.1,0-0.3,0-0.4-0.1c-0.8-0.1-1.5-0.3-2.2-0.5c-0.2,0-0.4-0.1-0.6-0.2
			c-0.5-0.1-1-0.3-1.5-0.4C35,82,34.7,82,34.5,81.9c-0.4-0.1-0.9-0.3-1.3-0.4c-0.2-0.1-0.4-0.2-0.7-0.2c-0.5-0.2-0.9-0.4-1.4-0.5
			c-0.2-0.1-0.3-0.1-0.5-0.2c-0.6-0.3-1.1-0.5-1.6-0.8c-0.1-0.1-0.2-0.1-0.3-0.2c-0.4-0.2-0.8-0.4-1.1-0.7c-0.2-0.1-0.3-0.2-0.5-0.3
			c-0.3-0.2-0.6-0.4-0.9-0.6c-0.1-0.1-0.3-0.2-0.4-0.3c-0.3-0.2-0.5-0.5-0.7-0.7c-0.1-0.1-0.2-0.2-0.3-0.3c-0.3-0.3-0.6-0.7-0.8-1
			V85c-0.3,6,11.9,11,26.3,11s26.6-5,26.6-10.9v-9.4c-0.2,0.3-0.5,0.7-0.8,1C76,76.8,75.8,76.9,75.7,77z"/>
		<path class="st4" d="M75.7,50.9c-0.2,0.2-0.5,0.5-0.7,0.7c-0.1,0.1-0.3,0.2-0.4,0.3c-0.3,0.2-0.6,0.4-0.8,0.6
			c-0.2,0.1-0.3,0.2-0.5,0.3c-0.4,0.2-0.7,0.4-1.1,0.7c-0.1,0.1-0.2,0.1-0.3,0.2c-0.5,0.3-1.1,0.5-1.6,0.8c-0.1,0.1-0.3,0.1-0.5,0.2
			c-0.4,0.2-0.9,0.4-1.3,0.5c-0.2,0.1-0.4,0.2-0.7,0.2c-0.4,0.1-0.9,0.3-1.3,0.4c-0.2,0.1-0.5,0.1-0.7,0.2c-0.5,0.1-1,0.3-1.5,0.4
			c-0.2,0.1-0.4,0.1-0.6,0.2c-0.7,0.2-1.5,0.3-2.2,0.5c-0.1,0-0.3,0-0.4,0.1c-0.6,0.1-1.3,0.2-1.9,0.3c-0.3,0-0.5,0.1-0.8,0.1
			c-0.5,0.1-1.1,0.1-1.7,0.2c-0.3,0-0.6,0.1-0.9,0.1c-0.6,0-1.2,0.1-1.8,0.1c-0.3,0-0.5,0-0.8,0c-0.9,0-1.8,0.1-2.7,0.1
			s-1.8,0-2.7-0.1c-0.3,0-0.5,0-0.8,0c-0.6,0-1.2-0.1-1.8-0.1c-0.3,0-0.6-0.1-0.9-0.1c-0.6-0.1-1.1-0.1-1.7-0.2
			c-0.3,0-0.5-0.1-0.8-0.1c-0.7-0.1-1.3-0.2-1.9-0.3c-0.1,0-0.3,0-0.4-0.1c-0.8-0.1-1.5-0.3-2.2-0.5c-0.2,0-0.4-0.1-0.6-0.2
			c-0.5-0.1-1-0.3-1.5-0.4c-0.2-0.1-0.5-0.1-0.7-0.2c-0.4-0.1-0.9-0.3-1.3-0.4c-0.2-0.1-0.4-0.2-0.7-0.2c-0.5-0.2-0.9-0.4-1.4-0.5
			c-0.2-0.1-0.3-0.1-0.5-0.2C30,54.2,29.5,54,29,53.7c-0.1-0.1-0.2-0.1-0.3-0.2c-0.4-0.2-0.8-0.4-1.1-0.7c-0.2-0.1-0.3-0.2-0.5-0.3
			c-0.3-0.2-0.6-0.4-0.9-0.6c-0.1-0.1-0.3-0.2-0.4-0.3c-0.3-0.2-0.5-0.5-0.7-0.7c-0.1-0.1-0.2-0.2-0.3-0.3c-0.3-0.3-0.6-0.7-0.8-1
			V59c0,5.9,12.2,10.9,26.6,10.9s26.6-5,26.6-10.9v-9.4c-0.2,0.3-0.5,0.7-0.8,1C76,50.7,75.8,50.8,75.7,50.9z"/>
		<path class="st4" d="M75.7,37.8c-0.2,0.2-0.5,0.5-0.7,0.7c-0.1,0.1-0.3,0.2-0.4,0.3c-0.3,0.2-0.6,0.4-0.8,0.6
			c-0.2,0.1-0.3,0.2-0.5,0.3c-0.4,0.2-0.7,0.4-1.1,0.7c-0.1,0.1-0.2,0.1-0.3,0.2c-0.5,0.3-1.1,0.5-1.6,0.8c-0.1,0.1-0.3,0.1-0.5,0.2
			c-0.4,0.2-0.9,0.4-1.3,0.5c-0.2,0.1-0.4,0.2-0.7,0.2c-0.4,0.1-0.9,0.3-1.3,0.4c-0.2,0.1-0.5,0.1-0.7,0.2c-0.5,0.1-1,0.3-1.5,0.4
			c-0.2,0.1-0.4,0.1-0.6,0.2c-0.7,0.2-1.5,0.3-2.2,0.5c-0.1,0-0.3,0-0.4,0.1c-0.6,0.1-1.3,0.2-1.9,0.3c-0.3,0-0.5,0.1-0.8,0.1
			c-0.5,0.1-1.1,0.1-1.7,0.2c-0.3,0-0.6,0.1-0.9,0.1c-0.6,0-1.2,0.1-1.8,0.1c-0.3,0-0.5,0-0.8,0c-0.9,0-1.8,0.1-2.7,0.1
			s-1.8,0-2.7-0.1c-0.3,0-0.5,0-0.8,0c-0.6,0-1.2-0.1-1.8-0.1c-0.3,0-0.6-0.1-0.9-0.1c-0.6-0.1-1.1-0.1-1.7-0.2
			c-0.3,0-0.5-0.1-0.8-0.1c-0.7-0.1-1.3-0.2-1.9-0.3c-0.1,0-0.3,0-0.4-0.1c-0.8-0.1-1.5-0.3-2.2-0.5c-0.2,0-0.4-0.1-0.6-0.2
			c-0.5-0.1-1-0.3-1.5-0.4c-0.2-0.1-0.5-0.1-0.7-0.2c-0.4-0.1-0.9-0.3-1.3-0.4c-0.2-0.1-0.4-0.2-0.7-0.2c-0.5-0.2-0.9-0.4-1.4-0.5
			c-0.2-0.1-0.3-0.1-0.5-0.2c-0.6-0.3-1.1-0.5-1.6-0.8c-0.1-0.1-0.2-0.1-0.3-0.2c-0.4-0.2-0.8-0.4-1.1-0.7c-0.2-0.1-0.3-0.2-0.5-0.3
			c-0.3-0.2-0.6-0.4-0.9-0.6c-0.1-0.1-0.3-0.2-0.4-0.3c-0.3-0.2-0.5-0.5-0.7-0.7c-0.1-0.1-0.2-0.2-0.3-0.3c-0.3-0.3-0.6-0.7-0.8-1
			v9.4c0,5.9,12.2,10.9,26.6,10.9s26.6-5,26.6-10.9v-9.4c-0.2,0.3-0.5,0.7-0.8,1C76,37.6,75.8,37.7,75.7,37.8z"/>
		<path class="st4" d="M50.3,21.9c-14.4,0-26.6,5-26.6,10.9c0,0.4,0,0.7,0.1,1.1c0.2,0.7,0.6,1.4,1.1,2.1c0.8,1,1.9,2,3.4,2.9
			c1,0.6,2.1,1.1,3.3,1.6c4.9,2,11.5,3.2,18.7,3.2s13.9-1.3,18.7-3.2c1.2-0.5,2.3-1,3.3-1.6c1.5-0.9,2.6-1.8,3.4-2.9
			c0.5-0.7,0.9-1.4,1.1-2.1c0.1-0.4,0.1-0.7,0.1-1.1C76.9,26.9,64.7,21.9,50.3,21.9z"/>
		<path class="st5" d="M50.3,20.6c-15.6,0-27.9,5.4-27.9,12.2v13.1V59v13v13c0,6.8,12.2,12.2,27.9,12.2c15.6,0,27.9-5.4,27.9-12.2
			V72V58.9v-13V32.8C78.1,26,65.9,20.6,50.3,20.6z M76.9,85c0,6-12.2,11-26.6,11s-26.6-5-26.6-11v-9.4c0.2,0.3,0.5,0.7,0.8,1
			c0.1,0.1,0.2,0.2,0.3,0.3c0.2,0.2,0.5,0.5,0.7,0.7c0.1,0.1,0.3,0.2,0.4,0.3c0.3,0.2,0.6,0.4,0.9,0.6c0.2,0.1,0.3,0.2,0.5,0.3
			c0.4,0.2,0.7,0.5,1.1,0.7c0.1,0.1,0.2,0.1,0.3,0.2c0.5,0.3,1.1,0.5,1.6,0.8c0.1,0.1,0.3,0.1,0.5,0.2c0.4,0.2,0.9,0.4,1.4,0.5
			c0.2,0.1,0.4,0.2,0.7,0.2c0.4,0.1,0.9,0.3,1.3,0.4c0.2,0.1,0.5,0.1,0.7,0.2c0.5,0.1,1,0.3,1.5,0.4c0.2,0,0.4,0.1,0.6,0.2
			c0.7,0.2,1.5,0.3,2.2,0.5c0.1,0,0.3,0,0.4,0.1c0.6,0.1,1.3,0.2,1.9,0.3c0.3,0,0.5,0.1,0.8,0.1c0.6,0.1,1.1,0.1,1.7,0.2
			c0.3,0,0.6,0.1,0.9,0.1c0.6,0,1.2,0.1,1.8,0.1c0.3,0,0.5,0,0.8,0c0.9,0,1.8,0.1,2.7,0.1s1.8,0,2.7-0.1c0.3,0,0.5,0,0.8,0
			c0.6,0,1.2-0.1,1.8-0.1c0.3,0,0.6-0.1,0.9-0.1c0.6-0.1,1.1-0.1,1.7-0.2c0.3,0,0.5-0.1,0.8-0.1c0.7-0.1,1.3-0.2,1.9-0.3
			c0.1,0,0.3,0,0.4-0.1c0.8-0.1,1.5-0.3,2.2-0.5c0.2,0,0.4-0.1,0.6-0.2c0.5-0.1,1-0.3,1.5-0.4c0.2-0.1,0.5-0.1,0.7-0.2
			c0.4-0.1,0.9-0.3,1.3-0.4c0.2-0.1,0.5-0.2,0.7-0.2c0.5-0.2,0.9-0.3,1.3-0.5c0.2-0.1,0.3-0.1,0.5-0.2c0.6-0.3,1.1-0.5,1.6-0.8
			c0.1-0.1,0.2-0.1,0.3-0.2c0.4-0.2,0.8-0.4,1.1-0.7c0.2-0.1,0.3-0.2,0.5-0.3c0.3-0.2,0.6-0.4,0.8-0.6c0.1-0.1,0.3-0.2,0.4-0.3
			c0.3-0.2,0.5-0.5,0.7-0.7c0.1-0.1,0.2-0.2,0.3-0.3c0.3-0.3,0.6-0.7,0.8-1V85H76.9z M76.9,72c0,5.9-12.2,10.9-26.6,10.9
			s-26.6-5-26.6-10.9v-9.4c0.2,0.3,0.5,0.7,0.8,1c0.1,0.1,0.2,0.2,0.3,0.3c0.2,0.2,0.5,0.5,0.8,0.7c0.1,0.1,0.3,0.2,0.4,0.3
			c0.3,0.2,0.6,0.4,0.9,0.6c0.1,0.1,0.3,0.2,0.4,0.3c0.4,0.2,0.8,0.5,1.2,0.7c0.1,0.1,0.2,0.1,0.3,0.2c0.5,0.3,1.1,0.5,1.6,0.8
			c0.1,0.1,0.3,0.1,0.4,0.2c0.4,0.2,0.9,0.4,1.4,0.5c0.2,0.1,0.4,0.2,0.7,0.2c0.4,0.2,0.9,0.3,1.3,0.4c0.2,0.1,0.5,0.1,0.7,0.2
			c0.5,0.1,1,0.3,1.6,0.4c0.2,0,0.4,0.1,0.6,0.1c0.7,0.2,1.5,0.3,2.3,0.5c0.1,0,0.2,0,0.3,0.1c0.7,0.1,1.3,0.2,2,0.3
			c0.3,0,0.5,0.1,0.8,0.1c0.6,0.1,1.2,0.1,1.7,0.2c0.3,0,0.6,0.1,0.8,0.1c0.6,0.1,1.3,0.1,1.9,0.1c0.2,0,0.5,0,0.7,0
			c0.9,0,1.8,0.1,2.7,0.1s1.8,0,2.7-0.1c0.2,0,0.5,0,0.7,0c0.7,0,1.3-0.1,1.9-0.1c0.3,0,0.5,0,0.8-0.1c0.6-0.1,1.2-0.1,1.8-0.2
			c0.2,0,0.5-0.1,0.7-0.1c0.7-0.1,1.4-0.2,2.1-0.3c0.1,0,0.2,0,0.2,0c0.8-0.1,1.5-0.3,2.3-0.5c0.2,0,0.3-0.1,0.5-0.1
			c0.6-0.1,1.1-0.3,1.7-0.4c0.2-0.1,0.4-0.1,0.6-0.2c0.5-0.1,0.9-0.3,1.4-0.5c0.2-0.1,0.4-0.1,0.6-0.2c0.5-0.2,1-0.4,1.4-0.6
			c0.1-0.1,0.2-0.1,0.4-0.2c0.6-0.3,1.1-0.5,1.7-0.8c0.1,0,0.2-0.1,0.3-0.2c0.4-0.2,0.8-0.5,1.2-0.7c0.1-0.1,0.3-0.2,0.4-0.3
			c0.3-0.2,0.6-0.4,0.9-0.6c0.1-0.1,0.3-0.2,0.4-0.3c0.3-0.2,0.5-0.5,0.8-0.7c0.1-0.1,0.2-0.2,0.3-0.3c0.3-0.3,0.6-0.7,0.8-1
			C76.9,62.5,76.9,72,76.9,72z M76.9,58.9c0,5.9-12.2,10.9-26.6,10.9s-26.6-5-26.6-10.9v-9.4c0.2,0.3,0.5,0.7,0.8,1
			c0.1,0.1,0.2,0.2,0.3,0.3c0.2,0.2,0.5,0.5,0.7,0.7c0.1,0.1,0.3,0.2,0.4,0.3c0.3,0.2,0.6,0.4,0.9,0.6c0.2,0.1,0.3,0.2,0.5,0.3
			c0.4,0.2,0.7,0.5,1.1,0.7c0.1,0.1,0.2,0.1,0.3,0.2c0.5,0.3,1.1,0.5,1.6,0.8c0.1,0.1,0.3,0.1,0.5,0.2c0.4,0.2,0.9,0.4,1.4,0.5
			c0.2,0.1,0.4,0.2,0.7,0.2c0.4,0.1,0.9,0.3,1.3,0.4c0.2,0.1,0.5,0.1,0.7,0.2c0.5,0.1,1,0.3,1.5,0.4c0.2,0,0.4,0.1,0.6,0.2
			c0.7,0.2,1.5,0.3,2.2,0.5c0.1,0,0.3,0,0.4,0.1c0.6,0.1,1.3,0.2,1.9,0.3c0.3,0,0.5,0.1,0.8,0.1c0.6,0.1,1.1,0.1,1.7,0.2
			c0.3,0,0.6,0.1,0.9,0.1c0.6,0,1.2,0.1,1.8,0.1c0.3,0,0.5,0,0.8,0c0.9,0,1.8,0.1,2.7,0.1s1.8,0,2.7-0.1c0.3,0,0.5,0,0.8,0
			c0.6,0,1.2-0.1,1.8-0.1c0.3,0,0.6-0.1,0.9-0.1c0.6-0.1,1.1-0.1,1.7-0.2c0.3,0,0.5-0.1,0.8-0.1c0.7-0.1,1.3-0.2,1.9-0.3
			c0.1,0,0.3,0,0.4-0.1c0.8-0.1,1.5-0.3,2.2-0.5c0.2,0,0.4-0.1,0.6-0.2c0.5-0.1,1-0.3,1.5-0.4c0.2-0.1,0.5-0.1,0.7-0.2
			c0.4-0.1,0.9-0.3,1.3-0.4c0.2-0.1,0.5-0.2,0.7-0.2c0.5-0.2,0.9-0.3,1.3-0.5c0.2-0.1,0.3-0.1,0.5-0.2c0.6-0.3,1.1-0.5,1.6-0.8
			c0.1-0.1,0.2-0.1,0.3-0.2c0.4-0.2,0.8-0.4,1.1-0.7c0.2-0.1,0.3-0.2,0.5-0.3c0.3-0.2,0.6-0.4,0.8-0.6c0.1-0.1,0.3-0.2,0.4-0.3
			c0.3-0.2,0.5-0.5,0.7-0.7c0.1-0.1,0.2-0.2,0.3-0.3c0.3-0.3,0.6-0.7,0.8-1v9.4H76.9z M76.9,45.9c0,5.9-12.2,10.9-26.6,10.9
			s-26.6-5-26.6-10.9v-9.4c0.2,0.3,0.5,0.7,0.8,1c0.1,0.1,0.2,0.2,0.3,0.3c0.2,0.2,0.5,0.5,0.7,0.7c0.1,0.1,0.3,0.2,0.4,0.3
			c0.3,0.2,0.6,0.4,0.9,0.6c0.2,0.1,0.3,0.2,0.5,0.3c0.4,0.2,0.7,0.5,1.1,0.7c0.1,0.1,0.2,0.1,0.3,0.2c0.5,0.3,1.1,0.5,1.6,0.8
			c0.1,0.1,0.3,0.1,0.5,0.2c0.4,0.2,0.9,0.4,1.4,0.5c0.2,0.1,0.4,0.2,0.7,0.2c0.4,0.1,0.9,0.3,1.3,0.4c0.2,0.1,0.5,0.1,0.7,0.2
			c0.5,0.1,1,0.3,1.5,0.4c0.2,0,0.4,0.1,0.6,0.2c0.7,0.2,1.5,0.3,2.2,0.5c0.1,0,0.3,0,0.4,0.1c0.6,0.1,1.3,0.2,1.9,0.3
			c0.3,0,0.5,0.1,0.8,0.1c0.6,0.1,1.1,0.1,1.7,0.2c0.3,0,0.6,0.1,0.9,0.1c0.6,0,1.2,0.1,1.8,0.1c0.3,0,0.5,0,0.8,0
			c0.9,0,1.8,0.1,2.7,0.1s1.8,0,2.7-0.1c0.3,0,0.5,0,0.8,0c0.6,0,1.2-0.1,1.8-0.1c0.3,0,0.6-0.1,0.9-0.1c0.6-0.1,1.1-0.1,1.7-0.2
			c0.3,0,0.5-0.1,0.8-0.1c0.7-0.1,1.3-0.2,1.9-0.3c0.1,0,0.3,0,0.4-0.1c0.8-0.1,1.5-0.3,2.2-0.5c0.2,0,0.4-0.1,0.6-0.2
			c0.5-0.1,1-0.3,1.5-0.4c0.2-0.1,0.5-0.1,0.7-0.2c0.4-0.1,0.9-0.3,1.3-0.4c0.2-0.1,0.5-0.2,0.7-0.2c0.5-0.2,0.9-0.3,1.3-0.5
			c0.2-0.1,0.3-0.1,0.5-0.2c0.6-0.3,1.1-0.5,1.6-0.8c0.1-0.1,0.2-0.1,0.3-0.2c0.4-0.2,0.8-0.4,1.1-0.7c0.2-0.1,0.3-0.2,0.5-0.3
			c0.3-0.2,0.6-0.4,0.8-0.6c0.1-0.1,0.3-0.2,0.4-0.3c0.3-0.2,0.5-0.5,0.7-0.7c0.1-0.1,0.2-0.2,0.3-0.3c0.3-0.3,0.6-0.7,0.8-1v9.4
			H76.9z M76.8,33.9c-0.2,0.7-0.6,1.4-1.1,2.1c-0.8,1-1.9,2-3.4,2.9c-1,0.6-2.1,1.1-3.3,1.6c-4.8,2-11.5,3.2-18.7,3.2
			s-13.9-1.3-18.7-3.2c-1.2-0.5-2.3-1-3.3-1.6C26.8,38,25.7,37,24.9,36c-0.5-0.7-0.9-1.4-1.1-2.1c-0.1-0.4-0.1-0.7-0.1-1.1
			c0-5.9,12.2-10.9,26.6-10.9s26.6,5,26.6,10.9C76.9,33.2,76.8,33.5,76.8,33.9z"/>
	</g>
</g>
</svg>
