<?xml version="1.0" encoding="utf-8"?>
<!-- Generator: Adobe Illustrator 21.0.0, SVG Export Plug-In . SVG Version: 6.00 Build 0)  -->
<svg version="1.1" id="Layer_1" xmlns="http://www.w3.org/2000/svg" xmlns:xlink="http://www.w3.org/1999/xlink" x="0px" y="0px"
	 viewBox="0 0 225 65" style="enable-background:new 0 0 225 65;" xml:space="preserve">
<title>VCC logo</title>
<desc>Created with Sketch.</desc>
<g id="Page-1">
	<g id="article-page_desktop_v2" transform="translate(-609.000000, -30.000000)">
		<g id="VCC-logo" transform="translate(609.000000, 30.000000)">
			<g id="newscorp" transform="translate(24.252632, 0.000000)">
				<path id="Fill-3" d="M4.4-30.2c3-5.4,6-10.8,8.9-16.2c0.5-1,0.7-2.1,1-3.1c0.1-0.3,0.3-0.6,0.5-0.7c1.8-0.7,3.4,0.5,3.5,2.4
					c0.3,3.9,0.2,7.9,1.2,11.7c0.2,0.5,0.3,1,0.5,1.5c0,0.1,0.1,0.2,0.2,0.3c0.9-1.8,1.7-3.6,2.6-5.3c2.5-4.5,5.1-9.1,7.6-13.6
					c0.7-1.1,1.5-2.2,2.9-2.7h0.4c0.2,0.1,0.4,0.2,0.6,0.3c1,0.4,1.3,1.2,0.9,2.2c-0.3,0.6-0.6,1-1,1.5c-3.5,4-6.1,8.6-8.6,13.4
					c-1.4,2.8-2.7,5.6-4,8.5c-0.7,1.1-2.1,1.6-3.3,0.7c-0.2-0.2-0.4-0.5-0.5-0.8c-0.5-2.3-1-4.5-1.2-6.8c-0.4-2.4-0.6-4.8-0.9-7.3
					c-0.1,0.2-0.3,0.5-0.5,0.8c-1.8,3.4-3.6,7-5.3,10.4c-0.5,1-0.7,2.1-1,3.1c-0.2,0.8-0.8,1.2-1.5,1.3c-1,0.2-1.9,0-2.8-0.7
					L4.4-30.2L4.4-30.2z"/>
				<path id="Fill-5" d="M145.3-33.2c-2.6,1.1-5.1,2.4-7.6,3.4c-1.1,0.5-2.4,0.7-3.5,0.8c-1.9,0.1-3-1.2-2.4-3.1
					c0.2-0.8,0.6-1.4,0.9-2.1c-1.5-0.6-3-1-4.7-1.7c-2.4,3.1-5.6,4.2-9.5,3c-0.7,0.8-1.1,1.6-1.9,2.2c-0.9,0.7-1.8,1.3-2.8,1.6
					c-2.2,0.8-3.3,0-3.8-2.5c-0.9,0.4-1.6,0.8-2.5,1.1c-2.6,1-5.1,2.1-8,1.9c-2.4-0.2-4.1-1.9-4.2-4.3c0-1.4,0.2-3,0.7-4.3
					c1.6-4.6,4.1-8.7,7.6-12.1c1.3-1.2,2.8-2.4,4.7-2.4c1.9-0.1,3.3,1.1,3.7,3c0.6,2.8-0.5,5.2-1.9,7.4c-0.3,0.5-0.7,1-1,1.2
					c-0.8,0.6-1.7,0.5-2.3-0.3c-0.7-0.9-0.5-1.8,0.1-2.5c0.9-1,1.5-2.2,2.2-3.3c0.4-0.7,0.2-1.5-0.5-2s-1.3-0.1-1.9,0.3
					c-0.6,0.4-1,0.9-1.5,1.3c-2.8,3.2-5.1,6.7-6.2,10.8c-0.2,0.8-0.3,1.6-0.2,2.4c0.1,1.1,0.7,1.7,1.8,1.6c1.4-0.1,2.9-0.4,4.2-0.8
					c1.5-0.5,3.1-1.1,4.6-1.9c1-0.5,1.7-1.2,2.5-2c1.4-1.5,3.1-2,5.1-1.5c0.6,0.1,1.2,0.8,1.5,1.3c0.4,0.7,0.9,1,1.5,1.1
					c1.7,0.3,3.3,0.1,4.7-1c0.9-0.8,1.4-1.7,1.2-2.9c-0.1-0.6,0.2-0.8,0.7-0.9c1.1-0.3,1.8,0,2.6,1c1.2,1.8,3,2.6,5.1,2.1
					c0.4-0.1,0.7-0.1,1-0.2c0.7,0,1.2,0.1,1.6,0.8c0.4,0.7,0.3,1.3-0.1,1.9c-0.4,0.5-0.8,1-1,1.4c-0.3,0.4-0.5,0.9-0.8,1.4
					c0.7-0.1,1.1,0,1.5-0.2c4.1-1.2,7.6-3.3,10.9-6.1c0.4-0.3,0.5-1,0.6-1.4c0.1-0.7,0.4-1,1-1c0.2,0,0.3,0,0.5,0
					c1.9,0,2.7,1.1,1.9,3c0,0.1-0.1,0.2-0.2,0.4c0.9-0.3,1.6-0.6,2.5-0.8c0.9-0.1,1.8-0.2,2.6,0c1.4,0.4,2,1.6,1.3,2.9
					c-0.6,1-1.3,1.7-2.1,2.6c-0.1,0.2-0.3,0.3-0.6,0.6c4.6-1,8.6-2.9,11.9-5.9c0.8-0.7,1.2-1,2.1-0.6c1.5,0.8,1.7,2.2,0.2,3.1
					c-5.1,3.1-10.5,5.4-16.4,6.2c-0.6,0.1-1.2,0-1.8-0.1c-0.6-0.1-1.1-0.4-1.2-1s0.2-1.1,0.8-1.5c1-0.7,1.9-1.4,2.8-2.2
					c0.4-0.3,0.6-0.8,1-1.2c-1.6,0-2.9,0.4-3.8,1.3c-1.1,1.1-2.3,2.4-3,3.8c-2.4,4.2-4.1,8.8-5.2,13.6c-0.4,1.3-1.2,2.1-2.5,2
					c-1-0.1-1.5-0.6-1.3-1.5c0.2-1.1,0.6-2.2,1-3.2C141-24,143.1-28.6,145.3-33.2C145.3-33.1,145.3-33.2,145.3-33.2 M115.4-34.8
					c-1,0.7-1.8,1.2-2.7,1.9c-0.2,0.1-0.2,0.5-0.1,0.8c0,0.1,0.3,0.2,0.5,0.2C113.9-32,115.5-33.6,115.4-34.8"/>
				<path id="Fill-7" d="M48.9-33.3c-1.3,0.8-2.8,1.6-4.2,2.3c-2.6,1.2-5.1,2.2-8.1,2c-0.9-0.1-1.6-0.2-2.5-0.4
					c-2.1-0.6-3.4-1.9-3.7-4.1c-0.8-0.1-1.6-0.1-2.4-0.4c-1.4-0.4-1.9-1.8-1.1-3c0.4-0.5,0.7-0.9,1.4-0.4c0.6,0.3,1.4,0.2,2.1,0.2
					c0.2,0,0.4-0.4,0.6-0.7c1.2-2.8,3-5,6.1-5.7c1.1-0.3,2.4-0.4,3.5-0.3c1.8,0.2,2.6,1.9,1.7,3.5c-0.5,0.9-1.1,1.7-1.9,2.2
					c-2,1.2-4.1,2.4-6.2,3.4c-0.7,0.4-0.8,0.7-0.5,1.2c0.7,1.1,1.7,1.5,3,1.6c1.7,0.2,3.4-0.2,5-1c1.9-1,3.7-2.2,5.4-3.4
					c0.6-0.4,0.8-1.1,1.1-1.8c0.1-0.2,0.3-0.3,0.4-0.4c1.4-0.6,2.8,0.3,3,1.8c0.1,1,0.1,1.8,0.4,2.7c0.3,1,0.9,1.2,1.5,0.4
					c1.1-1.3,2.2-2.8,3.2-4.2c0.5-0.7,1-1,1.7-0.9c0.8,0.2,1,0.8,1.1,1.5c0.1,1.2,0.1,2.4,0.4,3.6c0.2,1,0.6,1,1.2,0.4
					c1-1,2-2.2,3-3.4c1.5-1.8,1.7-1.9,4-1.3c1.4,0.4,2.8,0.3,4.1-0.5c0.3-0.2,0.5-0.3,0.8-0.4c1.1-0.3,2.2,0.3,2.5,1.1
					c0.2,0.9-0.4,1.6-1.5,2c-1.8,0.7-3.7,1-5.6,0.5c-0.8-0.2-1.3,0.1-1.8,0.6c-0.8,0.9-1.5,1.8-2.4,2.7c-0.8,0.8-1.5,1.4-2.4,2
					c-1.7,1.1-3.2,0.7-4.2-1.1c-0.3-0.6-0.5-1.1-0.8-1.7c-0.6,0.6-1,1.2-1.7,1.7c-0.7,0.6-1.4,1.1-2.2,1.4c-1.2,0.6-2.3,0.3-3-1
					C49.6-31.1,49.2-32.2,48.9-33.3 M34.3-37.8c1.9-0.3,4.4-1.9,4.9-3C37.8-41.3,35-39.6,34.3-37.8"/>
				<path id="Fill-9" d="M80.5-32.2c-0.9-1-1.7-1.9-2.3-2.9c-0.6-0.9-1.1-1.7-1.5-2.7c-0.8-2,0-3.9,1.8-5c1.9-1.1,3.9-1.3,6-1
					c1.2,0.2,1.9,1,1.7,2c-0.3,1-1.2,1.6-2.5,1.3c-0.8-0.2-1.6-0.3-2.5-0.3c-1.4,0-2.2,1-1.6,2.3c0.4,1,1,2,1.7,3
					c0.7,1,1.5,1.7,2.3,2.6c0.8,0.9,0.9,1.7,0.4,2.5c-0.6,0.9-1.3,1.2-2.4,1.1c-2.6-0.3-5.2-0.6-7.8-0.9c-0.3,0-0.6-0.1-0.9-0.2
					c-0.8-0.2-1.1-0.7-0.9-1.4c0.2-0.6,0.6-1,1-1.5c0.4-0.5,0.9-0.5,1.5-0.2C76.3-32.2,78.3-32.2,80.5-32.2"/>
			</g>
			<g id="vccircle" transform="translate(0.000000, 57.936842)">
				<path id="Fill-11" d="M28.1-57.1L20.8,7h-8.2l-7.2-64h7.4l3.6,49.6V-7v0.6c-0.1,0.2-0.1,0.4,0,0.7c0.1,0.3,0.2,0.4,0.3,0.4
					s0.2-0.1,0.3-0.4c0.1-0.3,0.1-0.5,0-0.7c-0.1-0.1-0.1-0.1,0-0.2c0-0.1,0-0.2,0-0.3v-0.4L20.6-57L28.1-57.1L28.1-57.1z"/>
				<path id="Fill-13" d="M50.1,1.2c0.5-0.1,0.9-0.4,1.1-0.7c0.5-0.5,0.8-0.9,1-1.2c0.2-0.4,0.3-1,0.3-2.1l0.1-3.2h6.6v3
					C59-2.7,59-2.2,59-1.8C59-1.4,59-1,59-0.6s-0.1,0.9-0.2,1.2c-0.2,0.8-0.5,1.6-1,2.4c-0.5,0.8-0.9,1.4-1.3,1.8
					c-0.4,0.4-1.1,1-2.2,1.6c-1,0.7-2.5,1-4.2,1h-5.6c-1.8,0-3.1-0.4-4.2-1c-1-0.7-1.8-1.2-2.2-1.6c-0.4-0.4-0.9-1-1.3-1.8
					c-0.5-0.8-0.8-1.6-1-2.4c-0.1-0.4-0.2-0.8-0.3-1.2s-0.1-0.9-0.1-1.2c-0.1-0.4-0.1-0.9,0-1.3V-47c-0.1-0.5-0.1-1,0-1.3
					c0-0.4,0-0.8,0.1-1.1c0.1-0.4,0.2-0.9,0.3-1.2c0.2-0.8,0.5-1.6,1-2.4s0.9-1.4,1.3-1.8c0.4-0.4,1.1-1,2.2-1.6c1-0.7,2.5-1,4.2-1
					h5.3c1.8,0,3.1,0.4,4.2,1c1,0.7,1.8,1.2,2.2,1.6s0.9,1,1.3,1.8s0.8,1.6,1,2.4c0.1,0.4,0.2,0.9,0.2,1.2s0,0.9,0.1,1.1
					c0,0.4,0,0.9,0.1,1.3v2.8h-6.6v-7.2h-6.4c-0.5,0.1-1,0.2-1.4,0.3c-0.5,0.1-0.8,0.3-1,0.6c-0.5,0.5-0.8,0.9-1,1.2
					c-0.2,0.4-0.3,1-0.3,2.1l-0.1,4.6v35.5l0.1,4.6c0.1,1,0.2,1.7,0.3,2.1c0.2,0.4,0.5,0.8,1,1.2c0.3,0.3,0.8,0.5,1.3,0.7
					c0.6,0.1,1.1,0.2,1.6,0.2h2.4C49.2,1.4,49.6,1.4,50.1,1.2"/>
				<path id="Fill-15" d="M79.9,1.2c0.5-0.1,0.9-0.4,1.1-0.7c0.5-0.5,0.8-0.9,1-1.2c0.2-0.4,0.3-1,0.3-2.1l0.1-3.2H89v3
					c-0.1,0.5-0.1,1-0.1,1.3c0,0.5,0,0.9,0,1.3s-0.1,0.9-0.2,1.2c-0.2,0.8-0.5,1.6-1,2.4c-0.5,0.8-0.9,1.4-1.3,1.8
					c-0.4,0.4-1.1,1-2.2,1.6c-1,0.7-2.5,1-4.2,1h-5.6c-1.8,0-3.1-0.4-4.2-1c-1-0.7-1.8-1.2-2.2-1.6c-0.4-0.4-0.9-1-1.3-1.8
					c-0.5-0.8-0.8-1.6-1-2.4c-0.1-0.4-0.2-0.8-0.3-1.2c-0.1-0.5-0.1-0.9-0.1-1.2c-0.1-0.4-0.1-0.9,0-1.3v-43.9c-0.1-0.5-0.1-1,0-1.3
					c0-0.4,0-0.8,0.1-1.1c0.1-0.4,0.2-0.9,0.3-1.2c0.2-0.8,0.5-1.6,1-2.4s0.9-1.4,1.3-1.8c0.4-0.4,1.1-1,2.2-1.6c1-0.7,2.5-1,4.2-1
					h5.3c1.8,0,3.1,0.4,4.2,1c1,0.7,1.8,1.2,2.2,1.6s0.9,1,1.3,1.8s0.8,1.6,1,2.4c0.1,0.4,0.2,0.9,0.2,1.2s0,0.9,0.1,1.1
					c0,0.4,0,0.9,0.1,1.3v2.7h-6.6v-7.2h-6.4c-0.5,0.1-1,0.2-1.4,0.3c-0.5,0.1-0.8,0.3-1,0.6c-0.5,0.5-0.8,0.9-1,1.2
					c-0.2,0.4-0.3,1-0.3,2.1L72-42.6v35.5l0.1,4.6c0.1,1,0.2,1.7,0.3,2.1c0.2,0.4,0.5,0.8,1,1.2c0.3,0.3,0.8,0.5,1.3,0.7
					c0.6,0.1,1.1,0.2,1.6,0.2h2.4C79.1,1.4,79.5,1.4,79.9,1.2"/>
				<path id="Fill-17" d="M155.7,1.2c0.5-0.1,0.9-0.4,1.1-0.7c0.5-0.5,0.8-0.9,1-1.2c0.2-0.4,0.3-1,0.3-2.1l0.1-3.2h6.6v3
					c-0.1,0.5-0.1,1-0.1,1.3c-0.1,0.4-0.1,0.8-0.1,1.2s-0.1,0.9-0.2,1.2c-0.2,0.8-0.5,1.6-1,2.4c-0.5,0.8-0.9,1.4-1.3,1.8
					c-0.4,0.4-1.1,1-2.2,1.6c-1,0.7-2.5,1-4.2,1H150c-1.8,0-3.1-0.4-4.2-1c-1-0.7-1.8-1.2-2.2-1.6c-0.4-0.4-0.9-1-1.3-1.8
					c-0.5-0.8-0.8-1.6-1-2.4c-0.1-0.4-0.2-0.8-0.3-1.2S141-1.4,141-1.8c-0.1-0.4-0.1-0.9,0-1.3V-47c-0.1-0.5-0.1-1,0-1.3
					c0-0.4,0-0.8,0.1-1.1c0.1-0.4,0.2-0.9,0.3-1.2c0.2-0.8,0.5-1.6,1-2.4s0.9-1.4,1.3-1.8c0.4-0.4,1.1-1,2.2-1.6c1-0.7,2.5-1,4.2-1
					h5.3c1.8,0,3.1,0.4,4.2,1c1,0.7,1.8,1.2,2.2,1.6s0.9,1,1.3,1.8s0.8,1.6,1,2.4c0.1,0.4,0.1,0.8,0.1,1.2c0,0.4,0,0.9,0.1,1.1
					c0,0.4,0,0.9,0.1,1.3v2.8h-6.6v-7.2h-6.4c-0.5,0.1-1,0.2-1.4,0.3c-0.5,0.1-0.8,0.3-1,0.6c-0.5,0.5-0.8,0.9-1,1.2
					c-0.2,0.4-0.3,1-0.3,2.1l-0.1,4.6v35.5l0.1,4.6c0.1,1,0.2,1.7,0.3,2.1c0.2,0.4,0.5,0.8,1,1.2c0.3,0.3,0.8,0.5,1.3,0.7
					c0.6,0.1,1.1,0.2,1.6,0.2h2.4C154.7,1.4,155.2,1.4,155.7,1.2"/>
				<polygon id="Fill-19" points="170.2,-57.1 176.7,-57.1 176.7,0.7 190.9,0.7 190.9,7 170.2,7 				"/>
				<polygon id="Fill-21" points="196.5,-57.1 216.7,-57.1 216.7,-50.9 203,-50.9 203,-34.2 211.9,-34.2 211.9,-27.9 203,-27.9 
					203,0.8 217.5,0.8 217.5,7 196.5,7 				"/>
				<path id="Fill-23" d="M102.3-52.6c0,2.5-2,4.5-4.5,4.5c-2.5,0-4.5-2-4.5-4.5s2-4.5,4.5-4.5C100.3-57.1,102.3-55.1,102.3-52.6"/>
				<path id="Fill-25" d="M97.8-43.8c-1.2,0-2.4-0.4-3.3-1V7h6.6v-51.8C100.1-44.2,99.1-43.8,97.8-43.8"/>
				<path id="Fill-27" d="M124.5-34.3c0,5.1-5,4.9-5,4.9h-5v-21.4h6.1c3.7,0,3.7,3.4,3.7,3.4L124.5-34.3L124.5-34.3z M131.6,2.2
					v-21.6c0,0-0.6-7-7.1-7c0,0,6.6,0.6,6.6-4.9v-19.6c0,0,0.2-6.3-7.9-6.3s-15.2,0-15.2,0V7h6.6v-28.8h7.6c0,0,2.7-0.3,2.7,4.3v21
					c0,0,0,3.8,4.4,3.8h5.1V6.9C134.4,6.9,131.6,5.4,131.6,2.2L131.6,2.2z"/>
			</g>
		</g>
	</g>
</g>
</svg>
